<svg width="42" height="41" viewBox="0 0 42 41" fill="none" xmlns="http://www.w3.org/2000/svg">
<g clip-path="url(#clip0_690_61670)">
<path d="M24.4251 14.3886L22.9303 12.2042L21.0001 9.38086L19.0686 12.2042L6.41406 30.7143H16.4951L16.49 27.4499H12.5076L21.0001 15.0288L22.45 17.1486L24.4251 14.3886Z" fill="white"/>
<path d="M42 30.7139H31.7251L25.8883 22.1495L26.5715 21.6774L32.1604 29.881H40.4281L21.0006 1.46663L1.57444 29.881H3.42755L21.0006 4.18132L37.4796 28.2812H32.9207L27.2958 20.0543L27.3369 20.0129L27.7915 19.3145L33.3534 27.4496H35.9052L24.206 10.3389L22.2759 7.51423L21.0006 5.64796L19.7241 7.51423L17.794 10.3389L3.8629 30.7139H0L15.8638 7.51423L17.794 4.6896L19.0692 2.82333L21.0006 0L22.9308 2.82333L24.206 4.6896L26.1388 7.51423L42 30.7139Z" fill="white"/>
<path d="M42 30.7139H31.7251L25.8883 22.1495L27.2958 20.0543L27.7915 19.3145L33.3534 27.4496H35.9052L24.206 10.3389L22.2759 7.51423L21.0006 5.64796L19.7241 7.51423L17.794 10.3389L3.8629 30.7139H0L15.8638 7.51423L17.794 4.6896L19.0692 2.82333L21.0006 0L22.9308 2.82333L24.206 4.6896L26.1388 7.51423L42 30.7139Z" fill="white"/>
<path d="M23.3515 23.1214L26.9074 18.0218L25.4229 15.8516L20.7394 22.5484V18.8055L18.293 22.2975V30.7145H20.7394V26.8487L21.8798 25.2398L25.2315 30.7158H28.3265L23.3515 23.1214Z" fill="white"/>
<path d="M0.537216 37V32.5636H1.07443V34.7645H1.12642L3.11932 32.5636H3.82116L1.95824 34.5652L3.82116 37H3.17131L1.62898 34.9378L1.07443 35.5616V37H0.537216ZM5.41973 32.5636V37H4.88251V32.5636H5.41973ZM6.86287 37V32.5636H8.36187C8.70846 32.5636 8.99296 32.6228 9.21535 32.7413C9.43775 32.8582 9.60238 33.0193 9.70925 33.2243C9.81611 33.4294 9.86954 33.6626 9.86954 33.924C9.86954 34.1854 9.81611 34.4172 9.70925 34.6194C9.60238 34.8215 9.43847 34.9804 9.21752 35.0959C8.99657 35.21 8.71424 35.267 8.37054 35.267H7.15747V34.7818H8.35321C8.59005 34.7818 8.78067 34.7472 8.92508 34.6778C9.07094 34.6085 9.17636 34.5103 9.24135 34.3832C9.30778 34.2547 9.34099 34.1016 9.34099 33.924C9.34099 33.7464 9.30778 33.5911 9.24135 33.4583C9.17492 33.3254 9.06877 33.2229 8.92292 33.1507C8.77706 33.077 8.58427 33.0402 8.34454 33.0402H7.40008V37H6.86287ZM8.95108 35.0071L10.0428 37H9.41898L8.34454 35.0071H8.95108ZM14.8739 34.7818C14.8739 35.2497 14.7894 35.6541 14.6205 35.9949C14.4515 36.3357 14.2197 36.5985 13.9251 36.7834C13.6305 36.9682 13.294 37.0607 12.9157 37.0607C12.5373 37.0607 12.2008 36.9682 11.9062 36.7834C11.6116 36.5985 11.3798 36.3357 11.2109 35.9949C11.0419 35.6541 10.9574 35.2497 10.9574 34.7818C10.9574 34.3139 11.0419 33.9096 11.2109 33.5688C11.3798 33.2279 11.6116 32.9651 11.9062 32.7803C12.2008 32.5954 12.5373 32.503 12.9157 32.503C13.294 32.503 13.6305 32.5954 13.9251 32.7803C14.2197 32.9651 14.4515 33.2279 14.6205 33.5688C14.7894 33.9096 14.8739 34.3139 14.8739 34.7818ZM14.354 34.7818C14.354 34.3977 14.2898 34.0735 14.1612 33.8092C14.0341 33.5449 13.8616 33.3449 13.6435 33.2092C13.4269 33.0734 13.1843 33.0055 12.9157 33.0055C12.6471 33.0055 12.4037 33.0734 12.1857 33.2092C11.969 33.3449 11.7965 33.5449 11.6679 33.8092C11.5409 34.0735 11.4773 34.3977 11.4773 34.7818C11.4773 35.166 11.5409 35.4902 11.6679 35.7544C11.7965 36.0187 11.969 36.2187 12.1857 36.3545C12.4037 36.4902 12.6471 36.5581 12.9157 36.5581C13.1843 36.5581 13.4269 36.4902 13.6435 36.3545C13.8616 36.2187 14.0341 36.0187 14.1612 35.7544C14.2898 35.4902 14.354 35.166 14.354 34.7818ZM17.9822 33.0402V32.5636H21.3095V33.0402H19.9145V37H19.3772V33.0402H17.9822ZM22.5046 37V32.5636H24.0036C24.3502 32.5636 24.6347 32.6228 24.8571 32.7413C25.0795 32.8582 25.2441 33.0193 25.351 33.2243C25.4578 33.4294 25.5113 33.6626 25.5113 33.924C25.5113 34.1854 25.4578 34.4172 25.351 34.6194C25.2441 34.8215 25.0802 34.9804 24.8593 35.0959C24.6383 35.21 24.356 35.267 24.0123 35.267H22.7992V34.7818H23.9949C24.2318 34.7818 24.4224 34.7472 24.5668 34.6778C24.7127 34.6085 24.8181 34.5103 24.8831 34.3832C24.9495 34.2547 24.9827 34.1016 24.9827 33.924C24.9827 33.7464 24.9495 33.5911 24.8831 33.4583C24.8167 33.3254 24.7105 33.2229 24.5647 33.1507C24.4188 33.077 24.226 33.0402 23.9863 33.0402H23.0418V37H22.5046ZM24.5928 35.0071L25.6846 37H25.0607L23.9863 35.0071H24.5928ZM26.9544 37H26.3912L28.0202 32.5636H28.5747L30.2037 37H29.6405L28.3148 33.2655H28.2801L26.9544 37ZM27.1624 35.267H29.4325V35.7436H27.1624V35.267ZM31.0257 32.5636L32.3427 36.2982H32.3947L33.7118 32.5636H34.275L32.646 37H32.0915L30.4625 32.5636H31.0257ZM35.332 37V32.5636H38.0094V33.0402H35.8692V34.5392H37.8708V35.0158H35.8692V36.5234H38.0441V37H35.332ZM39.3437 37V32.5636H39.8809V36.5234H41.9431V37H39.3437Z" fill="white"/>
<path d="M2.8514 38.3496L2.86938 39.3739L2.69858 39.3675C2.64094 39.1304 2.53657 38.9074 2.39166 38.7117C2.3396 38.651 2.27482 38.6027 2.20198 38.5703C2.12914 38.5379 2.05005 38.5221 1.97044 38.5242C1.93448 38.5242 1.91136 38.5307 1.90238 38.5449C1.88876 38.5865 1.88395 38.6306 1.88825 38.6742V40.4849C1.88257 40.5524 1.90177 40.6196 1.94219 40.6737C1.96603 40.6957 1.99397 40.7128 2.02438 40.7239C2.0548 40.735 2.08709 40.7399 2.11941 40.7384L2.28635 40.7474V40.9337H0.850609V40.7474L1.01627 40.7384C1.04859 40.7399 1.08088 40.735 1.1113 40.7239C1.14171 40.7128 1.16964 40.6957 1.19349 40.6737C1.23354 40.619 1.25227 40.5513 1.24614 40.4836V38.6729C1.24994 38.6294 1.24558 38.5855 1.2333 38.5436C1.22432 38.5307 1.2012 38.5242 1.16524 38.5242C1.08581 38.5221 1.00692 38.5379 0.93429 38.5703C0.861657 38.6028 0.797102 38.6511 0.745303 38.7117C0.601075 38.9078 0.496768 39.1306 0.43838 39.3675L0.267578 39.3739L0.288126 38.3496H2.8514Z" fill="white"/>
<path d="M6.08075 40.3775C6.06966 40.4776 6.08656 40.5789 6.12954 40.6698C6.15371 40.6932 6.18232 40.7115 6.21365 40.7235C6.24499 40.7355 6.2784 40.741 6.3119 40.7397L6.41464 40.7487V40.9349H5.09961V40.7487L5.20748 40.7397C5.24019 40.741 5.27283 40.7357 5.30348 40.7242C5.33414 40.7126 5.3622 40.695 5.38599 40.6724C5.42838 40.5808 5.44483 40.4792 5.4335 40.3788V38.9044C5.44493 38.8036 5.42849 38.7016 5.38599 38.6095C5.362 38.5868 5.33373 38.5691 5.30285 38.5576C5.27197 38.546 5.23911 38.5408 5.2062 38.5423L5.09961 38.5332V38.3457H6.23999C6.71686 38.3457 7.05203 38.3936 7.24552 38.4893C7.33656 38.5301 7.41311 38.5979 7.46495 38.6836C7.5168 38.7693 7.5415 38.8689 7.53575 38.9691C7.53821 39.0525 7.51857 39.135 7.47884 39.2082C7.43912 39.2814 7.38074 39.3426 7.30973 39.3855C7.0948 39.503 6.85554 39.5681 6.61112 39.5757C6.77027 39.599 6.92263 39.6564 7.05803 39.7438C7.16808 39.823 7.25107 39.9346 7.2956 40.0632C7.3205 40.1331 7.3373 40.2055 7.34569 40.2792C7.35724 40.3659 7.36495 40.4189 7.37009 40.437C7.37946 40.4809 7.39783 40.5223 7.42403 40.5586C7.43364 40.5686 7.44525 40.5764 7.45809 40.5815C7.47093 40.5866 7.48471 40.589 7.49851 40.5883C7.52887 40.5865 7.55782 40.5748 7.58099 40.555C7.60416 40.5352 7.62028 40.5083 7.62693 40.4784C7.66075 40.3577 7.67591 40.2325 7.67188 40.1072H7.84139C7.84139 40.1227 7.84139 40.1383 7.84139 40.1564C7.84139 40.1745 7.84139 40.2003 7.84139 40.2365C7.85407 40.4356 7.80028 40.6332 7.68857 40.7979C7.63657 40.8617 7.57045 40.9123 7.49553 40.9458C7.4206 40.9792 7.33894 40.9946 7.25708 40.9906C7.1788 40.991 7.10133 40.9747 7.02977 40.9427C6.96249 40.9143 6.90302 40.8699 6.8564 40.8134C6.77079 40.7082 6.71215 40.4689 6.68047 40.0956V40.027C6.68075 39.9675 6.66828 39.9086 6.6439 39.8544C6.61952 39.8001 6.58381 39.7518 6.5392 39.7128C6.40624 39.6454 6.25725 39.6167 6.10899 39.63H6.0846L6.08075 40.3775ZM6.08075 38.9148V39.467H6.14752H6.2554C6.42298 39.4821 6.59102 39.4436 6.73569 39.3571C6.78634 39.3109 6.82551 39.2533 6.85004 39.1891C6.87458 39.1248 6.8838 39.0557 6.87695 38.9872C6.88014 38.9248 6.87036 38.8625 6.84824 38.8041C6.82613 38.7458 6.79217 38.6927 6.74853 38.6483C6.70122 38.6062 6.64613 38.5739 6.58641 38.5533C6.52669 38.5327 6.46352 38.5241 6.40051 38.5281C6.31031 38.5176 6.21935 38.5396 6.14367 38.5901C6.10086 38.6341 6.07989 38.7445 6.08075 38.9212V38.9148Z" fill="white"/>
<path d="M10.5841 40.0316L10.4647 40.329C10.4512 40.3617 10.4404 40.3954 10.4326 40.4299C10.4251 40.4617 10.4213 40.4942 10.421 40.5269C10.4185 40.5569 10.4229 40.5871 10.4338 40.6151C10.4447 40.6431 10.4618 40.6683 10.4839 40.6886C10.5407 40.728 10.6091 40.7468 10.6778 40.7416H10.7742V40.933H9.79688V40.7442C9.8859 40.7415 9.97086 40.7061 10.0357 40.6446C10.1215 40.5512 10.189 40.4424 10.2348 40.3239L11.1029 38.3477H11.5961L12.3987 40.4273C12.4286 40.5165 12.4792 40.5972 12.5464 40.6627C12.6092 40.7132 12.6869 40.7414 12.7672 40.7429V40.9343H11.4304V40.7455C11.5295 40.7477 11.6283 40.7342 11.7232 40.7054C11.7459 40.6971 11.7654 40.6817 11.7788 40.6615C11.7922 40.6412 11.7988 40.6172 11.7977 40.5929C11.7961 40.5695 11.7913 40.5464 11.7835 40.5243C11.7741 40.4933 11.7574 40.445 11.7335 40.3795L11.605 40.0342L10.5841 40.0316ZM10.6778 39.8233H11.5203L11.1209 38.7887L10.6778 39.8233Z" fill="white"/>
<path d="M17.0905 38.9924C17.104 38.866 17.077 38.7387 17.0135 38.6289C16.9734 38.5937 16.9268 38.5669 16.8762 38.5503C16.8257 38.5336 16.7724 38.5274 16.7194 38.5319V38.3457H17.6646V38.5319C17.6141 38.5277 17.5632 38.5343 17.5154 38.5512C17.4676 38.5682 17.4239 38.5951 17.3872 38.6302C17.3268 38.7402 17.3012 38.8661 17.314 38.9911V40.9311H17.0186L15.4031 39.0363V40.2844C15.3892 40.4107 15.4162 40.5382 15.4801 40.6478C15.5207 40.6831 15.5678 40.7098 15.6187 40.7265C15.6697 40.7431 15.7234 40.7494 15.7768 40.7448V40.9311H14.8111V40.7448C14.8637 40.7496 14.9167 40.7435 14.9668 40.7268C15.017 40.7101 15.0632 40.6833 15.1026 40.6478C15.1653 40.5378 15.1918 40.4106 15.1783 40.2844V38.766C15.1308 38.7013 15.072 38.6457 15.005 38.6018C14.9427 38.5639 14.8731 38.5401 14.8008 38.5319V38.3457H15.6291L17.0905 40.0839V38.9924Z" fill="white"/>
<path d="M20.2404 41.0019H20.0504L20.0195 39.9427H20.2045C20.2815 40.1877 20.4173 40.4098 20.6 40.5893C20.753 40.7305 20.9537 40.8078 21.1612 40.8053C21.2749 40.8104 21.3864 40.7721 21.4733 40.698C21.5125 40.6629 21.5435 40.6196 21.5641 40.5711C21.5848 40.5226 21.5945 40.4701 21.5927 40.4173C21.5946 40.327 21.5609 40.2395 21.4989 40.1742C21.4065 40.089 21.2976 40.0239 21.1792 39.9828L20.9698 39.9C20.7959 39.8357 20.6268 39.7588 20.4639 39.6698C20.3451 39.6052 20.2431 39.5135 20.1659 39.4021C20.1012 39.3003 20.0677 39.1815 20.0696 39.0606C20.067 38.9568 20.087 38.8536 20.1283 38.7584C20.1696 38.6632 20.2311 38.5783 20.3085 38.5097C20.4775 38.3619 20.6961 38.2846 20.9198 38.2937C21.0685 38.2956 21.216 38.3218 21.3564 38.3713C21.4402 38.4029 21.526 38.4288 21.6132 38.4489C21.6278 38.4489 21.6422 38.4458 21.6555 38.4398C21.6688 38.4338 21.6806 38.425 21.6903 38.414C21.719 38.3798 21.7416 38.3408 21.7571 38.2989H21.924L21.9343 39.1421H21.7673C21.7062 38.9544 21.5951 38.7871 21.4463 38.6584C21.3069 38.5497 21.1345 38.493 20.9583 38.498C20.8445 38.4921 20.732 38.5244 20.6385 38.5899C20.6005 38.6176 20.5698 38.6542 20.5489 38.6966C20.5281 38.7389 20.5179 38.7858 20.5191 38.833C20.5191 38.9839 20.7211 39.1352 21.1252 39.287H21.1394C21.3543 39.3663 21.5071 39.4284 21.5978 39.4732C21.6762 39.5101 21.7503 39.5557 21.8187 39.609C21.9051 39.6794 21.9756 39.7676 22.0255 39.8677C22.0706 39.9697 22.093 40.0806 22.091 40.1923C22.0962 40.3025 22.077 40.4124 22.0348 40.5142C21.9926 40.616 21.9284 40.707 21.847 40.7808C21.6599 40.9331 21.4233 41.0101 21.183 40.9967C21.0905 40.9966 20.9983 40.9858 20.9082 40.9644C20.8031 40.9383 20.7005 40.9032 20.6013 40.8596L20.5268 40.826C20.4832 40.8018 20.4359 40.7852 20.3868 40.7769C20.3687 40.7777 20.3511 40.7832 20.3358 40.793C20.3205 40.8027 20.308 40.8164 20.2995 40.8325C20.2681 40.8841 20.248 40.9419 20.2404 41.0019Z" fill="white"/>
<path d="M25.4291 40.3769C25.4177 40.4769 25.4356 40.578 25.4804 40.6679C25.5066 40.6918 25.5372 40.7103 25.5705 40.7223C25.6038 40.7343 25.6391 40.7395 25.6743 40.7377L25.7861 40.7468V40.933H24.4492V40.7468L24.5571 40.7377C24.5898 40.7391 24.6224 40.7338 24.6531 40.7223C24.6838 40.7107 24.7118 40.6931 24.7356 40.6705C24.778 40.5789 24.7944 40.4773 24.7831 40.3769V38.9038C24.7945 38.803 24.7781 38.7009 24.7356 38.6089C24.7116 38.5862 24.6833 38.5685 24.6525 38.557C24.6216 38.5454 24.5887 38.5402 24.5558 38.5417L24.4492 38.5352V38.3477H25.5896C26.0322 38.3477 26.3541 38.4046 26.5553 38.5184C26.6519 38.5699 26.7317 38.6482 26.7854 38.744C26.8392 38.8398 26.8645 38.9491 26.8584 39.059C26.8617 39.1668 26.836 39.2735 26.784 39.3677C26.732 39.462 26.6556 39.5403 26.563 39.5944C26.3018 39.7347 26.0071 39.7996 25.7116 39.782H25.5755L25.4291 39.7742V40.3769ZM25.4291 38.8391V39.5776H25.4766H25.5485C25.7191 39.5935 25.8899 39.5502 26.0326 39.4547C26.0836 39.4014 26.1225 39.3376 26.1469 39.2678C26.1713 39.1979 26.1805 39.1237 26.1739 39.0499C26.1848 38.91 26.142 38.7712 26.0545 38.6619C26.0066 38.6163 25.9497 38.5812 25.8876 38.5589C25.8255 38.5366 25.7594 38.5277 25.6936 38.5326C25.619 38.5237 25.5437 38.541 25.4804 38.5817C25.4354 38.6594 25.4173 38.75 25.4291 38.8391Z" fill="white"/>
<path d="M30.5272 38.2911C30.7155 38.2894 30.9028 38.3204 31.0806 38.3829C31.2454 38.4408 31.3969 38.5314 31.5263 38.6493C31.6623 38.7729 31.7701 38.9247 31.8422 39.0942C31.914 39.2689 31.951 39.4561 31.951 39.6452C31.951 39.8343 31.914 40.0215 31.8422 40.1961C31.7701 40.3658 31.6623 40.5176 31.5263 40.6411C31.3957 40.7596 31.2435 40.8514 31.0781 40.9114C30.9043 40.9742 30.7208 41.0057 30.5361 41.0045C30.3473 41.0061 30.1595 40.9746 29.9814 40.9114C29.8154 40.8525 29.663 40.7606 29.5332 40.6411C29.3993 40.5201 29.2936 40.3708 29.2237 40.2039C29.0843 39.846 29.0843 39.4483 29.2237 39.0904C29.2937 38.9228 29.3994 38.7727 29.5332 38.6506C29.6638 38.5334 29.8161 38.4433 29.9814 38.3855C30.1565 38.3226 30.3412 38.2907 30.5272 38.2911ZM30.5361 40.8182C30.6424 40.8221 30.7476 40.7964 30.8403 40.7439C30.933 40.6914 31.0095 40.6142 31.0614 40.5208C31.1797 40.2447 31.2407 39.9472 31.2407 39.6465C31.2407 39.3458 31.1797 39.0483 31.0614 38.7722C31.006 38.6815 30.9284 38.6067 30.8362 38.5547C30.7439 38.5028 30.6399 38.4755 30.5342 38.4755C30.4285 38.4755 30.3246 38.5028 30.2323 38.5547C30.14 38.6067 30.0625 38.6815 30.0071 38.7722C29.888 38.9688 29.8285 39.2606 29.8285 39.6478C29.8285 40.0349 29.888 40.3268 30.0071 40.5234C30.0597 40.6162 30.1366 40.6927 30.2295 40.7444C30.3223 40.7962 30.4275 40.8213 30.5336 40.8169L30.5361 40.8182Z" fill="white"/>
<path d="M35.2377 40.3769C35.2266 40.477 35.2435 40.5782 35.2865 40.6692C35.3106 40.6926 35.3392 40.7108 35.3706 40.7228C35.4019 40.7348 35.4353 40.7403 35.4688 40.739L35.5716 40.7481V40.9343H34.2578V40.7481L34.3657 40.739C34.3984 40.7404 34.431 40.7351 34.4617 40.7236C34.4923 40.712 34.5204 40.6944 34.5442 40.6718C34.5866 40.5802 34.603 40.4786 34.5917 40.3782V38.9038C34.6031 38.803 34.5867 38.7009 34.5442 38.6089C34.5202 38.5862 34.4919 38.5685 34.4611 38.557C34.4302 38.5454 34.3973 38.5402 34.3644 38.5417L34.2578 38.5352V38.3477H35.3982C35.8751 38.3477 36.2102 38.3955 36.4037 38.4912C36.4948 38.532 36.5713 38.5998 36.6232 38.6855C36.675 38.7712 36.6997 38.8708 36.694 38.971C36.6964 39.0544 36.6768 39.1369 36.637 39.2101C36.5973 39.2833 36.5389 39.3446 36.4679 39.3875C36.253 39.5049 36.0137 39.5701 35.7693 39.5776C35.9285 39.601 36.0808 39.6583 36.2162 39.7457C36.3263 39.825 36.4093 39.9366 36.4538 40.0652C36.4787 40.135 36.4955 40.2075 36.5039 40.2812C36.5154 40.3678 36.5232 40.4209 36.5283 40.439C36.5377 40.4828 36.556 40.5242 36.5822 40.5605C36.5918 40.5705 36.6035 40.5783 36.6163 40.5835C36.6291 40.5886 36.6429 40.5909 36.6567 40.5903C36.6871 40.5885 36.716 40.5768 36.7392 40.557C36.7624 40.5371 36.7785 40.5102 36.7851 40.4804C36.819 40.3597 36.8341 40.2345 36.8301 40.1092H36.9996C36.9996 40.1247 36.9996 40.1402 36.9996 40.1583C36.9996 40.1764 36.9996 40.2023 36.9996 40.2385C37.0123 40.4375 36.9585 40.6351 36.8468 40.7998C36.7942 40.8652 36.727 40.917 36.6506 40.9509C36.5742 40.9849 36.4909 41 36.4076 40.9951C36.3293 40.9955 36.2518 40.9792 36.1803 40.9472C36.113 40.9188 36.0535 40.8744 36.0069 40.8179C35.9213 40.7127 35.8626 40.4735 35.831 40.1001V40.0316C35.8313 39.972 35.8188 39.9131 35.7944 39.8589C35.77 39.8047 35.7343 39.7564 35.6897 39.7173C35.5567 39.6499 35.4077 39.6213 35.2595 39.6345H35.2351L35.2377 40.3769ZM35.2377 38.9141V39.4664H35.3044H35.4059C35.5735 39.4814 35.7415 39.443 35.8862 39.3564C35.9368 39.3102 35.976 39.2527 36.0005 39.1884C36.0251 39.1242 36.0343 39.055 36.0275 38.9866C36.0306 38.9242 36.0209 38.8618 35.9987 38.8035C35.9766 38.7451 35.9427 38.6921 35.899 38.6477C35.8517 38.6056 35.7966 38.5733 35.7369 38.5527C35.6772 38.532 35.614 38.5235 35.551 38.5274C35.4608 38.517 35.3698 38.539 35.2942 38.5895C35.2565 38.6335 35.2377 38.7438 35.2377 38.9206V38.9141Z" fill="white"/>
<path d="M41.7186 38.3496L41.7366 39.3739L41.5658 39.3675C41.5081 39.1304 41.4038 38.9074 41.2588 38.7117C41.2068 38.651 41.142 38.6027 41.0692 38.5703C40.9963 38.5379 40.9172 38.5221 40.8376 38.5242C40.8017 38.5242 40.7785 38.5307 40.7696 38.5449C40.7559 38.5865 40.7511 38.6306 40.7554 38.6742V40.4849C40.7498 40.5524 40.769 40.6196 40.8094 40.6737C40.8332 40.6957 40.8612 40.7128 40.8916 40.7239C40.922 40.735 40.9543 40.7399 40.9866 40.7384L41.1535 40.7474V40.9337H39.7178V40.7474L39.8835 40.7384C39.9158 40.7399 39.9481 40.735 39.9785 40.7239C40.0089 40.7128 40.0368 40.6957 40.0607 40.6737C40.1007 40.619 40.1195 40.5513 40.1133 40.4836V38.6729C40.1171 38.6294 40.1128 38.5855 40.1005 38.5436C40.0915 38.5307 40.0684 38.5242 40.0324 38.5242C39.953 38.5221 39.8741 38.5379 39.8015 38.5703C39.7288 38.6028 39.6643 38.6511 39.6125 38.7117C39.4683 38.9078 39.3639 39.1306 39.3056 39.3675L39.1348 39.3739L39.1553 38.3496H41.7186Z" fill="white"/>
</g>
<defs>
<clipPath id="clip0_690_61670">
<rect width="42" height="41" fill="white"/>
</clipPath>
</defs>
</svg>
