<svg width="24" height="24" viewBox="0 0 24 24" fill="none" xmlns="http://www.w3.org/2000/svg">
<path d="M9 10.25C7.75614 10.25 6.75 9.24386 6.75 8C6.75 6.75614 7.75614 5.75 9 5.75C10.2439 5.75 11.25 6.75614 11.25 8C11.25 9.24386 10.2439 10.25 9 10.25ZM9 6.25C8.03386 6.25 7.25 7.03386 7.25 8C7.25 8.96614 8.03386 9.75 9 9.75C9.96614 9.75 10.75 8.96614 10.75 8C10.75 7.03386 9.96614 6.25 9 6.25Z" fill="#64748B" stroke="#64748B"/>
<path d="M15 22.75H9C3.57 22.75 1.25 20.43 1.25 15V9C1.25 3.57 3.57 1.25 9 1.25H13C13.41 1.25 13.75 1.59 13.75 2C13.75 2.41 13.41 2.75 13 2.75H9C4.39 2.75 2.75 4.39 2.75 9V15C2.75 19.61 4.39 21.25 9 21.25H15C19.61 21.25 21.25 19.61 21.25 15V10C21.25 9.59 21.59 9.25 22 9.25C22.41 9.25 22.75 9.59 22.75 10V15C22.75 20.43 20.43 22.75 15 22.75Z" fill="#64748B"/>
<path d="M21.25 5.75H15.75C15.34 5.75 15 5.41 15 5C15 4.59 15.34 4.25 15.75 4.25H21.25C21.66 4.25 22 4.59 22 5C22 5.41 21.66 5.75 21.25 5.75Z" fill="#64748B"/>
<path d="M18.5 8.5C18.09 8.5 17.75 8.16 17.75 7.75V2.25C17.75 1.84 18.09 1.5 18.5 1.5C18.91 1.5 19.25 1.84 19.25 2.25V7.75C19.25 8.16 18.91 8.5 18.5 8.5Z" fill="#64748B"/>
<path d="M2.66932 19.7005C2.42932 19.7005 2.18932 19.5805 2.04932 19.3705C1.81932 19.0305 1.90932 18.5605 2.24932 18.3305L7.17932 15.0205C8.25932 14.3005 9.74932 14.3805 10.7293 15.2105L11.0593 15.5005C11.5593 15.9305 12.4093 15.9305 12.8993 15.5005L17.0593 11.9305C18.1293 11.0205 19.7893 11.0205 20.8593 11.9305L22.4893 13.3305C22.7993 13.6005 22.8393 14.0705 22.5693 14.3905C22.2993 14.7005 21.8293 14.7405 21.5093 14.4705L19.8793 13.0705C19.3793 12.6405 18.5293 12.6405 18.0393 13.0705L13.8793 16.6405C12.8193 17.5505 11.1493 17.5505 10.0793 16.6405L9.74932 16.3505C9.28932 15.9605 8.52932 15.9205 8.01932 16.2705L3.09932 19.5805C2.95932 19.6605 2.80932 19.7005 2.66932 19.7005Z" fill="#64748B"/>
</svg>
