<svg width="25" height="25" viewBox="0 0 25 25" fill="none" xmlns="http://www.w3.org/2000/svg">
<path d="M17.0842 4.06V2.5C17.0842 2.09 16.7442 1.75 16.3342 1.75C15.9242 1.75 15.5842 2.09 15.5842 2.5V4H9.08421V2.5C9.08421 2.09 8.74421 1.75 8.33421 1.75C7.92421 1.75 7.58421 2.09 7.58421 2.5V4.06C4.88421 4.31 3.57421 5.92 3.37421 8.31C3.35421 8.6 3.59421 8.84 3.87421 8.84H20.7942C21.0842 8.84 21.3242 8.59 21.2942 8.31C21.0942 5.92 19.7842 4.31 17.0842 4.06Z" fill="#4E918F"/>
<path d="M20.334 10.3398H4.33398C3.78398 10.3398 3.33398 10.7898 3.33398 11.3398V17.4998C3.33398 20.4998 4.83398 22.4998 8.33398 22.4998H16.334C19.834 22.4998 21.334 20.4998 21.334 17.4998V11.3398C21.334 10.7898 20.884 10.3398 20.334 10.3398ZM9.54398 18.7098C9.49398 18.7498 9.44398 18.7998 9.39398 18.8298C9.33398 18.8698 9.27398 18.8998 9.21398 18.9198C9.15398 18.9498 9.09398 18.9698 9.03398 18.9798C8.96398 18.9898 8.90398 18.9998 8.83398 18.9998C8.70398 18.9998 8.57398 18.9698 8.45398 18.9198C8.32398 18.8698 8.22398 18.7998 8.12398 18.7098C7.94398 18.5198 7.83398 18.2598 7.83398 17.9998C7.83398 17.7398 7.94398 17.4798 8.12398 17.2898C8.22398 17.1998 8.32398 17.1298 8.45398 17.0798C8.63398 16.9998 8.83398 16.9798 9.03398 17.0198C9.09398 17.0298 9.15398 17.0498 9.21398 17.0798C9.27398 17.0998 9.33398 17.1298 9.39398 17.1698C9.44398 17.2098 9.49398 17.2498 9.54398 17.2898C9.72398 17.4798 9.83398 17.7398 9.83398 17.9998C9.83398 18.2598 9.72398 18.5198 9.54398 18.7098ZM9.54398 15.2098C9.35398 15.3898 9.09398 15.4998 8.83398 15.4998C8.57398 15.4998 8.31398 15.3898 8.12398 15.2098C7.94398 15.0198 7.83398 14.7598 7.83398 14.4998C7.83398 14.2398 7.94398 13.9798 8.12398 13.7898C8.40398 13.5098 8.84398 13.4198 9.21398 13.5798C9.34398 13.6298 9.45398 13.6998 9.54398 13.7898C9.72398 13.9798 9.83398 14.2398 9.83398 14.4998C9.83398 14.7598 9.72398 15.0198 9.54398 15.2098ZM13.044 18.7098C12.854 18.8898 12.594 18.9998 12.334 18.9998C12.074 18.9998 11.814 18.8898 11.624 18.7098C11.444 18.5198 11.334 18.2598 11.334 17.9998C11.334 17.7398 11.444 17.4798 11.624 17.2898C11.994 16.9198 12.674 16.9198 13.044 17.2898C13.224 17.4798 13.334 17.7398 13.334 17.9998C13.334 18.2598 13.224 18.5198 13.044 18.7098ZM13.044 15.2098C12.994 15.2498 12.944 15.2898 12.894 15.3298C12.834 15.3698 12.774 15.3998 12.714 15.4198C12.654 15.4498 12.594 15.4698 12.534 15.4798C12.464 15.4898 12.404 15.4998 12.334 15.4998C12.074 15.4998 11.814 15.3898 11.624 15.2098C11.444 15.0198 11.334 14.7598 11.334 14.4998C11.334 14.2398 11.444 13.9798 11.624 13.7898C11.714 13.6998 11.824 13.6298 11.954 13.5798C12.324 13.4198 12.764 13.5098 13.044 13.7898C13.224 13.9798 13.334 14.2398 13.334 14.4998C13.334 14.7598 13.224 15.0198 13.044 15.2098ZM16.544 18.7098C16.354 18.8898 16.094 18.9998 15.834 18.9998C15.574 18.9998 15.314 18.8898 15.124 18.7098C14.944 18.5198 14.834 18.2598 14.834 17.9998C14.834 17.7398 14.944 17.4798 15.124 17.2898C15.494 16.9198 16.174 16.9198 16.544 17.2898C16.724 17.4798 16.834 17.7398 16.834 17.9998C16.834 18.2598 16.724 18.5198 16.544 18.7098ZM16.544 15.2098C16.494 15.2498 16.444 15.2898 16.394 15.3298C16.334 15.3698 16.274 15.3998 16.214 15.4198C16.154 15.4498 16.094 15.4698 16.034 15.4798C15.964 15.4898 15.894 15.4998 15.834 15.4998C15.574 15.4998 15.314 15.3898 15.124 15.2098C14.944 15.0198 14.834 14.7598 14.834 14.4998C14.834 14.2398 14.944 13.9798 15.124 13.7898C15.224 13.6998 15.324 13.6298 15.454 13.5798C15.634 13.4998 15.834 13.4798 16.034 13.5198C16.094 13.5298 16.154 13.5498 16.214 13.5798C16.274 13.5998 16.334 13.6298 16.394 13.6698C16.444 13.7098 16.494 13.7498 16.544 13.7898C16.724 13.9798 16.834 14.2398 16.834 14.4998C16.834 14.7598 16.724 15.0198 16.544 15.2098Z" fill="#4E918F"/>
</svg>
