<svg width="24" height="24" viewBox="0 0 24 24" fill="none" xmlns="http://www.w3.org/2000/svg">
<path d="M8 5.25C7.86614 5.25 7.75 5.13386 7.75 5V2C7.75 1.86614 7.86614 1.75 8 1.75C8.13386 1.75 8.25 1.86614 8.25 2V5C8.25 5.13386 8.13386 5.25 8 5.25Z" fill="#64748B" stroke="#64748B"/>
<path d="M16 5.25C15.8661 5.25 15.75 5.13386 15.75 5V2C15.75 1.86614 15.8661 1.75 16 1.75C16.1339 1.75 16.25 1.86614 16.25 2V5C16.25 5.13386 16.1339 5.25 16 5.25Z" fill="#64748B" stroke="#64748B"/>
<path d="M20.5 9.33984H3.5C3.36614 9.33984 3.25 9.2237 3.25 9.08984C3.25 8.95599 3.36614 8.83984 3.5 8.83984H20.5C20.6339 8.83984 20.75 8.95599 20.75 9.08984C20.75 9.2237 20.6339 9.33984 20.5 9.33984Z" fill="#64748B" stroke="#64748B"/>
<path d="M16 22.25H8C6.26991 22.25 4.97362 21.754 4.1098 20.8902C3.24598 20.0264 2.75 18.7301 2.75 17V8.5C2.75 6.76991 3.24598 5.47362 4.1098 4.6098C4.97362 3.74598 6.26991 3.25 8 3.25H16C17.7301 3.25 19.0264 3.74598 19.8902 4.6098C20.754 5.47362 21.25 6.76991 21.25 8.5V17C21.25 18.7301 20.754 20.0264 19.8902 20.8902C19.0264 21.754 17.7301 22.25 16 22.25ZM8 3.75C6.49651 3.75 5.28256 4.11533 4.44895 4.94895C3.61533 5.78256 3.25 6.99651 3.25 8.5V17C3.25 18.5035 3.61533 19.7174 4.44895 20.5511C5.28256 21.3847 6.49651 21.75 8 21.75H16C17.5035 21.75 18.7174 21.3847 19.5511 20.5511C20.3847 19.7174 20.75 18.5035 20.75 17V8.5C20.75 6.99651 20.3847 5.78256 19.5511 4.94895C18.7174 4.11533 17.5035 3.75 16 3.75H8Z" fill="#64748B" stroke="#64748B"/>
<path d="M8.5 14.5C8.37 14.5 8.24 14.47 8.12 14.42C8 14.37 7.89001 14.3 7.79001 14.21C7.70001 14.11 7.62999 14 7.57999 13.88C7.52999 13.76 7.5 13.63 7.5 13.5C7.5 13.24 7.61001 12.98 7.79001 12.79C7.89001 12.7 8 12.63 8.12 12.58C8.3 12.5 8.50001 12.48 8.70001 12.52C8.76001 12.53 8.82 12.55 8.88 12.58C8.94 12.6 9 12.63 9.06 12.67C9.11 12.71 9.15999 12.75 9.20999 12.79C9.24999 12.84 9.29999 12.89 9.32999 12.94C9.36999 13 9.40001 13.06 9.42001 13.12C9.45001 13.18 9.47001 13.24 9.48001 13.3C9.49001 13.37 9.5 13.43 9.5 13.5C9.5 13.76 9.38999 14.02 9.20999 14.21C9.01999 14.39 8.76 14.5 8.5 14.5Z" fill="#64748B"/>
<path d="M11.5543 13.7218L11.5431 13.6881L11.5272 13.6563C11.5186 13.6391 11.5152 13.6274 11.5137 13.6206C11.5135 13.619 11.5133 13.6174 11.5131 13.6159C11.5026 13.5426 11.5 13.5245 11.5 13.4999C11.5 13.4457 11.5129 13.381 11.5415 13.3122C11.5674 13.25 11.6035 13.1912 11.6524 13.1349C11.792 13.003 12.0159 12.9652 12.1769 13.0368L12.1886 13.042L12.2005 13.0465C12.253 13.0667 12.2984 13.0943 12.3594 13.1473C12.4497 13.2491 12.5 13.3816 12.5 13.4999C12.5 13.5245 12.4974 13.5426 12.4869 13.6159C12.4867 13.6174 12.4865 13.619 12.4863 13.6206C12.4848 13.6274 12.4814 13.6391 12.4728 13.6563L12.4569 13.6881L12.4457 13.7218C12.4423 13.7318 12.4358 13.7471 12.4233 13.7678L12.4231 13.768L12.4229 13.7683L12.4227 13.7686L12.4224 13.7689L12.4222 13.7692L12.422 13.7695L12.4217 13.7698L12.4215 13.7701L12.4213 13.7704L12.421 13.7707L12.4208 13.771L12.4206 13.7713L12.4203 13.7715L12.4201 13.7718L12.4199 13.7721L12.4196 13.7724L12.4194 13.7727L12.4192 13.773L12.4189 13.7733L12.4187 13.7736L12.4185 13.7739L12.4182 13.7742L12.418 13.7745L12.4178 13.7748L12.4175 13.7751L12.4173 13.7754L12.4171 13.7756L12.4168 13.7759L12.4166 13.7762L12.4163 13.7765L12.4161 13.7768L12.4159 13.7771L12.4156 13.7774L12.4154 13.7777L12.4152 13.778L12.4149 13.7783L12.4147 13.7786L12.4145 13.7789L12.4142 13.7792L12.414 13.7795L12.4138 13.7797L12.4135 13.78L12.4133 13.7803L12.4131 13.7806L12.4128 13.7809L12.4126 13.7812L12.4124 13.7815L12.4121 13.7818L12.4119 13.7821L12.4117 13.7824L12.4114 13.7827L12.4112 13.783L12.411 13.7833L12.4107 13.7836L12.4105 13.7839L12.4103 13.7841L12.41 13.7844L12.4098 13.7847L12.4096 13.785L12.4093 13.7853L12.4091 13.7856L12.4088 13.7859L12.4086 13.7862L12.4084 13.7865L12.4081 13.7868L12.4079 13.7871L12.4077 13.7874L12.4074 13.7877L12.4072 13.788L12.407 13.7882L12.4067 13.7885L12.4065 13.7888L12.4063 13.7891L12.406 13.7894L12.4058 13.7897L12.4056 13.79L12.4053 13.7903L12.4051 13.7906L12.4049 13.7909L12.4046 13.7912L12.4044 13.7915L12.4042 13.7918L12.4039 13.7921L12.4037 13.7923L12.4035 13.7926L12.4032 13.7929L12.403 13.7932L12.4028 13.7935L12.4025 13.7938L12.4023 13.7941L12.4021 13.7944L12.4018 13.7947L12.4016 13.795L12.4014 13.7953L12.4011 13.7956L12.4009 13.7959L12.4006 13.7962L12.4004 13.7964L12.4002 13.7967L12.3999 13.797L12.3997 13.7973L12.3995 13.7976L12.3992 13.7979L12.399 13.7982L12.3988 13.7985L12.3985 13.7988L12.3983 13.7991L12.3981 13.7994L12.3978 13.7997L12.3976 13.8L12.3974 13.8003L12.3971 13.8005L12.3969 13.8008L12.3967 13.8011L12.3964 13.8014L12.3962 13.8017L12.396 13.802L12.3957 13.8023L12.3955 13.8026L12.3953 13.8029L12.395 13.8032L12.3948 13.8035L12.3946 13.8038L12.3943 13.8041L12.3941 13.8044L12.3939 13.8047L12.3936 13.8049L12.3934 13.8052L12.3931 13.8055L12.3929 13.8058L12.3927 13.8061L12.3924 13.8064L12.3922 13.8067L12.392 13.807L12.3917 13.8073L12.3915 13.8076L12.3913 13.8079L12.391 13.8082L12.3908 13.8085L12.3906 13.8088L12.3903 13.809L12.3901 13.8093L12.3899 13.8096L12.3896 13.8099L12.3894 13.8102L12.3892 13.8105L12.3889 13.8108L12.3887 13.8111L12.3885 13.8114L12.3882 13.8117L12.388 13.812L12.3878 13.8123L12.3875 13.8126L12.3873 13.8129L12.3871 13.8131L12.3868 13.8134L12.3866 13.8137L12.3864 13.814L12.3861 13.8143L12.3859 13.8146L12.3856 13.8149L12.3854 13.8152L12.3852 13.8155L12.3849 13.8158L12.3847 13.8161L12.3845 13.8164L12.3842 13.8167L12.384 13.817L12.3838 13.8172L12.3835 13.8175L12.3833 13.8178L12.3831 13.8181L12.3828 13.8184L12.3826 13.8187L12.3824 13.819L12.3821 13.8193L12.3819 13.8196L12.3817 13.8199L12.3814 13.8202L12.3812 13.8205L12.381 13.8208L12.3807 13.8211L12.3805 13.8213L12.3803 13.8216L12.38 13.8219L12.3798 13.8222L12.3796 13.8225L12.3793 13.8228L12.3791 13.8231L12.3789 13.8234L12.3786 13.8237L12.3784 13.824L12.3781 13.8243L12.3779 13.8246L12.3777 13.8249L12.3774 13.8252L12.3772 13.8254L12.377 13.8257L12.3767 13.826L12.3765 13.8263L12.3763 13.8266L12.376 13.8269L12.3758 13.8272L12.3756 13.8275L12.3753 13.8278L12.3751 13.8281L12.3749 13.8284L12.3746 13.8287L12.3744 13.829L12.3742 13.8293L12.3739 13.8296L12.3737 13.8298L12.3735 13.8301L12.3732 13.8304L12.373 13.8307L12.3728 13.831L12.3725 13.8313L12.3723 13.8316L12.3721 13.8319L12.3718 13.8322L12.3716 13.8325L12.3714 13.8328L12.3711 13.8331L12.3709 13.8334L12.3706 13.8337L12.3704 13.8339L12.3702 13.8342L12.3699 13.8345L12.3697 13.8348L12.3695 13.8351L12.3692 13.8354L12.369 13.8357L12.3688 13.836L12.3685 13.8363L12.3683 13.8366L12.3681 13.8369L12.3678 13.8372L12.3676 13.8375L12.3674 13.8378L12.3671 13.838L12.3669 13.8383L12.3667 13.8386L12.3664 13.8389L12.3662 13.8392L12.366 13.8395L12.3657 13.8398L12.3655 13.8401L12.3653 13.8404L12.365 13.8407L12.3648 13.841L12.3646 13.8413L12.3643 13.8416L12.3641 13.8419L12.3639 13.8421L12.3636 13.8424L12.3634 13.8427L12.3631 13.843L12.3629 13.8433L12.3627 13.8436L12.3624 13.8439L12.3622 13.8442L12.362 13.8445L12.3617 13.8448L12.3615 13.8451L12.3613 13.8454L12.361 13.8457L12.3608 13.846L12.3606 13.8462L12.3603 13.8465L12.3601 13.8468L12.3599 13.8471L12.3596 13.8474L12.3594 13.8477L12.3592 13.848L12.3589 13.8483L12.3587 13.8486L12.3585 13.8489L12.3582 13.8492L12.358 13.8495L12.3578 13.8498L12.3575 13.8501L12.3573 13.8504L12.3571 13.8506L12.3568 13.8509L12.3566 13.8512L12.3564 13.8515L12.3561 13.8518L12.3559 13.8521L12.3556 13.8524L12.3554 13.8527L12.3552 13.853L12.3549 13.8533L12.3547 13.8536L12.3545 13.8539L12.3542 13.8542L12.354 13.8545L12.3538 13.8547L12.3535 13.855L12.3533 13.8553L12.3531 13.8556L12.3528 13.8559L12.3526 13.8562L12.3524 13.8565L12.3521 13.8568L12.3519 13.8571L12.3517 13.8574L12.3514 13.8577L12.3512 13.858L12.351 13.8583L12.3507 13.8586L12.3505 13.8588L12.3503 13.8591L12.35 13.8594L12.3498 13.8597L12.3496 13.86L12.3493 13.8603L12.3491 13.8606L12.3489 13.8609L12.3486 13.8612L12.3484 13.8615L12.3482 13.8618L12.3479 13.8621L12.3477 13.8624L12.3474 13.8627L12.3474 13.8628C12.2923 13.9091 12.2495 13.9344 12.2005 13.9532L12.2004 13.953L12.1877 13.9583C12.1189 13.987 12.0542 13.9999 12 13.9999C11.8848 13.9999 11.7561 13.9521 11.6554 13.8663L11.6204 13.8225L11.5767 13.7678C11.5642 13.7471 11.5577 13.7318 11.5543 13.7218Z" fill="#64748B" stroke="#64748B"/>
<path d="M8.04666 17.2004L8.04684 17.2003L8.04153 17.1876C8.01285 17.1188 8 17.0541 8 16.9999C8 16.8818 8.05014 16.7497 8.14 16.648C8.19484 16.6013 8.25201 16.5665 8.3123 16.5414L8.31232 16.5414L8.31845 16.5388C8.49052 16.4644 8.70358 16.5027 8.84216 16.6298C8.84969 16.6387 8.8567 16.6469 8.86277 16.6539C8.86826 16.6603 8.87261 16.6653 8.87643 16.6697C8.88243 16.6767 8.88711 16.682 8.89277 16.6887C8.89915 16.6962 8.90297 16.7009 8.90524 16.7038L8.90736 16.7073L8.91396 16.7172C8.93277 16.7454 8.94157 16.7657 8.94567 16.778L8.95691 16.8117L8.9728 16.8435C8.9809 16.8597 8.98328 16.8683 8.98504 16.8806L8.9849 16.8806L8.98681 16.8921C8.99652 16.9503 9 16.9848 9 16.9999C9 17.1196 8.94845 17.2538 8.85619 17.3561C8.75388 17.4483 8.6197 17.4999 8.5 17.4999C8.44582 17.4999 8.38112 17.487 8.3123 17.4583C8.2533 17.4338 8.19729 17.4 8.14352 17.3548C8.09308 17.296 8.06633 17.2515 8.04666 17.2004Z" fill="#64748B" stroke="#64748B"/>
</svg>
