<svg width="25" height="25" viewBox="0 0 25 25" fill="none" xmlns="http://www.w3.org/2000/svg">
<path d="M19.1366 17.33L19.5266 20.49C19.6266 21.32 18.7366 21.9 18.0266 21.47L13.8366 18.98C13.3766 18.98 12.9266 18.95 12.4866 18.89C13.2266 18.02 13.6666 16.92 13.6666 15.73C13.6666 12.89 11.2066 10.59 8.1666 10.59C7.0066 10.59 5.9366 10.92 5.0466 11.5C5.0166 11.25 5.00659 11 5.00659 10.74C5.00659 6.18999 8.95659 2.5 13.8366 2.5C18.7166 2.5 22.6666 6.18999 22.6666 10.74C22.6666 13.44 21.2766 15.83 19.1366 17.33Z" stroke="#94A3B8" stroke-width="1.5" stroke-linecap="round" stroke-linejoin="round"/>
<path d="M13.6666 15.7298C13.6666 16.9198 13.2266 18.0198 12.4866 18.8898C11.4966 20.0898 9.92663 20.8598 8.16663 20.8598L5.55663 22.4098C5.11663 22.6798 4.55662 22.3098 4.61662 21.7998L4.86662 19.8298C3.52662 18.8998 2.66663 17.4098 2.66663 15.7298C2.66663 13.9698 3.60663 12.4198 5.04663 11.4998C5.93663 10.9198 7.00663 10.5898 8.16663 10.5898C11.2066 10.5898 13.6666 12.8898 13.6666 15.7298Z" stroke="#94A3B8" stroke-width="1.5" stroke-linecap="round" stroke-linejoin="round"/>
</svg>
