<svg width="25" height="24" viewBox="0 0 25 24" fill="none" xmlns="http://www.w3.org/2000/svg">
<path d="M10.49 22.78C9.88999 22.78 9.31999 22.48 8.92999 21.95L7.73001 20.35C7.73001 20.36 7.68 20.33 7.66 20.33H7.29001C3.87001 20.33 1.75 19.4 1.75 14.79V10.79C1.75 6.58001 4.32001 5.48001 6.48001 5.29001C6.72001 5.26001 7.00001 5.25 7.29001 5.25H13.69C17.31 5.25 19.23 7.17001 19.23 10.79V14.79C19.23 15.08 19.22 15.36 19.18 15.63C19 17.76 17.9 20.33 13.69 20.33H13.29L12.05 21.95C11.66 22.48 11.09 22.78 10.49 22.78ZM7.29001 6.75C7.06001 6.75 6.84 6.76 6.63 6.78C4.31 6.98 3.25 8.25001 3.25 10.79V14.79C3.25 18.22 4.31001 18.83 7.29001 18.83H7.69C8.14 18.83 8.64999 19.08 8.92999 19.44L10.13 21.05C10.35 21.35 10.63 21.35 10.85 21.05L12.05 19.45C12.34 19.06 12.8 18.83 13.29 18.83H13.69C16.23 18.83 17.5 17.76 17.69 15.48C17.72 15.24 17.73 15.02 17.73 14.79V10.79C17.73 8.00001 16.48 6.75 13.69 6.75H7.29001Z" fill="white"/>
<path d="M10.4922 14.1899C9.93219 14.1899 9.49219 13.7399 9.49219 13.1899C9.49219 12.6399 9.94219 12.1899 10.4922 12.1899C11.0422 12.1899 11.4922 12.6399 11.4922 13.1899C11.4922 13.7399 11.0522 14.1899 10.4922 14.1899Z" fill="white"/>
<path d="M13.6914 14.1899C13.1314 14.1899 12.6914 13.7399 12.6914 13.1899C12.6914 12.6399 13.1414 12.1899 13.6914 12.1899C14.2414 12.1899 14.6914 12.6399 14.6914 13.1899C14.6914 13.7399 14.2414 14.1899 13.6914 14.1899Z" fill="white"/>
<path d="M7.30078 14.1899C6.74078 14.1899 6.30078 13.7399 6.30078 13.1899C6.30078 12.6399 6.75078 12.1899 7.30078 12.1899C7.85078 12.1899 8.30078 12.6399 8.30078 13.1899C8.30078 13.7399 7.85078 14.1899 7.30078 14.1899Z" fill="white"/>
<path d="M18.4396 16.29C18.2396 16.29 18.0396 16.21 17.8996 16.06C17.7396 15.9 17.6697 15.67 17.6997 15.45C17.7297 15.24 17.7396 15.02 17.7396 14.79V10.79C17.7396 8.00001 16.4897 6.75 13.6997 6.75H7.29963C7.06963 6.75 6.84966 6.76 6.63966 6.78C6.41966 6.81 6.18964 6.72999 6.02964 6.57999C5.86964 6.41999 5.77963 6.20001 5.79963 5.98001C5.97963 3.82001 7.08963 1.25 11.2996 1.25H17.6997C21.3197 1.25 23.2396 3.17001 23.2396 6.79001V10.79C23.2396 15 20.6697 16.1 18.5097 16.29C18.4797 16.29 18.4596 16.29 18.4396 16.29ZM7.41966 5.25H13.6896C17.3096 5.25 19.2297 7.17001 19.2297 10.79V14.66C20.9297 14.24 21.7297 12.99 21.7297 10.79V6.79001C21.7297 4.00001 20.4796 2.75 17.6896 2.75H11.2897C9.08965 2.75 7.84966 3.55 7.41966 5.25Z" fill="white"/>
</svg>
