<svg width="25" height="25" viewBox="0 0 25 25" fill="none" xmlns="http://www.w3.org/2000/svg">
<path d="M19.1366 17.33L19.5266 20.49C19.6266 21.32 18.7366 21.9 18.0266 21.47L14.5666 19.41C14.3266 19.27 14.2666 18.97 14.3966 18.73C14.8966 17.81 15.1666 16.77 15.1666 15.73C15.1666 12.07 12.0266 9.09 8.16664 9.09C7.37664 9.09 6.60664 9.21 5.88664 9.45C5.51664 9.57 5.15664 9.23 5.24664 8.85C6.15664 5.21 9.65664 2.5 13.8366 2.5C18.7166 2.5 22.6666 6.19 22.6666 10.74C22.6666 13.44 21.2766 15.83 19.1366 17.33Z" fill="#4E918F"/>
<path d="M13.6667 15.7298C13.6667 16.9198 13.2267 18.0198 12.4867 18.8898C11.4967 20.0898 9.92675 20.8598 8.16675 20.8598L5.55675 22.4098C5.11675 22.6798 4.55675 22.3098 4.61675 21.7998L4.86675 19.8298C3.52675 18.8998 2.66675 17.4098 2.66675 15.7298C2.66675 13.9698 3.60675 12.4198 5.04675 11.4998C5.93675 10.9198 7.00675 10.5898 8.16675 10.5898C11.2067 10.5898 13.6667 12.8898 13.6667 15.7298Z" fill="#4E918F"/>
</svg>
