<svg width="375" height="146" viewBox="0 0 375 146" fill="none" xmlns="http://www.w3.org/2000/svg">
<g opacity="0.08">
<mask id="mask0_670_82877" style="mask-type:luminance" maskUnits="userSpaceOnUse" x="0" y="-1" width="375" height="147">
<path d="M375 -1H0V146H375V-1Z" fill="white"/>
</mask>
<g mask="url(#mask0_670_82877)">
<g opacity="0.1">
<path d="M-2 -1L-1.49102 31.0332L-2 56.624H292.006L279.551 55.3911L175.628 52.6901L163.39 54.8795L168.51 52.9517L161.391 52.5415L153.375 54.7308L145.141 54.49L152.694 52.5692L137.566 52.1359L129.789 54.1835L123.562 53.9427L133.352 52.0633L121.953 51.6301L119.108 52.545L47.9029 51.4123L45.4553 50.3752L63.4793 46.4241L117.551 47.4358L137.581 46.4241L199.221 47.1754L257.964 40.1396H269.76L251.736 44.6692L225.696 48.2355L265.306 49.2114L306.033 51.6566L364.184 49.4799L365.681 54.1789L346.684 56.624H374.251L375 -0.98963L-2 -1ZM73.3521 40.9312L47.4014 42.5939L52.5736 44.7256L47.4014 46.1717L52.5736 46.3526L42.2292 48.5938L0.836838 35.0765L3.509 33.8332L4.84134 30.3879L19.1977 29.1469L42.5586 22.4637L21.1962 17.8846L36.2187 4.33502L35.8819 10.154L49.6245 13.2179L40.56 17.6899L53.5766 22.8947L32.8804 30.3844L21.1962 36.7335L36.9148 38.1277L49.2652 36.9996L47.9029 38.6359L31.2112 40.6777L39.8864 41.4728L78.0602 38.6359L73.3521 40.9312Z" fill="black"/>
</g>
<path d="M128.398 115.1C128.136 114.592 102.119 64.307 92.4716 47.7272C85.2265 35.255 61.0439 -2.1471 60.7969 -2.52851L62.9749 -2.73389C63.2144 -2.35541 87.4046 35.0613 94.6646 47.5424C104.312 64.1339 130.336 114.437 130.591 114.935L128.398 115.1Z" fill="#2E333A" stroke="#2E333A" stroke-width="1.49692" stroke-miterlimit="10"/>
<path d="M68.9699 118.693L68.6705 118.64C68.2738 118.573 29.3166 111.848 16.0913 109.947C0.658096 107.729 -46.9663 102.187 -47.4453 102.131L-46.8091 101.289C-46.3301 101.345 1.36164 106.893 16.8622 109.123C29.5336 110.942 65.5719 117.144 69.2543 117.784C76.7389 117.308 207.412 109.058 251.923 108.216C279.249 107.697 360.195 109.701 365.09 109.824L374.618 108.533L375.366 109.363L365.412 110.713H365.187C364.341 110.692 279.96 108.571 252.05 109.099C206.574 109.956 70.6689 118.585 69.2992 118.673L68.9699 118.693Z" fill="#2E333A" stroke="#2E333A" stroke-width="1.49692" stroke-miterlimit="10"/>
<path d="M-9.44466 217.606L-11.4805 217.237C-11.0089 216.832 36.5107 176.634 60.9104 159.846C84.4045 143.682 131.265 115.461 155.516 101.477C172.169 91.8805 200.116 76.3452 224.778 62.6407C241.244 53.4956 256.767 44.858 267.792 38.638C285.852 28.4425 339.472 -2.55472 340.01 -2.86865L341.867 -2.37281C341.328 -2.06181 287.708 28.9413 269.633 39.1427C258.608 45.3627 243.063 54.0032 226.612 63.1483C201.957 76.8499 174.017 92.3822 157.372 101.973C133.122 115.93 86.3206 144.123 62.8714 160.265C38.509 177.021 -8.98062 217.187 -9.44466 217.606Z" fill="#2E333A" stroke="#2E333A" stroke-width="1.49692" stroke-miterlimit="10"/>
<path d="M221.6 65.0078L94.4297 13.6195L106.203 -2.75781L108.366 -2.51723L96.9445 13.3701L223.209 64.3975L221.6 65.0078Z" fill="#2E333A" stroke="#2E333A" stroke-width="1.49692" stroke-miterlimit="10"/>
<path d="M153.35 5.19514L78.1328 23.2778L79.3067 24.0282L154.524 5.94547L153.35 5.19514Z" fill="#2E333A"/>
<path d="M257.401 108.756L255.312 108.433L291.86 72.067L278.522 49.4169L262.82 41.9793L264.548 41.4189L280.595 49.015L280.655 49.1176L294.202 72.1345L294.075 72.2636L257.401 108.756Z" fill="#2E333A"/>
<path d="M268.762 44.5612L230.202 21.7907L155.835 6.69848L155.768 6.67794L128.262 -2.41146L129.227 -2.86035L156.666 6.20851L231.235 21.3389L231.347 21.4035L270.005 44.2355L268.762 44.5612Z" fill="#2E333A"/>
<path d="M122.701 24.4198L121.684 23.9914L144.28 15.7059L130.927 11.2111L131.908 10.7651L146.517 15.6883L122.701 24.4198Z" fill="#2E333A"/>
<path d="M233.769 23.4338L178.766 42.3892L179.754 42.8299L234.757 23.8745L233.769 23.4338Z" fill="#2E333A"/>
<path d="M214.606 18.1458L186.137 29.3213L187.726 29.9432L216.195 18.7678L214.606 18.1458Z" fill="#2E333A"/>
<path d="M201.859 34.8791L154.953 19.0093L177.287 10.6152L178.32 11.0377L157.176 18.9858L202.832 34.436L201.859 34.8791Z" fill="#2E333A"/>
<path d="M142.62 8.15375L141.781 8.63965L166.442 15.1847L167.281 14.6988L142.62 8.15375Z" fill="#2E333A"/>
<path d="M159.891 7.05542L149.691 10.2769L150.631 10.7338L160.83 7.51234L159.891 7.05542Z" fill="#2E333A"/>
<path d="M169.308 8.99874L159.188 12.8311L160.228 13.2531L170.348 9.42077L169.308 8.99874Z" fill="#2E333A"/>
<path d="M145.865 15.4677L144.938 15.9282L155.606 19.2297L156.533 18.7692L145.865 15.4677Z" fill="#2E333A"/>
<path d="M201.247 23.985L200.273 24.4307L216.435 29.8567L217.408 29.411L201.247 23.985Z" fill="#2E333A"/>
<path d="M208.711 21.0122L207.832 21.4873L225.89 26.619L226.769 26.1439L208.711 21.0122Z" fill="#2E333A"/>
<path d="M131.973 28.0132L86.3984 36.0796L87.0144 36.6144L132.589 28.548L131.973 28.0132Z" fill="#2E333A"/>
<path d="M143.301 77.7209L106.484 32.8108L107.906 32.6318L144.319 77.0461L163.03 75.629L163.315 76.204L143.301 77.7209Z" fill="#2E333A"/>
<path d="M114.273 41.2327L72.6094 44.4873L72.9019 45.0628L114.565 41.8082L114.273 41.2327Z" fill="#2E333A"/>
<path d="M117.286 44.9674L102.324 46.3657L102.671 46.9365L117.633 45.5382L117.286 44.9674Z" fill="#2E333A"/>
<path d="M122.227 50.9797L108.461 52.2295L108.799 52.8012L122.565 51.5513L122.227 50.9797Z" fill="#2E333A"/>
<path d="M126.035 55.6755L88.9609 59.624L89.3534 60.1903L126.428 56.2417L126.035 55.6755Z" fill="#2E333A"/>
<path d="M130.468 61.0925L92.9375 65.2417L93.3438 65.8065L130.874 61.6572L130.468 61.0925Z" fill="#2E333A"/>
<path d="M151.497 36.0182L118.715 47.3516L120.2 48.0117L152.982 36.6783L151.497 36.0182Z" fill="#2E333A"/>
<path d="M167.819 45.7177L127.844 58.2451L128.778 58.7035L168.754 46.176L167.819 45.7177Z" fill="#2E333A"/>
<path d="M135.072 66.4928L134.047 65.7094L162.458 59.9911L184.837 49.5169L219.154 36.5518L220.711 37.1855L186.439 50.136L163.888 60.6923L135.072 66.4928Z" fill="#2E333A"/>
<path d="M162.335 60.6337L145.404 53.1081L128.602 44.4793L130.39 43.9453L147.163 52.5623L164.019 60.0498L162.335 60.6337Z" fill="#2E333A"/>
<path d="M93.5971 76.5473L88.6797 74.8397L89.6677 74.3996L94.0461 75.9194L108.499 74.916L139.799 72.5982L163.967 65.2867L198.868 55.1323L199.758 55.6047L164.873 65.7532L140.428 73.1497L140.256 73.1615L108.776 75.494L93.5971 76.5473Z" fill="#2E333A"/>
<path d="M99.358 87.3884L93.0859 76.298L94.5454 76.1689L100.503 86.6931L114.11 85.5693L114.417 86.1444L99.358 87.3884Z" fill="#2E333A"/>
<path d="M97.0617 81.9221L96.6875 81.3529L111.088 79.9006L143.646 77.0957L143.968 77.6678L111.432 80.4727L97.0617 81.9221Z" fill="#2E333A"/>
<path d="M171.672 71.7213L163.754 65.6539L157.414 61.5229L158.701 61.2207L165.063 65.3664L173.012 71.4543L171.672 71.7213Z" fill="#2E333A"/>
<path d="M172.723 55.9011L171.699 56.3291L182.547 60.3169L183.571 59.8889L172.723 55.9011Z" fill="#2E333A"/>
<path d="M254.866 36.0727L219.051 54.0557L220.821 54.5973L256.636 36.6144L254.866 36.0727Z" fill="#2E333A"/>
<path d="M244.466 32.8267L208.055 47.125L209.644 47.7468L246.055 33.4485L244.466 32.8267Z" fill="#2E333A"/>
<path d="M189.575 39.0713L187.887 39.6514L199.163 44.6955L200.852 44.1154L189.575 39.0713Z" fill="#2E333A"/>
<path d="M198.882 35.8339L197.785 36.2334L209.027 40.9739L210.123 40.5744L198.882 35.8339Z" fill="#2E333A"/>
<path d="M209.398 32.2209L208.289 32.6152L226.496 40.4808L227.604 40.0865L209.398 32.2209Z" fill="#2E333A"/>
<path d="M246.466 51.3098L233.817 47.6687L218.758 43.614L219.604 43.1299L234.685 47.1905L247.356 50.8374L246.466 51.3098Z" fill="#2E333A"/>
<path d="M257.317 45.2476L245.237 41.63L233 38.0036L233.906 37.5342L246.143 41.1635L258.223 44.7811L257.317 45.2476Z" fill="#2E333A"/>
<path d="M37.8509 112.882L35.6953 112.641L44.3924 100.606L69.2337 98.435L161.885 98.1475L161.9 99.0276L69.3759 99.3152L46.1887 101.348L37.8509 112.882Z" fill="#2E333A" stroke="#2E333A" stroke-width="1.49692" stroke-miterlimit="10"/>
<path d="M124.09 104.432L94.0117 105.089L94.095 105.675L124.174 105.018L124.09 104.432Z" fill="#2E333A"/>
<path d="M51.3898 115.153L31.4492 126.292L32.6745 126.629L52.6151 115.49L51.3898 115.153Z" fill="#2E333A"/>
<path d="M43.0002 120.225L42.4453 120.77L63.598 124.079L64.153 123.534L43.0002 120.225Z" fill="#2E333A"/>
<path d="M56.0672 58.6296L47.3477 53.1138V39.3535H48.8446V52.9465L57.3396 58.3215L56.0672 58.6296Z" fill="#2E333A"/>
<path d="M86.5466 47.1459L47.9375 50.3242L48.2451 50.8985L86.8542 47.7201L86.5466 47.1459Z" fill="#2E333A"/>
<path d="M89.8599 51.9903L51.6406 55.082L51.9432 55.6567L90.1625 52.565L89.8599 51.9903Z" fill="#2E333A"/>
<path d="M206.619 58.0668L184.531 71.9526L185.804 72.2636L207.891 58.3778L206.619 58.0668Z" fill="#2E333A"/>
<path d="M191.789 67.9335L191.156 68.4653L209.709 71.8566L210.341 71.3248L191.789 67.9335Z" fill="#2E333A"/>
<path d="M256.067 81.318L203.75 75.4295L204.162 74.8662L255.439 80.6373L286.312 62.7343L240.155 54.9388L240.754 54.3989L288.565 62.4761L256.067 81.318Z" fill="#2E333A"/>
<path d="M241.266 75.52L212.75 70.1567L213.401 69.6286L240.765 74.7748L255.232 66.5978L228.086 61.6365L228.722 61.1055L257.478 66.3602L241.266 75.52Z" fill="#2E333A"/>
<path d="M246.318 72.0538L245.703 72.5889L264.614 75.9267L265.229 75.3917L246.318 72.0538Z" fill="#2E333A"/>
<path d="M254.834 74.3623L244.578 80.146L245.806 80.4805L256.062 74.6968L254.834 74.3623Z" fill="#2E333A"/>
<path d="M270.181 59.5998L255.781 66.2959L256.926 66.6741L271.325 59.978L270.181 59.5998Z" fill="#2E333A"/>
<path d="M240.409 74.9896L234.109 78.4502L235.328 78.791L241.627 75.3304L240.409 74.9896Z" fill="#2E333A"/>
<path d="M279.007 49.0138L258.602 57.6216L259.698 58.021L280.103 49.4133L279.007 49.0138Z" fill="#2E333A"/>
<path d="M251.664 48.4084L250.82 48.8931L268.959 53.7453L269.803 53.2606L251.664 48.4084Z" fill="#2E333A"/>
<path d="M220.092 91.1835L219.785 91.7578L269.336 95.8263L269.642 95.2519L220.092 91.1835Z" fill="#2E333A"/>
<path d="M281.614 108.595H280.117V104.936L216.461 97.0262L216.917 96.4658L281.614 104.508V108.595Z" fill="#2E333A"/>
<path d="M268.775 73.5592L268.371 74.1226L288.942 76.3905L289.346 75.8272L268.775 73.5592Z" fill="#2E333A"/>
<path d="M255.998 80.7046L255.531 81.2622L280.644 84.4893L281.111 83.9317L255.998 80.7046Z" fill="#2E333A"/>
<path d="M236.237 24.7426L235.234 24.3054L287.08 6.08851L332.871 1.63477L333.23 2.20395L287.806 6.62542L236.237 24.7426Z" fill="#2E333A"/>
<path d="M231.215 3.4197L230.094 3.80859L258.661 16.4615L259.782 16.0726L231.215 3.4197Z" fill="#2E333A"/>
<path d="M280.506 11.9121L275.529 10.5683L241.242 -2.42614L242.283 -2.84863L276.525 10.1312L281.352 11.4251L280.506 11.9121Z" fill="#2E333A"/>
<path d="M258.706 3.76536L243.555 9.34277L244.579 9.77053L259.731 4.19311L258.706 3.76536Z" fill="#2E333A"/>
<path d="M262.38 14.9832L261.852 15.5322L299.9 21.1563L300.428 20.6072L262.38 14.9832Z" fill="#2E333A"/>
<path d="M247.831 20.0948L247.27 20.6387L289.18 27.2897L289.741 26.7458L247.831 20.0948Z" fill="#2E333A"/>
<path d="M280.06 8.80997L279.367 9.33008L309.579 15.5162L310.272 14.996L280.06 8.80997Z" fill="#2E333A"/>
<path d="M326.029 25.3233L296.285 23.3253L296.54 22.7444L324.906 24.6514L334.382 9.34499L321.119 9.078L321.194 8.49121L336.26 8.79634L326.029 25.3233Z" fill="#2E333A"/>
<path d="M304.405 18.1622L304.301 18.7476L329.022 19.4218L329.126 18.8364L304.405 18.1622Z" fill="#2E333A"/>
<path d="M322.006 19.0803L319.312 24.5688L320.782 24.6797L323.476 19.1912L322.006 19.0803Z" fill="#2E333A"/>
<path d="M311.507 18.5908L307.914 23.7749L309.359 23.9288L312.952 18.7446L311.507 18.5908Z" fill="#2E333A"/>
<path d="M292.49 147.681L203.416 110.722L166.719 95.7354L167.797 95.3306L204.501 110.317L293.575 147.279L292.49 147.681Z" fill="#2E333A"/>
<path d="M292.552 132.401L272.422 138.913L273.375 139.365L293.504 132.854L292.552 132.401Z" fill="#2E333A"/>
<path d="M260.26 122.038L243.172 127.21L244.085 127.674L261.173 122.501L260.26 122.038Z" fill="#2E333A"/>
<path d="M280.159 131.356L278.961 131.708L306.406 146.083L307.604 145.732L280.159 131.356Z" fill="#2E333A"/>
<path d="M365.553 175.04L334.32 109.557L338.1 104.96L339.522 105.139L335.862 109.596L367.02 174.932L365.553 175.04Z" fill="#2E333A"/>
<path d="M374.585 139.315L351.836 145.323L352.672 145.81L375.422 139.802L374.585 139.315Z" fill="#2E333A"/>
<path d="M313.207 122.863L312.023 123.223L350.09 142.474L351.274 142.115L313.207 122.863Z" fill="#2E333A"/>
<path d="M180.555 159.343L180.248 159.27L94.4375 138.979L95.2084 138.474L180.72 158.698L227.813 152.152L228.075 152.196L258.514 157.184L257.938 157.727L227.768 152.783L180.555 159.343Z" fill="#2E333A"/>
<path d="M81.7912 163.231L65.9688 159.267L66.7771 158.775L81.3945 162.436L115.547 143.603L116.767 143.94L81.7912 163.231Z" fill="#2E333A"/>
<path d="M85.731 144.422L84.9844 144.931L105.678 149.599L106.425 149.09L85.731 144.422Z" fill="#2E333A"/>
<path d="M285.924 58.7293L285.16 58.2218L316.446 50.9837L284.008 29.9384L285.288 29.6362L318.512 51.1861L285.924 58.7293Z" fill="#2E333A"/>
<path d="M296.52 37.5283L270.25 44.771L271.111 45.251L297.381 38.0083L296.52 37.5283Z" fill="#2E333A"/>
<path d="M275.121 35.4955L273.77 35.748L281.381 42.0061L282.732 41.7536L275.121 35.4955Z" fill="#2E333A"/>
<path d="M374.564 42.8538L362.349 39.4005L292.922 35.516L293.139 34.9351L362.925 38.8402L375.432 42.3785L374.564 42.8538Z" fill="#2E333A"/>
<path d="M374.47 34.4133L354.871 42.0908L355.929 42.5059L375.529 34.8283L374.47 34.4133Z" fill="#2E333A"/>
<path d="M375.736 43.0844L362.012 45.0479L362.525 45.5991L376.249 43.6356L375.736 43.0844Z" fill="#2E333A"/>
<path d="M333.325 37.4375H331.828V45.013H333.325V37.4375Z" fill="#2E333A"/>
<path d="M336.37 50.1293L317.406 50.7993L317.541 51.3837L336.505 50.7137L336.37 50.1293Z" fill="#2E333A"/>
<path d="M374.958 49.1944L357.105 49.5845L357.189 50.1704L375.042 49.7803L374.958 49.1944Z" fill="#2E333A"/>
<path d="M315.145 80.6752L313.828 80.3995L320.34 75.5936L318.469 61.3199L330.025 50.5024L331.409 50.7313L319.988 61.4226L321.859 75.7257L315.145 80.6752Z" fill="#2E333A"/>
<path d="M361.196 57.249L286.18 60.2827L286.333 60.8664L361.35 57.8327L361.196 57.249Z" fill="#2E333A"/>
<path d="M348.826 52.2632L347.758 52.6743L374.462 63.3376L375.53 62.9266L348.826 52.2632Z" fill="#2E333A"/>
<path d="M369.819 60.9441L319.344 63.7422L319.553 64.3231L370.028 61.5251L369.819 60.9441Z" fill="#2E333A"/>
<path d="M320.317 66.8323L319.617 67.3511L350.056 73.658L350.755 73.1392L320.317 66.8323Z" fill="#2E333A"/>
<path d="M321.279 75.3814L320.953 75.9541L335.051 77.1884L335.377 76.6157L321.279 75.3814Z" fill="#2E333A"/>
<path d="M332.275 63.0256L331.52 63.5322L372.492 72.9214L373.247 72.4148L332.275 63.0256Z" fill="#2E333A"/>
<path d="M374.939 70.7186L367.832 76.1416L369.164 76.4097L376.27 70.9867L374.939 70.7186Z" fill="#2E333A"/>
<path d="M360.613 61.4776L350.902 67.6167L352.175 67.9259L361.885 61.7868L360.613 61.4776Z" fill="#2E333A"/>
<path d="M339.504 65.0428L326.266 76.1416L327.622 76.3901L340.86 65.2913L339.504 65.0428Z" fill="#2E333A"/>
<path d="M343.69 52.6886L342.195 52.7173L343.428 62.5988L344.923 62.5701L343.69 52.6886Z" fill="#2E333A"/>
<path d="M292.573 71.0065L292.508 71.5928L320.541 72.0726L320.606 71.4863L292.573 71.0065Z" fill="#2E333A"/>
<path d="M374.685 89.9967L324.546 81.0246L299.128 80.8251L285.469 79.7689L285.761 79.1938L299.353 80.2442L324.883 80.4408L375.314 89.4627L374.685 89.9967Z" fill="#2E333A"/>
<path d="M272.424 92.5119L272 93.0747L315.134 98.0672L315.558 97.5044L272.424 92.5119Z" fill="#2E333A"/>
<path d="M336.703 82.9125L324.742 97.2148L326.165 97.3976L338.125 83.0953L336.703 82.9125Z" fill="#2E333A"/>
<path d="M349.358 85.2143L339.871 97.6807L342.023 97.9323L351.509 85.4659L349.358 85.2143Z" fill="#2E333A"/>
<path d="M363.725 87.7659L355.449 99.5352L356.892 99.6911L365.168 87.9218L363.725 87.7659Z" fill="#2E333A"/>
<path d="M375.397 95.8147L360.076 94.0044L345.414 91.8392L345.938 91.2905L360.555 93.4499L375.831 95.2514L375.397 95.8147Z" fill="#2E333A"/>
<path d="M321.891 80.6353L309.043 97.0679L310.474 97.2398L323.322 80.8072L321.891 80.6353Z" fill="#2E333A"/>
<path d="M298.568 80.4651L288.008 94.6396L289.445 94.8041L300.005 80.6296L298.568 80.4651Z" fill="#2E333A"/>
<path d="M362.917 115.59L362.68 116.169L375.464 116.976L375.701 116.396L362.917 115.59Z" fill="#2E333A"/>
<path d="M2.665 42.169L-1.80859 42.3228L-1.67787 42.9073L2.79572 42.7536L2.665 42.169Z" fill="#2E333A"/>
<path d="M12.0257 42.4489L11.8984 41.8621L21.1194 41.5423L21.2467 42.1291L12.0257 42.4489ZM30.4752 41.8122L30.3404 41.2255L39.5689 40.9086L39.6962 41.4954L30.4752 41.8122ZM48.9172 41.1785L48.7899 40.5917L58.0109 40.2749L58.1457 40.8616L48.9172 41.1785ZM67.3592 40.5301L67.2245 39.9433L76.453 39.6265L76.5802 40.2132L67.3592 40.5301ZM85.8012 39.8934L85.674 39.3066L94.895 38.9898L95.0297 39.5766L85.8012 39.8934ZM104.251 39.2597L104.116 38.6729L113.344 38.3531L113.472 38.9399L104.251 39.2597ZM122.528 38.004L121.495 37.5785L128.231 35.0847L129.257 35.513L122.528 38.004ZM136 33.0162L134.967 32.5879L141.704 30.097L142.729 30.5253L136 33.0162ZM149.473 28.0285L148.447 27.6002L155.183 25.1092L156.216 25.5347L149.473 28.0285ZM162.945 23.0408L161.919 22.6154L168.656 20.1244L169.688 20.5499L162.945 23.0408ZM176.417 18.0531L175.392 17.6276L182.128 15.1367L183.153 15.5621L176.417 18.0531Z" fill="#2E333A"/>
<path d="M199.419 13.5873L192.72 12.0323L189.861 13.0915L188.836 12.6631L192.511 11.3047L199.21 12.8568L202.061 11.7976L203.087 12.223L199.419 13.5873Z" fill="#2E333A"/>
<path d="M209.066 10.0054L208.07 9.5888L214.058 7.37073L215.091 7.79615L209.066 10.0054ZM221.041 5.56928L220.016 5.14092L226.003 2.92285L227.029 3.34828L221.041 5.56928Z" fill="#2E333A"/>
<path d="M235.214 -0.510228L231.953 0.700195L232.982 1.12626L236.243 -0.0841619L235.214 -0.510228Z" fill="#2E333A"/>
<path d="M246.384 164.557L238.563 162.832L239.311 162.322L247.133 164.047L246.384 164.557ZM230.734 161.107L222.905 159.379L223.654 158.868L231.483 160.593L230.734 161.107ZM220.503 155.826L218.841 152.364L220.338 152.255L221.977 155.7L220.503 155.826ZM217.18 148.905L215.84 146.12L218.677 145.715L219.193 146.267L217.546 146.502L218.647 148.796L217.18 148.905ZM267.543 148.597L260.463 147.446L261.032 146.904L267.386 147.933L268.479 147.64L269.31 148.127L267.543 148.597ZM276.764 146.182L275.934 145.692L283.418 143.735L284.249 144.225L276.764 146.182ZM252.155 146.103L243.855 144.759L244.423 144.216L252.724 145.563L252.155 146.103ZM227.628 145.064L227.119 144.512L235.562 143.31L236.071 143.858L227.628 145.064ZM291.696 142.268L290.865 141.781L298.35 139.824L299.181 140.311L291.696 142.268ZM306.665 138.354L305.834 137.867L311.65 136.341L311.358 136.148L312.653 135.854L313.648 136.526L306.665 138.354ZM306.83 133.105L306.081 132.58L313.147 130.541L314.038 131.013L308.05 132.739L308.155 132.809L306.83 133.105ZM321.245 128.927L320.34 128.452L327.577 126.366L328.46 126.838L321.245 128.927ZM335.713 124.755L334.822 124.283L342.045 122.194L342.936 122.666L335.713 124.755ZM348.474 119.85L347.119 119.606L350.862 116.405L352.224 116.652L348.474 119.85ZM355.959 113.454L354.604 113.207L358.346 110.009L359.708 110.256L355.959 113.454ZM363.443 107.055L362.081 106.811L365.823 103.613L367.186 103.857L363.443 107.055ZM370.928 100.659L369.566 100.412L372.777 97.6807L374.139 97.9242L370.928 100.659Z" fill="#2E333A"/>
</g>
</g>
</svg>
