<svg width="16" height="16" viewBox="0 0 16 16" fill="none" xmlns="http://www.w3.org/2000/svg">
<path d="M9.9987 8.6333H5.33203C5.0587 8.6333 4.83203 8.40663 4.83203 8.1333C4.83203 7.85997 5.0587 7.6333 5.33203 7.6333H9.9987C10.272 7.6333 10.4987 7.85997 10.4987 8.1333C10.4987 8.40663 10.272 8.6333 9.9987 8.6333Z" fill="white"/>
<path d="M8.25203 11.3H5.33203C5.0587 11.3 4.83203 11.0734 4.83203 10.8C4.83203 10.5267 5.0587 10.3 5.33203 10.3H8.25203C8.52536 10.3 8.75203 10.5267 8.75203 10.8C8.75203 11.0734 8.52536 11.3 8.25203 11.3Z" fill="white"/>
<path d="M9.33203 4.50004H6.66536C6.02536 4.50004 4.83203 4.50004 4.83203 2.66671C4.83203 0.833374 6.02536 0.833374 6.66536 0.833374H9.33203C9.97203 0.833374 11.1654 0.833374 11.1654 2.66671C11.1654 3.30671 11.1654 4.50004 9.33203 4.50004ZM6.66536 1.83337C6.00536 1.83337 5.83203 1.83337 5.83203 2.66671C5.83203 3.50004 6.00536 3.50004 6.66536 3.50004H9.33203C10.1654 3.50004 10.1654 3.32671 10.1654 2.66671C10.1654 1.83337 9.99203 1.83337 9.33203 1.83337H6.66536Z" fill="white"/>
<path d="M10 15.1667H6C2.25333 15.1667 1.5 13.4467 1.5 10.6667V6.6667C1.5 3.6267 2.6 2.3267 5.30667 2.1867C5.57333 2.17337 5.82 2.38004 5.83333 2.66004C5.84667 2.94004 5.63333 3.1667 5.36 3.18004C3.46667 3.2867 2.5 3.85337 2.5 6.6667V10.6667C2.5 13.1334 2.98667 14.1667 6 14.1667H10C13.0133 14.1667 13.5 13.1334 13.5 10.6667V6.6667C13.5 3.85337 12.5333 3.2867 10.64 3.18004C10.3667 3.1667 10.1533 2.9267 10.1667 2.65337C10.18 2.38004 10.42 2.1667 10.6933 2.18004C13.4 2.3267 14.5 3.6267 14.5 6.66004V10.66C14.5 13.4467 13.7467 15.1667 10 15.1667Z" fill="white"/>
</svg>
