<svg width="32" height="32" viewBox="0 0 32 32" fill="none" xmlns="http://www.w3.org/2000/svg">
<g clip-path="url(#clip0_613_66058)">
<path d="M18.4789 11.4737L17.3979 9.85535L16.0019 7.76367L14.6051 9.85535L5.45312 23.5686H12.7439L12.7402 21.1502H9.86008L16.0019 11.948L17.0505 13.5184L18.4789 11.4737Z" fill="url(#paint0_linear_613_66058)"/>
<path d="M31.1875 23.567H23.7565L19.5353 17.222L20.0294 16.8723L24.0714 22.95H30.0507L16.0005 1.89906L1.95116 22.95H3.29135L16.0005 3.91025L27.9183 21.7647H24.6212L20.5532 15.6698L20.583 15.6392L20.9117 15.1217L24.9342 21.1486H26.7796L18.3186 8.47208L16.9227 6.37944L16.0005 4.99681L15.0773 6.37944L13.6814 8.47208L3.6062 23.567H0.8125L12.2854 6.37944L13.6814 4.28681L14.6036 2.90418L16.0005 0.8125L17.3964 2.90418L18.3186 4.28681L19.7164 6.37944L31.1875 23.567Z" fill="url(#paint1_linear_613_66058)"/>
<path d="M31.1875 23.567H23.7565L19.5353 17.222L20.5532 15.6698L20.9117 15.1217L24.9342 21.1486H26.7796L18.3186 8.47208L16.9227 6.37944L16.0005 4.99681L15.0773 6.37944L13.6814 8.47208L3.6062 23.567H0.8125L12.2854 6.37944L13.6814 4.28681L14.6036 2.90418L16.0005 0.8125L17.3964 2.90418L18.3186 4.28681L19.7164 6.37944L31.1875 23.567Z" fill="url(#paint2_linear_613_66058)"/>
<path d="M17.7013 17.9425L20.2731 14.1644L19.1994 12.5566L15.8123 17.518V14.7451L14.043 17.3321V23.5679H15.8123V20.7039L16.637 19.512L19.061 23.5688H21.2993L17.7013 17.9425Z" fill="url(#paint3_linear_613_66058)"/>
<path d="M1.18404 27.7793V24.7111H1.55558V26.2332H1.59153L2.96982 24.7111H3.45521L2.16681 26.0954L3.45521 27.7793H3.00577L1.9391 26.3531L1.55558 26.7845V27.7793H1.18404ZM4.51859 24.7111V27.7793H4.14705V24.7111H4.51859ZM5.47447 27.7793V24.7111H6.51118C6.75089 24.7111 6.94764 24.7521 7.10145 24.834C7.25526 24.9149 7.36912 25.0262 7.44302 25.168C7.51693 25.3099 7.55389 25.4712 7.55389 25.6519C7.55389 25.8327 7.51693 25.993 7.44302 26.1328C7.36912 26.2727 7.25576 26.3825 7.10295 26.4624C6.95014 26.5413 6.75488 26.5808 6.51718 26.5808H5.67822V26.2452H6.50519C6.66899 26.2452 6.80082 26.2212 6.9007 26.1733C7.00157 26.1254 7.07448 26.0574 7.11943 25.9695C7.16537 25.8807 7.18834 25.7748 7.18834 25.6519C7.18834 25.5291 7.16537 25.4217 7.11943 25.3298C7.07348 25.238 7.00007 25.167 6.8992 25.1171C6.79833 25.0662 6.66499 25.0407 6.4992 25.0407H5.84601V27.7793H5.47447ZM6.91868 26.401L7.67374 27.7793H7.24227L6.4992 26.401H6.91868ZM10.9727 26.2452C10.9727 26.5688 10.9143 26.8485 10.7974 27.0842C10.6806 27.3199 10.5203 27.5016 10.3165 27.6295C10.1128 27.7573 9.88007 27.8212 9.61839 27.8212C9.35672 27.8212 9.12401 27.7573 8.92026 27.6295C8.71651 27.5016 8.55621 27.3199 8.43936 27.0842C8.3225 26.8485 8.26408 26.5688 8.26408 26.2452C8.26408 25.9216 8.3225 25.642 8.43936 25.4062C8.55621 25.1705 8.71651 24.9888 8.92026 24.8609C9.12401 24.7331 9.35672 24.6692 9.61839 24.6692C9.88007 24.6692 10.1128 24.7331 10.3165 24.8609C10.5203 24.9888 10.6806 25.1705 10.7974 25.4062C10.9143 25.642 10.9727 25.9216 10.9727 26.2452ZM10.6132 26.2452C10.6132 25.9795 10.5687 25.7553 10.4798 25.5725C10.3919 25.3898 10.2726 25.2514 10.1218 25.1576C9.97195 25.0637 9.80416 25.0167 9.61839 25.0167C9.43262 25.0167 9.26433 25.0637 9.11352 25.1576C8.96371 25.2514 8.84435 25.3898 8.75547 25.5725C8.66757 25.7553 8.62363 25.9795 8.62363 26.2452C8.62363 26.5109 8.66757 26.7351 8.75547 26.9179C8.84435 27.1006 8.96371 27.239 9.11352 27.3329C9.26433 27.4267 9.43262 27.4737 9.61839 27.4737C9.80416 27.4737 9.97195 27.4267 10.1218 27.3329C10.2726 27.239 10.3919 27.1006 10.4798 26.9179C10.5687 26.7351 10.6132 26.5109 10.6132 26.2452ZM13.038 25.0407V24.7111H15.3392V25.0407H14.3744V27.7793H14.0028V25.0407H13.038ZM16.1235 27.7793V24.7111H17.1602C17.3999 24.7111 17.5967 24.7521 17.7505 24.834C17.9043 24.9149 18.0182 25.0262 18.0921 25.168C18.166 25.3099 18.2029 25.4712 18.2029 25.6519C18.2029 25.8327 18.166 25.993 18.0921 26.1328C18.0182 26.2727 17.9048 26.3825 17.752 26.4624C17.5992 26.5413 17.4039 26.5808 17.1662 26.5808H16.3273V26.2452H17.1542C17.318 26.2452 17.4499 26.2212 17.5497 26.1733C17.6506 26.1254 17.7235 26.0574 17.7685 25.9695C17.8144 25.8807 17.8374 25.7748 17.8374 25.6519C17.8374 25.5291 17.8144 25.4217 17.7685 25.3298C17.7225 25.238 17.6491 25.167 17.5482 25.1171C17.4474 25.0662 17.314 25.0407 17.1482 25.0407H16.4951V27.7793H16.1235ZM17.5677 26.401L18.3228 27.7793H17.8913L17.1482 26.401H17.5677ZM19.1588 27.7793H18.7693L19.8959 24.7111H20.2794L21.406 27.7793H21.0165L20.0996 25.1965H20.0757L19.1588 27.7793ZM19.3026 26.5808H20.8727V26.9104H19.3026V26.5808ZM21.9323 24.7111L22.8432 27.2939H22.8791L23.79 24.7111H24.1795L23.0529 27.7793H22.6694L21.5428 24.7111H21.9323ZM24.8684 27.7793V24.7111H26.7201V25.0407H25.2399V26.0774H26.6242V26.407H25.2399V27.4497H26.744V27.7793H24.8684ZM27.6007 27.7793V24.7111H27.9722V27.4497H29.3984V27.7793H27.6007Z" fill="#616161"/>
<path d="M2.87256 29.2227L2.88557 29.9815L2.76204 29.9767C2.72036 29.8011 2.64487 29.6359 2.54007 29.4909C2.50242 29.446 2.45557 29.4102 2.40289 29.3862C2.35021 29.3621 2.29302 29.3505 2.23544 29.352C2.20943 29.352 2.19272 29.3568 2.18622 29.3673C2.17637 29.3982 2.17289 29.4308 2.176 29.4632V30.8046C2.17189 30.8546 2.18578 30.9044 2.21501 30.9445C2.23225 30.9608 2.25245 30.9734 2.27445 30.9816C2.29645 30.9899 2.3198 30.9935 2.34318 30.9924L2.46391 30.9991V31.1371H1.42556V30.9991L1.54537 30.9924C1.56874 30.9935 1.5921 30.9899 1.61409 30.9816C1.63609 30.9734 1.65629 30.9608 1.67354 30.9445C1.7025 30.9039 1.71605 30.8538 1.71162 30.8036V29.4622C1.71436 29.4299 1.71121 29.3974 1.70233 29.3664C1.69583 29.3568 1.67911 29.352 1.65311 29.352C1.59566 29.3505 1.53861 29.3621 1.48608 29.3862C1.43355 29.4102 1.38687 29.446 1.3494 29.4909C1.2451 29.6362 1.16966 29.8013 1.12743 29.9767L1.00391 29.9815L1.01877 29.2227H2.87256Z" fill="url(#paint4_linear_613_66058)"/>
<path d="M5.21348 30.726C5.20546 30.8001 5.21768 30.8751 5.24877 30.9425C5.26625 30.9599 5.28694 30.9734 5.3096 30.9823C5.33226 30.9912 5.35643 30.9952 5.38065 30.9943L5.45495 31.001V31.139H4.50391V31.001L4.58192 30.9943C4.60557 30.9953 4.62918 30.9914 4.65135 30.9828C4.67352 30.9743 4.69381 30.9612 4.71102 30.9444C4.74168 30.8766 4.75357 30.8013 4.74538 30.7269V29.6346C4.75365 29.5599 4.74176 29.4843 4.71102 29.4162C4.69367 29.3993 4.67323 29.3862 4.6509 29.3777C4.62856 29.3691 4.60479 29.3653 4.58099 29.3663L4.50391 29.3596V29.2207H5.32864C5.67352 29.2207 5.91593 29.2562 6.05586 29.3271C6.1217 29.3573 6.17706 29.4075 6.21456 29.471C6.25205 29.5345 6.26991 29.6083 6.26576 29.6825C6.26754 29.7443 6.25333 29.8055 6.2246 29.8597C6.19587 29.9139 6.15365 29.9593 6.1023 29.9911C5.94686 30.0781 5.77382 30.1263 5.59705 30.1319C5.71215 30.1492 5.82234 30.1917 5.92026 30.2565C5.99985 30.3152 6.05987 30.3978 6.09208 30.4931C6.11009 30.5449 6.12224 30.5986 6.1283 30.6532C6.13666 30.7174 6.14223 30.7566 6.14595 30.7701C6.15273 30.8026 6.16601 30.8332 6.18496 30.8601C6.19191 30.8675 6.20031 30.8733 6.2096 30.8771C6.21888 30.8809 6.22884 30.8826 6.23882 30.8822C6.26078 30.8808 6.28172 30.8722 6.29848 30.8575C6.31523 30.8428 6.32689 30.8229 6.3317 30.8007C6.35616 30.7113 6.36712 30.6186 6.36421 30.5257H6.4868C6.4868 30.5372 6.4868 30.5487 6.4868 30.5621C6.4868 30.5755 6.4868 30.5947 6.4868 30.6215C6.49597 30.769 6.45707 30.9154 6.37628 31.0374C6.33867 31.0847 6.29086 31.1222 6.23667 31.147C6.18248 31.1718 6.12342 31.1831 6.06422 31.1802C6.00761 31.1805 5.95158 31.1684 5.89983 31.1447C5.85117 31.1236 5.80816 31.0908 5.77445 31.0489C5.71253 30.971 5.67012 30.7937 5.64721 30.5171V30.4663C5.64741 30.4222 5.63839 30.3786 5.62076 30.3384C5.60313 30.2982 5.5773 30.2624 5.54504 30.2335C5.44888 30.1836 5.34113 30.1623 5.23391 30.1722H5.21626L5.21348 30.726ZM5.21348 29.6423V30.0514H5.26177H5.33979C5.46099 30.0626 5.58252 30.0341 5.68714 29.97C5.72377 29.9357 5.7521 29.8931 5.76985 29.8455C5.78759 29.7979 5.79425 29.7467 5.78931 29.696C5.79161 29.6497 5.78454 29.6036 5.76854 29.5603C5.75255 29.5171 5.72799 29.4778 5.69643 29.4449C5.66221 29.4137 5.62237 29.3898 5.57918 29.3745C5.53599 29.3592 5.49031 29.3529 5.44474 29.3558C5.3795 29.3481 5.31372 29.3644 5.25899 29.4018C5.22803 29.4344 5.21286 29.5161 5.21348 29.6471V29.6423Z" fill="url(#paint5_linear_613_66058)"/>
<path d="M8.46777 30.4702L8.38139 30.6906C8.37162 30.7148 8.36386 30.7398 8.35817 30.7653C8.3528 30.7889 8.35 30.813 8.34981 30.8372C8.348 30.8594 8.35117 30.8817 8.35906 30.9025C8.36695 30.9233 8.37935 30.9419 8.39532 30.9569C8.43635 30.9862 8.48584 31 8.53557 30.9962H8.60522V31.138H7.89844V30.9981C7.96282 30.9961 8.02427 30.9699 8.07119 30.9244C8.1332 30.8552 8.18203 30.7746 8.21514 30.6867L8.84298 29.2227H9.19963L9.7801 30.7634C9.80173 30.8295 9.83835 30.8892 9.88691 30.9378C9.93235 30.9752 9.98851 30.9961 10.0467 30.9972V31.139H9.07982V30.9991C9.15148 31.0008 9.22295 30.9907 9.29157 30.9694C9.30801 30.9633 9.32211 30.9519 9.33181 30.9369C9.3415 30.9219 9.34628 30.904 9.34544 30.886C9.34428 30.8687 9.34085 30.8516 9.33522 30.8352C9.32841 30.8123 9.31634 30.7765 9.299 30.7279L9.20613 30.4721L8.46777 30.4702ZM8.53557 30.3159H9.14483L8.85599 29.5494L8.53557 30.3159Z" fill="url(#paint6_linear_613_66058)"/>
<path d="M13.1716 29.6998C13.1814 29.6062 13.1618 29.5118 13.1159 29.4305C13.0869 29.4044 13.0532 29.3846 13.0166 29.3723C12.9801 29.3599 12.9415 29.3553 12.9032 29.3587V29.2207H13.5868V29.3587C13.5502 29.3555 13.5135 29.3604 13.4789 29.373C13.4443 29.3855 13.4127 29.4055 13.3861 29.4315C13.3425 29.5129 13.324 29.6062 13.3332 29.6988V31.1361H13.1196L11.9512 29.7324V30.657C11.9412 30.7506 11.9607 30.845 12.0069 30.9262C12.0363 30.9524 12.0703 30.9722 12.1072 30.9845C12.144 30.9969 12.1829 31.0015 12.2215 30.9981V31.1361H11.5231V30.9981C11.5611 31.0017 11.5994 30.9971 11.6357 30.9848C11.672 30.9724 11.7054 30.9525 11.7339 30.9262C11.7792 30.8447 11.7984 30.7505 11.7887 30.657V29.5321C11.7543 29.4841 11.7118 29.4429 11.6633 29.4104C11.6183 29.3823 11.5679 29.3647 11.5156 29.3587V29.2207H12.1147L13.1716 30.5085V29.6998Z" fill="url(#paint7_linear_613_66058)"/>
<path d="M15.4488 31.1886H15.3114L15.2891 30.4038H15.4228C15.4785 30.5854 15.5768 30.7499 15.7089 30.8829C15.8195 30.9875 15.9646 31.0447 16.1147 31.0429C16.197 31.0467 16.2776 31.0183 16.3404 30.9634C16.3688 30.9374 16.3912 30.9054 16.4061 30.8694C16.4211 30.8335 16.4281 30.7946 16.4268 30.7555C16.4282 30.6885 16.4038 30.6238 16.359 30.5753C16.2921 30.5123 16.2134 30.464 16.1277 30.4335L15.9763 30.3722C15.8505 30.3246 15.7282 30.2676 15.6104 30.2017C15.5245 30.1538 15.4507 30.0859 15.3949 30.0033C15.3481 29.9279 15.3239 29.8399 15.3253 29.7504C15.3234 29.6734 15.3379 29.597 15.3677 29.5265C15.3976 29.456 15.4421 29.393 15.498 29.3422C15.6203 29.2327 15.7784 29.1755 15.9401 29.1822C16.0477 29.1836 16.1544 29.203 16.2559 29.2397C16.3165 29.2631 16.3786 29.2823 16.4416 29.2972C16.4522 29.2972 16.4626 29.2949 16.4722 29.2904C16.4818 29.2859 16.4904 29.2794 16.4974 29.2713C16.5181 29.2459 16.5345 29.2171 16.5457 29.186H16.6664L16.6738 29.8107H16.5531C16.5089 29.6717 16.4286 29.5477 16.3209 29.4524C16.2201 29.3718 16.0954 29.3298 15.968 29.3336C15.8857 29.3292 15.8044 29.3531 15.7367 29.4016C15.7092 29.4221 15.687 29.4493 15.6719 29.4806C15.6569 29.512 15.6495 29.5467 15.6503 29.5817C15.6503 29.6935 15.7965 29.8056 16.0887 29.918H16.0989C16.2544 29.9768 16.3649 30.0228 16.4305 30.056C16.4872 30.0834 16.5408 30.1171 16.5902 30.1566C16.6527 30.2088 16.7037 30.2741 16.7398 30.3483C16.7724 30.4239 16.7886 30.506 16.7871 30.5888C16.7909 30.6704 16.777 30.7518 16.7465 30.8272C16.716 30.9026 16.6696 30.9701 16.6107 31.0247C16.4754 31.1376 16.3043 31.1946 16.1305 31.1847C16.0636 31.1847 15.9969 31.1766 15.9318 31.1608C15.8558 31.1414 15.7815 31.1155 15.7098 31.0832L15.6559 31.0583C15.6244 31.0403 15.5902 31.028 15.5547 31.0219C15.5416 31.0224 15.5289 31.0266 15.5178 31.0338C15.5067 31.041 15.4977 31.0511 15.4915 31.0631C15.4688 31.1013 15.4543 31.1441 15.4488 31.1886Z" fill="url(#paint8_linear_613_66058)"/>
<path d="M19.2008 30.726C19.1926 30.8001 19.2055 30.875 19.238 30.9416C19.2569 30.9593 19.279 30.973 19.3031 30.9819C19.3272 30.9908 19.3527 30.9947 19.3782 30.9933L19.459 31.0001V31.138H18.4922V31.0001L18.5702 30.9933C18.5939 30.9943 18.6175 30.9905 18.6396 30.9819C18.6618 30.9733 18.6821 30.9603 18.6993 30.9435C18.73 30.8757 18.7419 30.8004 18.7337 30.726V29.6347C18.7419 29.56 18.73 29.4844 18.6993 29.4162C18.682 29.3994 18.6615 29.3863 18.6392 29.3777C18.6168 29.3692 18.5931 29.3653 18.5693 29.3664L18.4922 29.3616V29.2227H19.3169C19.637 29.2227 19.8698 29.2648 20.0153 29.3491C20.0852 29.3873 20.1429 29.4453 20.1818 29.5163C20.2206 29.5873 20.2389 29.6683 20.2345 29.7496C20.2369 29.8295 20.2184 29.9085 20.1807 29.9784C20.1431 30.0482 20.0879 30.1062 20.0209 30.1463C19.832 30.2503 19.6189 30.2984 19.4052 30.2853H19.3067L19.2008 30.2795V30.726ZM19.2008 29.5868V30.1339H19.2352H19.2872C19.4106 30.1457 19.5341 30.1136 19.6373 30.0428C19.6742 30.0033 19.7024 29.9561 19.72 29.9043C19.7376 29.8526 19.7443 29.7976 19.7395 29.7429C19.7473 29.6393 19.7164 29.5364 19.6531 29.4555C19.6185 29.4217 19.5774 29.3957 19.5324 29.3792C19.4875 29.3627 19.4397 29.356 19.3922 29.3597C19.3382 29.3531 19.2837 29.3659 19.238 29.3961C19.2054 29.4536 19.1923 29.5207 19.2008 29.5868Z" fill="url(#paint9_linear_613_66058)"/>
<path d="M22.8933 29.1797C23.0295 29.1785 23.1649 29.2015 23.2936 29.2478C23.4127 29.2907 23.5223 29.3578 23.6159 29.4451C23.7142 29.5367 23.7922 29.6491 23.8443 29.7748C23.8963 29.9042 23.9231 30.0429 23.9231 30.1829C23.9231 30.323 23.8963 30.4617 23.8443 30.5911C23.7922 30.7168 23.7143 30.8292 23.6159 30.9207C23.5214 31.0085 23.4113 31.0766 23.2917 31.121C23.166 31.1675 23.0334 31.1909 22.8998 31.19C22.7632 31.1912 22.6274 31.1678 22.4986 31.121C22.3786 31.0774 22.2683 31.0093 22.1744 30.9207C22.0776 30.8311 22.0012 30.7205 21.9506 30.5969C21.8498 30.3317 21.8498 30.037 21.9506 29.7719C22.0013 29.6477 22.0777 29.5365 22.1744 29.4461C22.2689 29.3593 22.3791 29.2925 22.4986 29.2497C22.6253 29.2031 22.7588 29.1795 22.8933 29.1797ZM22.8998 31.052C22.9766 31.0549 23.0528 31.0358 23.1198 30.9969C23.1868 30.958 23.2421 30.9008 23.2797 30.8316C23.3652 30.6271 23.4094 30.4067 23.4094 30.1839C23.4094 29.9611 23.3652 29.7407 23.2797 29.5362C23.2396 29.469 23.1835 29.4135 23.1168 29.3751C23.05 29.3366 22.9749 29.3164 22.8984 29.3164C22.822 29.3164 22.7468 29.3366 22.68 29.3751C22.6133 29.4135 22.5572 29.469 22.5171 29.5362C22.4311 29.6818 22.3881 29.898 22.3881 30.1849C22.3881 30.4717 22.4311 30.6879 22.5171 30.8335C22.5552 30.9023 22.6109 30.959 22.678 30.9973C22.7452 31.0357 22.8212 31.0543 22.8979 31.051L22.8998 31.052Z" fill="url(#paint10_linear_613_66058)"/>
<path d="M26.3024 30.726C26.2944 30.8002 26.3066 30.8752 26.3377 30.9426C26.3552 30.9599 26.3758 30.9734 26.3985 30.9823C26.4212 30.9912 26.4453 30.9953 26.4696 30.9943L26.5439 31.001V31.139H25.5938V31.001L25.6718 30.9943C25.6954 30.9953 25.719 30.9914 25.7412 30.9829C25.7634 30.9743 25.7837 30.9613 25.8009 30.9445C25.8315 30.8766 25.8434 30.8014 25.8352 30.727V29.6347C25.8435 29.56 25.8316 29.4844 25.8009 29.4162C25.7835 29.3994 25.7631 29.3863 25.7407 29.3777C25.7184 29.3692 25.6946 29.3653 25.6708 29.3664L25.5938 29.3616V29.2227H26.4185C26.7634 29.2227 27.0058 29.2581 27.1457 29.329C27.2116 29.3593 27.2669 29.4095 27.3044 29.473C27.3419 29.5365 27.3598 29.6103 27.3556 29.6845C27.3574 29.7463 27.3432 29.8074 27.3144 29.8616C27.2857 29.9159 27.2435 29.9612 27.1921 29.993C27.0367 30.08 26.8637 30.1283 26.6869 30.1339C26.802 30.1512 26.9122 30.1937 27.0101 30.2584C27.0897 30.3171 27.1497 30.3998 27.1819 30.4951C27.1999 30.5468 27.2121 30.6005 27.2181 30.6551C27.2265 30.7193 27.2321 30.7586 27.2358 30.772C27.2426 30.8045 27.2559 30.8352 27.2748 30.8621C27.2818 30.8695 27.2902 30.8753 27.2994 30.8791C27.3087 30.8829 27.3187 30.8846 27.3287 30.8841C27.3506 30.8828 27.3716 30.8741 27.3883 30.8594C27.4051 30.8447 27.4167 30.8248 27.4215 30.8027C27.446 30.7133 27.457 30.6205 27.4541 30.5277H27.5766C27.5766 30.5392 27.5766 30.5507 27.5766 30.5641C27.5766 30.5775 27.5766 30.5967 27.5766 30.6235C27.5858 30.7709 27.5469 30.9173 27.4661 31.0393C27.4281 31.0878 27.3795 31.1262 27.3243 31.1513C27.269 31.1765 27.2088 31.1877 27.1485 31.184C27.0919 31.1843 27.0359 31.1722 26.9841 31.1486C26.9354 31.1275 26.8924 31.0946 26.8587 31.0528C26.7968 30.9748 26.7544 30.7976 26.7315 30.521V30.4702C26.7317 30.4261 26.7227 30.3824 26.705 30.3423C26.6874 30.3021 26.6616 30.2663 26.6293 30.2374C26.5332 30.1875 26.4254 30.1662 26.3182 30.176H26.3005L26.3024 30.726ZM26.3024 29.6423V30.0515H26.3507H26.4241C26.5453 30.0626 26.6668 30.0341 26.7714 29.97C26.808 29.9358 26.8364 29.8932 26.8541 29.8456C26.8719 29.798 26.8785 29.7467 26.8736 29.696C26.8759 29.6498 26.8688 29.6036 26.8528 29.5604C26.8368 29.5171 26.8123 29.4778 26.7807 29.445C26.7465 29.4138 26.7066 29.3898 26.6635 29.3745C26.6203 29.3593 26.5746 29.3529 26.529 29.3558C26.4638 29.3481 26.398 29.3644 26.3433 29.4018C26.316 29.4344 26.3024 29.5162 26.3024 29.6471V29.6423Z" fill="url(#paint11_linear_613_66058)"/>
<path d="M30.9858 29.2227L30.9988 29.9815L30.8753 29.9767C30.8336 29.8011 30.7582 29.6359 30.6533 29.4909C30.6157 29.446 30.5688 29.4102 30.5162 29.3862C30.4635 29.3621 30.4063 29.3505 30.3487 29.352C30.3227 29.352 30.306 29.3568 30.2995 29.3673C30.2896 29.3982 30.2862 29.4308 30.2893 29.4632V30.8046C30.2852 30.8546 30.2991 30.9044 30.3283 30.9445C30.3455 30.9608 30.3657 30.9734 30.3877 30.9816C30.4097 30.9899 30.4331 30.9935 30.4565 30.9924L30.5772 30.9991V31.1371H29.5388V30.9991L29.6586 30.9924C29.682 30.9935 29.7054 30.9899 29.7274 30.9816C29.7494 30.9734 29.7696 30.9608 29.7868 30.9445C29.8158 30.9039 29.8293 30.8538 29.8249 30.8036V29.4622C29.8276 29.4299 29.8245 29.3974 29.8156 29.3664C29.8091 29.3568 29.7924 29.352 29.7664 29.352C29.7089 29.3505 29.6519 29.3621 29.5994 29.3862C29.5468 29.4102 29.5001 29.446 29.4627 29.4909C29.3584 29.6362 29.2829 29.8013 29.2407 29.9767L29.1172 29.9815L29.132 29.2227H30.9858Z" fill="url(#paint12_linear_613_66058)"/>
</g>
<defs>
<linearGradient id="paint0_linear_613_66058" x1="5.45312" y1="15.6657" x2="18.4789" y2="15.6657" gradientUnits="userSpaceOnUse">
<stop stop-color="#007F7A"/>
<stop offset="0.2" stop-color="#009E9D"/>
<stop offset="0.42" stop-color="#00BABE"/>
<stop offset="0.63" stop-color="#00CED6"/>
<stop offset="0.83" stop-color="#00DBE4"/>
<stop offset="1" stop-color="#00DFE9"/>
</linearGradient>
<linearGradient id="paint1_linear_613_66058" x1="0.8125" y1="12.1898" x2="31.1875" y2="12.1898" gradientUnits="userSpaceOnUse">
<stop stop-color="#007F7A"/>
<stop offset="1" stop-color="#00DFE9"/>
</linearGradient>
<linearGradient id="paint2_linear_613_66058" x1="0.8125" y1="12.1898" x2="31.1875" y2="12.1898" gradientUnits="userSpaceOnUse">
<stop stop-color="#007F7A"/>
<stop offset="0.2" stop-color="#009E9D"/>
<stop offset="0.42" stop-color="#00BABE"/>
<stop offset="0.63" stop-color="#00CED6"/>
<stop offset="0.83" stop-color="#00DBE4"/>
<stop offset="1" stop-color="#00DFE9"/>
</linearGradient>
<linearGradient id="paint3_linear_613_66058" x1="21.3003" y1="18.0623" x2="14.043" y2="18.0623" gradientUnits="userSpaceOnUse">
<stop stop-color="#007F7A"/>
<stop offset="0.2" stop-color="#009E9D"/>
<stop offset="0.42" stop-color="#00BABE"/>
<stop offset="0.63" stop-color="#00CED6"/>
<stop offset="0.83" stop-color="#00DBE4"/>
<stop offset="1" stop-color="#00DFE9"/>
</linearGradient>
<linearGradient id="paint4_linear_613_66058" x1="1.00205" y1="30.1789" x2="2.88464" y2="30.1789" gradientUnits="userSpaceOnUse">
<stop stop-color="#007F7A"/>
<stop offset="0.2" stop-color="#009E9D"/>
<stop offset="0.42" stop-color="#00BABE"/>
<stop offset="0.63" stop-color="#00CED6"/>
<stop offset="0.83" stop-color="#00DBE4"/>
<stop offset="1" stop-color="#00DFE9"/>
</linearGradient>
<linearGradient id="paint5_linear_613_66058" x1="4.50391" y1="30.2028" x2="6.49238" y2="30.2028" gradientUnits="userSpaceOnUse">
<stop stop-color="#007F7A"/>
<stop offset="0.2" stop-color="#009E9D"/>
<stop offset="0.42" stop-color="#00BABE"/>
<stop offset="0.63" stop-color="#00CED6"/>
<stop offset="0.83" stop-color="#00DBE4"/>
<stop offset="1" stop-color="#00DFE9"/>
</linearGradient>
<linearGradient id="paint6_linear_613_66058" x1="7.89844" y1="30.1799" x2="10.0467" y2="30.1799" gradientUnits="userSpaceOnUse">
<stop stop-color="#007F7A"/>
<stop offset="0.2" stop-color="#009E9D"/>
<stop offset="0.42" stop-color="#00BABE"/>
<stop offset="0.63" stop-color="#00CED6"/>
<stop offset="0.83" stop-color="#00DBE4"/>
<stop offset="1" stop-color="#00DFE9"/>
</linearGradient>
<linearGradient id="paint7_linear_613_66058" x1="11.5156" y1="30.1789" x2="13.5868" y2="30.1789" gradientUnits="userSpaceOnUse">
<stop stop-color="#007F7A"/>
<stop offset="0.2" stop-color="#009E9D"/>
<stop offset="0.42" stop-color="#00BABE"/>
<stop offset="0.63" stop-color="#00CED6"/>
<stop offset="0.83" stop-color="#00DBE4"/>
<stop offset="1" stop-color="#00DFE9"/>
</linearGradient>
<linearGradient id="paint8_linear_613_66058" x1="15.2891" y1="30.1825" x2="16.7834" y2="30.1825" gradientUnits="userSpaceOnUse">
<stop stop-color="#007F7A"/>
<stop offset="0.2" stop-color="#009E9D"/>
<stop offset="0.42" stop-color="#00BABE"/>
<stop offset="0.63" stop-color="#00CED6"/>
<stop offset="0.83" stop-color="#00DBE4"/>
<stop offset="1" stop-color="#00DFE9"/>
</linearGradient>
<linearGradient id="paint9_linear_613_66058" x1="18.4922" y1="30.1799" x2="20.2345" y2="30.1799" gradientUnits="userSpaceOnUse">
<stop stop-color="#007F7A"/>
<stop offset="0.2" stop-color="#009E9D"/>
<stop offset="0.42" stop-color="#00BABE"/>
<stop offset="0.63" stop-color="#00CED6"/>
<stop offset="0.83" stop-color="#00DBE4"/>
<stop offset="1" stop-color="#00DFE9"/>
</linearGradient>
<linearGradient id="paint10_linear_613_66058" x1="21.8735" y1="30.1839" x2="23.9224" y2="30.1839" gradientUnits="userSpaceOnUse">
<stop stop-color="#007F7A"/>
<stop offset="0.2" stop-color="#009E9D"/>
<stop offset="0.42" stop-color="#00BABE"/>
<stop offset="0.63" stop-color="#00CED6"/>
<stop offset="0.83" stop-color="#00DBE4"/>
<stop offset="1" stop-color="#00DFE9"/>
</linearGradient>
<linearGradient id="paint11_linear_613_66058" x1="25.5938" y1="30.2029" x2="27.5813" y2="30.2029" gradientUnits="userSpaceOnUse">
<stop stop-color="#007F7A"/>
<stop offset="0.2" stop-color="#009E9D"/>
<stop offset="0.42" stop-color="#00BABE"/>
<stop offset="0.63" stop-color="#00CED6"/>
<stop offset="0.83" stop-color="#00DBE4"/>
<stop offset="1" stop-color="#00DFE9"/>
</linearGradient>
<linearGradient id="paint12_linear_613_66058" x1="29.1163" y1="30.1789" x2="30.9979" y2="30.1789" gradientUnits="userSpaceOnUse">
<stop stop-color="#007F7A"/>
<stop offset="0.2" stop-color="#009E9D"/>
<stop offset="0.42" stop-color="#00BABE"/>
<stop offset="0.63" stop-color="#00CED6"/>
<stop offset="0.83" stop-color="#00DBE4"/>
<stop offset="1" stop-color="#00DFE9"/>
</linearGradient>
<clipPath id="clip0_613_66058">
<rect width="30.375" height="30.375" fill="white" transform="translate(0.8125 0.8125)"/>
</clipPath>
</defs>
</svg>
