<svg width="24" height="24" viewBox="0 0 24 24" fill="none" xmlns="http://www.w3.org/2000/svg">
<path d="M5.57166 22.7C3.23166 22.7 1.25166 20.72 1.25166 18.38V12.22C1.20166 9.29999 2.28166 6.54999 4.30166 4.48999C6.32166 2.43999 9.03166 1.29999 11.9517 1.29999C17.9117 1.29999 22.7517 6.14999 22.7517 12.1V18.26C22.7517 20.64 20.8117 22.58 18.4317 22.58C16.0917 22.58 14.1117 20.6 14.1117 18.26V15.45C14.1117 14 15.2517 12.86 16.7017 12.86C18.1517 12.86 19.2917 14 19.2917 15.45V18.48C19.2917 18.89 18.9517 19.23 18.5417 19.23C18.1317 19.23 17.7917 18.89 17.7917 18.48V15.45C17.7917 14.77 17.2417 14.36 16.7017 14.36C16.0217 14.36 15.6117 14.91 15.6117 15.45V18.26C15.6117 19.79 16.9017 21.08 18.4317 21.08C19.9617 21.08 21.2517 19.79 21.2517 18.26V12.1C21.2517 6.96999 17.0817 2.79999 11.9517 2.79999C9.44166 2.79999 7.11166 3.76999 5.37166 5.53999C3.63166 7.30999 2.70166 9.67999 2.75166 12.2V18.38C2.75166 19.91 4.04166 21.2 5.57166 21.2C7.10166 21.2 8.39166 19.91 8.39166 18.38V15.57C8.39166 14.89 7.84166 14.48 7.30166 14.48C6.62166 14.48 6.21166 15.03 6.21166 15.57V18.49C6.21166 18.9 5.87166 19.24 5.46166 19.24C5.05166 19.24 4.71166 18.9 4.71166 18.49V15.57C4.71166 14.12 5.85166 12.98 7.30166 12.98C8.75166 12.98 9.89166 14.12 9.89166 15.57V18.38C9.89166 20.72 7.91166 22.7 5.57166 22.7Z" fill="#64748B"/>
</svg>
