<svg width="16" height="16" viewBox="0 0 16 16" fill="none" xmlns="http://www.w3.org/2000/svg">
<path d="M11.0119 3.76672L8.94519 2.16672C8.67852 1.90006 8.07852 1.76672 7.67852 1.76672H5.14519C4.34519 1.76672 3.47852 2.36672 3.27852 3.16672L1.67852 8.03339C1.34519 8.96672 1.94519 9.76672 2.94519 9.76672H5.61185C6.01185 9.76672 6.34519 10.1001 6.27852 10.5667L5.94519 12.7001C5.81185 13.3001 6.21185 13.9667 6.81185 14.1667C7.34519 14.3667 8.01185 14.1001 8.27852 13.7001L11.0119 9.63339" stroke="white" stroke-miterlimit="10"/>
<path d="M14.4115 3.76667V10.3C14.4115 11.2333 14.0115 11.5667 13.0781 11.5667H12.4115C11.4781 11.5667 11.0781 11.2333 11.0781 10.3V3.76667C11.0781 2.83333 11.4781 2.5 12.4115 2.5H13.0781C14.0115 2.5 14.4115 2.83333 14.4115 3.76667Z" stroke="white" stroke-linecap="round" stroke-linejoin="round"/>
</svg>
