<svg width="24" height="24" viewBox="0 0 24 24" fill="none" xmlns="http://www.w3.org/2000/svg">
<path d="M12 22.25C6.34614 22.25 1.75 17.6539 1.75 12C1.75 6.34614 6.34614 1.75 12 1.75C17.6539 1.75 22.25 6.34614 22.25 12C22.25 17.6539 17.6539 22.25 12 22.25ZM12 2.25C6.62386 2.25 2.25 6.62386 2.25 12C2.25 17.3761 6.62386 21.75 12 21.75C17.3761 21.75 21.75 17.3761 21.75 12C21.75 6.62386 17.3761 2.25 12 2.25Z" fill="#64748B" stroke="#64748B"/>
<path d="M7.99047 20.7499L8.64105 20.734L8.45812 20.1094C6.915 14.8412 6.915 9.15878 8.45812 3.89055L8.64105 3.26602L7.99047 3.25015C7.85354 3.24681 7.74828 3.14037 7.74828 3C7.74828 2.86614 7.86442 2.75 7.99828 2.75H8.99828C9.07367 2.75 9.15374 2.78938 9.20225 2.85197C9.25193 2.92609 9.25994 3.00702 9.23603 3.07574L9.23599 3.07572L9.23386 3.08214C7.31973 8.83471 7.31981 15.1654 9.23377 20.9276L9.23373 20.9276L9.23603 20.9343C9.25932 21.0012 9.25232 21.0798 9.20599 21.1523C9.1557 21.2106 9.0736 21.25 8.99828 21.25H7.99828C7.86442 21.25 7.74828 21.1339 7.74828 21C7.74828 20.8596 7.85354 20.7532 7.99047 20.7499Z" fill="#64748B" stroke="#64748B"/>
<path d="M14.934 21.242L14.9253 21.2388L14.9166 21.2358C14.7824 21.1911 14.7175 21.0448 14.759 20.9291L14.7592 20.9292L14.7629 20.918C16.677 15.1655 16.6769 8.8348 14.763 3.07257L14.7628 3.07207C14.7186 2.93944 14.793 2.79679 14.9149 2.75509C15.0589 2.70931 15.1931 2.78534 15.2341 2.90829L15.2342 2.90853C17.1899 8.76584 17.1898 15.2146 15.2343 21.0616L15.232 21.0683L15.2299 21.0752C15.1968 21.1846 15.0986 21.2502 14.9984 21.2502C14.9608 21.2502 14.9434 21.2456 14.934 21.242Z" fill="#64748B" stroke="#64748B"/>
<path d="M3.89137 15.5402L3.26644 15.356L3.25016 16.0073C3.24686 16.1391 3.1358 16.2498 3 16.2498C2.86614 16.2498 2.75 16.1337 2.75 15.9998V14.9998C2.75 14.9244 2.78938 14.8443 2.85197 14.7958C2.92609 14.7461 3.00702 14.7381 3.07574 14.762L3.07572 14.7621L3.08214 14.7642C8.83462 16.6783 15.1754 16.6783 20.9279 14.7642L20.9279 14.7643L20.9343 14.762C21.0046 14.7376 21.0877 14.7465 21.1633 14.7994C21.2197 14.8389 21.26 14.9104 21.26 14.9998V15.9998C21.26 16.1337 21.1439 16.2498 21.01 16.2498C20.8696 16.2498 20.7632 16.1445 20.7599 16.0076L20.744 15.3565L20.1191 15.5401C17.4759 16.3163 14.7434 16.6998 12 16.6998C9.25654 16.6998 6.52422 16.3163 3.89137 15.5402Z" fill="#64748B" stroke="#64748B"/>
<path d="M20.9353 9.2417L20.9266 9.2384L20.9176 9.23544C15.1659 7.32157 8.82592 7.32134 3.07399 9.23475C2.93239 9.28009 2.8002 9.20768 2.75652 9.0886C2.71581 8.93948 2.79703 8.80449 2.9179 8.76421L2.91814 8.76413C8.77544 6.80841 15.2242 6.8085 21.0712 8.76405L21.0717 8.7642C21.2059 8.80894 21.2707 8.95527 21.2292 9.07093L21.2239 9.08555L21.2196 9.10046C21.1977 9.17582 21.11 9.24986 20.9998 9.24986C20.9621 9.24986 20.9448 9.24524 20.9353 9.2417Z" fill="#64748B" stroke="#64748B"/>
</svg>
