<svg width="20" height="21" viewBox="0 0 20 21" fill="none" xmlns="http://www.w3.org/2000/svg">
<path d="M18.04 5.32018L12.28 1.29018C10.71 0.190182 8.29999 0.250182 6.78999 1.42018L1.77999 5.33018C0.77999 6.11018 -0.0100098 7.71018 -0.0100098 8.97018V15.8702C-0.0100098 18.4202 2.05999 20.5002 4.60999 20.5002H15.39C17.94 20.5002 20.01 18.4302 20.01 15.8802V9.10018C20.01 7.75018 19.14 6.09018 18.04 5.32018ZM10.75 16.5002C10.75 16.9102 10.41 17.2502 9.99999 17.2502C9.58999 17.2502 9.24999 16.9102 9.24999 16.5002V13.5002C9.24999 13.0902 9.58999 12.7502 9.99999 12.7502C10.41 12.7502 10.75 13.0902 10.75 13.5002V16.5002Z" fill="#4E918F"/>
</svg>
