<svg width="22" height="22" viewBox="0 0 22 22" fill="none" xmlns="http://www.w3.org/2000/svg">
<rect x="1.66406" y="1.66797" width="18.6667" height="18.6667" rx="4" fill="url(#paint0_radial_613_65595)"/>
<rect x="1.66406" y="1.66797" width="18.6667" height="18.6667" rx="4" fill="url(#paint1_radial_613_65595)"/>
<rect x="1.66406" y="1.66797" width="18.6667" height="18.6667" rx="4" fill="url(#paint2_radial_613_65595)"/>
<path d="M15.6654 7.33203C15.6654 7.88432 15.2176 8.33203 14.6654 8.33203C14.1131 8.33203 13.6654 7.88432 13.6654 7.33203C13.6654 6.77975 14.1131 6.33203 14.6654 6.33203C15.2176 6.33203 15.6654 6.77975 15.6654 7.33203Z" fill="white"/>
<path fill-rule="evenodd" clip-rule="evenodd" d="M10.9987 14.332C12.8396 14.332 14.332 12.8396 14.332 10.9987C14.332 9.15775 12.8396 7.66536 10.9987 7.66536C9.15775 7.66536 7.66536 9.15775 7.66536 10.9987C7.66536 12.8396 9.15775 14.332 10.9987 14.332ZM10.9987 12.9987C12.1033 12.9987 12.9987 12.1033 12.9987 10.9987C12.9987 9.89413 12.1033 8.9987 10.9987 8.9987C9.89413 8.9987 8.9987 9.89413 8.9987 10.9987C8.9987 12.1033 9.89413 12.9987 10.9987 12.9987Z" fill="white"/>
<path fill-rule="evenodd" clip-rule="evenodd" d="M4.33203 10.732C4.33203 8.49182 4.33203 7.37172 4.76801 6.51607C5.1515 5.76342 5.76342 5.1515 6.51607 4.76801C7.37172 4.33203 8.49182 4.33203 10.732 4.33203H11.2654C13.5056 4.33203 14.6257 4.33203 15.4813 4.76801C16.234 5.1515 16.8459 5.76342 17.2294 6.51607C17.6654 7.37172 17.6654 8.49182 17.6654 10.732V11.2654C17.6654 13.5056 17.6654 14.6257 17.2294 15.4813C16.8459 16.234 16.234 16.8459 15.4813 17.2294C14.6257 17.6654 13.5056 17.6654 11.2654 17.6654H10.732C8.49182 17.6654 7.37172 17.6654 6.51607 17.2294C5.76342 16.8459 5.1515 16.234 4.76801 15.4813C4.33203 14.6257 4.33203 13.5056 4.33203 11.2654V10.732ZM10.732 5.66536H11.2654C12.4075 5.66536 13.1839 5.6664 13.784 5.71543C14.3685 5.76319 14.6675 5.84976 14.876 5.95601C15.3778 6.21168 15.7857 6.61962 16.0414 7.12139C16.1476 7.32992 16.2342 7.62886 16.282 8.21341C16.331 8.81353 16.332 9.58993 16.332 10.732V11.2654C16.332 12.4075 16.331 13.1839 16.282 13.784C16.2342 14.3685 16.1476 14.6675 16.0414 14.876C15.7857 15.3778 15.3778 15.7857 14.876 16.0414C14.6675 16.1476 14.3685 16.2342 13.784 16.282C13.1839 16.331 12.4075 16.332 11.2654 16.332H10.732C9.58993 16.332 8.81353 16.331 8.21341 16.282C7.62886 16.2342 7.32992 16.1476 7.12139 16.0414C6.61962 15.7857 6.21168 15.3778 5.95601 14.876C5.84976 14.6675 5.76319 14.3685 5.71543 13.784C5.6664 13.1839 5.66536 12.4075 5.66536 11.2654V10.732C5.66536 9.58993 5.6664 8.81353 5.71543 8.21341C5.76319 7.62886 5.84976 7.32992 5.95601 7.12139C6.21168 6.61962 6.61962 6.21168 7.12139 5.95601C7.32992 5.84976 7.62886 5.76319 8.21341 5.71543C8.81353 5.6664 9.58993 5.66536 10.732 5.66536Z" fill="white"/>
<defs>
<radialGradient id="paint0_radial_613_65595" cx="0" cy="0" r="1" gradientUnits="userSpaceOnUse" gradientTransform="translate(8.33073 15.668) rotate(-55.3758) scale(17.0131)">
<stop stop-color="#B13589"/>
<stop offset="0.79309" stop-color="#C62F94"/>
<stop offset="1" stop-color="#8A3AC8"/>
</radialGradient>
<radialGradient id="paint1_radial_613_65595" cx="0" cy="0" r="1" gradientUnits="userSpaceOnUse" gradientTransform="translate(7.66406 21.0013) rotate(-65.1363) scale(15.0628)">
<stop stop-color="#E0E8B7"/>
<stop offset="0.444662" stop-color="#FB8A2E"/>
<stop offset="0.71474" stop-color="#E2425C"/>
<stop offset="1" stop-color="#E2425C" stop-opacity="0"/>
</radialGradient>
<radialGradient id="paint2_radial_613_65595" cx="0" cy="0" r="1" gradientUnits="userSpaceOnUse" gradientTransform="translate(0.664064 2.33464) rotate(-8.1301) scale(25.9272 5.54557)">
<stop offset="0.156701" stop-color="#406ADC"/>
<stop offset="0.467799" stop-color="#6A45BE"/>
<stop offset="1" stop-color="#6A45BE" stop-opacity="0"/>
</radialGradient>
</defs>
</svg>
