<svg width="33" height="32" viewBox="0 0 33 32" fill="none" xmlns="http://www.w3.org/2000/svg">
<path d="M0.5 16C0.5 24.8366 7.66344 32 16.5 32C25.3366 32 32.5 24.8366 32.5 16C32.5 7.16344 25.3366 0 16.5 0C7.66344 0 0.5 7.16344 0.5 16Z" fill="#F00073"/>
<path d="M16.4992 9.19922C18.6992 9.19922 18.9992 9.19922 19.8992 9.19922C20.6992 9.19922 21.0992 9.39922 21.3992 9.49922C21.7992 9.69922 22.0992 9.79922 22.3992 10.0992C22.6992 10.3992 22.8992 10.6992 22.9992 11.0992C23.0992 11.3992 23.1992 11.7992 23.2992 12.5992C23.2992 13.4992 23.2992 13.6992 23.2992 15.9992C23.2992 18.2992 23.2992 18.4992 23.2992 19.3992C23.2992 20.1992 23.0992 20.5992 22.9992 20.8992C22.7992 21.2992 22.6992 21.5992 22.3992 21.8992C22.0992 22.1992 21.7992 22.3992 21.3992 22.4992C21.0992 22.5992 20.6992 22.6992 19.8992 22.7992C18.9992 22.7992 18.7992 22.7992 16.4992 22.7992C14.1992 22.7992 13.9992 22.7992 13.0992 22.7992C12.2992 22.7992 11.8992 22.5992 11.5992 22.4992C11.1992 22.2992 10.8992 22.1992 10.5992 21.8992C10.2992 21.5992 10.0992 21.2992 9.99922 20.8992C9.89922 20.5992 9.79922 20.1992 9.69922 19.3992C9.69922 18.4992 9.69922 18.2992 9.69922 15.9992C9.69922 13.6992 9.69922 13.4992 9.69922 12.5992C9.69922 11.7992 9.89922 11.3992 9.99922 11.0992C10.1992 10.6992 10.2992 10.3992 10.5992 10.0992C10.8992 9.79922 11.1992 9.59922 11.5992 9.49922C11.8992 9.39922 12.2992 9.29922 13.0992 9.19922C13.9992 9.19922 14.2992 9.19922 16.4992 9.19922ZM16.4992 7.69922C14.1992 7.69922 13.9992 7.69922 13.0992 7.69922C12.1992 7.69922 11.5992 7.89922 11.0992 8.09922C10.5992 8.29922 10.0992 8.59922 9.59922 9.09922C9.09922 9.59922 8.89922 9.99922 8.59922 10.5992C8.39922 11.0992 8.29922 11.6992 8.19922 12.5992C8.19922 13.4992 8.19922 13.7992 8.19922 15.9992C8.19922 18.2992 8.19922 18.4992 8.19922 19.3992C8.19922 20.2992 8.39922 20.8992 8.59922 21.3992C8.79922 21.8992 9.09922 22.3992 9.59922 22.8992C10.0992 23.3992 10.4992 23.5992 11.0992 23.8992C11.5992 24.0992 12.1992 24.1992 13.0992 24.2992C13.9992 24.2992 14.2992 24.2992 16.4992 24.2992C18.6992 24.2992 18.9992 24.2992 19.8992 24.2992C20.7992 24.2992 21.3992 24.0992 21.8992 23.8992C22.3992 23.6992 22.8992 23.3992 23.3992 22.8992C23.8992 22.3992 24.0992 21.9992 24.3992 21.3992C24.5992 20.8992 24.6992 20.2992 24.7992 19.3992C24.7992 18.4992 24.7992 18.1992 24.7992 15.9992C24.7992 13.7992 24.7992 13.4992 24.7992 12.5992C24.7992 11.6992 24.5992 11.0992 24.3992 10.5992C24.1992 10.0992 23.8992 9.59922 23.3992 9.09922C22.8992 8.59922 22.4992 8.39922 21.8992 8.09922C21.3992 7.89922 20.7992 7.79922 19.8992 7.69922C18.9992 7.69922 18.7992 7.69922 16.4992 7.69922Z" fill="white"/>
<path d="M16.4992 11.6992C14.0992 11.6992 12.1992 13.5992 12.1992 15.9992C12.1992 18.3992 14.0992 20.2992 16.4992 20.2992C18.8992 20.2992 20.7992 18.3992 20.7992 15.9992C20.7992 13.5992 18.8992 11.6992 16.4992 11.6992ZM16.4992 18.7992C14.9992 18.7992 13.6992 17.5992 13.6992 15.9992C13.6992 14.4992 14.8992 13.1992 16.4992 13.1992C17.9992 13.1992 19.2992 14.3992 19.2992 15.9992C19.2992 17.4992 17.9992 18.7992 16.4992 18.7992Z" fill="white"/>
<path d="M20.8992 12.5992C21.4515 12.5992 21.8992 12.1515 21.8992 11.5992C21.8992 11.0469 21.4515 10.5992 20.8992 10.5992C20.3469 10.5992 19.8992 11.0469 19.8992 11.5992C19.8992 12.1515 20.3469 12.5992 20.8992 12.5992Z" fill="white"/>
</svg>
