<svg width="16" height="16" viewBox="0 0 16 16" fill="none" xmlns="http://www.w3.org/2000/svg">
<path d="M4.98828 12.2334L7.05495 13.8334C7.32161 14.1001 7.92161 14.2334 8.32161 14.2334H10.8549C11.6549 14.2334 12.5216 13.6334 12.7216 12.8334L14.3216 7.96673C14.6549 7.03339 14.0549 6.23339 13.0549 6.23339H10.3883C9.98828 6.23339 9.65495 5.90006 9.72161 5.43339L10.0549 3.30006C10.1883 2.70006 9.78828 2.03339 9.18828 1.83339C8.65495 1.63339 7.98828 1.90006 7.72161 2.30006L4.98828 6.36673" stroke="white" stroke-miterlimit="10"/>
<path d="M1.58594 12.2333V5.70002C1.58594 4.76668 1.98594 4.43335 2.91927 4.43335H3.58594C4.51927 4.43335 4.91927 4.76668 4.91927 5.70002V12.2333C4.91927 13.1667 4.51927 13.5 3.58594 13.5H2.91927C1.98594 13.5 1.58594 13.1667 1.58594 12.2333Z" stroke="white" stroke-linecap="round" stroke-linejoin="round"/>
</svg>
