<svg width="24" height="24" viewBox="0 0 24 24" fill="none" xmlns="http://www.w3.org/2000/svg">
<path d="M15.2405 22.27H15.1105C10.6705 22.27 8.5305 20.52 8.1605 16.6C8.1205 16.19 8.4205 15.82 8.8405 15.78C9.2405 15.74 9.6205 16.05 9.6605 16.46C9.9505 19.6 11.4305 20.77 15.1205 20.77H15.2505C19.3205 20.77 20.7605 19.33 20.7605 15.26V8.73998C20.7605 4.66998 19.3205 3.22998 15.2505 3.22998H15.1205C11.4105 3.22998 9.9305 4.41998 9.6605 7.61998C9.6105 8.02998 9.2605 8.33998 8.8405 8.29998C8.4205 8.26998 8.1205 7.89998 8.1505 7.48998C8.4905 3.50998 10.6405 1.72998 15.1105 1.72998H15.2405C20.1505 1.72998 22.2505 3.82998 22.2505 8.73998V15.26C22.2505 20.17 20.1505 22.27 15.2405 22.27Z" fill="#BF3636"/>
<path d="M15.0011 12.75H3.62109C3.21109 12.75 2.87109 12.41 2.87109 12C2.87109 11.59 3.21109 11.25 3.62109 11.25H15.0011C15.4111 11.25 15.7511 11.59 15.7511 12C15.7511 12.41 15.4111 12.75 15.0011 12.75Z" fill="#BF3636"/>
<path d="M5.85141 16.0998C5.66141 16.0998 5.47141 16.0298 5.32141 15.8798L1.97141 12.5298C1.68141 12.2398 1.68141 11.7598 1.97141 11.4698L5.32141 8.11984C5.61141 7.82984 6.09141 7.82984 6.38141 8.11984C6.67141 8.40984 6.67141 8.88984 6.38141 9.17984L3.56141 11.9998L6.38141 14.8198C6.67141 15.1098 6.67141 15.5898 6.38141 15.8798C6.24141 16.0298 6.04141 16.0998 5.85141 16.0998Z" fill="#BF3636"/>
</svg>
