<svg width="341" height="332" viewBox="0 0 341 332" fill="none" xmlns="http://www.w3.org/2000/svg">
<g clip-path="url(#clip0_690_61630)">
<path d="M197.783 116.514L185.678 98.825L170.049 75.9629L154.409 98.825L51.9375 248.712H133.569L133.528 222.278H101.281L170.049 121.698L181.789 138.862L197.783 116.514Z" fill="white" fill-opacity="0.1"/>
<path d="M340.098 248.708H256.896L209.632 179.357L215.165 175.534L260.421 241.963H327.369L170.054 11.8761L12.7491 241.963H27.7548L170.054 33.8585L303.493 229.008H266.577L221.03 162.391L221.362 162.056L225.044 156.401L270.081 222.275H290.744L196.01 83.7195L180.38 60.8469L170.054 45.7347L159.717 60.8469L144.088 83.7195L31.28 248.708H0L128.458 60.8469L144.088 37.9743L154.414 22.8621L170.054 0L185.684 22.8621L196.01 37.9743L211.66 60.8469L340.098 248.708Z" fill="white" fill-opacity="0.1"/>
<path d="M340.098 248.708H256.896L209.632 179.357L221.03 162.391L225.044 156.401L270.081 222.275H290.744L196.01 83.7195L180.38 60.8469L170.054 45.7347L159.717 60.8469L144.088 83.7195L31.28 248.708H0L128.458 60.8469L144.088 37.9743L154.414 22.8621L170.054 0L185.684 22.8621L196.01 37.9743L211.66 60.8469L340.098 248.708Z" fill="white" fill-opacity="0.1"/>
<path d="M189.09 187.225L217.885 145.931L205.864 128.357L167.939 182.586V152.277L148.129 180.554V248.711H167.939V217.408L177.173 204.379L204.314 248.721H229.376L189.09 187.225Z" fill="white" fill-opacity="0.1"/>
<path d="M4.35014 299.025V263.102H8.70028V280.923H9.12126L25.2589 263.102H30.9421L15.857 279.309L30.9421 299.025H25.6799L13.1907 282.326L8.70028 287.378V299.025H4.35014ZM43.8866 263.102V299.025H39.5364V263.102H43.8866ZM55.5725 299.025V263.102H67.7108C70.5173 263.102 72.821 263.581 74.6219 264.54C76.4228 265.487 77.7559 266.791 78.6212 268.452C79.4866 270.112 79.9192 272.001 79.9192 274.117C79.9192 276.234 79.4866 278.111 78.6212 279.748C77.7559 281.385 76.4286 282.671 74.6394 283.607C72.8503 284.531 70.5641 284.993 67.7809 284.993H57.9581V281.064H67.6406C69.5584 281.064 71.102 280.783 72.2714 280.222C73.4525 279.66 74.3062 278.865 74.8324 277.836C75.3703 276.795 75.6393 275.556 75.6393 274.117C75.6393 272.679 75.3703 271.422 74.8324 270.346C74.2945 269.27 73.435 268.44 72.2539 267.855C71.0728 267.259 69.5116 266.961 67.5705 266.961H59.9226V299.025H55.5725ZM72.4819 282.888L81.3225 299.025H76.2707L67.5705 282.888H72.4819ZM120.442 281.064C120.442 284.852 119.758 288.127 118.39 290.886C117.022 293.646 115.145 295.774 112.759 297.271C110.374 298.768 107.649 299.517 104.585 299.517C101.522 299.517 98.7969 298.768 96.4114 297.271C94.0258 295.774 92.1489 293.646 90.7807 290.886C89.4125 288.127 88.7284 284.852 88.7284 281.064C88.7284 277.275 89.4125 274 90.7807 271.241C92.1489 268.481 94.0258 266.353 96.4114 264.856C98.7969 263.359 101.522 262.611 104.585 262.611C107.649 262.611 110.374 263.359 112.759 264.856C115.145 266.353 117.022 268.481 118.39 271.241C119.758 274 120.442 277.275 120.442 281.064ZM116.233 281.064C116.233 277.953 115.712 275.328 114.671 273.188C113.642 271.048 112.245 269.428 110.479 268.329C108.725 267.23 106.76 266.68 104.585 266.68C102.41 266.68 100.44 267.23 98.6741 268.329C96.92 269.428 95.5226 271.048 94.4819 273.188C93.4528 275.328 92.9383 277.953 92.9383 281.064C92.9383 284.174 93.4528 286.799 94.4819 288.939C95.5226 291.079 96.92 292.699 98.6741 293.798C100.44 294.897 102.41 295.447 104.585 295.447C106.76 295.447 108.725 294.897 110.479 293.798C112.245 292.699 113.642 291.079 114.671 288.939C115.712 286.799 116.233 284.174 116.233 281.064ZM145.612 266.961V263.102H172.555V266.961H161.259V299.025H156.908V266.961H145.612ZM182.232 299.025V263.102H194.371C197.177 263.102 199.481 263.581 201.282 264.54C203.083 265.487 204.416 266.791 205.281 268.452C206.146 270.112 206.579 272.001 206.579 274.117C206.579 276.234 206.146 278.111 205.281 279.748C204.416 281.385 203.088 282.671 201.299 283.607C199.51 284.531 197.224 284.993 194.441 284.993H184.618V281.064H194.301C196.218 281.064 197.762 280.783 198.931 280.222C200.112 279.66 200.966 278.865 201.492 277.836C202.03 276.795 202.299 275.556 202.299 274.117C202.299 272.679 202.03 271.422 201.492 270.346C200.954 269.27 200.095 268.44 198.914 267.855C197.733 267.259 196.172 266.961 194.23 266.961H186.583V299.025H182.232ZM199.142 282.888L207.982 299.025H202.931L194.23 282.888H199.142ZM218.265 299.025H213.704L226.895 263.102H231.386L244.576 299.025H240.016L229.281 268.785H229L218.265 299.025ZM219.949 284.993H238.332V288.852H219.949V284.993ZM251.232 263.102L261.897 293.342H262.318L272.983 263.102H277.544L264.353 299.025H259.863L246.672 263.102H251.232ZM286.103 299.025V263.102H307.784V266.961H290.453V279.099H306.661V282.958H290.453V295.166H308.064V299.025H286.103ZM318.588 299.025V263.102H322.938V295.166H339.637V299.025H318.588Z" fill="white" fill-opacity="0.1"/>
<path d="M23.0906 310.539L23.2362 318.834L21.8532 318.781C21.3864 316.861 20.5413 315.056 19.3678 313.471C18.9463 312.98 18.4217 312.589 17.8319 312.326C17.242 312.063 16.6017 311.936 15.957 311.953C15.6658 311.953 15.4786 312.005 15.4058 312.12C15.2956 312.458 15.2566 312.814 15.2914 313.168V327.83C15.2455 328.376 15.401 328.92 15.7282 329.359C15.9213 329.537 16.1475 329.675 16.3938 329.765C16.6401 329.855 16.9016 329.895 17.1633 329.882L18.5151 329.956V331.464H6.8891V329.956L8.23057 329.882C8.49224 329.895 8.75373 329.855 9.00002 329.765C9.24631 329.675 9.47251 329.537 9.6656 329.359C9.98987 328.915 10.1416 328.368 10.092 327.819V313.157C10.1227 312.805 10.0874 312.449 9.988 312.11C9.9152 312.005 9.72799 311.953 9.43682 311.953C8.79366 311.936 8.15485 312.064 7.56671 312.326C6.97856 312.589 6.45582 312.98 6.03638 313.471C4.86848 315.059 4.02385 316.864 3.55105 318.781L2.16797 318.834L2.33436 310.539H23.0906Z" fill="white" fill-opacity="0.1"/>
<path d="M49.2397 326.959C49.1499 327.769 49.2868 328.589 49.6349 329.325C49.8306 329.515 50.0622 329.663 50.316 329.76C50.5697 329.857 50.8403 329.902 51.1115 329.891L51.9434 329.964V331.472H41.2949V329.964L42.1684 329.891C42.4333 329.902 42.6976 329.859 42.9458 329.766C43.1941 329.672 43.4212 329.53 43.6139 329.346C43.9572 328.605 44.0903 327.782 43.9987 326.969V315.03C44.0912 314.214 43.9581 313.387 43.6139 312.642C43.4197 312.458 43.1908 312.315 42.9407 312.222C42.6907 312.128 42.4245 312.086 42.158 312.098L41.2949 312.024V310.506H50.5292C54.3907 310.506 57.1048 310.893 58.6716 311.668C59.4088 311.999 60.0286 312.548 60.4484 313.242C60.8683 313.936 61.0682 314.742 61.0217 315.554C61.0416 316.229 60.8826 316.897 60.5609 317.49C60.2392 318.083 59.7665 318.578 59.1915 318.926C57.4511 319.877 55.5137 320.404 53.5345 320.465C54.8232 320.655 56.057 321.119 57.1533 321.827C58.0444 322.468 58.7165 323.372 59.0771 324.414C59.2787 324.979 59.4148 325.566 59.4827 326.163C59.5763 326.864 59.6387 327.294 59.6803 327.44C59.7561 327.796 59.9049 328.131 60.117 328.425C60.1949 328.506 60.2889 328.569 60.3929 328.61C60.4969 328.652 60.6084 328.671 60.7201 328.666C60.966 328.651 61.2004 328.557 61.388 328.396C61.5757 328.235 61.7062 328.018 61.76 327.776C62.0339 326.798 62.1567 325.785 62.124 324.77H63.4967C63.4967 324.895 63.4967 325.021 63.4967 325.168C63.4967 325.314 63.4967 325.524 63.4967 325.817C63.5993 327.429 63.1637 329.029 62.2592 330.362C61.8381 330.879 61.3027 331.289 60.696 331.56C60.0893 331.831 59.428 331.955 58.7651 331.923C58.1313 331.926 57.504 331.794 56.9245 331.535C56.3797 331.305 55.8981 330.946 55.5207 330.488C54.8274 329.636 54.3525 327.699 54.096 324.676V324.12C54.0983 323.638 53.9973 323.162 53.7999 322.722C53.6025 322.283 53.3133 321.892 52.9521 321.576C51.8754 321.03 50.669 320.798 49.4685 320.905H49.2709L49.2397 326.959ZM49.2397 315.114V319.586H49.7805H50.654C52.011 319.708 53.3717 319.396 54.5432 318.696C54.9533 318.321 55.2705 317.855 55.4692 317.335C55.6678 316.815 55.7425 316.255 55.6871 315.7C55.7128 315.195 55.6337 314.69 55.4546 314.218C55.2755 313.745 55.0005 313.316 54.6472 312.957C54.264 312.616 53.8179 312.354 53.3344 312.187C52.8508 312.02 52.3393 311.95 51.8291 311.983C51.0986 311.898 50.3621 312.076 49.7493 312.485C49.4026 312.841 49.2328 313.735 49.2397 315.166V315.114Z" fill="white" fill-opacity="0.1"/>
<path d="M85.7066 324.157L84.7395 326.566C84.6301 326.83 84.5432 327.103 84.4795 327.383C84.4194 327.64 84.388 327.904 84.3859 328.168C84.3657 328.411 84.4011 328.655 84.4894 328.882C84.5778 329.109 84.7167 329.313 84.8955 329.477C85.3548 329.797 85.909 329.948 86.4657 329.907H87.2456V331.457H79.332V329.928C80.0529 329.906 80.7409 329.619 81.2663 329.121C81.9605 328.365 82.5073 327.484 82.8781 326.524L89.9078 310.521H93.901L100.4 327.362C100.643 328.084 101.053 328.737 101.596 329.268C102.105 329.677 102.734 329.905 103.385 329.917V331.467H92.5595V329.938C93.3619 329.956 94.1621 329.847 94.9305 329.613C95.1145 329.546 95.2724 329.422 95.381 329.258C95.4895 329.094 95.543 328.899 95.5336 328.702C95.5206 328.513 95.4821 328.326 95.4192 328.147C95.3429 327.896 95.2078 327.505 95.0137 326.974L93.9738 324.178L85.7066 324.157ZM86.4657 322.471H93.2874L90.0534 314.093L86.4657 322.471Z" fill="white" fill-opacity="0.1"/>
<path d="M138.393 315.742C138.502 314.719 138.284 313.688 137.769 312.799C137.445 312.514 137.067 312.297 136.658 312.162C136.249 312.027 135.817 311.977 135.388 312.014V310.506H143.041V312.014C142.632 311.98 142.221 312.033 141.834 312.17C141.447 312.307 141.093 312.525 140.795 312.81C140.306 313.7 140.099 314.72 140.202 315.732V331.441H137.811L124.729 316.098V326.205C124.616 327.228 124.835 328.26 125.353 329.147C125.681 329.433 126.062 329.649 126.475 329.784C126.887 329.919 127.323 329.97 127.755 329.933V331.441H119.935V329.933C120.361 329.972 120.79 329.922 121.196 329.787C121.602 329.652 121.976 329.434 122.295 329.147C122.803 328.256 123.018 327.226 122.909 326.205V313.91C122.524 313.385 122.048 312.935 121.505 312.579C121.001 312.273 120.437 312.08 119.852 312.014V310.506H126.559L138.393 324.581V315.742Z" fill="white" fill-opacity="0.1"/>
<path d="M163.898 332.016H162.359L162.109 323.439H163.607C164.23 325.423 165.331 327.222 166.81 328.675C168.049 329.818 169.674 330.444 171.354 330.424C172.275 330.465 173.177 330.155 173.881 329.555C174.198 329.271 174.45 328.92 174.617 328.527C174.784 328.135 174.863 327.709 174.848 327.282C174.864 326.551 174.591 325.843 174.089 325.313C173.34 324.624 172.459 324.096 171.5 323.763L169.805 323.093C168.396 322.572 167.026 321.949 165.707 321.229C164.746 320.706 163.92 319.964 163.295 319.061C162.77 318.237 162.499 317.275 162.515 316.296C162.494 315.455 162.656 314.62 162.99 313.849C163.324 313.078 163.822 312.391 164.449 311.835C165.818 310.638 167.588 310.012 169.399 310.086C170.604 310.101 171.798 310.313 172.935 310.714C173.613 310.97 174.308 311.18 175.014 311.343C175.132 311.343 175.249 311.318 175.357 311.269C175.464 311.22 175.56 311.149 175.638 311.06C175.871 310.783 176.054 310.468 176.179 310.128H177.531L177.614 316.956H176.262C175.767 315.436 174.868 314.081 173.663 313.039C172.534 312.159 171.138 311.7 169.711 311.741C168.79 311.692 167.879 311.954 167.122 312.484C166.814 312.709 166.565 313.005 166.396 313.348C166.228 313.691 166.145 314.07 166.155 314.453C166.155 315.675 167.791 316.9 171.063 318.129H171.177C172.917 318.771 174.155 319.274 174.89 319.637C175.524 319.936 176.124 320.305 176.678 320.737C177.378 321.307 177.949 322.021 178.353 322.831C178.718 323.658 178.899 324.555 178.883 325.46C178.925 326.352 178.77 327.242 178.428 328.067C178.086 328.891 177.567 329.628 176.907 330.225C175.392 331.459 173.476 332.082 171.531 331.974C170.782 331.973 170.035 331.885 169.305 331.712C168.455 331.501 167.623 331.217 166.82 330.864L166.217 330.592C165.864 330.396 165.481 330.261 165.083 330.194C164.937 330.2 164.794 330.245 164.67 330.324C164.546 330.403 164.445 330.513 164.376 330.644C164.122 331.062 163.959 331.53 163.898 332.016Z" fill="white" fill-opacity="0.1"/>
<path d="M205.913 326.953C205.821 327.763 205.966 328.582 206.329 329.31C206.541 329.503 206.789 329.653 207.058 329.75C207.327 329.847 207.613 329.89 207.899 329.875L208.804 329.948V331.457H197.979V329.948L198.852 329.875C199.117 329.886 199.381 329.844 199.629 329.75C199.878 329.657 200.105 329.514 200.297 329.331C200.641 328.589 200.774 327.766 200.682 326.953V315.025C200.775 314.208 200.642 313.382 200.297 312.637C200.103 312.453 199.874 312.31 199.624 312.216C199.374 312.123 199.108 312.081 198.842 312.092L197.979 312.04V310.521H207.213C210.797 310.521 213.404 310.982 215.033 311.904C215.815 312.321 216.461 312.955 216.896 313.731C217.331 314.507 217.536 315.392 217.487 316.282C217.514 317.154 217.306 318.018 216.885 318.781C216.464 319.545 215.845 320.179 215.095 320.617C212.98 321.754 210.594 322.279 208.201 322.136H207.098L205.913 322.073V326.953ZM205.913 314.501V320.481H206.298H206.88C208.261 320.61 209.645 320.259 210.8 319.486C211.213 319.054 211.528 318.538 211.726 317.972C211.923 317.407 211.998 316.805 211.944 316.208C212.032 315.075 211.686 313.951 210.977 313.066C210.589 312.697 210.129 312.412 209.626 312.232C209.123 312.052 208.588 311.979 208.055 312.019C207.451 311.947 206.841 312.087 206.329 312.417C205.964 313.046 205.818 313.779 205.913 314.501Z" fill="white" fill-opacity="0.1"/>
<path d="M247.196 310.063C248.722 310.049 250.238 310.301 251.678 310.807C253.012 311.276 254.239 312.009 255.287 312.964C256.388 313.964 257.261 315.194 257.845 316.567C258.427 317.981 258.726 319.497 258.726 321.028C258.726 322.559 258.427 324.075 257.845 325.489C257.262 326.863 256.389 328.092 255.287 329.092C254.229 330.052 252.997 330.795 251.658 331.281C250.25 331.79 248.765 332.045 247.269 332.035C245.74 332.048 244.219 331.793 242.777 331.281C241.433 330.804 240.199 330.06 239.148 329.092C238.063 328.113 237.208 326.904 236.641 325.552C235.513 322.654 235.513 319.433 236.641 316.535C237.209 315.178 238.064 313.963 239.148 312.974C240.205 312.025 241.439 311.296 242.777 310.828C244.195 310.319 245.691 310.06 247.196 310.063ZM247.269 330.527C248.13 330.558 248.982 330.35 249.732 329.925C250.483 329.5 251.102 328.875 251.522 328.118C252.48 325.883 252.975 323.473 252.975 321.039C252.975 318.604 252.48 316.194 251.522 313.959C251.074 313.225 250.446 312.618 249.699 312.198C248.951 311.777 248.11 311.557 247.254 311.557C246.398 311.557 245.556 311.777 244.809 312.198C244.061 312.618 243.433 313.225 242.985 313.959C242.021 315.551 241.539 317.914 241.539 321.049C241.539 324.184 242.021 326.547 242.985 328.139C243.411 328.891 244.034 329.51 244.786 329.929C245.538 330.349 246.39 330.552 247.248 330.516L247.269 330.527Z" fill="white" fill-opacity="0.1"/>
<path d="M285.339 326.953C285.249 327.764 285.386 328.584 285.734 329.32C285.93 329.51 286.161 329.657 286.415 329.755C286.669 329.852 286.939 329.896 287.21 329.886L288.042 329.959V331.467H277.404V329.959L278.278 329.886C278.543 329.897 278.807 329.854 279.055 329.761C279.303 329.667 279.531 329.524 279.723 329.341C280.067 328.599 280.2 327.777 280.108 326.964V315.025C280.201 314.208 280.067 313.382 279.723 312.637C279.529 312.453 279.3 312.31 279.05 312.216C278.8 312.123 278.534 312.081 278.267 312.092L277.404 312.04V310.521H286.639C290.5 310.521 293.214 310.909 294.781 311.684C295.518 312.015 296.138 312.563 296.558 313.257C296.978 313.952 297.178 314.758 297.131 315.569C297.151 316.245 296.992 316.913 296.67 317.506C296.349 318.098 295.876 318.594 295.301 318.942C293.561 319.893 291.623 320.42 289.644 320.481C290.933 320.67 292.166 321.135 293.263 321.843C294.154 322.484 294.826 323.388 295.186 324.429C295.388 324.995 295.524 325.582 295.592 326.178C295.686 326.88 295.748 327.309 295.79 327.456C295.866 327.811 296.014 328.146 296.226 328.44C296.304 328.521 296.398 328.585 296.502 328.626C296.606 328.668 296.718 328.686 296.83 328.681C297.075 328.667 297.31 328.572 297.497 328.411C297.685 328.251 297.816 328.033 297.869 327.791C298.143 326.814 298.266 325.8 298.233 324.785H299.606C299.606 324.911 299.606 325.037 299.606 325.183C299.606 325.33 299.606 325.539 299.606 325.833C299.709 327.444 299.273 329.044 298.369 330.378C297.943 330.907 297.399 331.327 296.78 331.602C296.162 331.877 295.487 331.999 294.812 331.959C294.178 331.963 293.551 331.831 292.972 331.572C292.427 331.342 291.945 330.982 291.568 330.525C290.874 329.673 290.4 327.735 290.143 324.712V324.157C290.145 323.675 290.044 323.198 289.847 322.759C289.65 322.32 289.36 321.929 288.999 321.612C287.922 321.067 286.716 320.835 285.515 320.942H285.318L285.339 326.953ZM285.339 315.109V319.58H285.879H286.701C288.058 319.702 289.419 319.391 290.59 318.69C291 318.316 291.317 317.85 291.516 317.33C291.715 316.81 291.789 316.25 291.734 315.695C291.76 315.19 291.681 314.685 291.502 314.213C291.323 313.74 291.048 313.31 290.694 312.951C290.311 312.61 289.865 312.349 289.381 312.182C288.898 312.015 288.386 311.945 287.876 311.977C287.146 311.893 286.409 312.071 285.796 312.48C285.491 312.836 285.339 313.73 285.339 315.161V315.109Z" fill="white" fill-opacity="0.1"/>
<path d="M337.819 310.539L337.965 318.834L336.582 318.781C336.115 316.861 335.27 315.056 334.096 313.471C333.675 312.98 333.15 312.589 332.56 312.326C331.971 312.063 331.33 311.936 330.685 311.953C330.394 311.953 330.207 312.005 330.134 312.12C330.024 312.458 329.985 312.814 330.02 313.168V327.83C329.974 328.376 330.129 328.92 330.457 329.359C330.65 329.537 330.876 329.675 331.122 329.765C331.369 329.855 331.63 329.895 331.892 329.882L333.244 329.956V331.464H321.618V329.956L322.959 329.882C323.221 329.895 323.482 329.855 323.729 329.765C323.975 329.675 324.201 329.537 324.394 329.359C324.718 328.915 324.87 328.368 324.82 327.819V313.157C324.851 312.805 324.816 312.449 324.716 312.11C324.644 312.005 324.457 311.953 324.165 311.953C323.522 311.936 322.883 312.064 322.295 312.326C321.707 312.589 321.184 312.98 320.765 313.471C319.597 315.059 318.752 316.864 318.279 318.781L316.896 318.834L317.063 310.539H337.819Z" fill="white" fill-opacity="0.1"/>
</g>
<defs>
<clipPath id="clip0_690_61630">
<rect width="340.098" height="332" fill="white"/>
</clipPath>
</defs>
</svg>
