<svg width="33" height="32" viewBox="0 0 33 32" fill="none" xmlns="http://www.w3.org/2000/svg">
<g clip-path="url(#clip0_1133_138862)">
<path fill-rule="evenodd" clip-rule="evenodd" d="M16.4906 31.9813C7.67985 31.9813 0.5 24.8202 0.5 15.9906C0.5 7.17985 7.67985 0 16.4906 0C25.3202 0 32.4813 7.17985 32.4813 15.9906C32.4813 24.8202 25.3202 31.9813 16.4906 31.9813Z" fill="#334155"/>
<path fill-rule="evenodd" clip-rule="evenodd" d="M21.5903 26.2257C19.9968 26.2257 15.7976 25.7195 11.3548 21.1267C5.48715 15.4465 6.29325 10.2726 6.33074 10.0476C6.81814 6.78574 9.36765 6.03589 9.48012 5.99839C9.93004 5.84842 10.3612 5.77344 10.7361 5.77344C11.6734 5.77344 12.0109 6.2421 12.0671 6.33583L14.2229 9.89763C14.2417 9.91638 14.2417 9.91638 14.2417 9.93512C14.8791 11.1536 13.8668 11.9597 13.1169 12.5409C12.4608 13.0658 12.0296 13.4594 12.0859 13.9093C12.1046 13.9468 12.1046 13.9656 12.1046 14.0031C12.0859 14.7342 13.0607 16.2526 14.4854 17.7149C16.0038 19.2708 17.691 20.3956 18.4784 20.3956H18.5721C19.0782 20.4706 19.4907 19.9457 19.9593 19.3645C20.4467 18.7459 20.9904 18.0523 21.8152 18.0523C22.0589 18.0523 22.3214 18.1273 22.5651 18.2585H22.5838L26.1456 20.4143C26.3143 20.5268 27.1017 21.1267 26.4831 23.0388C26.4643 23.1325 25.7145 25.6633 22.4338 26.1695C22.4151 26.1695 22.1152 26.2257 21.5903 26.2257Z" fill="white"/>
<path fill-rule="evenodd" clip-rule="evenodd" d="M26.0118 15.8406C25.7118 15.8406 25.4869 15.6156 25.4681 15.3344C25.3182 13.1036 24.4371 11.1165 22.8999 9.57929C21.3814 8.06083 19.3943 7.17976 17.1635 7.02979C16.8636 7.01104 16.6386 6.74859 16.6573 6.44865C16.6761 6.14871 16.9385 5.92375 17.2385 5.9425C19.6942 6.11121 21.9813 7.12352 23.6685 8.81069C25.3556 10.5166 26.3867 12.7849 26.5367 15.2594C26.5742 15.5594 26.3305 15.8218 26.0493 15.8406H26.0118Z" fill="#FFA721"/>
<path fill-rule="evenodd" clip-rule="evenodd" d="M23.5714 16.4589C23.3089 16.4589 23.0652 16.2527 23.0465 15.9715C22.8778 14.2281 22.1654 12.6909 20.9844 11.5099C19.8034 10.3101 18.2474 9.59773 16.5227 9.44776C16.2228 9.42901 15.9978 9.14781 16.0353 8.84787C16.0541 8.56668 16.3353 8.34172 16.6165 8.36047C18.6036 8.54793 20.3845 9.37277 21.753 10.7413C23.1215 12.1097 23.9463 13.8719 24.115 15.859C24.1525 16.1589 23.9275 16.4214 23.6276 16.4589H23.5714Z" fill="#FFA721"/>
<path fill-rule="evenodd" clip-rule="evenodd" d="M20.7812 16.9469C20.5 16.9469 20.2563 16.7407 20.2375 16.4595C20.1438 15.2973 19.6939 14.3037 18.9441 13.5538C18.1942 12.7852 17.1819 12.3541 16.0384 12.2603C15.7384 12.2229 15.5135 11.9604 15.551 11.6605C15.5697 11.3605 15.8322 11.1543 16.1321 11.1731C17.5381 11.2855 18.7753 11.8479 19.7127 12.7852C20.65 13.7226 21.2124 14.9598 21.3248 16.3658C21.3436 16.6657 21.1186 16.9282 20.8187 16.9469H20.7812Z" fill="#FFA721"/>
<path fill-rule="evenodd" clip-rule="evenodd" d="M12.1234 20.2279C6.25575 14.5477 7.06185 9.35499 7.09934 9.14878C7.24931 8.21147 7.568 7.48036 7.92418 6.91797C7.24931 7.51785 6.5557 8.51141 6.33074 10.0486C6.29325 10.2736 5.48715 15.4476 11.3548 21.1277C15.7976 25.7205 19.9968 26.2267 21.5903 26.2267C22.1152 26.2267 22.4151 26.1705 22.4338 26.1705C24.4397 25.8705 25.5082 24.802 26.0331 23.9959C25.4145 24.5395 24.5147 25.0644 23.2024 25.2519C23.1837 25.2706 22.8838 25.3081 22.3776 25.3081C20.7842 25.3081 16.585 24.8207 12.1234 20.2279Z" fill="#E6E6E6"/>
</g>
<defs>
<clipPath id="clip0_1133_138862">
<rect width="32" height="32" fill="white" transform="translate(0.5)"/>
</clipPath>
</defs>
</svg>
