<svg width="24" height="24" viewBox="0 0 24 24" fill="none" xmlns="http://www.w3.org/2000/svg">
<path d="M11.9984 22.7599C10.9084 22.7599 9.82844 22.4399 8.97844 21.8099L4.67844 18.5999C3.53844 17.7499 2.64844 15.9699 2.64844 14.5599V7.11994C2.64844 5.57994 3.77844 3.93994 5.22844 3.39994L10.2184 1.52994C11.2084 1.15994 12.7684 1.15994 13.7584 1.52994L18.7484 3.39994C20.1984 3.93994 21.3284 5.57994 21.3284 7.11994V14.5499C21.3284 15.9699 20.4384 17.7399 19.2984 18.5899L14.9984 21.7999C14.1684 22.4399 13.0884 22.7599 11.9984 22.7599ZM10.7484 2.93994L5.75844 4.80994C4.90844 5.12994 4.15844 6.20994 4.15844 7.12994V14.5599C4.15844 15.5099 4.82844 16.8399 5.57844 17.3999L9.87844 20.6099C11.0284 21.4699 12.9684 21.4699 14.1284 20.6099L18.4284 17.3999C19.1884 16.8299 19.8484 15.5099 19.8484 14.5599V7.11994C19.8484 6.20994 19.0984 5.12994 18.2484 4.79994L13.2584 2.92994C12.5784 2.68994 11.4184 2.68994 10.7484 2.93994Z" fill="#64748B"/>
<path d="M10.6583 14.23C10.4683 14.23 10.2783 14.16 10.1283 14.01L8.51828 12.4C8.22828 12.11 8.22828 11.63 8.51828 11.34C8.80828 11.05 9.28828 11.05 9.57828 11.34L10.6583 12.42L14.4283 8.65C14.7183 8.36 15.1983 8.36 15.4883 8.65C15.7783 8.94 15.7783 9.42 15.4883 9.71L11.1883 14.01C11.0383 14.16 10.8483 14.23 10.6583 14.23Z" fill="#64748B"/>
</svg>
