<svg width="24" height="24" viewBox="0 0 24 24" fill="none" xmlns="http://www.w3.org/2000/svg">
<path d="M13.3019 8.1101L14.6219 10.7501C14.8019 11.1101 15.2819 11.4701 15.6819 11.5301L18.0719 11.9301C19.6019 12.1901 19.9619 13.2901 18.8619 14.3901L17.0019 16.2501C16.6919 16.5601 16.5119 17.1701 16.6119 17.6101L17.1419 19.9201C17.5619 21.7401 16.5919 22.4501 14.9819 21.5001L12.7419 20.1701C12.3319 19.9301 11.6719 19.9301 11.2619 20.1701L9.02191 21.5001C7.41191 22.4501 6.4419 21.7401 6.8619 19.9201L7.39193 17.6101C7.49193 17.1801 7.31192 16.5701 7.00192 16.2501L5.14193 14.3901C4.04193 13.2901 4.40191 12.1801 5.93191 11.9301L8.32193 11.5301C8.72193 11.4601 9.20192 11.1101 9.38192 10.7501L10.7019 8.1101C11.4119 6.6801 12.5919 6.6801 13.3019 8.1101Z" stroke="#F59E0B" stroke-width="1.5" stroke-linecap="round" stroke-linejoin="round"/>
<path d="M6 9V2" stroke="#F59E0B" stroke-width="1.5" stroke-linecap="round" stroke-linejoin="round"/>
<path d="M18 9V2" stroke="#F59E0B" stroke-width="1.5" stroke-linecap="round" stroke-linejoin="round"/>
<path d="M12 4V2" stroke="#F59E0B" stroke-width="1.5" stroke-linecap="round" stroke-linejoin="round"/>
</svg>
