<svg width="24" height="24" viewBox="0 0 24 24" fill="none" xmlns="http://www.w3.org/2000/svg">
<path d="M4.05705 14.4239C4.05716 14.4236 4.05727 14.4234 4.05739 14.4232L4.92664 12.6947L4.92673 12.6947L4.93102 12.6858C5.03243 12.4737 5.06245 12.2102 5.06245 12C5.06245 11.7898 5.03243 11.5263 4.93102 11.3143L4.9311 11.3143L4.92664 11.3054L4.05694 9.57596C4.05691 9.57591 4.05689 9.57586 4.05686 9.57581C3.0825 7.63194 2.77678 6.25167 2.79362 5.28624C2.81017 4.33742 3.13741 3.77575 3.48148 3.43559L3.4815 3.43561L3.48552 3.43155C3.82575 3.0874 4.38746 2.76024 5.33493 2.7437C6.29896 2.72686 7.67663 3.03248 9.61544 4.00678L9.61634 4.00724L18.1763 8.28724L18.1772 8.28766C20.2259 9.30722 21.1999 10.6518 21.1999 12C21.1999 13.3488 20.2253 14.6933 18.1863 15.7128L9.62634 19.9928C7.72793 20.942 6.36626 21.25 5.40995 21.25C4.41661 21.25 3.83561 20.9186 3.4835 20.5665C3.13776 20.2207 2.81283 19.6582 2.79738 18.7106C2.78166 17.746 3.08752 16.368 4.05705 14.4239ZM4.50325 14.6454L4.50273 14.6464C3.88981 15.8723 3.494 16.9891 3.35199 17.9142C3.21474 18.8082 3.29491 19.6672 3.83642 20.2036C4.37305 20.7453 5.23482 20.8251 6.1306 20.688C7.05809 20.5461 8.17739 20.1503 9.40356 19.5372L17.9624 15.2578C17.9626 15.2577 17.9627 15.2577 17.9629 15.2576C19.5752 14.4564 20.6999 13.2992 20.6999 11.99C20.6999 10.6791 19.5625 9.52225 17.9527 8.72239C17.9526 8.72234 17.9525 8.72229 17.9524 8.72224L9.39356 4.45281C9.39348 4.45277 9.39341 4.45274 9.39334 4.4527C7.84777 3.67994 6.45493 3.25002 5.40995 3.25002C4.80609 3.25002 4.2305 3.39327 3.83762 3.78524C3.29486 4.32175 3.21471 5.18409 3.35197 6.07953C3.49396 7.00585 3.88973 8.12266 4.50288 9.34392C4.50296 9.34407 4.50303 9.34422 4.50311 9.34438L5.37136 11.0809C5.37157 11.0813 5.37178 11.0817 5.37199 11.0821C5.49068 11.3239 5.55995 11.6518 5.55995 12C5.55995 12.348 5.49077 12.6757 5.37222 12.9174L4.50325 14.6454Z" fill="#478482" stroke="#478482"/>
<path d="M10.8414 12.75H5.44141C5.03141 12.75 4.69141 12.41 4.69141 12C4.69141 11.59 5.03141 11.25 5.44141 11.25H10.8414C11.2514 11.25 11.5914 11.59 11.5914 12C11.5914 12.41 11.2514 12.75 10.8414 12.75Z" fill="#478482"/>
</svg>
