<svg width="33" height="32" viewBox="0 0 33 32" fill="none" xmlns="http://www.w3.org/2000/svg">
<path d="M0.5 16C0.5 7.16344 7.66344 0 16.5 0C25.3366 0 32.5 7.16344 32.5 16C32.5 24.8366 25.3366 32 16.5 32C7.66344 32 0.5 24.8366 0.5 16Z" fill="black"/>
<path d="M14.9984 14.3001V13.6772C14.785 13.6487 14.568 13.6309 14.344 13.6309C11.673 13.6274 9.5 15.8022 9.5 18.4789C9.5 20.1199 10.318 21.5722 11.5699 22.4514C10.7626 21.5864 10.2682 20.4224 10.2682 19.1481C10.2682 16.5105 12.3808 14.3606 14.9984 14.3001Z" fill="#25F4EE"/>
<path d="M15.1167 21.3624C16.3081 21.3624 17.2826 20.412 17.3253 19.2303L17.3289 8.66919H19.2565C19.2173 8.45206 19.196 8.22781 19.196 8H16.5642L16.5606 18.5611C16.518 19.7428 15.5435 20.6932 14.352 20.6932C13.9822 20.6932 13.6336 20.6007 13.3242 20.4369C13.7225 20.9958 14.3769 21.3624 15.1167 21.3624Z" fill="#25F4EE"/>
<path d="M22.8585 12.254V11.6667C22.1223 11.6667 21.4394 11.4496 20.8633 11.0723C21.3754 11.6596 22.0689 12.0868 22.8585 12.254Z" fill="#25F4EE"/>
<path d="M20.8618 11.0726C20.2998 10.4283 19.962 9.58827 19.962 8.66992H19.2578C19.4392 9.67371 20.0367 10.5351 20.8618 11.0726Z" fill="#FE2C55"/>
<path d="M14.3489 16.2617C13.129 16.2617 12.1367 17.2549 12.1367 18.4758C12.1367 19.3265 12.6204 20.0669 13.3246 20.4371C13.0614 20.074 12.9049 19.6291 12.9049 19.1449C12.9049 17.924 13.8972 16.9309 15.1171 16.9309C15.3447 16.9309 15.5652 16.9701 15.7715 17.0342V14.3432C15.5581 14.3147 15.3411 14.2969 15.1171 14.2969C15.078 14.2969 15.0424 14.3004 15.0033 14.3004V16.365C14.7934 16.3009 14.5765 16.2617 14.3489 16.2617Z" fill="#FE2C55"/>
<path d="M22.8587 12.2539V14.3006C21.493 14.3006 20.2269 13.8628 19.1955 13.1224V18.4795C19.1955 21.1527 17.0225 23.3311 14.3479 23.3311C13.3166 23.3311 12.3563 23.0036 11.5703 22.4519C12.4559 23.4023 13.7184 24.0003 15.1162 24.0003C17.7871 24.0003 19.9637 21.8254 19.9637 19.1487V13.7916C20.9951 14.532 22.2612 14.9698 23.6269 14.9698V12.3358C23.3601 12.3358 23.1041 12.3073 22.8587 12.2539Z" fill="#FE2C55"/>
<path d="M19.1964 18.4799V13.1228C20.2278 13.8632 21.4939 14.301 22.8596 14.301V12.2543C22.07 12.0871 21.3765 11.6599 20.8644 11.0726C20.0393 10.5351 19.4453 9.67371 19.2568 8.66992H17.3292L17.3256 19.231C17.283 20.4127 16.3085 21.3631 15.1171 21.3631C14.3773 21.3631 13.7265 20.9965 13.321 20.4412C12.6168 20.0675 12.1331 19.3307 12.1331 18.4799C12.1331 17.259 13.1254 16.2659 14.3453 16.2659C14.5729 16.2659 14.7934 16.305 14.9997 16.3691V14.3046C12.3821 14.3616 10.2695 16.5115 10.2695 19.1491C10.2695 20.4234 10.7639 21.5838 11.5712 22.4523C12.3572 23.0041 13.3175 23.3315 14.3488 23.3315C17.0198 23.3315 19.1964 21.1531 19.1964 18.4799Z" fill="white"/>
</svg>
