<svg width="24" height="24" viewBox="0 0 24 24" fill="none" xmlns="http://www.w3.org/2000/svg">
<path d="M2.96822 5.72761L2.96846 5.72759L5.00846 5.52759L5.01016 5.52742C10.2848 4.99203 15.6386 5.19933 21.0208 5.72759L21.0211 5.72761C21.1523 5.74041 21.2556 5.86227 21.242 6.00143L21.2419 6.00142L21.2411 6.01163C21.2319 6.13159 21.1281 6.22998 20.9997 6.22998H20.9996H20.9994H20.9993H20.9992H20.9991H20.999H20.9988H20.9987H20.9986H20.9985H20.9984H20.9982H20.9981H20.998H20.9979H20.9978H20.9976H20.9975H20.9974H20.9973H20.9972H20.997H20.9969H20.9968H20.9967H20.9965H20.9964H20.9963H20.9962H20.9961H20.9959H20.9958H20.9957H20.9956H20.9954H20.9953H20.9952H20.9951H20.9949H20.9948H20.9947H20.9946H20.9944H20.9943H20.9942H20.994H20.9939H20.9938H20.9937H20.9935H20.9934H20.9933H20.9932H20.993H20.9929H20.9928H20.9926H20.9925H20.9924H20.9922H20.9921H20.992H20.9919H20.9917H20.9916H20.9915H20.9913H20.9912H20.9911H20.9909H20.9908H20.9907H20.9905H20.9904H20.9903H20.9901H20.99H20.9899H20.9897H20.9896H20.9895H20.9893H20.9892H20.9891H20.9889H20.9888H20.9887H20.9885H20.9884H20.9883H20.9881H20.988H20.9878H20.9877H20.9876H20.9874H20.9873H20.9872H20.987H20.9869H20.9867H20.9866H20.9865H20.9863H20.9862H20.9861H20.9859H20.9858H20.9856H20.9855H20.9854H20.9852H20.9851H20.9849H20.9848H20.9847H20.9845H20.9844H20.9842H20.9841H20.9839H20.9838H20.9837H20.9835H20.9834H20.9832H20.9831H20.983H20.9828H20.9827H20.9825H20.9824H20.9822H20.9821H20.9819H20.9818H20.9817H20.9815H20.9814H20.9812H20.9811H20.9809H20.9808H20.9806H20.9805H20.9804H20.9802H20.9801H20.9799H20.9798H20.9796H20.9795H20.9793H20.9792H20.979H20.9789H20.9787H20.9786H20.9784H20.9783H20.9781H20.978H20.9779H20.9777H20.9776H20.9774H20.9773H20.9771H20.977H20.9768H20.9767H20.9765H20.9764H20.9762H20.9761H20.9759H20.9758H20.9756H20.9755H20.9753H20.9752H20.975H20.9749H20.9747H20.9745H20.9744H20.9742H20.9741H20.9739H20.9738H20.9736H20.9735H20.9733H20.9732H20.973H20.9729H20.9727H20.9726H20.9724H20.9723H20.9721H20.9719H20.9718H20.9716H20.9715H20.9713H20.9712H20.971H20.9709H20.9707H20.9706H20.9704H20.9702H20.9701H20.9699H20.9698H20.9696H20.9695H20.9693H20.9691H20.969H20.9688H20.9687H20.9685H20.9684H20.9682H20.968H20.9679H20.9677H20.9676H20.9674H20.9673H20.9671H20.9669H20.9668H20.9666H20.9665H20.9663H20.9661H20.966H20.9658H20.9657H20.9655H20.9653H20.9652H20.965H20.9649H20.9647H20.9645H20.9644H20.9642H20.9641H20.9639H20.9637H20.9636H20.9634H20.9633H20.9631H20.9629H20.9628H20.9626H20.9625H20.9623H20.9621H20.962H20.9618H20.9616H20.9615H20.9613H20.9612H20.961H20.9608H20.9607H20.9605H20.9603H20.9602H20.96H20.9599H20.9597H20.9595H20.9594H20.9592H20.959H20.9589H20.9587H20.9585H20.9584H20.9582H20.958H20.9579H20.9577H20.9576H20.9574H20.9572H20.9571H20.9569H20.9567H20.9566H20.9564H20.9562H20.9561H20.9559H20.9557H20.9556H20.9554H20.9552H20.9551H20.9549H20.9547H20.9546H20.9544H20.9542H20.9541H20.9539H20.9537H20.9536H20.9534H20.9532H20.9531H20.9529H20.9527H20.9526H20.9524H20.9522H20.9521H20.9519H20.9517H20.9516H20.9514H20.9512H20.951H20.9509H20.9507H20.9505H20.9504H20.9502H20.95H20.9499H20.9497H20.9495H20.9494H20.9492H20.949H20.9489H20.9487H20.9485H20.9483H20.9482H20.948H20.9478H20.9477H20.9475H20.9473H20.9472H20.947H20.9468H20.9466H20.9465H20.9463H20.9461H20.946H20.9458H20.9456H20.9454H20.9453H20.9451H20.9449H20.9448H20.9446C15.6441 5.69995 10.3367 5.49881 5.07007 6.03244C5.0698 6.03247 5.06953 6.0325 5.06926 6.03252L3.03227 6.23223C3.0321 6.23224 3.03192 6.23226 3.03175 6.23228C2.8816 6.24631 2.76072 6.14225 2.74742 6.00257C2.73344 5.85584 2.8338 5.74073 2.96822 5.72761Z" fill="#BF3636" stroke="#BF3636"/>
<path d="M8.50074 5.72C8.46074 5.72 8.42074 5.72 8.37074 5.71C7.97074 5.64 7.69074 5.25 7.76074 4.85L7.98074 3.54C8.14074 2.58 8.36074 1.25 10.6907 1.25H13.3107C15.6507 1.25 15.8707 2.63 16.0207 3.55L16.2407 4.85C16.3107 5.26 16.0307 5.65 15.6307 5.71C15.2207 5.78 14.8307 5.5 14.7707 5.1L14.5507 3.8C14.4107 2.93 14.3807 2.76 13.3207 2.76H10.7007C9.64074 2.76 9.62074 2.9 9.47074 3.79L9.24074 5.09C9.18074 5.46 8.86074 5.72 8.50074 5.72Z" fill="#BF3636"/>
<path d="M15.2104 22.7501H8.79039C5.30039 22.7501 5.16039 20.8201 5.05039 19.2601L4.40039 9.19007C4.37039 8.78007 4.69039 8.42008 5.10039 8.39008C5.52039 8.37008 5.87039 8.68008 5.90039 9.09008L6.55039 19.1601C6.66039 20.6801 6.70039 21.2501 8.79039 21.2501H15.2104C17.3104 21.2501 17.3504 20.6801 17.4504 19.1601L18.1004 9.09008C18.1304 8.68008 18.4904 8.37008 18.9004 8.39008C19.3104 8.42008 19.6304 8.77007 19.6004 9.19007L18.9504 19.2601C18.8404 20.8201 18.7004 22.7501 15.2104 22.7501Z" fill="#BF3636"/>
<path d="M13.6581 17.25H10.3281C9.91813 17.25 9.57812 16.91 9.57812 16.5C9.57812 16.09 9.91813 15.75 10.3281 15.75H13.6581C14.0681 15.75 14.4081 16.09 14.4081 16.5C14.4081 16.91 14.0681 17.25 13.6581 17.25Z" fill="#BF3636"/>
<path d="M14.5 13.25H9.5C9.09 13.25 8.75 12.91 8.75 12.5C8.75 12.09 9.09 11.75 9.5 11.75H14.5C14.91 11.75 15.25 12.09 15.25 12.5C15.25 12.91 14.91 13.25 14.5 13.25Z" fill="#BF3636"/>
</svg>
