<svg width="24" height="24" viewBox="0 0 24 24" fill="none" xmlns="http://www.w3.org/2000/svg">
<path d="M12 12.25C9.10614 12.25 6.75 9.89386 6.75 7C6.75 4.10614 9.10614 1.75 12 1.75C14.8939 1.75 17.25 4.10614 17.25 7C17.25 9.89386 14.8939 12.25 12 12.25ZM12 2.25C9.38386 2.25 7.25 4.38386 7.25 7C7.25 9.61614 9.38386 11.75 12 11.75C14.6161 11.75 16.75 9.61614 16.75 7C16.75 4.38386 14.6161 2.25 12 2.25Z" fill="#64748B" stroke="#64748B"/>
<path d="M14.9341 21.1935L14.9347 21.1896L15.1245 19.8406C15.1246 19.8404 15.1246 19.8403 15.1246 19.8401C15.1585 19.6038 15.3148 19.2907 15.4969 19.0996L19.0331 15.5635C19.6452 14.9514 20.1533 14.8725 20.5353 14.9408C20.9563 15.0161 21.3327 15.2901 21.606 15.5635C22.0629 16.0203 22.2496 16.4603 22.2496 16.8499C22.2496 17.2473 22.0749 17.6574 21.606 18.1263L18.066 21.6663C17.8926 21.8398 17.5721 22.0001 17.3293 22.0349C17.3292 22.0349 17.329 22.0349 17.3289 22.0349L15.9799 22.2247L15.9538 22.2284L15.9283 22.2348C15.881 22.2466 15.8521 22.2499 15.8196 22.2499C15.5614 22.2499 15.332 22.1552 15.1731 21.9963C14.9848 21.808 14.8854 21.5208 14.9341 21.1935ZM21.5905 16.3305C21.5042 16.1854 21.3867 16.0445 21.2493 15.9125C21.0034 15.6672 20.6965 15.4199 20.3096 15.4199C19.8962 15.4199 19.599 15.7034 19.386 15.9163L15.846 19.4563L16.1996 19.8099L15.846 19.4563C15.7685 19.5339 15.7188 19.6306 15.6978 19.6741C15.6829 19.7052 15.6669 19.7423 15.6535 19.7825C15.646 19.8051 15.629 19.8576 15.6223 19.9247L15.4447 21.1586L15.3494 21.82L16.0108 21.7248L17.2608 21.5448L17.2861 21.5411L17.3108 21.5349C17.39 21.5152 17.4676 21.4774 17.5084 21.4563C17.5411 21.4394 17.6375 21.3891 17.7131 21.3135L21.2531 17.7734C21.3449 17.6817 21.4567 17.5588 21.549 17.4221C21.6303 17.3016 21.7496 17.0946 21.7496 16.8499C21.7496 16.6504 21.6737 16.4703 21.5905 16.3305Z" fill="#64748B" stroke="#64748B"/>
<path d="M20.8785 18.7155L20.8672 18.7117L20.8555 18.7084C19.7041 18.3857 18.7857 17.4676 18.4624 16.3164C18.4254 16.1797 18.5029 16.0478 18.6332 16.012C18.7702 15.9743 18.9026 16.052 18.9385 16.1824L18.9385 16.1824L18.9392 16.1849C19.2163 17.1729 19.9976 17.9542 20.9856 18.2313L20.9856 18.2313L20.988 18.232C21.1174 18.2675 21.195 18.408 21.1594 18.5341L21.1582 18.5383C21.1288 18.6462 21.0299 18.7198 20.9206 18.7198C20.909 18.7198 20.8984 18.719 20.89 18.7177C20.8821 18.7166 20.8783 18.7154 20.8785 18.7155ZM21.1206 17.7499C21.5206 17.8599 21.7506 18.2799 21.6406 18.6699L21.1206 17.7499Z" fill="#64748B" stroke="#64748B"/>
<path d="M15.2023 15.493L15.2013 15.4963C15.1611 15.6301 15.0224 15.7006 14.8972 15.6621L14.8972 15.6621L14.8919 15.6605C13.9675 15.3874 12.9998 15.24 12.0002 15.24C7.51605 15.24 3.66016 18.1638 3.66016 21.99C3.66016 22.1382 3.53971 22.25 3.41016 22.25C3.2763 22.25 3.16016 22.1339 3.16016 22C3.16016 18.0893 7.03508 14.75 12.0002 14.75C13.0416 14.75 14.0733 14.9029 15.037 15.1891C15.1704 15.2294 15.2408 15.368 15.2023 15.493Z" fill="#64748B" stroke="#64748B"/>
</svg>
