<svg width="22" height="22" viewBox="0 0 22 22" fill="none" xmlns="http://www.w3.org/2000/svg">
<path d="M1.83097 6.96139C1.91666 5.6422 2.97727 4.60836 4.29761 4.54295C6.20956 4.44823 8.94228 4.33398 11.0013 4.33398C13.0603 4.33398 15.793 4.44823 17.705 4.54295C19.0253 4.60836 20.0859 5.64221 20.1716 6.96139C20.2537 8.22527 20.3346 9.78042 20.3346 11.0007C20.3346 12.2209 20.2537 13.776 20.1716 15.0399C20.0859 16.3591 19.0253 17.3929 17.705 17.4584C15.793 17.5531 13.0603 17.6673 11.0013 17.6673C8.94228 17.6673 6.20956 17.5531 4.29761 17.4584C2.97727 17.3929 1.91666 16.3591 1.83097 15.0399C1.74888 13.776 1.66797 12.2209 1.66797 11.0007C1.66797 9.78042 1.74888 8.22527 1.83097 6.96139Z" fill="#FC0D1B"/>
<path d="M9.00391 8.33398V13.6673L14.3372 11.0007L9.00391 8.33398Z" fill="white"/>
</svg>
