<svg width="49" height="48" viewBox="0 0 49 48" fill="none" xmlns="http://www.w3.org/2000/svg">
<path d="M11.9787 32C12.1987 31.02 11.7987 29.62 11.0987 28.92L6.23874 24.06C4.71874 22.54 4.11874 20.92 4.55874 19.52C5.01874 18.12 6.43874 17.16 8.55874 16.8L14.7987 15.76C15.6987 15.6 16.7987 14.8 17.2187 13.98L20.6587 7.08C21.6587 5.1 23.0187 4 24.4987 4C25.9787 4 27.3387 5.1 28.3387 7.08L31.7787 13.98C32.0387 14.5 32.5787 15 33.1587 15.34L11.6187 36.88C11.3387 37.16 10.8587 36.9 10.9387 36.5L11.9787 32Z" fill="#DD8E0A"/>
<path d="M37.9016 28.9198C37.1816 29.6398 36.7816 31.0198 37.0216 31.9998L38.4016 38.0198C38.9816 40.5198 38.6216 42.3998 37.3816 43.2998C36.8816 43.6598 36.2816 43.8398 35.5816 43.8398C34.5616 43.8398 33.3616 43.4598 32.0416 42.6798L26.1816 39.1998C25.2616 38.6598 23.7416 38.6598 22.8216 39.1998L16.9616 42.6798C14.7416 43.9798 12.8416 44.1998 11.6216 43.2998C11.1616 42.9598 10.8216 42.4998 10.6016 41.8998L34.9216 17.5798C35.8416 16.6598 37.1416 16.2398 38.4016 16.4598L40.4216 16.7998C42.5416 17.1598 43.9616 18.1198 44.4216 19.5198C44.8616 20.9198 44.2616 22.5398 42.7416 24.0598L37.9016 28.9198Z" fill="#DD8E0A"/>
</svg>
