<svg width="36" height="16" viewBox="0 0 36 16" fill="none" xmlns="http://www.w3.org/2000/svg">
<path d="M5.36632 3.34419C5.28032 2.66619 5.61632 1.94819 5.99832 1.50819C6.42432 0.994192 7.15833 0.626191 7.76033 0.596191C7.83433 1.30219 7.55433 1.99219 7.14233 2.50619C6.71633 3.00619 6.04232 3.40219 5.36632 3.34419Z" fill="black"/>
<path d="M10.2403 9.34833C10.2243 9.39233 9.99233 10.1983 9.42033 11.0323C8.92233 11.7643 8.41033 12.4823 7.59033 12.4963C6.80033 12.5103 6.53633 12.0283 5.62833 12.0283C4.72033 12.0283 4.42833 12.4823 3.68233 12.5123C2.89233 12.5423 2.29233 11.7343 1.79433 11.0043C0.770332 9.52433 -0.00566739 6.83033 1.04833 5.01433C1.56033 4.10433 2.49633 3.53433 3.50633 3.51833C4.28233 3.50433 4.99833 4.03033 5.46833 4.03033C5.93633 4.03033 6.77033 3.41433 7.75033 3.47433C8.13033 3.50433 9.22833 3.62033 9.93233 4.66033C9.87433 4.70633 8.63033 5.42233 8.64433 6.93033C8.65833 8.73233 10.2243 9.33233 10.2403 9.34833Z" fill="black"/>
<path d="M16.2903 1.43408H12.1723V12.4201H13.8783V8.66808H16.2383C18.3923 8.66808 19.9083 7.19208 19.9083 5.04408C19.9063 2.90408 18.4243 1.43408 16.2903 1.43408ZM15.8343 7.23408H13.8783V2.87208H15.8423C17.3183 2.87208 18.1643 3.66408 18.1643 5.05008C18.1643 6.43608 17.3183 7.23408 15.8343 7.23408Z" fill="black"/>
<path d="M23.9763 4.26611C21.9963 4.26611 20.7643 5.33211 20.6723 6.77811H22.2243C22.3683 6.06211 22.9623 5.60611 23.9143 5.60611C24.9203 5.60611 25.5203 6.13811 25.5203 7.03011V7.64811L23.3283 7.77811C21.4243 7.88411 20.3523 8.74411 20.3523 10.1461C20.3523 11.5841 21.4483 12.5601 23.0163 12.5601C24.0683 12.5601 25.0803 11.9961 25.5443 11.1061H25.5823V12.4221H27.1583V6.90211C27.1603 5.29411 25.9183 4.26611 23.9763 4.26611ZM25.5223 9.42011C25.5223 10.4621 24.6243 11.2541 23.4743 11.2541C22.5923 11.2541 22.0143 10.7981 22.0143 10.0961C22.0143 9.41211 22.5703 8.97811 23.5503 8.90811L25.5223 8.78611V9.42011Z" fill="black"/>
<path d="M33.7183 4.41016H35.4543L32.4543 12.8382C31.7683 14.7802 30.9783 15.4042 29.3183 15.4042C29.1823 15.4042 28.7703 15.3882 28.6483 15.3662V14.0342C28.7683 14.0642 29.0423 14.0642 29.1803 14.0642C29.9423 14.0642 30.3523 13.7442 30.6043 12.9222C30.6043 12.9062 30.7483 12.4362 30.7483 12.4282L27.8563 4.41016H29.6383L31.6643 10.9282H31.6943L33.7183 4.41016Z" fill="black"/>
<path d="M5.36632 3.34419C5.28032 2.66619 5.61632 1.94819 5.99832 1.50819C6.42432 0.994192 7.15833 0.626191 7.76033 0.596191C7.83433 1.30219 7.55433 1.99219 7.14233 2.50619C6.71633 3.00619 6.04232 3.40219 5.36632 3.34419Z" fill="black"/>
<path d="M10.2403 9.34833C10.2243 9.39233 9.99233 10.1983 9.42033 11.0323C8.92233 11.7643 8.41033 12.4823 7.59033 12.4963C6.80033 12.5103 6.53633 12.0283 5.62833 12.0283C4.72033 12.0283 4.42833 12.4823 3.68233 12.5123C2.89233 12.5423 2.29233 11.7343 1.79433 11.0043C0.770332 9.52433 -0.00566739 6.83033 1.04833 5.01433C1.56033 4.10433 2.49633 3.53433 3.50633 3.51833C4.28233 3.50433 4.99833 4.03033 5.46833 4.03033C5.93633 4.03033 6.77033 3.41433 7.75033 3.47433C8.13033 3.50433 9.22833 3.62033 9.93233 4.66033C9.87433 4.70633 8.63033 5.42233 8.64433 6.93033C8.65833 8.73233 10.2243 9.33233 10.2403 9.34833Z" fill="black"/>
<path d="M16.2903 1.43408H12.1723V12.4201H13.8783V8.66808H16.2383C18.3923 8.66808 19.9083 7.19208 19.9083 5.04408C19.9063 2.90408 18.4243 1.43408 16.2903 1.43408ZM15.8343 7.23408H13.8783V2.87208H15.8423C17.3183 2.87208 18.1643 3.66408 18.1643 5.05008C18.1643 6.43608 17.3183 7.23408 15.8343 7.23408Z" fill="black"/>
<path d="M23.9763 4.26611C21.9963 4.26611 20.7643 5.33211 20.6723 6.77811H22.2243C22.3683 6.06211 22.9623 5.60611 23.9143 5.60611C24.9203 5.60611 25.5203 6.13811 25.5203 7.03011V7.64811L23.3283 7.77811C21.4243 7.88411 20.3523 8.74411 20.3523 10.1461C20.3523 11.5841 21.4483 12.5601 23.0163 12.5601C24.0683 12.5601 25.0803 11.9961 25.5443 11.1061H25.5823V12.4221H27.1583V6.90211C27.1603 5.29411 25.9183 4.26611 23.9763 4.26611ZM25.5223 9.42011C25.5223 10.4621 24.6243 11.2541 23.4743 11.2541C22.5923 11.2541 22.0143 10.7981 22.0143 10.0961C22.0143 9.41211 22.5703 8.97811 23.5503 8.90811L25.5223 8.78611V9.42011Z" fill="black"/>
<path d="M35.4543 4.41016L32.4543 12.8382C31.7683 14.7802 30.9783 15.4042 29.3183 15.4042C29.1823 15.4042 28.7703 15.3882 28.6483 15.3662V14.0342C28.7683 14.0642 29.0423 14.0642 29.1803 14.0642C29.9423 14.0642 30.3523 13.7442 30.6043 12.9222C30.6043 12.9062 30.7483 12.4362 30.7483 12.4282L27.8563 4.41016H29.6383L31.6643 10.9282H31.6943L33.7203 4.41016H35.4543Z" fill="black"/>
<path d="M7.14233 2.50619C6.71633 3.00619 6.04232 3.40219 5.36632 3.34419C5.28032 2.66619 5.61632 1.94819 5.99832 1.50819C6.42432 0.994192 7.15833 0.626191 7.76033 0.596191C7.83233 1.30219 7.55433 1.99219 7.14233 2.50619Z" fill="black"/>
<path d="M10.2403 9.34833C10.2243 9.39233 9.99233 10.1983 9.42033 11.0323C8.92233 11.7643 8.41033 12.4823 7.59033 12.4963C6.80033 12.5103 6.53633 12.0283 5.62833 12.0283C4.72033 12.0283 4.42833 12.4823 3.68233 12.5123C2.89233 12.5423 2.29233 11.7343 1.79433 11.0043C0.770332 9.52433 -0.00566739 6.83033 1.04833 5.01433C1.56033 4.10433 2.49633 3.53433 3.50633 3.51833C4.28233 3.50433 4.99833 4.03033 5.46833 4.03033C5.93633 4.03033 6.77033 3.41433 7.75033 3.47433C8.13033 3.50433 9.22833 3.62033 9.93233 4.66033C9.87433 4.70633 8.63033 5.42233 8.64433 6.93033C8.65833 8.73233 10.2243 9.33233 10.2403 9.34833Z" fill="black"/>
<path d="M16.2903 1.43408H12.1723V12.4201H13.8783V8.66808H16.2383C18.3923 8.66808 19.9083 7.19208 19.9083 5.04408C19.9063 2.90408 18.4243 1.43408 16.2903 1.43408ZM15.8343 7.23408H13.8783V2.87208H15.8423C17.3183 2.87208 18.1643 3.66408 18.1643 5.05008C18.1643 6.43608 17.3183 7.23408 15.8343 7.23408Z" fill="black"/>
<path d="M23.9763 4.26611C21.9963 4.26611 20.7643 5.33211 20.6723 6.77811H22.2243C22.3683 6.06211 22.9623 5.60611 23.9143 5.60611C24.9203 5.60611 25.5203 6.13811 25.5203 7.03011V7.64811L23.3283 7.77811C21.4243 7.88411 20.3523 8.74411 20.3523 10.1461C20.3523 11.5841 21.4483 12.5601 23.0163 12.5601C24.0683 12.5601 25.0803 11.9961 25.5443 11.1061H25.5823V12.4221H27.1583V6.90211C27.1603 5.29411 25.9183 4.26611 23.9763 4.26611ZM25.5223 9.42011C25.5223 10.4621 24.6243 11.2541 23.4743 11.2541C22.5923 11.2541 22.0143 10.7981 22.0143 10.0961C22.0143 9.41211 22.5703 8.97811 23.5503 8.90811L25.5223 8.78611V9.42011Z" fill="black"/>
<path d="M33.7183 4.41016L31.6923 10.9282H31.6623L29.6363 4.41016H27.8543L30.7463 12.4282C30.7463 12.4362 30.6023 12.9082 30.6023 12.9222C30.3503 13.7442 29.9403 14.0642 29.1783 14.0642C29.0403 14.0642 28.7663 14.0642 28.6463 14.0342V15.3662C28.7663 15.3882 29.1783 15.4042 29.3163 15.4042C30.9763 15.4042 31.7683 14.7802 32.4523 12.8382L35.4523 4.41016H33.7183Z" fill="black"/>
</svg>
