<svg width="32" height="32" viewBox="0 0 32 32" fill="none" xmlns="http://www.w3.org/2000/svg">
<path d="M7.41156 29.3641C10.6764 29.3641 13.3231 26.7174 13.3231 23.4526C13.3231 20.1877 10.6764 17.541 7.41156 17.541C4.1467 17.541 1.5 20.1877 1.5 23.4526C1.5 26.7174 4.1467 29.3641 7.41156 29.3641Z" fill="#EAEAE8"/>
<path d="M24.5893 29.3641C27.8542 29.3641 30.5009 26.7174 30.5009 23.4526C30.5009 20.1877 27.8542 17.541 24.5893 17.541C21.3244 17.541 18.6777 20.1877 18.6777 23.4526C18.6777 26.7174 21.3244 29.3641 24.5893 29.3641Z" fill="#EAEAE8"/>
<path d="M7.41248 25.4451C8.51295 25.4451 9.40505 24.553 9.40505 23.4525C9.40505 22.3521 8.51295 21.46 7.41248 21.46C6.31202 21.46 5.41992 22.3521 5.41992 23.4525C5.41992 24.553 6.31202 25.4451 7.41248 25.4451Z" fill="#D5D5D3"/>
<path d="M24.5879 24.9521C25.4163 24.9521 26.0879 24.2806 26.0879 23.4521C26.0879 22.6237 25.4163 21.9521 24.5879 21.9521C23.7595 21.9521 23.0879 22.6237 23.0879 23.4521C23.0879 24.2806 23.7595 24.9521 24.5879 24.9521Z" fill="#D5D5D3"/>
<path d="M7.41169 29.8643C6.14359 29.8643 4.90396 29.4883 3.84957 28.7837C2.79517 28.0792 1.97337 27.0779 1.48808 25.9063C1.00279 24.7347 0.875806 23.4456 1.12319 22.2018C1.37058 20.9581 1.98122 19.8157 2.8779 18.919C3.77458 18.0223 4.91702 17.4116 6.16076 17.1642C7.40449 16.9168 8.69366 17.0438 9.86524 17.5291C11.0368 18.0143 12.0382 18.8361 12.7427 19.8905C13.4472 20.9449 13.8233 22.1845 13.8233 23.4526C13.8214 25.1525 13.1453 26.7822 11.9433 27.9842C10.7413 29.1862 9.11157 29.8624 7.41169 29.8643ZM7.41169 18.0411C6.34137 18.0411 5.29508 18.3584 4.40513 18.9531C3.51518 19.5477 2.82155 20.3929 2.41195 21.3817C2.00235 22.3706 1.89518 23.4587 2.10398 24.5084C2.31279 25.5582 2.8282 26.5225 3.58503 27.2793C4.34186 28.0361 5.30613 28.5515 6.35589 28.7604C7.40565 28.9692 8.49375 28.862 9.4826 28.4524C10.4714 28.0428 11.3166 27.3492 11.9113 26.4592C12.5059 25.5693 12.8233 24.523 12.8233 23.4526C12.8216 22.0179 12.2509 20.6424 11.2364 19.6279C10.2219 18.6134 8.84642 18.0427 7.41169 18.0411ZM24.5884 29.8643C23.3203 29.8643 22.0807 29.4882 21.0263 28.7837C19.9719 28.0792 19.1502 27.0778 18.6649 25.9063C18.1796 24.7347 18.0526 23.4455 18.3 22.2018C18.5474 20.9581 19.1581 19.8156 20.0547 18.9189C20.9514 18.0223 22.0939 17.4116 23.3376 17.1642C24.5813 16.9168 25.8705 17.0438 27.0421 17.5291C28.2136 18.0144 29.215 18.8362 29.9195 19.8905C30.624 20.9449 31.0001 22.1845 31.0001 23.4526C30.9982 25.1525 30.3221 26.7823 29.1201 27.9843C27.9181 29.1863 26.2883 29.8624 24.5884 29.8643ZM24.5884 18.0411C23.5181 18.0411 22.4718 18.3585 21.5819 18.9531C20.692 19.5477 19.9983 20.3929 19.5887 21.3818C19.1792 22.3706 19.072 23.4587 19.2808 24.5085C19.4896 25.5582 20.005 26.5225 20.7619 27.2793C21.5187 28.0362 22.483 28.5516 23.5327 28.7604C24.5825 28.9692 25.6706 28.862 26.6594 28.4524C27.6483 28.0428 28.4934 27.3491 29.0881 26.4592C29.6827 25.5693 30.0001 24.523 30.0001 23.4526C29.9984 22.0179 29.4278 20.6424 28.4132 19.6279C27.3987 18.6133 26.0232 18.0427 24.5884 18.0411Z" fill="#484A50"/>
<path d="M26.5207 12.3122C26.4741 12.2496 26.4135 12.1987 26.3437 12.1636C26.2739 12.1286 26.1969 12.1103 26.1188 12.1104H23.9182C23.8609 12.1101 23.804 12.1199 23.75 12.1391L20.7332 12.7661C20.6081 12.8111 20.506 12.904 20.4494 13.0242C20.3928 13.1445 20.3863 13.2823 20.4312 13.4074L20.9307 14.8229C20.0207 14.9522 17.8719 15.2672 12.7419 16.0316L11.7125 13.3654H10.64L11.8494 16.4966L6.93567 23.2641C6.8835 23.3357 6.85131 23.4199 6.84239 23.5081C6.83346 23.5963 6.84813 23.6852 6.88488 23.7658C6.92164 23.8465 6.97916 23.9159 7.05156 23.967C7.12396 24.0181 7.20863 24.049 7.29692 24.0566L15.3394 24.7541C15.3538 24.7554 15.3682 24.756 15.3825 24.756C15.4634 24.7559 15.5431 24.7363 15.6147 24.6988C15.6863 24.6612 15.7478 24.6069 15.7938 24.5404L21.4725 16.3197L24.1188 23.6229C24.1539 23.7195 24.2179 23.803 24.3021 23.8621C24.3863 23.9211 24.4866 23.9528 24.5894 23.9529C24.6474 23.9526 24.7049 23.9425 24.7594 23.9229C24.884 23.8775 24.9856 23.7846 25.0418 23.6645C25.098 23.5445 25.1044 23.407 25.0594 23.2822L21.5425 13.5392L24.0044 13.1104H25.4444L25.2269 13.8266C25.2078 13.8894 25.2013 13.9554 25.2077 14.0208C25.2141 14.0861 25.2334 14.1496 25.2643 14.2075C25.2952 14.2654 25.3373 14.3167 25.388 14.3583C25.4388 14.4 25.4972 14.4313 25.56 14.4504C25.6229 14.4694 25.6888 14.476 25.7542 14.4695C25.8195 14.4631 25.883 14.4439 25.9409 14.413C25.9988 14.382 26.0501 14.34 26.0918 14.2893C26.1334 14.2385 26.1647 14.1801 26.1838 14.1172L26.5975 12.7554C26.6201 12.6806 26.6249 12.6016 26.6116 12.5247C26.5982 12.4478 26.5671 12.375 26.5207 12.3122ZM8.26442 23.1366L12.2788 17.6072L14.6275 23.6885L8.26442 23.1366ZM15.5082 23.1941L13.1113 16.9872C15.6688 16.6066 18.8907 16.1291 20.5569 15.8866L15.5082 23.1941Z" fill="#71AE60"/>
<path d="M11.6502 12.1611H8.16406C7.74985 12.1611 7.41406 12.4969 7.41406 12.9111C7.41406 13.3253 7.74985 13.6611 8.16406 13.6611H11.6502C12.0644 13.6611 12.4002 13.3253 12.4002 12.9111C12.4002 12.4969 12.0644 12.1611 11.6502 12.1611Z" fill="#5B5E65"/>
<path d="M14.875 26.6699C16.1176 26.6699 17.125 25.6626 17.125 24.4199C17.125 23.1773 16.1176 22.1699 14.875 22.1699C13.6324 22.1699 12.625 23.1773 12.625 24.4199C12.625 25.6626 13.6324 26.6699 14.875 26.6699Z" fill="#D5D5D3"/>
<path d="M19.3221 6.43458C19.5419 6.80915 19.6872 7.22267 19.75 7.65239L20.6536 7.26214C20.6732 7.30121 20.8187 7.67983 20.9552 8.03808C20.9809 8.10523 21.0236 8.16451 21.0792 8.21005C21.1348 8.2556 21.2014 8.28582 21.2723 8.29772C21.3432 8.30963 21.4159 8.3028 21.4834 8.27793C21.5508 8.25305 21.6106 8.21098 21.6567 8.15589L22.2111 7.49464H22.8183L22.9266 6.29789L23.516 5.80996C23.516 5.80996 23.2811 2.80433 20.808 3.43583C19.2115 3.84352 19.5371 5.49464 19.5371 5.49464L18.8496 5.87433C19.0393 6.03136 19.1993 6.2211 19.3221 6.43458Z" fill="#FCD3C4"/>
<path d="M19.749 7.65326L20.6526 7.26301L19.623 7.11426C19.6791 7.29033 19.7213 7.47056 19.749 7.65326Z" fill="#FFC7B5"/>
<path d="M21.792 5.6005C22.1483 5.50738 22.8068 5.31244 23.3872 5.1375C23.1528 4.29213 22.5113 3.00188 20.808 3.43681C19.2115 3.8445 19.5371 5.49563 19.5371 5.49563L19.8214 5.65544C20.0213 5.76801 20.2423 5.83801 20.4706 5.86104C20.6989 5.88407 20.9294 5.85963 21.1478 5.78925C21.3607 5.72035 21.5756 5.65741 21.792 5.6005Z" fill="#484A50"/>
<path d="M22.5639 3.13354C21.0207 1.97854 18.6309 2.26617 18.6309 2.26617C18.6309 2.26617 19.233 3.07785 19.233 3.92242C19.233 4.20367 19.0205 4.75735 19.0205 4.75735C19.0205 4.75735 19.8996 5.31767 20.653 5.60829C21.5905 5.96979 22.4932 5.57779 22.4932 5.57779L23.6698 6.14579C23.6698 6.14579 24.2172 4.37104 22.5639 3.13354Z" fill="#E44D44"/>
<path d="M13.6216 10.9814L18.0743 14.7325C18.2251 14.8596 18.3345 15.0287 18.3885 15.2184C18.4425 15.408 18.4386 15.6095 18.3774 15.7969L16.073 22.8442L17.1437 23.3142C17.289 23.3779 17.4058 23.4928 17.4719 23.6369C17.5381 23.7811 17.549 23.9445 17.5026 24.0962L17.1714 25.1795C17.1572 25.226 17.1252 25.2649 17.0823 25.2879C17.0395 25.3108 16.9894 25.3159 16.9428 25.302L14.2909 24.5098C14.1656 24.4826 14.0472 24.4302 13.9429 24.3558C13.8386 24.2813 13.7507 24.1863 13.6844 24.0766C13.6181 23.9669 13.5749 23.8449 13.5574 23.7179C13.5399 23.591 13.5485 23.4618 13.5827 23.3383L15.4304 16.6673C15.4304 16.6673 14.5626 16.1881 13.4477 15.5094L13.3227 15.4331C11.5451 14.3451 9.21556 12.7913 8.73562 11.8543C7.93862 10.298 10.2157 8.24883 10.2157 8.24883C10.2157 8.24883 11.532 6.20064 13.3227 5.63008C15.4827 4.94189 18.6763 5.63008 18.6763 5.63008C19.1725 5.81989 19.7797 6.69258 19.8936 7.79339C20.0074 8.8942 19.8741 9.54964 19.8741 9.54964L20.5387 11.7783L23.7267 14.1693L25.0194 13.8686C25.1117 13.8472 25.2079 13.8495 25.2991 13.8753C25.3902 13.9011 25.4733 13.9495 25.5407 14.0161L25.7705 14.2434C25.863 14.3348 25.9156 14.459 25.9171 14.589C25.9185 14.719 25.8687 14.8444 25.7782 14.9378L25.0872 15.6526C24.9868 15.7565 24.859 15.8299 24.7186 15.8641C24.5783 15.8984 24.4311 15.8923 24.2941 15.8464L23.2356 15.4918L18.9829 12.955L17.7264 10.295L13.6216 10.9814Z" fill="#FCD3C4"/>
<path d="M13.7908 22.5894L13.5833 23.3383C13.5491 23.4618 13.5405 23.591 13.558 23.718C13.5755 23.8449 13.6187 23.967 13.685 24.0767C13.7513 24.1863 13.8392 24.2813 13.9435 24.3558C14.0478 24.4303 14.1662 24.4827 14.2915 24.5098L16.9434 25.3021C16.99 25.316 17.0401 25.3109 17.0829 25.288C17.1258 25.265 17.1578 25.226 17.172 25.1796L17.5032 24.0963C17.5496 23.9446 17.5387 23.7812 17.4725 23.637C17.4064 23.4929 17.2896 23.378 17.1443 23.3143L16.0736 22.8443L14.9323 22.891L13.7908 22.5894ZM13.622 10.9815L17.7268 10.295L18.0712 11.024L20.1862 10.5941L19.8747 9.54964C19.8747 9.54964 20.0081 8.89395 19.8942 7.79339C19.7803 6.69283 19.1732 5.81989 18.677 5.63008C18.677 5.63008 15.4832 4.94189 13.3233 5.63008C11.5327 6.20064 10.2164 8.24883 10.2164 8.24883C10.2164 8.24883 10.1719 8.28889 10.0977 8.36195L13.4206 11.021L13.622 10.9815Z" fill="#E44D44"/>
<path d="M10.2157 8.24902C10.2157 8.24902 7.93862 10.2985 8.73562 11.8545C9.17125 12.705 11.131 14.0638 12.8184 15.1211L15.3333 12.4238L13.6214 10.9816L10.2157 8.24902Z" fill="#484A50"/>
</svg>
