<svg width="32" height="32" viewBox="0 0 32 32" fill="none" xmlns="http://www.w3.org/2000/svg">
<g clip-path="url(#clip0_434_21957)">
<path d="M23.8124 21.1005C23.6979 21.1003 23.5871 21.0595 23.4998 20.9851C23.4126 20.9108 23.3547 20.8079 23.3363 20.6948C23.318 20.5817 23.3404 20.4658 23.3997 20.3677C23.4589 20.2696 23.5511 20.1958 23.6598 20.1594L24.7215 19.8054C24.8845 19.7513 25.0262 19.6472 25.1266 19.5079C25.227 19.3686 25.281 19.2012 25.2808 19.0295V15.7014C25.281 15.5297 25.227 15.3624 25.1266 15.2231C25.0262 15.0838 24.8845 14.9797 24.7216 14.9255L23.6598 14.5716C23.5394 14.5302 23.4401 14.443 23.3836 14.3288C23.3272 14.2147 23.3181 14.0828 23.3584 13.962C23.3987 13.8412 23.4851 13.7412 23.5987 13.6837C23.7124 13.6263 23.8442 13.6161 23.9653 13.6553L25.0271 14.0093C25.3824 14.1274 25.6915 14.3544 25.9104 14.6582C26.1294 14.962 26.247 15.327 26.2467 15.7014V19.0295C26.247 19.404 26.1294 19.769 25.9104 20.0728C25.6915 20.3766 25.3824 20.6036 25.027 20.7217L23.9653 21.0756C23.916 21.0921 23.8644 21.1005 23.8124 21.1005Z" fill="#557981"/>
<path d="M12.5153 5.65813H10.8242V2.211H12.5153V5.65813ZM17.1982 2.21094H18.8893V5.65806H17.1982V2.21094Z" fill="#ABABAB"/>
<path d="M17.1982 2.21094H18.8893V3.38169H17.1982V2.21094ZM10.8242 2.21094H12.5153V3.38169H10.8242V2.21094Z" fill="#9B9B9B"/>
<path d="M21.4633 29.2029H8.25195C6.87127 29.2029 5.75195 28.0836 5.75195 26.7029V8.1582C5.75195 6.77752 6.87127 5.6582 8.25195 5.6582H21.4633C22.844 5.6582 23.9633 6.77752 23.9633 8.1582V26.7029C23.9633 28.0836 22.8441 29.2029 21.4633 29.2029Z" fill="#FB9538"/>
<path d="M21.463 5.6582H20.0605C21.4974 5.6582 22.6622 6.82302 22.6622 8.25983V26.6013C22.6622 28.0381 21.4974 29.2029 20.0605 29.2029H21.463C22.8437 29.2029 23.963 28.0836 23.963 26.7029V8.1582C23.963 6.77745 22.8437 5.6582 21.463 5.6582Z" fill="#FC840D"/>
<path d="M22.0121 26.1465C20.1506 26.1465 18.5905 27.4569 18.203 29.2034H21.3878C22.8102 29.2034 23.9633 28.0504 23.9633 26.628V26.1465H22.0121V26.1465ZM7.70314 26.1465C9.56458 26.1465 11.1248 27.4569 11.5123 29.2034H8.35358C6.91677 29.2034 5.75195 28.0386 5.75195 26.6018V26.1465H7.70314Z" fill="#F16600"/>
<path d="M22.0118 32.0002C23.0894 32.0002 23.963 31.1266 23.963 30.0489C23.963 28.9713 23.0894 28.0977 22.0118 28.0977C20.9342 28.0977 20.0605 28.9713 20.0605 30.0489C20.0605 31.1266 20.9342 32.0002 22.0118 32.0002Z" fill="#595959"/>
<path d="M7.7032 32.0002C8.78085 32.0002 9.65445 31.1266 9.65445 30.0489C9.65445 28.9713 8.78085 28.0977 7.7032 28.0977C6.62556 28.0977 5.75195 28.9713 5.75195 30.0489C5.75195 31.1266 6.62556 32.0002 7.7032 32.0002Z" fill="#595959"/>
<path d="M9.43172 24.7154H9.35547C8.83772 24.7154 8.41797 24.2957 8.41797 23.7779V9.2627C8.41797 8.74495 8.83772 8.3252 9.35547 8.3252H9.43172C9.94947 8.3252 10.3692 8.74495 10.3692 9.2627V23.7779C10.3692 24.2957 9.94947 24.7154 9.43172 24.7154ZM13.074 24.7154H12.9977C12.48 24.7154 12.0602 24.2957 12.0602 23.7779V9.2627C12.0602 8.74495 12.48 8.3252 12.9977 8.3252H13.074C13.5917 8.3252 14.0115 8.74495 14.0115 9.2627V23.7779C14.0115 24.2957 13.5917 24.7154 13.074 24.7154ZM16.7162 24.7154H16.64C16.1222 24.7154 15.7025 24.2957 15.7025 23.7779V9.2627C15.7025 8.74495 16.1222 8.3252 16.64 8.3252H16.7162C17.234 8.3252 17.6537 8.74495 17.6537 9.2627V23.7779C17.6537 24.2957 17.234 24.7154 16.7162 24.7154ZM20.3585 24.7154H20.2823C19.7645 24.7154 19.3448 24.2957 19.3448 23.7779V9.2627C19.3448 8.74495 19.7645 8.3252 20.2823 8.3252H20.3585C20.8763 8.3252 21.296 8.74495 21.296 9.2627V23.7779C21.296 24.2957 20.8763 24.7154 20.3585 24.7154Z" fill="#F16600"/>
<path d="M19.4358 2.21137H10.2793C9.93411 2.21137 9.6543 1.93156 9.6543 1.58637V0.625C9.6543 0.279813 9.93411 0 10.2793 0H19.4358C19.781 0 20.0608 0.279813 20.0608 0.625V1.58637C20.0608 1.93156 19.781 2.21137 19.4358 2.21137Z" fill="#557981"/>
<path d="M22.0118 30.6993C22.371 30.6993 22.6622 30.4081 22.6622 30.0489C22.6622 29.6896 22.371 29.3984 22.0118 29.3984C21.6525 29.3984 21.3613 29.6896 21.3613 30.0489C21.3613 30.4081 21.6525 30.6993 22.0118 30.6993Z" fill="#434343"/>
<path d="M7.70317 30.6993C8.0624 30.6993 8.35361 30.4081 8.35361 30.0489C8.35361 29.6896 8.0624 29.3984 7.70317 29.3984C7.34395 29.3984 7.05273 29.6896 7.05273 30.0489C7.05273 30.4081 7.34395 30.6993 7.70317 30.6993Z" fill="#434343"/>
</g>
<defs>
<clipPath id="clip0_434_21957">
<rect width="32" height="32" fill="white"/>
</clipPath>
</defs>
</svg>
