<svg width="107" height="68" viewBox="0 0 107 68" fill="none" xmlns="http://www.w3.org/2000/svg">
<path d="M6.84552 32.5328L19.5353 28.9976L10.789 23.9727L6.36523 28.2401L6.84552 32.5328Z" fill="#1B2727"/>
<path d="M55.4812 57.732L68.1709 54.1968L59.3993 49.1719L54.9756 53.4393L55.4812 57.732Z" fill="#1B2727"/>
<path opacity="0.29" d="M6.84552 32.5328L19.5353 28.9976L10.789 23.9727L6.36523 28.2401L6.84552 32.5328Z" fill="#0A1414"/>
<path opacity="0.29" d="M55.4812 57.732L68.1709 54.1968L59.3993 49.1719L54.9756 53.4393L55.4812 57.732Z" fill="#0A1414"/>
<path d="M64.7579 52.7077C63.0643 51.8491 61.5223 51.7481 60.3848 52.2784L57.9833 53.5662C56.77 54.1217 55.9863 55.359 55.9863 57.1771C55.9863 60.687 58.8428 64.9797 62.3565 66.722C64.1007 67.5805 65.6679 67.6815 66.8308 67.126C66.8308 67.126 69.2069 65.8635 69.4597 65.7119C70.4961 65.1059 71.1281 63.9191 71.1281 62.2778C71.1281 58.7427 68.2716 54.4752 64.7579 52.7077Z" fill="#1B2727"/>
<path opacity="0.29" d="M66.9062 67.1004C67.3613 66.8732 69.2319 65.8631 69.4594 65.7116C70.4958 65.1056 71.1277 63.9188 71.1277 62.2775C71.1277 60.8634 70.6727 59.3231 69.8891 57.8838L67.4877 59.1716C68.2713 60.6109 68.7263 62.1512 68.7263 63.5653C68.7516 65.2824 68.0438 66.5197 66.9062 67.1004Z" fill="#0A1414"/>
<path d="M68.752 63.565C68.752 67.0749 65.8956 68.5142 62.3819 66.7466C58.8682 64.979 56.0117 60.7116 56.0117 57.2017C56.0117 53.6918 58.8682 52.2525 62.3819 54.0201C65.8956 55.7624 68.752 60.0551 68.752 63.565Z" fill="#1B2727"/>
<path d="M67.3366 62.8583C67.3366 65.6107 65.1121 66.7218 62.3568 65.3582C59.6014 63.9946 57.377 60.6363 57.377 57.8839C57.377 55.1315 59.6014 54.0205 62.3568 55.384C65.1121 56.7728 67.3366 60.106 67.3366 62.8583Z" fill="#E5E5E5"/>
<path d="M65.6433 65.0812C66.4017 64.6519 66.8567 63.8186 66.8567 62.6318C66.8567 62.5308 66.8567 62.4298 66.8567 62.3541L64.076 61.9248L65.6433 65.0812Z" fill="#1B2727"/>
<path d="M63.4185 59.6018L66.3255 60.2331C65.7188 58.7938 64.6319 57.3797 63.3174 56.4707L63.4185 59.6018Z" fill="#1B2727"/>
<path d="M61.3211 58.5664L61.4222 55.5362C60.1077 55.1575 59.0207 55.4605 58.4141 56.2938L61.3211 58.5664Z" fill="#1B2727"/>
<path d="M57.8828 57.8594C57.8828 57.9604 57.8828 58.0361 57.8828 58.1371C57.8828 59.3239 58.3378 60.6117 59.0962 61.7985L60.6887 60.233L57.8828 57.8594Z" fill="#1B2727"/>
<path d="M62.3566 62.2793L60.6377 63.6681C61.1685 64.1479 61.7499 64.5519 62.3566 64.8549C62.9633 65.1579 63.5447 65.3347 64.0756 65.3599L62.3566 62.2793Z" fill="#1B2727"/>
<path opacity="0.11" d="M68.752 63.565C68.752 67.0749 65.8956 68.5142 62.3819 66.7466C58.8682 64.979 56.0117 60.7116 56.0117 57.2017C56.0117 53.6918 58.8682 52.2525 62.3819 54.0201C65.8956 55.7624 68.752 60.0551 68.752 63.565Z" fill="#0A1414"/>
<path d="M16.173 28.2887C14.4793 27.4302 12.9373 27.3292 11.7998 27.8594L9.39836 29.1472C8.185 29.7028 7.40137 30.9401 7.40137 32.7581C7.40137 36.268 10.2578 40.5607 13.7715 42.303C15.5157 43.1616 17.083 43.2626 18.2458 42.7071C18.2458 42.7071 20.622 41.4445 20.8747 41.293C21.9112 40.687 22.5431 39.5002 22.5431 37.8589C22.5684 34.3237 19.7119 30.0563 16.173 28.2887Z" fill="#1B2727"/>
<path opacity="0.29" d="M18.3467 42.6815C18.8017 42.4542 20.6723 41.4442 20.8998 41.2927C21.9362 40.6866 22.5682 39.4998 22.5682 37.8585C22.5682 36.4445 22.1132 34.9042 21.3295 33.4648L18.9281 34.7526C19.7117 36.192 20.1667 37.7323 20.1667 39.1463C20.1667 40.8634 19.4589 42.0755 18.3467 42.6815Z" fill="#0A1414"/>
<path d="M20.1669 39.1216C20.1669 42.6315 17.3105 44.0708 13.7968 42.3033C10.2831 40.5357 7.42664 36.2683 7.42664 32.7584C7.42664 29.2485 10.2831 27.8091 13.7968 29.5767C17.3105 31.3443 20.1669 35.6117 20.1669 39.1216Z" fill="#1B2727"/>
<path d="M18.7769 38.4394C18.7769 41.1918 16.5524 42.3028 13.7971 40.9393C11.0418 39.5757 8.81726 36.2173 8.81726 33.4649C8.81726 30.7126 11.0418 29.6015 13.7971 30.9651C16.5524 32.3286 18.7769 35.687 18.7769 38.4394Z" fill="#E5E5E5"/>
<path d="M17.0826 40.6378C17.841 40.2086 18.296 39.3753 18.296 38.1885C18.296 38.0875 18.296 37.9865 18.296 37.9107L15.5154 37.4814L17.0826 40.6378Z" fill="#1B2727"/>
<path d="M14.8324 35.1585L17.7395 35.7898C17.1328 34.3504 16.0458 32.9364 14.7313 32.0273L14.8324 35.1585Z" fill="#1B2727"/>
<path d="M12.7604 34.123L12.8615 31.0929C11.547 30.7141 10.4601 31.0171 9.85339 31.8504L12.7604 34.123Z" fill="#1B2727"/>
<path d="M9.32214 33.416C9.32214 33.517 9.32214 33.5928 9.32214 33.6938C9.32214 34.8806 9.77716 36.1684 10.5355 37.3552L12.128 35.7896L9.32214 33.416Z" fill="#1B2727"/>
<path d="M13.796 37.8604L12.077 39.2492C12.6079 39.7289 13.1893 40.1329 13.796 40.436C14.4026 40.739 14.984 40.9157 15.5149 40.941L13.796 37.8604Z" fill="#1B2727"/>
<path opacity="0.11" d="M20.1669 39.1216C20.1669 42.6315 17.3105 44.0708 13.7968 42.3033C10.2831 40.5357 7.42664 36.2683 7.42664 32.7584C7.42664 29.2485 10.2831 27.8091 13.7968 29.5767C17.3105 31.3443 20.1669 35.6117 20.1669 39.1216Z" fill="#0A1414"/>
<path d="M100.805 38.7441C95.9261 34.4009 74.8945 17.8867 71.3808 15.2859C67.8671 12.685 55.1521 4.70567 46.608 2.50883C38.0639 0.311988 37.0022 1.59979 35.258 1.22103C33.5138 0.842261 28.3317 -0.36979 20.6976 1.97856C17.4367 2.9886 13.5691 4.09965 10.4093 6.92777C6.21313 10.6649 2.9775 16.4727 1.41024 19.6291L1.08162 20.6896C0.500214 22.5834 0.752998 24.654 1.76413 26.3458C2.6236 27.7851 3.71057 29.4517 4.51948 30.3608C5.22727 31.1435 6.08674 31.9768 6.81981 32.6839C6.81981 32.6334 6.81981 32.5576 6.81981 32.5071C6.81981 29.8305 8.38707 28.1134 10.8138 28.1134C11.7744 28.1134 12.8108 28.3912 13.8725 28.9214C17.5378 30.7395 20.4954 35.209 20.4954 38.8704C20.4954 39.3501 20.4449 39.8046 20.3437 40.2339L55.4554 57.7582C55.4302 57.4804 55.4049 57.2026 55.4049 56.9501C55.4049 54.2735 56.9721 52.5564 59.3989 52.5564C60.3594 52.5564 61.3958 52.8342 62.4575 53.3645C66.1229 55.1825 69.0805 59.652 69.0805 63.3134C69.0805 63.7427 69.0299 64.1214 68.9541 64.5002L71.76 65.889C71.76 65.889 77.0179 67.2526 80.3799 66.9495C83.7419 66.6465 90.6682 64.3739 96.2295 61.6216C101.791 58.8692 106.492 54.021 106.594 51.4959C106.644 50.5364 105.684 43.0873 100.805 38.7441Z" fill="#1EAEAA"/>
<path d="M81.2901 23.9722C81.2901 23.9722 80.9868 21.8511 81.2901 21.2956C81.5934 20.7653 82.1243 19.932 82.8068 20.5381C83.4893 21.1441 84.2477 22.8864 83.5651 24.5025C82.8826 26.1185 81.2901 23.9722 81.2901 23.9722Z" fill="#1EAEAA"/>
<path opacity="0.3" d="M4.19043 15.6904C4.19043 15.6904 20.4697 26.9272 39.1757 36.9771C57.8817 47.027 67.715 52.7337 67.715 52.7337L56.1628 42.8353L14.7315 18.6953L4.19043 15.6904Z" fill="white"/>
<path d="M15.1367 18.9471L56.1383 42.8599C56.1383 42.8599 52.1696 25.4366 38.1653 18.4168C24.1611 11.397 15.1367 18.9471 15.1367 18.9471Z" fill="#1B2727"/>
<path d="M32.2246 6.01845C37.6847 3.44284 42.1337 2.66006 42.1337 2.12978C42.1337 1.59951 28.1042 0.917733 19.4337 5.26092C10.7632 9.6041 11.1929 13.3413 14.4791 12.9372C17.7653 12.5332 22.1638 12.1797 23.5541 11.4979C24.9444 10.8161 27.5733 8.21529 32.2246 6.01845Z" fill="#1B2727"/>
<path d="M14.3275 12.3561C13.9989 12.3561 13.2153 12.2804 13.0889 11.6996C12.8867 10.8411 14.0495 8.44223 19.9393 5.51311C26.3853 2.30622 35.4603 2.05371 38.0892 2.05371C39.429 2.05371 40.4401 2.10421 41.1226 2.17997C40.7687 2.30622 40.3895 2.43248 39.9851 2.55873C38.165 3.13951 35.4097 4.0233 32.351 5.48786C29.2418 6.95242 26.9667 8.64424 25.4753 9.73003C24.6917 10.2856 24.085 10.7401 23.6553 10.9673C22.5936 11.4976 19.3074 11.8511 16.4256 12.1794C15.8442 12.2551 15.2628 12.3056 14.732 12.3561C14.5803 12.3561 14.4539 12.3561 14.3275 12.3561Z" fill="#3F4D4D"/>
<path d="M51.1076 25.7386C50.602 27.1275 58.7164 40.8135 61.2442 41.4953C63.7468 42.1771 71.305 41.9498 78.7621 37.8339C86.2192 33.718 87.6096 30.5364 87.2304 29.3748C86.8512 28.2385 72.5184 16.1937 70.1675 15.9665C67.8166 15.7392 51.7143 24.0468 51.1076 25.7386Z" fill="#1B2727"/>
<path opacity="0.2" d="M71.002 55.4102C71.002 55.4102 72.0636 53.9962 74.9201 53.6679C77.7766 53.3649 81.265 53.6427 83.8687 55.9658C85.8151 57.7081 86.5229 58.4404 86.5229 58.4404C86.5229 58.4404 81.0122 60.2332 78.2821 59.8544C75.5773 59.4757 71.002 55.4102 71.002 55.4102Z" fill="white"/>
<path d="M71.5322 54.9301C71.5322 54.9301 72.5181 53.6171 75.147 53.3393C77.776 53.0615 81.0116 53.3141 83.4131 55.4604C85.2078 57.0512 85.8651 57.733 85.8651 57.733C85.8651 57.733 80.7841 59.3996 78.2563 59.046C75.7284 58.6925 71.5322 54.9301 71.5322 54.9301Z" fill="#E5E5E5"/>
<path opacity="0.2" d="M101.665 50.4607C101.665 50.4607 105.507 46.8751 105.305 45.865C105.103 44.8297 102.145 39.729 101.766 40.4866C101.387 41.2441 100.578 42.4561 100.881 43.4914C101.184 44.5267 101.741 49.5517 101.665 50.4607Z" fill="white"/>
<path d="M101.639 49.7527C101.639 49.7527 105.254 46.1671 105.077 45.157C104.875 44.1217 101.917 39.021 101.538 39.7785C101.159 40.5361 100.35 41.7481 100.654 42.7834C100.957 43.7935 101.715 48.8184 101.639 49.7527Z" fill="#E5E5E5"/>
<path d="M78.7367 64.8783L78.6104 65.9894C78.6104 65.9894 89.9098 64.5501 97.013 60.1816C104.091 55.8132 105.81 52.4043 105.81 52.4043C105.81 52.4043 100.35 58.313 93.6763 61.0402C86.6742 63.8683 78.7367 64.8783 78.7367 64.8783Z" fill="#1B2727"/>
<path d="M85.6125 28.4418C84.3233 27.2045 81.8713 25.0329 78.7621 22.5331C73.7064 18.4424 70.7488 16.5485 70.041 16.498H70.0158C68.9794 16.498 64.859 18.2151 60.2583 20.5887C54.9751 23.2906 52.144 25.2097 51.7395 25.7904C51.7901 26.4975 53.1804 29.5023 55.7588 33.6435C58.6152 38.214 60.6881 40.4866 61.3706 40.6886C61.7497 40.7896 62.23 40.8653 62.7862 40.9158C66.1229 40.4108 71.8864 39.123 77.4982 35.8151C82.2505 33.0122 84.5256 30.3104 85.6125 28.4418Z" fill="#3F4D4D"/>
<path d="M18.5992 17.9879L18.0684 19.5787L33.8421 28.7701L36.3699 18.6191L36.2941 18.5181C32.9573 17.0536 29.6711 16.3213 26.4608 16.3213C23.0988 16.3465 20.4193 17.1798 18.5992 17.9879Z" fill="#3F4D4D"/>
<path d="M51.8407 39.2738L52.4726 35.4104C52.1946 34.8296 51.9165 34.2489 51.5879 33.6428C49.2117 29.1481 45.0155 23.1131 38.3673 19.5527L36.8 30.4864L51.8407 39.2738Z" fill="#3F4D4D"/>
<path opacity="0.2" d="M21.2283 25.7658C21.2283 26.4981 20.6217 26.8011 19.8886 26.4476C19.1555 26.0688 18.5488 25.185 18.5488 24.4275C18.5488 23.67 19.1555 23.3922 19.8886 23.7457C20.6217 24.1245 21.2283 25.0083 21.2283 25.7658Z" fill="#0A1414"/>
<path d="M17.7396 23.4922L17.1582 24.1487C17.1582 24.1487 21.3797 26.9011 21.7589 26.3456C22.1633 25.8153 17.7396 23.4922 17.7396 23.4922Z" fill="#1EAEAA"/>
<path opacity="0.2" d="M39.2266 35.9918C39.2266 36.7241 38.6199 37.0271 37.8869 36.6736C37.1538 36.2949 36.5471 35.4111 36.5471 34.6535C36.5471 33.9213 37.1538 33.6182 37.8869 33.9718C38.6199 34.3505 39.2266 35.2343 39.2266 35.9918Z" fill="#0A1414"/>
<path d="M35.7386 33.6943L35.1572 34.3509C35.1572 34.3509 39.3787 37.1032 39.7579 36.5477C40.1623 36.0174 35.7386 33.6943 35.7386 33.6943Z" fill="#1EAEAA"/>
<path opacity="0.2" d="M56.0364 42.8345C56.0364 42.8597 55.5814 44.6021 55.2022 46.7232C54.8483 48.6422 54.6461 55.0055 54.5955 56.1418L34.4739 45.9656C34.4487 45.5616 34.1706 41.7992 34.1706 38.3651C34.1706 34.7542 35.0806 30.7392 35.0806 30.714L34.8531 30.6635C34.8531 30.714 33.9431 34.7542 33.9431 38.3651C33.9431 41.5467 34.1706 45.0313 34.2464 45.8394L24.2362 40.7892C24.0087 40.4861 21.582 37.1783 19.2058 32.1533C16.7538 26.9768 17.3352 20.4116 17.3605 20.3358L17.133 20.3105C17.133 20.3863 16.5263 27.0021 19.0036 32.2543C21.5061 37.5065 24.0592 40.9154 24.0845 40.9407L24.1098 40.9659L54.7978 56.5206V56.3438C54.7978 56.2681 55.0253 48.8695 55.4044 46.7737C55.7836 44.6778 56.2386 42.9102 56.2386 42.9102L56.0364 42.8345Z" fill="#0A1414"/>
<path opacity="0.3" d="M80.1016 55.208C80.1016 56.117 79.3685 57.2028 78.4585 57.6573C77.5485 58.1118 76.8154 57.7331 76.8154 56.8493C76.8154 55.9402 77.5485 54.8544 78.4585 54.3999C79.3685 53.9454 80.1016 54.2989 80.1016 55.208Z" fill="#0A1414"/>
<path opacity="0.3" d="M82.6295 55.8638C82.6295 56.4951 82.124 57.2527 81.492 57.5809C80.8601 57.8839 80.3545 57.6314 80.3545 57.0001C80.3545 56.3689 80.8601 55.6113 81.492 55.2831C82.124 54.9801 82.6295 55.2326 82.6295 55.8638Z" fill="#0A1414"/>
<path d="M76.4614 56.6987C76.4614 57.027 76.1833 57.4563 75.8547 57.6078C75.5261 57.7845 75.248 57.633 75.248 57.3048C75.248 56.9765 75.5261 56.5472 75.8547 56.3957C76.1833 56.219 76.4614 56.3452 76.4614 56.6987Z" fill="white"/>
<path opacity="0.4" d="M79.4193 55.8896C79.4193 56.3441 79.0402 56.8997 78.6104 57.1269C78.1554 57.3542 77.8015 57.1774 77.8015 56.7229C77.8015 56.2684 78.1807 55.7129 78.6104 55.4856C79.0402 55.2583 79.4193 55.4351 79.4193 55.8896Z" fill="white"/>
<path opacity="0.4" d="M82.1997 56.3191C82.1997 56.6473 81.9216 57.0766 81.593 57.2281C81.2644 57.4049 80.9863 57.2534 80.9863 56.9251C80.9863 56.5968 81.2644 56.1676 81.593 56.0161C81.9216 55.8393 82.1997 55.9908 82.1997 56.3191Z" fill="white"/>
<path d="M75.5513 54.6511C75.5513 54.9794 75.2732 55.4086 74.9446 55.5601C74.616 55.7369 74.3379 55.5854 74.3379 55.2571C74.3379 54.9289 74.616 54.4996 74.9446 54.3481C75.2732 54.1713 75.5513 54.3228 75.5513 54.6511Z" fill="white"/>
<path d="M102.575 41.3706C102.575 41.6989 102.297 42.1281 101.968 42.2797C101.639 42.4564 101.361 42.3049 101.361 41.9766C101.361 41.6484 101.639 41.2191 101.968 41.0676C102.297 40.8908 102.575 41.0171 102.575 41.3706Z" fill="white"/>
<path d="M103.711 42.9607C103.711 43.2889 103.433 43.7182 103.105 43.8697C102.776 44.0465 102.498 43.895 102.498 43.5667C102.498 43.2384 102.776 42.8092 103.105 42.6577C103.433 42.4809 103.711 42.6324 103.711 42.9607Z" fill="white"/>
<path opacity="0.3" d="M104.066 44.0213C104.066 44.8041 103.434 45.7383 102.65 46.1171C101.866 46.4959 101.234 46.1929 101.234 45.4101C101.234 44.6273 101.866 43.693 102.65 43.3142C103.434 42.9355 104.066 43.2637 104.066 44.0213Z" fill="#0A1414"/>
<path opacity="0.4" d="M103.232 44.8557C103.232 45.2597 102.903 45.7395 102.524 45.9415C102.12 46.1435 101.816 45.9667 101.816 45.588C101.816 45.2092 102.145 44.7042 102.524 44.5022C102.903 44.3002 103.232 44.4517 103.232 44.8557Z" fill="white"/>
<path opacity="0.3" d="M102.928 46.1431C102.928 45.5119 102.423 45.2594 101.791 45.5624C101.588 45.6634 101.411 45.7896 101.26 45.9664C101.361 46.6482 101.462 47.3552 101.538 47.9612C101.614 47.936 101.715 47.9107 101.816 47.8602C102.423 47.5572 102.928 46.7744 102.928 46.1431Z" fill="#0A1414"/>
<path opacity="0.3" d="M71.5322 54.9049C72.7709 54.8039 76.2593 54.6271 78.4585 55.1574C80.6577 55.6877 84.4748 57.1522 85.8398 57.7077C85.6881 57.5562 84.9803 56.8492 83.4131 55.4604C81.0116 53.3141 77.776 53.0615 75.147 53.3393C72.7456 53.5918 71.7092 54.7029 71.5322 54.9049Z" fill="#0A1414"/>
<path d="M50.4252 36.6992C50.4252 36.6992 52.3211 37.6083 53.1805 38.7446C54.0147 39.8809 54.0147 40.4869 54.0147 40.4869C54.0147 40.4869 48.7568 41.6232 46.1531 39.9566C43.3978 38.1638 50.4252 36.6992 50.4252 36.6992Z" fill="#1EAEAA"/>
<path d="M64.252 41.0925L65.2125 41.0167L74.06 36.724L74.5403 35.8403L79.9246 33.3404L79.697 32.9111L69.4087 37.4816L69.7121 37.8603L73.7061 36.0928L73.4786 36.3453L64.8334 40.4865L64.252 41.0925Z" fill="#1B2727"/>
<path d="M73.6055 38.7189H74.4397L81.4923 33.4919L82.3518 31.4718L85.0566 28.0377L84.8796 27.7852L79.7987 33.5676L80.0009 33.8707L81.3659 32.6586L80.9868 33.3404L73.833 38.2896L73.6055 38.7189Z" fill="#1B2727"/>
<path d="M84.2725 55.3835L87.2048 58.0096C87.2048 58.0096 91.4515 57.2016 95.2433 55.2572C99.035 53.3129 101.31 50.6868 101.31 50.6868L101.007 46.8486C101.007 46.8486 99.2878 49.9545 94.3333 52.4039C89.9348 54.6007 84.2725 55.3835 84.2725 55.3835Z" fill="#1B2727"/>
<path opacity="0.29" d="M96.0521 60.9397C101.588 58.1621 106.315 53.4654 106.416 50.9403C106.442 50.511 106.467 49.804 105.86 47.8092C105.81 47.6324 105.582 47.6072 105.481 47.7587C103.535 50.5363 100.223 54.1472 95.0662 56.6218C89.7072 59.1974 83.1349 61.3942 78.0792 61.1417C76.8911 61.0912 76.6889 62.278 76.5878 64.1466C76.5372 65.3587 77.5483 66.3687 78.7617 66.2424C83.1096 65.8132 90.0864 63.9193 96.0521 60.9397Z" fill="#0A1414"/>
<path opacity="0.11" d="M72.2908 57.6323C70.5213 55.6375 60.41 45.032 57.781 40.8908C54.3432 35.5124 48.7314 22.3566 38.3925 17.4326C28.0284 12.5087 16.2992 14.6045 12.7602 14.857C10.6115 14.9833 7.2748 14.2005 4.94919 13.5439C3.43249 15.8418 2.2444 18.0639 1.46077 19.6547L1.13215 20.7152C0.550752 22.6091 0.803536 24.6797 1.81467 26.3715C2.67414 27.8108 3.76111 29.4774 4.57001 30.3864C5.27781 31.1692 6.13728 32.0025 6.87035 32.7095C6.87035 32.659 6.87035 32.5832 6.87035 32.5327C6.87035 29.8561 8.43761 28.1391 10.8643 28.1391C11.8249 28.1391 12.8613 28.4168 13.923 28.9471C17.5884 30.7652 20.546 35.2346 20.546 38.896C20.546 39.3758 20.4954 39.8303 20.3943 40.2596L55.506 57.7838C55.4807 57.506 55.4554 57.2283 55.4554 56.9758C55.4554 54.2992 57.0227 52.5821 59.4494 52.5821C60.41 52.5821 61.4464 52.8598 62.5081 53.3901C66.1734 55.2082 69.131 59.6776 69.131 63.339C69.131 63.7683 69.0805 64.1471 69.0046 64.5258L71.8105 65.9146C71.8105 65.9146 73.2767 66.2934 75.1473 66.6217C74.6923 62.9098 73.757 59.2989 72.2908 57.6323Z" fill="#0A1414"/>
<path d="M1.81472 20.4365C1.81472 20.4365 3.40726 16.3711 4.292 15.1085C5.17675 13.846 6.1626 12.7097 6.1626 12.7097L5.88454 11.9521C5.88454 11.9521 4.01394 12.6087 3.68532 13.1642C3.33143 13.745 1.43555 19.6285 1.43555 19.6285L1.81472 20.4365Z" fill="#CC291F"/>
<path opacity="0.2" d="M85.1319 29.1741C85.3088 28.9216 85.4605 28.6691 85.5869 28.4418C84.2977 27.2045 81.8457 25.0329 78.7365 22.5331C73.6808 18.4424 70.7232 16.5485 70.0154 16.498H69.9901C68.9537 16.498 64.8333 18.2151 60.2327 20.5887C54.9495 23.2906 52.1183 25.2097 51.7139 25.7904C51.7391 26.0177 51.8908 26.5227 52.1942 27.2045C62.988 23.7199 74.793 24.4016 85.1319 29.1741Z" fill="#0A1414"/>
<path d="M92.5645 59.5004V63.1871L99.2127 59.8792V56.2178L92.5645 59.5004Z" fill="#E5E5E5"/>
<path opacity="0.2" d="M101.639 49.7527C101.639 49.7527 105.254 46.1671 105.077 45.157C104.875 44.1217 101.917 39.021 101.538 39.7785C101.159 40.5361 100.35 41.7481 100.654 42.7834C100.957 43.7935 101.715 48.8184 101.639 49.7527Z" fill="#0A1414"/>
<path d="M51.4614 26.8514C50.6525 24.8565 45.0407 18.4933 38.8222 15.4379C30.9859 11.5997 24.1607 11.5997 22.7704 11.8017L22.7198 11.4735C24.1354 11.2715 31.0617 11.2715 38.9738 15.1349C41.7292 16.4732 44.712 18.67 47.4168 21.2961C49.5655 23.3667 51.3097 25.5636 51.79 26.7251L51.4614 26.8514Z" fill="#1B2727"/>
<path d="M71.507 17.0286L71.4817 17.0033C68.9538 15.16 62.2045 10.2613 55.986 7.23115C48.175 3.41824 42.0829 2.23144 40.7432 2.23144V1.87793C42.1082 1.87793 48.2761 3.06473 56.1377 6.92814C62.3815 9.98352 69.1308 14.8822 71.6839 16.7256L71.7092 16.7508L71.507 17.0286Z" fill="#1B2727"/>
</svg>
