<svg width="302" height="129" viewBox="0 0 302 129" fill="none" xmlns="http://www.w3.org/2000/svg">
<path d="M98.5532 1C100.78 1 102.588 2.80792 102.588 5.03463C102.588 7.26135 100.78 9.06927 98.5532 9.06927C96.3265 9.06927 94.5186 7.26135 94.5186 5.03463C94.5186 2.80792 96.3265 1 98.5532 1Z" fill="#FF3216"/>
<path d="M67.2898 81.6926C68.4032 81.6926 69.3071 82.5966 69.3071 83.7099C69.3071 84.8233 68.4032 85.7273 67.2898 85.7273C66.1764 85.7273 65.2725 84.8233 65.2725 83.7099C65.2725 82.5966 66.1764 81.6926 67.2898 81.6926Z" fill="#FF3216"/>
<path d="M255.915 23.1904C257.028 23.1904 257.932 24.0944 257.932 25.2077C257.932 26.3211 257.028 27.2251 255.915 27.2251C254.801 27.2251 253.897 26.3211 253.897 25.2077C253.897 24.0944 254.801 23.1904 255.915 23.1904Z" fill="#FF3216"/>
<path d="M271.034 99.8489C273.26 99.8489 275.068 101.657 275.068 103.884C275.068 106.11 273.26 107.918 271.034 107.918C268.807 107.918 266.999 106.11 266.999 103.884C266.999 101.657 268.807 99.8489 271.034 99.8489Z" fill="#FF3216"/>
<path d="M27.5365 17.8461C31.1449 19.3165 39.6197 21.7548 49.6377 23.8456C43.7868 16.3731 42.9122 11.5817 42.0317 2.48577C36.8625 5.32115 30.5118 12.5664 27.5365 17.8461Z" stroke="url(#paint0_linear_391_77366)" stroke-width="4.03465" stroke-linejoin="bevel"/>
<path d="M233.797 74.8945C231.864 78.491 228.381 87.0494 225.088 97.2554C233.524 91.9889 238.615 91.6123 248.191 91.7058C245.812 86.0043 238.967 78.5816 233.797 74.8945Z" stroke="url(#paint1_linear_391_77366)" stroke-width="4.03465" stroke-linejoin="bevel"/>
<path d="M18.1671 68.234C11.2591 69.4612 7.64541 70.4211 2.28213 75.3532" stroke="#F35D47" stroke-width="4.03465" stroke-linejoin="bevel"/>
<path d="M81.8794 122.373C80.9663 120.431 78.4439 116.282 75.166 111.697C74.7486 116.907 73.3138 119.175 70.277 123.187C73.4289 123.967 78.7051 123.401 81.8794 122.373Z" stroke="#F35D47" stroke-width="4.03465" stroke-linejoin="bevel"/>
<path d="M209.594 15.3669C211.932 15.4612 217.216 15.1082 223.301 14.245C218.471 11.2192 217 8.69083 214.646 3.73275C212.304 6.38956 210.197 11.7778 209.594 15.3669Z" stroke="#F35D47" stroke-width="4.03465" stroke-linejoin="bevel"/>
<path d="M300.302 59.3131C293.82 52.9667 284.536 47.5215 276.21 45.7705" stroke="url(#paint2_linear_391_77366)" stroke-width="4.03465"/>
<mask id="mask0_391_77366" style="mask-type:luminance" maskUnits="userSpaceOnUse" x="105" y="15" width="90" height="89">
<path d="M105.558 15.0583H194.447V103.947H105.558V15.0583Z" fill="white"/>
</mask>
<g mask="url(#mask0_391_77366)">
<path d="M149.947 15.0583C174.441 15.0583 194.328 34.9455 194.328 59.4393C194.328 83.9332 174.441 103.82 149.947 103.82C125.453 103.82 105.565 83.9332 105.565 59.4393C105.565 34.9455 125.453 15.0583 149.947 15.0583Z" fill="url(#paint3_linear_391_77366)"/>
<path d="M149.849 16.4778C173.823 16.4778 193.288 35.9429 193.288 59.917C193.288 83.8911 173.823 103.356 149.849 103.356C125.874 103.356 106.409 83.8911 106.409 59.917C106.409 35.9429 125.874 16.4778 149.849 16.4778Z" fill="url(#paint4_linear_391_77366)" fill-opacity="0.62"/>
<path d="M153.207 41.0853C153.163 38.8473 151.313 37.0685 149.075 37.1125C146.837 37.1565 145.058 39.0066 145.102 41.2445L145.54 63.5325C145.584 65.7705 147.434 67.5493 149.672 67.5053C151.91 67.4613 153.689 65.6112 153.645 63.3733L153.207 41.0853Z" fill="white"/>
<path d="M149.478 73.2601C151.705 73.2163 153.548 74.9884 153.591 77.2147C153.635 79.441 151.863 81.2841 149.637 81.3278C147.41 81.3715 145.567 79.5995 145.524 77.3732C145.48 75.1469 147.252 73.3038 149.478 73.2601Z" fill="white"/>
</g>
<defs>
<linearGradient id="paint0_linear_391_77366" x1="55.4221" y1="24.4978" x2="17.1512" y2="4.82478" gradientUnits="userSpaceOnUse">
<stop stop-color="#F35E48"/>
<stop offset="0.5" stop-color="#F97967"/>
<stop offset="1" stop-color="#FF9485"/>
</linearGradient>
<linearGradient id="paint1_linear_391_77366" x1="223.766" y1="103.211" x2="248.52" y2="65.5199" gradientUnits="userSpaceOnUse">
<stop stop-color="#F35E48"/>
<stop offset="0.5" stop-color="#F97967"/>
<stop offset="1" stop-color="#FF9485"/>
</linearGradient>
<linearGradient id="paint2_linear_391_77366" x1="273.03" y1="59.1662" x2="303.326" y2="44.4473" gradientUnits="userSpaceOnUse">
<stop stop-color="#F35E48"/>
<stop offset="0.5" stop-color="#F97967"/>
<stop offset="1" stop-color="#FF9485"/>
</linearGradient>
<linearGradient id="paint3_linear_391_77366" x1="99.7404" y1="127.595" x2="199.042" y2="-20.6057" gradientUnits="userSpaceOnUse">
<stop stop-color="#FF7663"/>
<stop offset="0.5" stop-color="#FF9586"/>
<stop offset="1" stop-color="#FFB4A9"/>
</linearGradient>
<linearGradient id="paint4_linear_391_77366" x1="135.855" y1="90.1911" x2="166.062" y2="28.3463" gradientUnits="userSpaceOnUse">
<stop stop-color="#FF7663"/>
<stop offset="0.5" stop-color="#FF9586"/>
<stop offset="1" stop-color="#FFB4A9"/>
</linearGradient>
</defs>
</svg>
