<svg width="81" height="80" viewBox="0 0 81 80" fill="none" xmlns="http://www.w3.org/2000/svg">
<path d="M65.0825 8.01172C58.4197 8.01172 53.0254 13.406 53.0254 20.0689C53.0254 26.7431 65.0825 39.7031 65.0825 39.7031C65.0825 39.7031 77.1511 26.7431 77.1511 20.0689C77.1511 13.406 71.7568 8.01172 65.0825 8.01172ZM65.0825 26.4803C61.5625 26.4803 58.6825 23.6003 58.6825 20.0803C58.6825 16.5374 61.5625 13.6689 65.0825 13.6689C68.6254 13.6689 71.494 16.5374 71.494 20.0803C71.494 23.6003 68.6254 26.4803 65.0825 26.4803Z" fill="#00817C"/>
<path d="M67.2782 67.3374C67.2782 71.0974 64.2154 74.1603 60.444 74.1603C56.684 74.1603 53.6211 71.0974 53.6211 67.3374C53.6211 63.566 56.684 60.5031 60.444 60.5031C64.2154 60.4917 67.2782 63.5546 67.2782 67.3374Z" fill="#00817C"/>
<path d="M53.6196 53.5891V50.092H27.2539V52.8234C28.9568 54.0691 33.8939 58.4348 33.8939 67.3148H44.4653C44.4653 56.6406 50.9682 54.1491 53.6196 53.5891Z" fill="#00817C"/>
<path d="M27.2539 47.8055H53.6196V44.8341C47.5739 38.4112 42.5682 35.0627 33.8596 33.4741C31.6082 33.0627 29.4025 32.8455 27.2653 32.7541V47.8055H27.2539Z" fill="#00817C"/>
<path d="M21.8378 47.806H24.9692V32.6974C21.8835 32.7317 18.9692 33.0974 16.2949 33.7374C16.3635 33.886 16.4206 34.0574 16.4206 34.2289V42.3889C16.4092 45.3717 18.8435 47.806 21.8378 47.806Z" fill="#00817C"/>
<path d="M14.751 45.4176C14.351 44.4805 14.1224 43.4634 14.1224 42.3776V34.3205C13.5739 34.4919 13.0253 34.6634 12.4996 34.8576C8.13386 37.9205 7.93958 41.2462 6.63672 45.4176H14.751Z" fill="#00817C"/>
<path d="M31.5973 67.3146H26.8659C26.8544 62.286 22.7744 58.206 17.7459 58.206C12.9459 58.206 8.99158 61.9432 8.64872 66.6632C4.16872 65.0746 4.02015 61.1317 4.02015 61.1317C3.58587 55.6803 4.16872 51.3717 5.74587 47.7032H16.2716C17.6773 49.166 19.643 50.0917 21.8373 50.0917H24.9687V53.4289C24.9687 53.8403 25.1744 54.206 25.5287 54.4117C25.5859 54.446 31.5973 58.1032 31.5973 67.3146Z" fill="#00817C"/>
<path d="M17.7464 74.16C21.5209 74.16 24.5807 71.1002 24.5807 67.3257C24.5807 63.5512 21.5209 60.4914 17.7464 60.4914C13.9719 60.4914 10.9121 63.5512 10.9121 67.3257C10.9121 71.1002 13.9719 74.16 17.7464 74.16Z" fill="#00817C"/>
<path d="M71.0374 53.4746C70.6831 53.7832 70.466 54.0803 70.3631 54.4117C69.8831 55.8517 71.3002 57.6917 73.4602 58.4232C74.466 58.7546 75.4831 58.8232 76.3402 58.6174C76.3517 58.6174 76.3745 58.6174 76.386 58.6174C76.226 57.9774 75.9974 57.3489 75.5974 56.7203C75.0031 55.7489 74.2031 54.926 73.2431 54.3203C72.6831 53.966 72.0088 53.5774 71.2774 53.166C71.2202 53.2803 71.1402 53.3832 71.0374 53.4746Z" fill="#00817C"/>
<path d="M73.4945 67.3146H69.5631C69.5517 62.2975 65.4602 58.206 60.4317 58.206C55.4259 58.206 51.3345 62.2975 51.3231 67.3146H46.7402C46.7402 56.2403 54.4774 55.7146 54.8088 55.7032C55.4145 55.6803 55.8945 55.1775 55.8945 54.5603V46.3203C59.0717 47.166 64.8088 49.7489 69.2202 52.0575C68.7402 52.5489 68.3974 53.0746 68.1917 53.6803C67.2774 56.3889 69.2774 59.4289 72.7402 60.5946C73.5974 60.8689 74.4774 61.0175 75.3117 61.0175C75.8031 61.0175 76.2717 60.9603 76.7174 60.8689C76.786 61.6232 76.8431 62.4117 76.9802 63.2917C77.3117 65.406 75.6431 67.3146 73.4945 67.3146Z" fill="#00817C"/>
<path d="M24.7052 19.3721L24.3052 18.9721C20.8195 15.4864 15.1624 15.4864 11.6881 18.9607L11.2881 19.3607L8.86523 16.9378L9.26523 16.5378C14.0767 11.7264 21.9167 11.7264 26.7281 16.5492L27.1281 16.9492L24.7052 19.3721Z" fill="#00817C"/>
<path d="M19.6882 24.3659L19.2882 23.9659C18.5911 23.2688 17.4025 23.2688 16.7054 23.9659L16.3054 24.3659L13.8711 21.9431L14.2711 21.5431C16.3168 19.4974 19.654 19.4974 21.7111 21.5431L22.1111 21.9431L19.6882 24.3659Z" fill="#00817C"/>
<path d="M29.7222 14.3546L29.3222 13.9546C23.0708 7.71458 12.9222 7.70315 6.68223 13.9432L6.28223 14.3432L3.85938 11.9203L4.25937 11.5203C11.8365 3.94315 24.1679 3.94315 31.7451 11.5317L32.1451 11.9317L29.7222 14.3546Z" fill="#00817C"/>
</svg>
