<svg width="24" height="24" viewBox="0 0 24 24" fill="none" xmlns="http://www.w3.org/2000/svg">
<path d="M21.5 7.5499C21.5 7.93376 21.1839 8.2499 20.8 8.2499H3.2C2.81614 8.2499 2.5 7.93376 2.5 7.5499V7.5399C2.5 5.52604 4.12614 3.8999 6.14 3.8999H17.85C19.8639 3.8999 21.5 5.53604 21.5 7.5499Z" fill="#DD8E0A" stroke="#DD8E0A"/>
<path d="M9.25 16.5C9.25 15.8139 8.68614 15.25 8 15.25H6C5.31386 15.25 4.75 15.8139 4.75 16.5C4.75 17.1861 5.31386 17.75 6 17.75H8C8.68614 17.75 9.25 17.1861 9.25 16.5ZM9.25 16.5C9.25 15.8139 9.81386 15.25 10.5 15.25H14.5C15.1861 15.25 15.75 15.8139 15.75 16.5C15.75 17.1861 15.1861 17.75 14.5 17.75H10.5C9.81386 17.75 9.25 17.1861 9.25 16.5ZM2.5 16.46V11.45C2.5 11.0661 2.81614 10.75 3.2 10.75H20.8C21.1839 10.75 21.5 11.0661 21.5 11.45V16.45C21.5 18.4639 19.8639 20.1 17.85 20.1H6.14C4.12614 20.1 2.5 18.4739 2.5 16.46Z" fill="#DD8E0A" stroke="#DD8E0A"/>
</svg>
