<svg width="24" height="24" viewBox="0 0 24 24" fill="none" xmlns="http://www.w3.org/2000/svg">
<path d="M7 4H17C18.4234 4 19.5331 4.35591 20.2848 5.0539C21.0297 5.74565 21.5 6.8453 21.5 8.5V15.5C21.5 17.1547 21.0297 18.2543 20.2848 18.9461C19.5331 19.6441 18.4234 20 17 20H7C5.57665 20 4.4669 19.6441 3.71523 18.9461C2.97026 18.2543 2.5 17.1547 2.5 15.5V8.5C2.5 6.8453 2.97026 5.74565 3.71523 5.0539C4.4669 4.35591 5.57665 4 7 4ZM7 4.75C4.93386 4.75 3.25 6.43386 3.25 8.5V10C3.25 10.6861 3.81386 11.25 4.5 11.25C5.18614 11.25 5.75 10.6861 5.75 10V8.5C5.75 7.81614 6.31614 7.25 7 7.25H8.5C9.18614 7.25 9.75 6.68614 9.75 6C9.75 5.31386 9.18614 4.75 8.5 4.75H7ZM7 19.25H8.5C9.18614 19.25 9.75 18.6861 9.75 18C9.75 17.3139 9.18614 16.75 8.5 16.75H7C6.31614 16.75 5.75 16.1839 5.75 15.5V14C5.75 13.3139 5.18614 12.75 4.5 12.75C3.81386 12.75 3.25 13.3139 3.25 14V15.5C3.25 17.5661 4.93386 19.25 7 19.25ZM8.5 12C8.5 13.9361 10.0639 15.5 12 15.5C13.9361 15.5 15.5 13.9361 15.5 12C15.5 10.0639 13.9361 8.5 12 8.5C10.0639 8.5 8.5 10.0639 8.5 12ZM17 19.25C19.0661 19.25 20.75 17.5661 20.75 15.5V14C20.75 13.3139 20.1861 12.75 19.5 12.75C18.8139 12.75 18.25 13.3139 18.25 14V15.5C18.25 16.1839 17.6839 16.75 17 16.75H15.5C14.8139 16.75 14.25 17.3139 14.25 18C14.25 18.6861 14.8139 19.25 15.5 19.25H17ZM19.5 11.25C20.1861 11.25 20.75 10.6861 20.75 10V8.5C20.75 6.43386 19.0661 4.75 17 4.75H15.5C14.8139 4.75 14.25 5.31386 14.25 6C14.25 6.68614 14.8139 7.25 15.5 7.25H17C17.6839 7.25 18.25 7.81614 18.25 8.5V10C18.25 10.6861 18.8139 11.25 19.5 11.25Z" fill="#1FB155" stroke="#1FB155"/>
</svg>
