<svg width="32" height="32" viewBox="0 0 32 32" fill="none" xmlns="http://www.w3.org/2000/svg">
<path d="M21.2766 30.8068C20.2421 31.315 17.3624 30.9594 17.3624 30.9594C17.3624 30.9594 16.3137 30.5978 14.9067 30.8068C14.6657 30.843 12.7464 31.1025 12.6101 30.2766C12.3096 28.4567 14.7509 28.3156 14.7509 28.3156L12.5265 26.8714L12.5144 26.8638L12.5032 26.8564L12.2203 26.673C12.2203 26.673 12.2197 26.7582 12.2161 26.9009C12.2139 26.9886 11.9281 27.0964 11.923 27.2209C11.9198 27.3054 12.1982 27.3982 12.1931 27.4945C12.1931 27.4974 12.1928 27.5002 12.1928 27.5034C12.188 27.5889 12.1829 27.6782 12.1765 27.77C12.1694 27.8769 11.6427 28.0916 11.6328 28.2033C11.6241 28.3015 12.1333 28.2964 12.1227 28.3956C12.0565 29.01 11.9454 29.6126 11.7598 29.8654C11.4798 30.2458 10.6353 30.7441 10.2129 30.7623C9.71567 30.7838 8.99055 30.4023 8.84367 29.97C8.74703 29.6868 9.45775 28.9233 9.45775 28.9233L9.25295 26.9015L9.58479 26.5063L9.19279 26.3082L9.16783 26.0615L9.70415 25.5476L9.09167 25.3095L9.07311 25.1281V25.1278L9.45199 24.4938L8.95599 23.9716L8.92015 23.6206C8.92015 23.6206 8.89583 23.7566 8.85103 23.9866C8.80175 24.2388 8.26863 24.5364 8.17455 24.9614C8.14383 25.0983 8.57039 25.3098 8.53583 25.457C8.48866 25.6607 8.43938 25.864 8.38799 26.0666C8.35151 26.2122 7.76783 26.2122 7.72847 26.3594C7.68847 26.5082 8.19247 26.8039 8.14991 26.9514C8.12559 27.035 8.10095 27.1182 8.07599 27.2007C8.04015 27.3182 7.59727 27.2756 7.55983 27.3892C7.53295 27.4718 7.91247 27.7118 7.88463 27.7918C7.72207 28.2596 7.54799 28.673 7.36783 28.9684C7.33378 29.0248 7.29705 29.0796 7.25775 29.1326C6.96559 29.5246 6.66287 29.098 5.76751 29.1678C5.19375 29.2122 4.63791 29.6193 4.69103 29.0977C4.72911 28.7249 4.89775 28.0849 4.89775 28.0849V28.083C4.89871 28.0126 4.92367 26.1095 5.02639 23.9418C5.03055 23.8599 5.50671 23.8116 5.51087 23.7294C5.51663 23.6119 5.05039 23.4596 5.05679 23.3412L5.07119 23.0756C5.07919 22.9348 5.56239 22.8954 5.57135 22.7546C5.58127 22.5918 5.11631 22.3284 5.12719 22.1671C5.14127 21.9617 5.15599 21.7572 5.17135 21.5556C5.18447 21.3825 5.60495 21.5969 5.61967 21.4286C5.65327 21.0436 5.28367 20.2878 5.32431 19.9422C5.38575 19.4186 5.45583 18.9505 5.53551 18.5716C5.67183 17.9233 5.96911 16.9175 6.30639 15.8593C6.33519 15.7694 6.75983 15.745 6.78895 15.6545C6.82383 15.547 6.46319 15.3732 6.49871 15.265C6.52591 15.1802 6.55407 15.0958 6.58191 15.011C6.62415 14.882 7.05775 14.9262 7.09999 14.7988C7.15279 14.6407 6.81455 14.3114 6.86607 14.1575C6.91631 14.009 6.96591 13.8628 7.01455 13.7201C7.08207 13.5226 7.56303 13.8478 7.62607 13.6657C7.69167 13.475 7.33903 12.7774 7.39823 12.6087C7.66351 11.8484 7.84687 11.3396 7.84687 11.3396H14.6485C14.6485 11.3396 15.2341 12.4766 16.0225 13.7412C16.0875 13.8455 15.2923 14.2359 15.3595 14.3412C15.4453 14.4753 16.3947 14.3242 16.484 14.458C16.579 14.6004 16.676 14.7418 16.7736 14.8817C16.8549 14.9978 16.1691 15.6033 16.2517 15.7156C16.3461 15.8442 17.2088 15.4785 17.3038 15.5994C17.403 15.7258 17.5019 15.8468 17.6008 15.9626C17.7054 16.0852 17.3419 16.4398 17.4449 16.5473C17.54 16.6465 18.1019 16.4999 18.1947 16.5834C18.2222 16.6084 18.2507 16.6337 18.2792 16.6593C18.4872 16.8452 18.7157 17.0436 18.9576 17.2538C19.0478 17.3322 18.5803 17.4785 18.6744 17.5598C18.7617 17.6356 19.4101 17.6462 19.4993 17.7249C19.6709 17.8753 19.8475 18.0302 20.0261 18.1902C20.1729 18.3217 19.26 18.5191 19.4097 18.6567C19.5137 18.7527 20.6798 18.7876 20.7845 18.8862C21.3989 19.4673 22.0152 20.0999 22.5688 20.7761C22.6859 20.9191 22.3006 21.2465 22.4117 21.393C22.4795 21.4833 23.0456 21.3911 23.1109 21.483C23.2104 21.6225 23.3064 21.7633 23.3985 21.9057C23.5083 22.075 23.0613 22.4798 23.1592 22.6538C23.2155 22.754 23.8216 22.6218 23.8734 22.723C23.9361 22.8449 23.9953 22.9674 24.051 23.0913C24.1409 23.2903 23.4744 23.5258 23.5451 23.73C23.5736 23.8122 24.3477 23.8609 24.3726 23.9438C24.4465 24.1876 24.5057 24.4346 24.5477 24.6849C25.0104 27.4455 22.8049 30.0564 21.2766 30.8068ZM15.6705 5.778C15.6705 5.778 17.5029 2.25832 15.9739 0.715277C15.3966 0.132877 12.5269 3.24104 12.5269 3.24104L15.6705 5.778Z" fill="#FD9758"/>
<path d="M15.6522 4.86288C15.6522 4.86288 16.3939 2.66864 15.7319 1.57328C15.5824 1.32624 13.3789 3.6232 13.3789 3.6232L15.6522 4.86288Z" fill="#FFADB4"/>
<path d="M5.98454 5.778C5.98454 5.778 4.15222 2.25832 5.68118 0.715277C6.25846 0.132877 9.12822 3.24104 9.12822 3.24104L5.98454 5.778Z" fill="#FD9758"/>
<path d="M6.00305 4.86288C6.00305 4.86288 5.26129 2.66864 5.92337 1.57328C6.07281 1.32624 8.27633 3.6232 8.27633 3.6232L6.00305 4.86288Z" fill="#FFADB4"/>
<path d="M16.8967 7.17333L12.4692 10.3349H6.79557L4.75813 7.44853M16.8967 7.17333L4.75781 7.44853C5.28229 7.23733 6.11397 3.16981 8.42885 2.12117C8.47909 2.09845 8.53061 2.07669 8.58309 2.05557C8.75301 1.98773 9.25669 2.46133 9.44741 2.41173C9.65221 2.35797 9.54565 1.78229 9.76773 1.74965C9.99319 1.71641 10.2201 1.69409 10.4477 1.68277C10.6586 1.67157 10.9565 2.27797 11.1706 2.28341C11.4404 2.29045 11.6273 1.70165 11.8935 1.73461C12.0186 1.75029 12.1431 1.76885 12.2663 1.79029C12.4945 1.82997 12.2781 2.33653 12.4932 2.39573C12.6685 2.44405 13.2781 2.04213 13.4407 2.10357C13.7226 2.20917 13.9821 2.33493 14.2106 2.47925C15.2887 3.16021 16.5607 6.48181 16.8967 7.17333Z" fill="#FD9758"/>
<path d="M17.5982 8.55924C17.6385 8.58644 17.6481 8.64148 17.619 8.68052C17.3003 9.10452 15.8264 10.6472 14.3227 11.5445C12.5608 12.596 9.47438 12.9023 6.6507 11.5333C5.6347 11.0408 5.20302 10.5548 4.89838 10.2696C4.11566 9.53716 3.88334 9.34868 3.81454 9.301C3.79534 9.28788 3.7819 9.26772 3.7787 9.24468C3.71854 8.81364 3.99374 8.41428 4.18638 8.1938C4.23886 8.13364 4.18606 8.04084 4.10766 8.05492C4.00366 8.07348 3.9035 8.09428 3.8203 8.11252C3.73358 8.1314 3.67918 8.021 3.74798 7.96468C3.97422 7.7794 4.4187 7.53972 4.72814 7.42516C4.74706 7.41822 4.76785 7.41834 4.7867 7.42548C5.0651 7.53076 7.26542 8.33972 8.27502 7.99316C9.8123 7.46548 10.6677 7.29236 10.8065 7.26612C10.82 7.26356 10.8331 7.2642 10.8462 7.26804C11.0001 7.31412 12.0408 7.63316 13.0737 8.1666C13.6517 8.46516 16.3701 7.3858 16.8299 7.19956C16.8673 7.1842 16.9096 7.19828 16.9323 7.23188C17.139 7.53684 17.5477 7.68084 17.812 7.74484C17.8904 7.76372 17.9006 7.8706 17.8273 7.9042C17.6405 7.98964 17.3819 8.0946 17.2113 8.10772C16.9771 8.12596 17.4155 8.43668 17.5982 8.55924Z" fill="#FFC986"/>
<path d="M9.30311 6.74445C9.53091 6.74445 9.71558 6.47811 9.71558 6.14957C9.71558 5.82102 9.53091 5.55469 9.30311 5.55469C9.0753 5.55469 8.89062 5.82102 8.89062 6.14957C8.89062 6.47811 9.0753 6.74445 9.30311 6.74445Z" fill="#201161"/>
<path d="M12.3695 6.74445C12.5973 6.74445 12.782 6.47811 12.782 6.14957C12.782 5.82102 12.5973 5.55469 12.3695 5.55469C12.1417 5.55469 11.957 5.82102 11.957 6.14957C11.957 6.47811 12.1417 6.74445 12.3695 6.74445Z" fill="#201161"/>
<path d="M10.2556 9.15672C10.1596 9.15672 10.0591 9.13976 9.96186 9.10072C9.71226 8.99992 9.54906 8.774 9.50298 8.46488C9.4953 8.4124 9.53146 8.36344 9.58362 8.35576C9.6361 8.34808 9.68506 8.38424 9.69274 8.4364C9.7385 8.74296 9.9033 8.87 10.0335 8.9228C10.2243 8.99992 10.4483 8.9612 10.5548 8.8796C10.7382 8.73912 10.7644 8.05272 10.7379 7.65304C10.737 7.64045 10.7387 7.62783 10.7428 7.61588C10.7468 7.60394 10.7532 7.59291 10.7615 7.58343C10.7698 7.57395 10.7799 7.56621 10.7913 7.56063C10.8026 7.55506 10.8149 7.55178 10.8275 7.55096C10.8803 7.54776 10.926 7.58744 10.9295 7.64024C10.9372 7.7564 10.9955 8.78328 10.6716 9.03192C10.5759 9.10552 10.423 9.15672 10.2556 9.15672Z" fill="#201161"/>
<path d="M11.4172 9.16427C11.2563 9.16427 11.1023 9.11595 11.0035 9.02571C10.7116 8.75979 10.7347 7.75627 10.7382 7.64267C10.7398 7.58955 10.7852 7.54795 10.8371 7.54987C10.8902 7.55147 10.9318 7.59595 10.9299 7.64875C10.9177 8.04363 10.9619 8.72811 11.1324 8.88395C11.2204 8.96395 11.4249 9.00651 11.615 8.93899C11.7587 8.88779 11.9401 8.75915 11.9884 8.43563C11.9922 8.41047 12.0058 8.38785 12.0263 8.37273C12.0468 8.35761 12.0724 8.35123 12.0975 8.35499C12.15 8.36299 12.1862 8.41163 12.1782 8.46411C12.1126 8.90379 11.8374 9.06379 11.6793 9.12011C11.5955 9.14987 11.5052 9.16427 11.4172 9.16427Z" fill="#201161"/>
<path d="M10.3101 7.08944C10.2342 7.2648 10.6422 7.64336 10.8333 7.64592C11.0291 7.64848 11.4566 7.27152 11.3846 7.08944C11.2857 6.83984 10.4169 6.84272 10.3101 7.08944Z" fill="#DD1D71"/>
<path d="M11.8944 1.73414C11.7782 2.66854 11.4995 4.45542 11.0656 4.42182C10.6413 4.3895 10.495 2.58374 10.4483 1.6823C10.9251 1.6567 11.4163 1.6743 11.8944 1.73414ZM9.76446 4.11046C9.41374 4.1895 8.84798 2.7767 8.58398 2.0551C8.93694 1.91398 9.33983 1.8119 9.76863 1.74918C9.90815 2.54118 10.1209 4.02982 9.76446 4.11046ZM13.4413 2.1031C13.1702 2.83718 12.6211 4.1879 12.2781 4.11046C11.9273 4.03142 12.1273 2.59078 12.2669 1.7895C12.6816 1.86182 13.0797 1.96646 13.4413 2.1031Z" fill="#E36214"/>
<path d="M8.28804 7.31742C8.65423 7.31742 8.95108 7.10667 8.95108 6.8467C8.95108 6.58673 8.65423 6.37598 8.28804 6.37598C7.92185 6.37598 7.625 6.58673 7.625 6.8467C7.625 7.10667 7.92185 7.31742 8.28804 7.31742Z" fill="#D92A51"/>
<path d="M7.9795 7.04528C7.9619 7.04528 7.94494 7.03984 7.93086 7.02992C7.91294 7.01712 7.9011 6.99728 7.89886 6.97584C7.89662 6.95472 7.90334 6.93328 7.91806 6.91728L8.18334 6.6216C8.21118 6.59088 8.2595 6.58576 8.29342 6.61008C8.31134 6.62288 8.32318 6.64272 8.32542 6.66416C8.32766 6.68528 8.32094 6.70672 8.30622 6.72304L8.04094 7.01872C8.0259 7.03536 8.00318 7.04528 7.9795 7.04528ZM8.3955 7.0712C8.38078 7.0712 8.36638 7.06704 8.3539 7.05904C8.31774 7.036 8.30622 6.988 8.32734 6.95024L8.44894 6.73296C8.4595 6.71376 8.47774 6.7 8.49854 6.69488C8.51934 6.68976 8.54046 6.69328 8.5587 6.7048C8.59454 6.72784 8.60638 6.77584 8.58494 6.8136L8.46334 7.03088C8.45668 7.04306 8.44688 7.05323 8.43494 7.06033C8.42301 7.06742 8.40938 7.07117 8.3955 7.0712Z" fill="white"/>
<path d="M13.3798 7.31742C13.746 7.31742 14.0429 7.10667 14.0429 6.8467C14.0429 6.58673 13.746 6.37598 13.3798 6.37598C13.0137 6.37598 12.7168 6.58673 12.7168 6.8467C12.7168 7.10667 13.0137 7.31742 13.3798 7.31742Z" fill="#D92A51"/>
<path d="M13.0693 7.0456C13.0517 7.0456 13.0348 7.04016 13.0207 7.03024C13.0028 7.01744 12.9909 6.9976 12.9887 6.97616C12.9865 6.95504 12.9932 6.9336 13.0079 6.91728L13.2732 6.6216C13.301 6.59088 13.3493 6.58576 13.3833 6.61008C13.4012 6.62288 13.413 6.64272 13.4153 6.66416C13.4175 6.68528 13.4108 6.70672 13.3961 6.72304L13.1308 7.01872C13.1154 7.03568 13.093 7.0456 13.0693 7.0456ZM13.4853 7.07152C13.4706 7.07152 13.4562 7.06736 13.4437 7.05936C13.4079 7.03632 13.3961 6.98832 13.4175 6.95056L13.5391 6.73328C13.5497 6.71408 13.5679 6.70032 13.5887 6.6952C13.6095 6.69008 13.6306 6.6936 13.6489 6.70512C13.685 6.72816 13.6965 6.77616 13.6751 6.81392L13.5535 7.0312C13.5467 7.04334 13.5368 7.05347 13.5249 7.06055C13.5129 7.06763 13.4993 7.07142 13.4853 7.07152Z" fill="white"/>
<path d="M18.2133 8.70234C18.204 8.70234 18.1944 8.70106 18.1851 8.69818C15.443 7.8601 13.1275 8.6713 13.1041 8.67962C13.0802 8.6879 13.054 8.68643 13.0312 8.67552C13.0084 8.66461 12.9908 8.64514 12.9823 8.62134C12.9737 8.59754 12.9749 8.57133 12.9856 8.54839C12.9962 8.52545 13.0155 8.50764 13.0392 8.49882C13.0635 8.49018 13.6449 8.28378 14.5803 8.18106C15.4421 8.08634 16.7768 8.06714 18.2411 8.51482C18.2631 8.52147 18.282 8.53582 18.2943 8.55524C18.3066 8.57466 18.3115 8.59786 18.3082 8.6206C18.3048 8.64335 18.2933 8.66412 18.2759 8.67913C18.2585 8.69413 18.2363 8.70237 18.2133 8.70234ZM12.7115 8.2041C12.6906 8.20414 12.6702 8.19734 12.6535 8.18473C12.6368 8.17213 12.6246 8.15441 12.6189 8.13428C12.6132 8.11414 12.6142 8.09268 12.6218 8.07317C12.6294 8.05366 12.6431 8.03716 12.6609 8.02618C12.6901 8.00826 13.3845 7.58362 14.4357 7.25882C15.4081 6.95802 16.876 6.69434 18.3477 7.14426C18.3718 7.1519 18.392 7.16877 18.4037 7.1912C18.4155 7.21363 18.418 7.2398 18.4105 7.26402C18.4031 7.28823 18.3864 7.30854 18.3641 7.32051C18.3418 7.33248 18.3156 7.33515 18.2913 7.32794C16.868 6.89274 15.4424 7.14906 14.4971 7.4409C13.468 7.75834 12.7685 8.18554 12.7614 8.19002C12.7461 8.1993 12.7288 8.2041 12.7115 8.2041Z" fill="#201161"/>
<path d="M3.57593 8.70233C3.53497 8.70233 3.49689 8.67577 3.48409 8.63449C3.46873 8.58393 3.49721 8.53017 3.54777 8.51449C5.01209 8.06681 6.34681 8.08601 7.20857 8.18073C8.14393 8.28377 8.72537 8.48985 8.74969 8.49849C8.77339 8.50731 8.79266 8.52512 8.80331 8.54805C8.81396 8.57099 8.81514 8.5972 8.80659 8.621C8.79804 8.6448 8.78045 8.66427 8.75764 8.67518C8.73482 8.68609 8.70862 8.68757 8.68473 8.67929C8.66169 8.67097 6.34265 7.86073 3.60377 8.69785C3.59449 8.70105 3.58521 8.70233 3.57593 8.70233ZM9.07737 8.20409C9.06009 8.20409 9.04281 8.19961 9.02713 8.18969C9.02009 8.18553 8.32057 7.75833 7.29145 7.44057C6.34617 7.14905 4.92057 6.89273 3.49721 7.32761C3.44665 7.34329 3.39289 7.31449 3.37721 7.26393C3.36185 7.21337 3.39033 7.15961 3.44089 7.14393C4.25337 6.89561 5.59161 6.71385 7.35289 7.25849C8.40409 7.58361 9.09849 8.00793 9.12761 8.02585C9.17273 8.05369 9.18681 8.11289 9.15897 8.15801C9.14105 8.18777 9.10969 8.20409 9.07737 8.20409Z" fill="#201161"/>
<path d="M8.92032 23.716C8.872 23.716 8.8304 23.6798 8.82496 23.6306C8.82336 23.6155 8.656 22.1243 8.44352 21.3371C8.22496 20.5278 8.29824 19.132 8.30144 19.0731C8.30284 19.0477 8.31428 19.0239 8.33325 19.0069C8.35221 18.9899 8.37714 18.9812 8.40256 18.9826C8.42798 18.984 8.4518 18.9954 8.46879 19.0144C8.48577 19.0333 8.49452 19.0583 8.49312 19.0837C8.49248 19.0978 8.41856 20.508 8.62912 21.2872C8.84544 22.0888 9.00928 23.548 9.016 23.6094C9.01753 23.6229 9.01619 23.6365 9.01207 23.6494C9.00795 23.6623 9.00114 23.6742 8.9921 23.6842C8.98306 23.6943 8.97199 23.7023 8.95962 23.7078C8.94725 23.7133 8.93385 23.7161 8.92032 23.716ZM12.3094 26.6018C12.3066 26.6018 12.3037 26.6018 12.3011 26.6014C12.2758 26.5992 12.2523 26.587 12.2359 26.5675C12.2195 26.548 12.2116 26.5228 12.2138 26.4974L12.8163 19.6011C12.8174 19.5886 12.821 19.5763 12.8268 19.5651C12.8326 19.5539 12.8405 19.544 12.8502 19.5359C12.8599 19.5278 12.871 19.5216 12.8831 19.5178C12.8951 19.514 12.9078 19.5127 12.9203 19.5138C12.9731 19.5182 13.0122 19.565 13.0077 19.6178L12.4051 26.5141C12.403 26.538 12.392 26.5602 12.3743 26.5765C12.3566 26.5927 12.3335 26.6017 12.3094 26.6018Z" fill="#201161"/>
<path d="M7.12718 21.9831C6.99854 22.3812 5.71278 21.945 5.36686 21.7098C5.29646 21.6618 5.23182 21.61 5.17198 21.5559C5.21582 20.9873 5.2667 20.4394 5.32494 19.9422C5.4619 20.001 5.57646 20.0641 5.6411 20.1268C5.86894 20.3502 5.90958 21.0676 6.11438 21.3121C6.30958 21.5447 7.1867 21.7975 7.12718 21.9831ZM7.3883 22.9207C7.33486 23.2228 5.6363 23.1454 5.07182 23.0756C5.0891 22.7726 5.10766 22.4682 5.12782 22.1674C5.7275 22.3063 7.44622 22.5943 7.3883 22.9207ZM6.69934 23.9633C6.65006 24.1502 5.5691 23.9806 5.02734 23.9418C5.03694 23.7434 5.04686 23.5428 5.05742 23.3412C5.63726 23.4366 6.75406 23.7575 6.69934 23.9633ZM8.8907 13.979C8.77518 14.3383 7.47438 13.9591 7.01518 13.7201C7.15278 13.3159 7.28334 12.9386 7.39854 12.6084C7.46702 12.859 7.52942 13.1201 7.63758 13.2494C7.83278 13.482 8.95054 13.7934 8.8907 13.979ZM9.19406 15.0938C9.1403 15.3982 7.1483 15.082 6.58222 15.011C6.67726 14.7223 6.77294 14.4356 6.8667 14.1575C7.4171 14.3015 9.24494 14.8058 9.19406 15.0938ZM8.11278 15.763C8.05518 15.9786 6.88014 15.9118 6.30702 15.8593C6.37006 15.6625 6.43406 15.4638 6.49934 15.265C7.0955 15.3588 8.16974 15.5476 8.11278 15.763ZM18.2795 16.6586C17.7867 16.9054 15.7109 17.9073 15.516 17.523C15.3518 17.1988 17.1025 16.227 17.6008 15.962C17.8017 16.1975 18.0011 16.4081 18.195 16.5825C18.2229 16.6078 18.2513 16.6327 18.2795 16.6586ZM23.8734 22.7223C23.1438 23.0177 19.9931 24.4676 19.8789 24.0494C19.7758 23.6705 22.7077 22.193 23.3985 21.905C23.5713 22.1719 23.7307 22.4446 23.8734 22.7223ZM24.3723 23.9428C23.5352 24.1374 21.9054 24.6513 21.8571 24.3214C21.8133 24.0231 23.2949 23.3319 24.0507 23.0903C24.1768 23.3697 24.2856 23.6542 24.3723 23.9428ZM19.5 17.7242C18.9899 17.8366 18.075 18.0257 17.7349 18.0161C17.2523 18.0023 17.4213 18.3911 17.1525 18.6324C16.884 18.8734 14.8385 19.187 14.6936 18.9217C14.5493 18.6564 16.5291 18.2951 16.5835 17.8609C16.6241 17.5393 18.1633 17.337 18.9576 17.2535C19.132 17.4039 19.3134 17.561 19.5 17.7242ZM20.7851 18.8855C20.2481 19.146 16.4101 20.8622 16.0078 20.3438C15.8062 20.0839 16.9515 19.4759 18.1205 18.873C18.2424 18.81 19.4145 18.2695 20.0267 18.1892C20.276 18.4122 20.5301 18.6446 20.7851 18.8855ZM19.8808 21.9758C19.8357 21.7316 21.6254 21.0458 22.5691 20.7754C22.7579 21.0062 22.9397 21.2417 23.1109 21.4823C23.1109 21.482 20.0017 22.6311 19.8808 21.9758ZM17.3045 15.5988C16.3995 16.1182 14.6011 17.0753 14.3889 16.6103C14.2929 16.3988 15.7726 15.4382 16.7742 14.881C16.9483 15.13 17.1259 15.3719 17.3045 15.5988ZM16.4843 14.4574C15.6091 14.8436 14.4501 15.2695 14.3262 14.8791C14.2705 14.7041 15.18 14.1652 16.0229 13.7406C16.1707 13.9774 16.3253 14.2183 16.4843 14.4574ZM8.75438 24.0154C8.78222 24.0033 8.81518 23.9934 8.8523 23.986C8.78702 24.3198 8.67854 24.8522 8.5371 25.4564C8.45339 25.4926 8.36666 25.5214 8.2779 25.5425C7.91374 25.6286 6.74894 25.554 6.82382 25.1482C6.8587 24.9588 7.63374 25.0503 7.8827 24.9114C8.14382 24.7658 8.48494 24.1332 8.75438 24.0154ZM10.4488 23.986C10.5397 24.2375 9.34606 24.874 9.34606 24.874C9.34606 24.874 9.24462 24.9895 9.0747 25.1271L8.95758 23.971C9.36174 23.9319 10.3573 23.7326 10.4488 23.986ZM8.38926 26.066C8.31566 26.3585 8.23566 26.6577 8.15086 26.9508C7.69006 26.827 6.04014 26.4071 6.14702 26.0609C6.2523 25.7185 7.86638 25.9617 8.38926 26.066ZM8.07694 27.2001C8.0155 27.403 7.95182 27.6017 7.8859 27.7911C7.43406 27.6385 6.6475 27.3377 6.70222 27.1025C6.75886 26.8564 7.5755 27.0538 8.07694 27.2001ZM9.1691 26.0609L9.09294 25.3092C9.5195 25.1578 11.0616 24.8468 11.172 25.1271C11.299 25.4503 9.5835 25.9086 9.1691 26.0609ZM9.25422 26.9009L9.19406 26.3076C9.65902 26.17 10.3355 26.0071 10.42 26.1962C10.5169 26.4132 9.74638 26.7262 9.25422 26.9009ZM12.2177 26.9006C12.2142 27.0474 12.2072 27.2551 12.1944 27.4942C11.7733 27.5473 11.0974 27.5972 11.0533 27.3844C11.0037 27.145 11.7707 26.9774 12.2177 26.9006ZM12.5278 26.8529V26.8708L12.5157 26.8631L12.5045 26.8558C12.5198 26.8542 12.5278 26.8529 12.5278 26.8529ZM12.1781 27.7697C12.1649 27.97 12.147 28.1834 12.1243 28.395C11.6485 28.4423 10.2648 28.6295 10.2197 28.427C10.1672 28.1937 11.6619 27.859 12.1781 27.7697Z" fill="#E36214"/>
<path d="M29.7236 12.3228C29.5341 12.5189 29.2944 12.6005 29.0336 12.6194C28.9943 12.6223 28.9546 12.6258 28.9149 12.6296C28.7677 12.6568 28.6237 12.6962 28.4829 12.749C28.4051 12.7872 28.3287 12.8282 28.2538 12.8719C28.0903 12.9672 27.9325 13.0744 27.7815 13.1893C27.481 13.4421 27.209 13.7285 26.9664 14.0405C26.9568 14.0536 26.9476 14.0671 26.938 14.0802C26.8592 14.1919 26.2557 13.8424 26.1844 13.9596C26.1274 14.0533 26.6013 14.6127 26.5498 14.7096C26.4912 14.8188 26.4372 14.9298 26.3872 15.0431C26.2583 15.3887 26.168 15.748 26.1117 16.1141C26.1072 16.1554 26.1034 16.197 26.0999 16.2386C26.0784 16.4847 26.072 16.7317 26.0784 16.9791C26.0832 17.1647 26.0957 17.3503 26.1156 17.5352V17.5359C26.2077 18.1439 26.3847 18.7269 26.6093 19.2965C26.6109 19.2994 26.6119 19.3023 26.6128 19.3055C26.7034 19.5212 26.7984 19.7352 26.8954 19.9487C26.9629 20.0965 27.0304 20.244 27.0986 20.3916C27.1335 20.4674 27.1684 20.5429 27.2032 20.6188C27.313 20.8575 27.4228 21.0962 27.5348 21.334C27.585 21.4408 27.1933 21.8504 27.2445 21.957C27.3008 22.0738 27.8004 21.8869 27.858 22.0024C27.9168 22.1202 27.9754 22.2386 28.0317 22.358C28.0791 22.4584 27.6288 22.7176 27.672 22.82C27.6935 22.8716 28.2103 22.765 28.2304 22.8172C28.242 22.8466 28.2528 22.8764 28.264 22.9068C28.409 23.3077 28.4752 23.7432 28.5015 24.1692C28.528 24.5944 28.4836 25.037 28.3802 25.4488C28.3408 25.605 28.2944 25.7596 28.2372 25.91C28.1584 26.1164 28.0765 26.3253 27.9684 26.5176C27.8724 26.6885 27.7591 26.8524 27.6349 27.006C27.5322 27.1333 26.9751 26.7791 26.8602 26.8914C26.7972 26.9528 27.1799 27.4885 27.1143 27.5471C27.0503 27.6047 26.9847 27.6607 26.9188 27.7154C26.7156 27.8834 26.5095 28.0536 26.2842 28.1893C26.0596 28.325 25.8138 28.4357 25.5639 28.5084C25.3796 28.5618 25.1904 28.5903 25.002 28.621C24.7268 28.6658 24.466 28.6994 24.1895 28.6815C23.994 28.669 23.7991 28.6463 23.6032 28.6444C23.338 28.6424 23.105 28.5304 22.9133 28.3484C22.7216 28.1656 22.6388 27.8943 22.6276 27.6322C22.617 27.3804 22.7444 27.0924 22.9133 26.9167C23.089 26.7343 23.3543 26.6184 23.6032 26.62C23.9232 26.6226 24.2423 26.6831 24.562 26.6568C24.7664 26.6236 24.97 26.5858 25.1658 26.516C25.3168 26.4376 25.4589 26.3423 25.5952 26.2383C25.5962 26.2376 25.5975 26.2364 25.5984 26.2357C25.6698 26.1756 25.7402 26.1141 25.809 26.0508C25.9412 25.9292 26.0672 25.8002 26.1815 25.6613C26.2496 25.5592 26.3101 25.453 26.3636 25.3423C26.3703 25.3282 26.3767 25.3144 26.3831 25.3C26.4538 25.1042 26.5085 24.901 26.5447 24.6956C26.5632 24.4831 26.5613 24.269 26.5418 24.0565C26.5076 23.8524 26.4567 23.6524 26.3879 23.4584C26.3591 23.3957 26.3287 23.3343 26.2973 23.2728C26.1728 23.0274 26.0525 22.78 25.9341 22.5311C25.8301 22.3132 25.7287 22.094 25.6272 21.8744C25.6109 21.8396 25.5952 21.8047 25.5789 21.7698C25.4724 21.5397 25.3652 21.3096 25.2602 21.0792C25.1693 20.8802 26.0458 20.8088 25.9591 20.6076C25.9389 20.5605 24.953 20.3848 24.9332 20.3378C24.729 19.8588 24.5357 19.3714 24.3994 18.8671C24.2704 18.3916 24.194 17.8984 24.152 17.4063C24.1501 17.382 24.5469 17.0716 24.545 17.0472C24.5277 16.8328 24.1223 16.9036 24.1258 16.6882C24.1277 16.5794 24.1325 16.4712 24.1399 16.3631C24.1476 16.2408 24.6263 16.2508 24.6413 16.1288C24.658 15.9954 24.2093 15.7304 24.2304 15.5989C24.2912 15.2194 24.3757 14.8479 24.513 14.4863C24.6372 14.1596 24.7789 13.8466 24.9469 13.5468C25.026 13.4053 25.1117 13.2668 25.2036 13.1314C25.2538 13.0578 25.3044 12.9848 25.3565 12.9125C25.5975 12.5781 25.8608 12.2594 26.1568 11.9775C26.5114 11.6392 26.9063 11.3295 27.3306 11.0911C27.506 10.9928 27.6887 10.9023 27.8762 10.828C27.9645 10.7935 28.0541 10.7628 28.1444 10.7362C28.4324 10.6527 28.736 10.6168 29.0336 10.5954C29.2906 10.5768 29.5405 10.7173 29.7236 10.892C29.9152 11.0744 29.9978 11.3458 30.009 11.6076C30.0202 11.8594 29.8925 12.1474 29.7236 12.3228Z" fill="#FD9758"/>
<path d="M25.7363 13.2658C26.032 12.9864 26.4486 13.8274 26.9356 14.0789C26.936 14.0789 26.936 14.0789 26.9363 14.0792C26.9369 14.0792 26.9372 14.0795 26.9382 14.0799C26.7968 14.2808 26.6659 14.4911 26.55 14.7093C26.55 14.7096 25.3328 13.6472 25.7363 13.2658ZM25.4934 16.4437C25.3097 16.6475 24.3478 16.452 24.1401 16.3627C24.1478 16.2405 24.1596 16.1179 24.1747 15.996C24.1913 15.8626 24.2096 15.7301 24.2307 15.5986C24.2307 15.5983 25.7104 16.2027 25.4934 16.4437ZM25.3779 17.0706C25.2611 17.2587 24.5971 17.3698 24.152 17.4056C24.15 17.3813 24.1478 17.3573 24.1462 17.333C24.1289 17.1186 24.1222 16.9029 24.126 16.6875C24.6643 16.7432 25.5065 16.8639 25.3779 17.0706ZM26.8032 20.2146C26.6476 19.9375 24.9936 20.3394 24.9334 20.3371C24.9532 20.3842 24.9734 20.4315 24.9939 20.4786C25.0806 20.6795 25.1696 20.8795 25.2604 21.0786C25.2604 21.0786 27.1408 20.8159 26.8032 20.2146ZM26.4899 21.9647C26.0617 22.2578 26.8438 22.6959 27.8585 22.0021C27.8009 21.8866 27.7436 21.7704 27.6873 21.6536C27.6361 21.5471 27.5856 21.4405 27.5356 21.3336C27.5356 21.3336 27.5827 21.5141 27.2774 21.6431C26.9721 21.7717 26.6652 21.8443 26.4899 21.9647ZM28.231 22.8168C27.4092 23.116 26.8601 22.8232 27.2339 22.6184C27.4096 22.5224 27.7161 22.4645 28.0217 22.3615C28.0256 22.3605 28.0291 22.3589 28.0323 22.3576C28.1036 22.508 28.1712 22.6603 28.231 22.8168ZM26.2963 26.5839C25.7987 26.5839 26.2304 26.956 27.1152 27.5464C27.1808 27.4879 27.2451 27.4277 27.3081 27.3663C27.423 27.2539 27.5331 27.1327 27.6358 27.0053C27.6358 27.0053 25.6848 25.6021 26.2963 26.5839ZM29.7235 12.3224C29.534 12.5186 29.2944 12.6002 29.0336 12.6191C28.9942 12.6219 28.9545 12.6255 28.9148 12.6293C28.7676 12.6565 28.6236 12.6959 28.4828 12.7487C28.405 12.7868 28.3286 12.8278 28.2537 12.8715C27.8272 12.1608 27.8041 11.3928 27.8761 10.8271C27.9644 10.7925 28.054 10.7618 28.1443 10.7352C28.4323 10.6517 28.736 10.6159 29.0336 10.5944C29.2905 10.5759 29.5404 10.7163 29.7235 10.8911C29.9152 11.0735 29.9977 11.3448 30.0089 11.6066C30.0201 11.8591 29.8924 12.1471 29.7235 12.3224Z" fill="#E36214"/>
<path d="M7.36886 28.9684C7.33482 29.0249 7.29808 29.0797 7.25878 29.1326C6.96662 29.5246 6.4399 30.0395 5.54454 30.1092C4.97078 30.1537 3.9567 29.7236 4.00982 29.202C4.0479 28.8292 4.89846 28.0849 4.89846 28.0849V28.083C5.60822 28.2308 6.92854 28.5502 7.36886 28.9684Z" fill="#E36214"/>
<path d="M4.47478 29.7579C4.43446 29.7579 4.39702 29.7323 4.38358 29.692C4.30358 29.4501 4.3951 29.2047 4.64822 28.9823C4.82646 28.8258 5.02326 28.7346 5.03158 28.7307C5.07958 28.7087 5.13686 28.7298 5.15894 28.7781C5.18102 28.8264 5.1599 28.8831 5.1119 28.9055C5.10518 28.9087 4.43126 29.2245 4.56598 29.6319C4.57398 29.656 4.57207 29.6823 4.56067 29.7051C4.54927 29.7278 4.52932 29.7451 4.50518 29.7531C4.49494 29.7563 4.4847 29.7579 4.47478 29.7579ZM5.17174 30.0232C5.15249 30.0232 5.13369 30.0173 5.11778 30.0065C5.10186 29.9957 5.08956 29.9803 5.08246 29.9624C4.91766 29.5467 5.63894 29.1298 5.72182 29.0837C5.76822 29.0581 5.82646 29.0744 5.85238 29.1208C5.8783 29.1672 5.86166 29.2255 5.81526 29.2514C5.59926 29.372 5.18006 29.6872 5.26102 29.8917C5.28054 29.941 5.25654 29.9967 5.20726 30.0162C5.19574 30.021 5.18358 30.0232 5.17174 30.0232ZM9.27254 30.3727C9.23222 30.3727 9.19446 30.3471 9.18134 30.3064C9.06134 29.9394 9.58646 29.5183 9.64662 29.4715C9.68854 29.4389 9.7487 29.4466 9.78134 29.4885C9.81398 29.5304 9.8063 29.5906 9.76438 29.6232C9.63926 29.7205 9.2975 30.044 9.36374 30.2469C9.38038 30.2971 9.35286 30.3515 9.3023 30.3679C9.29238 30.3714 9.28214 30.3727 9.27254 30.3727ZM9.81078 30.6501C9.78655 30.6501 9.76322 30.6409 9.74547 30.6244C9.72773 30.6079 9.71688 30.5853 9.7151 30.5611C9.68662 30.1813 10.3244 29.709 10.397 29.6565C10.4399 29.6255 10.5001 29.6351 10.5311 29.6779C10.5621 29.7208 10.5525 29.781 10.5097 29.812C10.2684 29.9864 9.89142 30.3403 9.90678 30.5467C9.90863 30.5721 9.90034 30.5972 9.88372 30.6164C9.8671 30.6357 9.84351 30.6476 9.81814 30.6495C9.81558 30.6501 9.81334 30.6501 9.81078 30.6501ZM12.8041 30.5896C12.7551 30.5896 12.7135 30.5525 12.7087 30.5029C12.6325 29.7115 13.3308 29.317 13.3605 29.3007C13.3828 29.2883 13.4091 29.2853 13.4336 29.2923C13.4457 29.2958 13.457 29.3016 13.4669 29.3095C13.4768 29.3173 13.485 29.3271 13.4911 29.3381C13.4972 29.3491 13.5011 29.3613 13.5025 29.3738C13.504 29.3863 13.5029 29.399 13.4994 29.4111C13.4959 29.4233 13.4901 29.4346 13.4823 29.4444C13.4744 29.4543 13.4647 29.4625 13.4537 29.4687C13.4284 29.4827 12.8361 29.8207 12.9001 30.4843C12.9013 30.4969 12.9 30.5095 12.8963 30.5216C12.8926 30.5336 12.8866 30.5449 12.8786 30.5546C12.8705 30.5643 12.8607 30.5723 12.8495 30.5782C12.8384 30.5841 12.8262 30.5878 12.8137 30.589C12.8105 30.5896 12.8073 30.5896 12.8041 30.5896ZM13.4069 30.8069C13.365 30.8069 13.3266 30.7794 13.3148 30.7371C13.1535 30.1733 13.8162 29.6779 13.8444 29.6571C13.8869 29.6258 13.9471 29.6347 13.9785 29.6776C14.0098 29.7202 14.0009 29.7803 13.958 29.8117C13.9522 29.8162 13.3746 30.2488 13.4991 30.6843C13.5138 30.7352 13.4841 30.7883 13.4332 30.8031C13.4245 30.8056 13.4156 30.8069 13.4069 30.8069ZM15.9842 28.4117H14.9577C14.9045 28.4117 14.8617 28.3688 14.8617 28.3157C14.8617 28.2626 14.9045 28.2197 14.9577 28.2197H15.8367C15.1481 26.6114 15.4201 25.2447 15.7769 24.3717C16.174 23.4005 16.7445 22.8306 16.7685 22.8069C16.8063 22.7698 16.8671 22.7701 16.9042 22.8079C16.9413 22.8456 16.941 22.9064 16.9036 22.9435C16.8978 22.9493 16.3333 23.5144 15.9519 24.4517C15.4421 25.7039 15.4825 26.9906 16.0716 28.276C16.0853 28.3058 16.0828 28.3403 16.0652 28.3679C16.0564 28.3814 16.0444 28.3925 16.0303 28.4001C16.0162 28.4078 16.0003 28.4118 15.9842 28.4117Z" fill="#201161"/>
<path d="M12.5271 4.92579C12.5143 4.92579 12.5011 4.92323 12.4887 4.91779C12.4654 4.90749 12.4472 4.88843 12.438 4.86475C12.4287 4.84107 12.4292 4.8147 12.4394 4.79139C12.4455 4.77795 12.5888 4.45571 12.9463 4.16323C13.2746 3.89443 13.8535 3.60035 14.7459 3.72803C14.7984 3.73539 14.8349 3.78403 14.8275 3.83651C14.8202 3.88899 14.7712 3.92547 14.7191 3.91811C13.1543 3.69475 12.6368 4.82083 12.6154 4.86883C12.6077 4.8858 12.5953 4.9002 12.5796 4.9103C12.5639 4.9204 12.5457 4.92578 12.5271 4.92579ZM13.2023 5.09475C13.1805 5.09475 13.1591 5.08739 13.1408 5.07267C13.1213 5.05641 13.109 5.03305 13.1066 5.00773C13.1043 4.98241 13.1121 4.9572 13.1283 4.93763C13.144 4.91875 13.5191 4.47875 14.2583 4.58083C14.2707 4.58255 14.2828 4.58672 14.2936 4.59308C14.3045 4.59945 14.314 4.6079 14.3216 4.61794C14.3292 4.62799 14.3348 4.63943 14.338 4.65162C14.3412 4.66381 14.3419 4.67651 14.3402 4.68899C14.3385 4.70147 14.3343 4.71349 14.3279 4.72436C14.3216 4.73523 14.3131 4.74474 14.3031 4.75235C14.293 4.75996 14.2816 4.76551 14.2694 4.7687C14.2572 4.77188 14.2445 4.77263 14.232 4.77091C13.5971 4.68323 13.2794 5.05635 13.2762 5.06019C13.257 5.08291 13.2298 5.09475 13.2023 5.09475ZM9.12803 4.95875C9.08579 4.95875 9.04675 4.93059 9.03523 4.88771C9.02499 4.85059 8.77507 3.99811 7.38339 3.91907C7.37079 3.91836 7.35846 3.91518 7.3471 3.90969C7.33574 3.9042 7.32557 3.89653 7.31719 3.8871C7.3088 3.87768 7.30236 3.86669 7.29823 3.85476C7.29411 3.84284 7.29238 3.83022 7.29315 3.81763C7.29388 3.80504 7.29709 3.79273 7.30258 3.78138C7.30808 3.77003 7.31576 3.75988 7.32518 3.7515C7.33459 3.74312 7.34557 3.73668 7.35748 3.73254C7.36939 3.7284 7.382 3.72665 7.39459 3.72739C8.93283 3.81475 9.20995 4.79651 9.22115 4.83843C9.23459 4.88963 9.20419 4.94211 9.15299 4.95587C9.14435 4.95747 9.13603 4.95875 9.12803 4.95875ZM8.68867 5.22243C8.65987 5.22243 8.63139 5.20963 8.61251 5.18499C8.60771 5.17891 8.13091 4.57315 7.50083 4.66019C7.44835 4.66755 7.39971 4.63075 7.39267 4.57827C7.38563 4.52579 7.42211 4.47715 7.47459 4.47011C8.21603 4.36739 8.74275 5.03939 8.76451 5.06787C8.77546 5.08206 8.78222 5.09903 8.78402 5.11686C8.78582 5.13469 8.78259 5.15267 8.77469 5.16875C8.7668 5.18484 8.75455 5.1984 8.73935 5.20789C8.72414 5.21737 8.70659 5.22241 8.68867 5.22243Z" fill="#201161"/>
</svg>
