<svg width="32" height="32" viewBox="0 0 32 32" fill="none" xmlns="http://www.w3.org/2000/svg">
<path d="M27.6889 16.0732V18.8914C27.6889 20.7619 26.1726 22.2775 24.3029 22.2775H14.7634C13.8717 20.2706 13.28 18.178 12.9709 16.0732H27.6889Z" fill="#73DA8C"/>
<path d="M14.7644 22.2775H7.6973C5.82686 22.2775 4.31055 20.7619 4.31055 18.8914V16.0732H12.9718C13.2809 18.178 13.8726 20.2706 14.7644 22.2775Z" fill="#29CE69"/>
<path d="M26.5431 16.7189C27.9562 16.7189 29.1018 15.5734 29.1018 14.1602C29.1018 12.7471 27.9562 11.6016 26.5431 11.6016C25.1299 11.6016 23.9844 12.7471 23.9844 14.1602C23.9844 15.5734 25.1299 16.7189 26.5431 16.7189Z" fill="#FFCBBE"/>
<path d="M5.45517 16.7189C6.8683 16.7189 8.01386 15.5734 8.01386 14.1602C8.01386 12.7471 6.8683 11.6016 5.45517 11.6016C4.04205 11.6016 2.89648 12.7471 2.89648 14.1602C2.89648 15.5734 4.04205 16.7189 5.45517 16.7189Z" fill="#FFCBBE"/>
<path d="M23.2022 31.9996H22.794C18.6514 30.4859 16.5757 28.0073 16.4043 25.335H21.637C23.1269 26.5963 24.188 28.3482 24.571 30.3416C24.7365 31.2018 24.0778 31.9996 23.2022 31.9996Z" fill="#F8EA69"/>
<path d="M22.7949 31.9996H8.79738C7.92176 31.9996 7.26245 31.2018 7.42788 30.3416C7.81163 28.3482 8.8727 26.5963 10.3626 25.335H16.4053C17.9904 27.8228 20.1074 30.0989 22.7949 31.9996Z" fill="#F6CA56"/>
<path d="M21.6373 25.3351C21.2928 26.805 20.3882 28.0593 19.161 28.8609C16.9298 27.8338 15.4462 25.8827 15.6661 24.0918H19.6999C20.3978 24.4189 21.0492 24.8369 21.6373 25.3351Z" fill="#73DA8C"/>
<path d="M19.1604 28.8609C18.2513 29.4545 17.1657 29.7997 15.999 29.7997C13.2575 29.7997 10.9608 27.8939 10.3613 25.3351C10.9493 24.8368 11.6008 24.4187 12.2987 24.0918H15.6655C16.5978 25.7781 17.7587 27.3832 19.1604 28.8609Z" fill="#29CE69"/>
<path d="M19.6617 24.0918C19.632 25.4465 18.8665 26.6202 17.7494 27.2294C16.1518 26.4764 15.374 25.3274 15.6658 24.0918H19.6617Z" fill="#FFCBBE"/>
<path d="M17.7489 27.2294C17.2292 27.5127 16.6331 27.6736 15.9989 27.6736C14.0022 27.6736 12.3797 26.0775 12.3359 24.0918H15.6654C16.2737 25.1924 16.9705 26.2417 17.7489 27.2294Z" fill="#FFB39D"/>
<path d="M26.5883 14.1667C26.5883 19.9995 21.8727 24.73 16.047 24.7563C10.1876 18.8309 10.5477 9.26615 14.4316 3.69303C14.9504 3.61557 15.4742 3.57683 15.9988 3.57715C21.847 3.57709 26.5883 8.31846 26.5883 14.1667Z" fill="#FFDDCF"/>
<path d="M16.0478 24.7567H15.9995C10.1507 24.7567 5.40991 20.016 5.40991 14.1671C5.40991 8.85136 9.32654 4.44992 14.4324 3.69336C11.7932 10.1017 12.0881 18.1204 16.0478 24.7567Z" fill="#FFCBBE"/>
<path d="M7.55238 8.47376C6.74625 9.3327 6.07569 10.5326 5.6005 12.1558C4.95081 12.358 4.28575 12.4218 3.57812 12.4218C3.57812 11.7386 3.6335 11.0684 3.73906 10.4155C3.73906 10.4155 5.19556 8.1807 7.55238 8.47376Z" fill="#5972A5"/>
<path d="M20.0108 7.50458C18.4327 8.60433 15.9763 9.79289 12.7898 10.6331C12.205 9.28114 12.3779 7.6822 13.4492 6.6592C15.6924 6.40739 18.1906 6.62633 20.0108 7.50458Z" fill="#687DAA"/>
<path d="M13.4496 6.65918C13.1193 7.94887 12.8978 9.28037 12.7903 10.6331C11.5928 10.9494 10.2925 11.2169 8.89695 11.4114C8.74832 11.4321 8.61195 11.321 8.6047 11.1712C8.55114 10.0704 8.81157 8.89118 9.09776 8.02674C10.0938 7.34237 11.6938 6.85624 13.4496 6.65918Z" fill="#5972A5"/>
<path d="M28.4207 12.421C27.7376 12.4213 27.0575 12.3308 26.3983 12.1519C25.9231 10.53 25.2645 9.35044 24.457 8.49219C27.1299 8.53337 28.2597 10.4173 28.2597 10.4173C28.3673 11.0798 28.4211 11.7499 28.4207 12.421Z" fill="#687DAA"/>
<path d="M10.8764 17.9751C11.9202 17.9751 12.7665 17.3012 12.7665 16.47C12.7665 15.6387 11.9202 14.9648 10.8764 14.9648C9.83254 14.9648 8.98633 15.6387 8.98633 16.47C8.98633 17.3012 9.83254 17.9751 10.8764 17.9751Z" fill="#FFA1AC"/>
<path d="M21.1225 17.9751C22.1663 17.9751 23.0125 17.3012 23.0125 16.47C23.0125 15.6387 22.1663 14.9648 21.1225 14.9648C20.0786 14.9648 19.2324 15.6387 19.2324 16.47C19.2324 17.3012 20.0786 17.9751 21.1225 17.9751Z" fill="#FFA1AC"/>
<path d="M11.9788 15.4903C11.8544 15.4903 11.7352 15.441 11.6473 15.353C11.5594 15.2651 11.51 15.1459 11.51 15.0216V14.249C11.51 13.9901 11.7199 13.7803 11.9788 13.7803C12.2376 13.7803 12.4475 13.9901 12.4475 14.249V15.0216C12.4475 15.1459 12.3981 15.2651 12.3102 15.353C12.2223 15.441 12.1031 15.4903 11.9788 15.4903ZM20.0204 15.4903C19.8961 15.4903 19.7769 15.441 19.689 15.353C19.6011 15.2651 19.5517 15.1459 19.5517 15.0216V14.249C19.5517 13.9901 19.7616 13.7803 20.0204 13.7803C20.2793 13.7803 20.4892 13.9901 20.4892 14.249V15.0216C20.4892 15.1459 20.4398 15.2651 20.3519 15.353C20.264 15.441 20.1448 15.4903 20.0204 15.4903ZM15.9996 15.9503C15.7317 15.9502 15.4669 15.8927 15.2231 15.7817C14.9793 15.6706 14.7621 15.5086 14.5861 15.3066C14.5045 15.2129 14.4634 15.0906 14.4719 14.9665C14.4804 14.8425 14.5378 14.727 14.6315 14.6453C14.6779 14.6048 14.7318 14.5739 14.7902 14.5542C14.8485 14.5346 14.9102 14.5267 14.9716 14.5309C15.033 14.5351 15.093 14.5514 15.1481 14.5788C15.2033 14.6062 15.2525 14.6442 15.2929 14.6906C15.4713 14.8953 15.7289 15.0128 15.9996 15.0128C16.2702 15.0128 16.5278 14.8953 16.7063 14.6906C16.7467 14.6442 16.7959 14.6063 16.851 14.5789C16.9062 14.5515 16.9661 14.5352 17.0275 14.531C17.089 14.5268 17.1506 14.5347 17.209 14.5543C17.2673 14.5739 17.3212 14.6048 17.3676 14.6453C17.414 14.6857 17.452 14.7349 17.4794 14.79C17.5068 14.8451 17.5231 14.9051 17.5273 14.9665C17.5315 15.0279 17.5236 15.0896 17.504 15.1479C17.4844 15.2063 17.4535 15.2602 17.413 15.3066C17.2371 15.5086 17.0199 15.6706 16.7761 15.7817C16.5323 15.8927 16.2675 15.9502 15.9996 15.9503Z" fill="#495560"/>
<path d="M28.2597 10.4181C25.0371 7.99134 20.1889 7.28246 15.9999 7.24902C15.0927 7.26252 14.1822 7.30115 13.2789 7.37396C12.6231 4.26834 14.2653 1.02727 16.4017 0.00683594C22.3986 0.197398 27.3222 4.63946 28.2597 10.4181Z" fill="#73DA8C"/>
<path d="M16.4005 0.0064375C14.9273 2.18719 13.8727 4.70087 13.2778 7.3735C9.78416 7.65681 6.39747 8.46356 3.73828 10.4151C4.69766 4.509 9.82153 0 15.9987 0C16.1333 0 16.2672 0.0019375 16.4005 0.0064375Z" fill="#29CE69"/>
<path d="M19.9939 5.00295C20.0236 5.17338 19.8828 5.32613 19.7111 5.30551C18.529 5.16363 17.2846 5.08751 15.9993 5.08751C15.282 5.08751 14.5776 5.11132 13.89 5.15707C13.6165 4.05157 14.1494 2.69757 15.0998 2.2307C15.1709 2.22607 15.2422 2.22372 15.3135 2.22363H16.6843C18.3424 2.22357 19.7189 3.42407 19.9939 5.00295Z" fill="#687DAA"/>
<path d="M15.0999 2.23145C14.6286 3.16763 14.2243 4.14632 13.8901 5.15782C13.3547 5.19296 12.8204 5.2425 12.2877 5.30638C12.118 5.3267 11.9747 5.17726 12.0038 5.00888C12.2646 3.49607 13.5373 2.3292 15.0999 2.23145Z" fill="#5972A5"/>
</svg>
