<svg width="24" height="24" viewBox="0 0 24 24" fill="none" xmlns="http://www.w3.org/2000/svg">
<path opacity="0.4" d="M3.51001 21.5091L3.51002 14.75L3.51 14.7466L3.5 13.25V13.2483V7.06998C3.5 6.57076 3.75351 6.10471 4.16843 5.82526C4.16866 5.82511 4.16888 5.82496 4.1691 5.82481L8.1676 3.15583L8.16879 3.15504C8.67019 2.81828 9.32981 2.81828 9.83121 3.15504L9.8324 3.15583L13.8324 5.82582L13.8344 5.82712C14.2529 6.10366 14.5 6.56627 14.5 7.06998L14.5 13.25L14.5 13.2533L14.51 14.75V14.7516V21.4908L3.51001 21.5091Z" fill="#4E918F" stroke="#4E918F"/>
<path d="M20.23 21.25V21.75H20.73H22C22.1339 21.75 22.25 21.8661 22.25 22C22.25 22.1339 22.1339 22.25 22 22.25H20.03C20.0125 22.25 19.9958 22.2508 19.98 22.2522C19.9642 22.2508 19.9475 22.25 19.93 22.25H2C1.86614 22.25 1.75 22.1339 1.75 22C1.75 21.8661 1.86614 21.75 2 21.75H19.22H19.72V21.25V18.24V17.8833L19.3827 17.7672C18.644 17.513 18.11 16.8156 18.11 16V14C18.11 12.9661 18.9561 12.12 19.99 12.12C21.0238 12.12 21.87 12.9661 21.87 14V16C21.87 16.8249 21.3276 17.529 20.5749 17.7747L20.23 17.8872V18.25V21.25Z" fill="#4E918F" stroke="#4E918F"/>
<path d="M15.01 14.75H3.01001L3 13.25H15L15.01 14.75Z" fill="#4E918F"/>
<path d="M9 22.75C8.59 22.75 8.25 22.41 8.25 22V18.25C8.25 17.84 8.59 17.5 9 17.5C9.41 17.5 9.75 17.84 9.75 18.25V22C9.75 22.41 9.41 22.75 9 22.75Z" fill="#4E918F"/>
<path d="M9 10.75C9.9665 10.75 10.75 9.9665 10.75 9C10.75 8.0335 9.9665 7.25 9 7.25C8.0335 7.25 7.25 8.0335 7.25 9C7.25 9.9665 8.0335 10.75 9 10.75Z" fill="#4E918F"/>
</svg>
