<svg width="32" height="32" viewBox="0 0 32 32" fill="none" xmlns="http://www.w3.org/2000/svg">
<g clip-path="url(#clip0_434_22422)">
<path d="M19.1834 9.60979C17.5027 8.76954 16.957 7.03241 16.7805 6.05679C16.7069 5.65016 16.3566 5.35254 15.9434 5.35254C15.5301 5.35254 15.1799 5.65016 15.1062 6.05679C14.9297 7.03229 14.384 8.76954 12.7034 9.60979C10.2922 10.8154 10.2922 13.6787 12.402 14.5829C14.4611 15.4654 15.9434 13.1135 15.9434 13.1135C15.9434 13.1135 17.4256 15.4653 19.4847 14.5829C21.5946 13.6787 21.5946 10.8154 19.1834 9.60979Z" fill="#F4DBCE"/>
<path d="M17.3414 10.0846C17.3414 10.7659 16.6245 11.4769 15.9432 11.4769C15.2618 11.4769 14.5449 10.7659 14.5449 10.0846C14.5449 9.40318 15.2618 9.6778 15.9432 9.6778C16.6245 9.67768 17.3414 9.40318 17.3414 10.0846Z" fill="#7D3D1A"/>
<path d="M18.567 15.0904C17.431 15.0904 16.4847 14.3189 15.9435 13.6477C15.2437 14.5152 13.8668 15.5507 12.279 14.87C11.2251 14.4184 10.5766 13.4915 10.5442 12.3907C10.5076 11.144 11.2813 9.97141 12.5637 9.33029C14.1258 8.54916 14.6346 6.90916 14.7988 6.00116C14.8996 5.44416 15.3811 5.04004 15.9435 5.04004C16.506 5.04004 16.9873 5.44429 17.0881 6.00116C17.2523 6.90916 17.7611 8.54916 19.3232 9.33029C20.6055 9.97141 21.3793 11.144 21.3427 12.3907C21.3103 13.4915 20.6618 14.4184 19.608 14.87C19.2485 15.0242 18.8996 15.0903 18.567 15.0904ZM15.9435 12.801C15.9963 12.801 16.0482 12.8144 16.0944 12.8399C16.1407 12.8654 16.1797 12.9022 16.2078 12.9469C16.2111 12.952 16.5647 13.5038 17.1445 13.9404C17.8775 14.4925 18.6235 14.6122 19.3618 14.2957C20.1861 13.9424 20.693 13.2234 20.7181 12.3724C20.7475 11.3719 20.106 10.4204 19.0438 9.88941C17.2383 8.98666 16.6582 7.13554 16.4732 6.11254C16.4263 5.85329 16.2036 5.66516 15.9436 5.66516C15.6836 5.66516 15.4608 5.85329 15.414 6.11266C15.229 7.13566 14.6488 8.98666 12.8433 9.88941C11.7812 10.4205 11.1397 11.3719 11.1691 12.3725C11.1941 13.2235 11.7011 13.9425 12.5253 14.2958C14.3186 15.0644 15.666 12.9683 15.6793 12.947C15.7074 12.9023 15.7464 12.8655 15.7926 12.84C15.8388 12.8144 15.8907 12.801 15.9435 12.801Z" fill="black"/>
<path d="M15.9433 11.7896C15.0799 11.7896 14.2324 10.9451 14.2324 10.0848C14.2324 9.83438 14.3075 9.63901 14.4557 9.504C14.718 9.26488 15.097 9.30013 15.498 9.33738C15.6458 9.35113 15.7984 9.36538 15.9432 9.36538C16.0879 9.36538 16.2405 9.35113 16.3883 9.33738C16.7893 9.3 17.1682 9.26475 17.4307 9.504C17.5788 9.63901 17.6539 9.83438 17.6539 10.0848C17.654 10.9451 16.8067 11.7896 15.9433 11.7896ZM15.0608 9.93588C14.9718 9.93588 14.8998 9.9435 14.8767 9.966C14.8765 9.96613 14.8575 9.99201 14.8575 10.0848C14.8575 10.5894 15.4359 11.1646 15.9434 11.1646C16.4509 11.1646 17.0292 10.5894 17.0292 10.0848C17.0292 9.99213 17.0102 9.96625 17.0099 9.966C16.955 9.9125 16.6243 9.94326 16.4464 9.95988C16.2847 9.97501 16.1172 9.9905 15.9434 9.9905C15.7697 9.9905 15.6023 9.97488 15.4404 9.95988C15.3373 9.95026 15.1832 9.93588 15.0608 9.93588Z" fill="black"/>
<path d="M15.916 13.5073C15.8331 13.5073 15.7536 13.4744 15.695 13.4158C15.6364 13.3571 15.6035 13.2777 15.6035 13.1948V11.7227C15.6035 11.6398 15.6364 11.5603 15.695 11.5017C15.7536 11.4431 15.8331 11.4102 15.916 11.4102C15.9989 11.4102 16.0784 11.4431 16.137 11.5017C16.1956 11.5603 16.2285 11.6398 16.2285 11.7227V13.1948C16.2285 13.2777 16.1956 13.3571 16.137 13.4158C16.0784 13.4744 15.9989 13.5073 15.916 13.5073Z" fill="black"/>
<path d="M21.1095 0.645393C20.9309 0.640243 20.7521 0.642161 20.5736 0.651143C19.984 0.683143 19.7622 1.45052 20.2485 1.78552C20.7305 2.11764 21.2472 2.74027 21.2691 3.88727C21.3104 6.05564 22.3529 12.0878 23.8964 11.5983C25.0894 11.2199 22.8035 9.29877 25.3864 6.74252C27.9691 4.18627 23.2887 0.701643 21.1095 0.645393ZM10.7856 0.645393C10.9642 0.640243 11.143 0.642161 11.3215 0.651143C11.9111 0.683143 12.1329 1.45052 11.6466 1.78552C11.1646 2.11764 10.6479 2.74027 10.626 3.88727C10.5847 6.05564 9.54224 12.0878 7.99874 11.5983C6.80574 11.2199 9.09161 9.29877 6.50874 6.74252C3.92611 4.18627 8.60649 0.701643 10.7856 0.645393Z" fill="#EAA250"/>
<path d="M21.2698 3.88702C21.2479 2.74002 20.7312 2.1174 20.2492 1.78527C19.9786 1.5989 19.9278 1.27877 20.0372 1.02577C19.0094 0.411521 18.0381 0.283396 17.2997 0.318896C16.3963 0.362271 15.4927 0.362271 14.5893 0.318896C13.8526 0.283521 12.8836 0.411146 11.8582 1.02215C11.9696 1.27565 11.9193 1.59802 11.6474 1.7854C11.1654 2.11752 10.6487 2.74015 10.6268 3.88715C10.5889 5.87852 9.70644 11.1279 8.36719 11.5926C8.62381 12.9404 10.1264 13.7951 11.8737 14.2856C10.3141 13.1648 10.5157 10.7045 12.7044 9.61015C14.3851 8.7699 14.9308 7.03277 15.1073 6.05715C15.1809 5.65052 15.5312 5.3529 15.9444 5.3529C16.3577 5.3529 16.7079 5.65052 16.7816 6.05715C16.9581 7.03265 17.5038 8.7699 19.1844 9.61015C21.3732 10.7045 21.5748 13.1648 20.0152 14.2856C21.7637 13.7948 23.2671 12.9391 23.5222 11.5899C22.1869 11.1085 21.3077 5.87477 21.2698 3.88702Z" fill="#EAA250"/>
<path d="M23.7187 11.9378C23.5518 11.9378 23.3551 11.8899 23.147 11.7406C22.5348 11.3014 21.9967 10.0884 21.5477 8.13557C21.1652 6.4717 20.973 4.7697 20.9563 3.89232C20.9405 3.05845 20.6425 2.43595 20.0708 2.04195C19.739 1.81332 19.5955 1.4132 19.7056 1.02257C19.8165 0.62895 20.1505 0.360199 20.5565 0.338199C20.7433 0.328668 20.9304 0.326625 21.1173 0.332074C22.7483 0.374199 25.4886 2.1212 26.2427 4.02482C26.6725 5.1097 26.4523 6.12607 25.6058 6.9637C24.1516 8.40295 24.3565 9.58157 24.506 10.4422C24.6055 11.0151 24.7183 11.6644 23.9905 11.8952C23.9026 11.9233 23.8109 11.9377 23.7187 11.9378ZM20.9051 0.954324C20.7937 0.954324 20.6885 0.956949 20.5901 0.962325C20.3843 0.97345 20.3213 1.14095 20.307 1.19195C20.293 1.24182 20.26 1.41332 20.4253 1.5272C20.9388 1.88107 21.5562 2.57657 21.5812 3.88032C21.6206 5.95145 22.4628 10.4804 23.5113 11.2327C23.6473 11.3303 23.7378 11.3196 23.8015 11.2994C23.9695 11.2462 24.0046 11.2084 23.8901 10.5492C23.7366 9.66632 23.4798 8.18845 25.1661 6.51957C25.83 5.8627 25.9966 5.1007 25.6616 4.25507C24.9588 2.48132 22.3993 0.990449 21.1012 0.956824C21.0358 0.955203 20.9705 0.954369 20.9051 0.954324ZM8.17559 11.9378C8.08339 11.9377 7.99176 11.9233 7.90396 11.8952C7.17609 11.6644 7.28896 11.0151 7.38846 10.4422C7.53796 9.58157 7.74284 8.40307 6.28859 6.9637C5.44221 6.12595 5.22196 5.1097 5.65171 4.02482C6.40596 2.12132 9.14621 0.374325 10.7772 0.3322C10.9642 0.326776 11.1513 0.328777 11.3381 0.338199C11.7441 0.360199 12.0781 0.62895 12.189 1.02257C12.299 1.4132 12.1556 1.81332 11.8237 2.04195C11.252 2.43595 10.954 3.05845 10.9382 3.89245C10.9216 4.76982 10.7293 6.47182 10.3468 8.1357C9.89784 10.0887 9.35971 11.3016 8.74759 11.7407C8.53934 11.8899 8.34246 11.9378 8.17559 11.9378ZM10.9893 0.954324C10.9258 0.954324 10.8605 0.9552 10.7935 0.95695C9.49521 0.99045 6.93571 2.48145 6.23284 4.2552C5.89784 5.10082 6.06446 5.8627 6.72834 6.5197C8.41459 8.18857 8.15771 9.66645 8.00434 10.5493C7.88971 11.2087 7.92496 11.2463 8.09296 11.2996C8.15659 11.32 8.24696 11.3306 8.38309 11.2329C8.84746 10.8998 9.34109 9.71995 9.73746 7.9957C10.11 6.37532 10.2971 4.7267 10.3131 3.8807C10.338 2.57695 10.9553 1.88145 11.469 1.52745C11.6343 1.41357 11.6013 1.24207 11.5873 1.1922C11.573 1.1412 11.51 0.973575 11.3042 0.962449C11.1994 0.956822 11.0944 0.954112 10.9893 0.954324Z" fill="black"/>
<path d="M20.0133 14.5976C19.9471 14.5977 19.8827 14.5767 19.8292 14.5377C19.7757 14.4988 19.736 14.4438 19.7157 14.3809C19.6955 14.3179 19.6957 14.2501 19.7164 14.1873C19.7372 14.1245 19.7773 14.0698 19.831 14.0313C20.4511 13.5856 20.7718 12.8918 20.7108 12.1276C20.6375 11.2114 20.014 10.3746 19.0429 9.88902C17.2375 8.98627 16.6574 7.13527 16.4723 6.11227C16.4254 5.85302 16.2026 5.66477 15.9426 5.66477C15.6826 5.66477 15.4599 5.85289 15.413 6.11227C15.228 7.13527 14.6479 8.98627 12.8424 9.88902C11.8713 10.3746 11.2478 11.2115 11.1745 12.1276C11.1134 12.8918 11.4341 13.5856 12.0543 14.0313C12.1139 14.0741 12.1566 14.1367 12.1747 14.2078C12.1929 14.279 12.1853 14.3543 12.1535 14.4205C12.1216 14.4867 12.0675 14.5396 12.0005 14.5698C11.9336 14.6001 11.8581 14.6058 11.7874 14.5859C9.59638 13.9709 8.30688 12.9558 8.05826 11.6505C8.04421 11.5768 8.05716 11.5005 8.09473 11.4356C8.1323 11.3706 8.19199 11.3213 8.26288 11.2968C8.43563 11.2368 9.04863 10.839 9.67951 8.23814C10.0714 6.6224 10.2946 4.82302 10.3125 3.88065C10.3374 2.57689 10.9548 1.8814 11.4684 1.5274C11.6208 1.4224 11.6185 1.25702 11.5703 1.14715C11.5396 1.07737 11.5355 0.9988 11.5587 0.926215C11.582 0.853631 11.6309 0.792037 11.6964 0.75302C12.61 0.208645 13.5884 -0.0431049 14.6024 0.00602012C15.4918 0.0487701 16.3935 0.0487701 17.2828 0.00602012C18.3003 -0.0426049 19.2803 0.20977 20.1956 0.756895C20.2607 0.7958 20.3094 0.857043 20.3327 0.92921C20.356 1.00138 20.3522 1.07955 20.3221 1.14915C20.2749 1.25852 20.2734 1.42315 20.4246 1.52727C20.9383 1.88127 21.5556 2.57677 21.5805 3.8804C21.6238 6.1524 22.5768 10.9168 23.6264 11.295C23.6963 11.3202 23.7549 11.3695 23.7918 11.434C23.8286 11.4985 23.8413 11.574 23.8275 11.647C23.5804 12.9539 22.2909 13.97 20.098 14.5855C20.0705 14.5936 20.0419 14.5977 20.0133 14.5976ZM8.72726 11.7503C9.00601 12.6214 9.90776 13.2161 10.8721 13.6143C10.6228 13.1541 10.5078 12.6245 10.5514 12.0779C10.6423 10.9416 11.3941 9.91439 12.5628 9.33014C14.1249 8.54902 14.6336 6.90902 14.7979 6.00102C14.8986 5.44402 15.38 5.0399 15.9425 5.0399C16.505 5.0399 16.9864 5.44415 17.0871 6.00102C17.2514 6.90902 17.7604 8.54914 19.3223 9.33014C20.4909 9.91439 21.2428 10.9416 21.3336 12.0779C21.3774 12.6244 21.2623 13.1541 21.0129 13.6143C21.9789 13.2154 22.8819 12.6194 23.159 11.7458C21.7061 10.6978 20.9865 5.52415 20.9555 3.89252C20.9396 3.05865 20.6416 2.43602 20.07 2.04202C19.9318 1.9479 19.8219 1.81783 19.7521 1.66584C19.6824 1.51384 19.6555 1.34569 19.6743 1.17952C18.9249 0.77577 18.1309 0.590895 17.3128 0.630395C16.4036 0.674145 15.4816 0.674145 14.5724 0.630395C13.7569 0.591395 12.9658 0.77452 12.2186 1.1754C12.2573 1.5104 12.1135 1.8419 11.8229 2.04202C11.2513 2.43602 10.9533 3.05852 10.9374 3.89252C10.9061 5.53015 10.1843 10.7115 8.72726 11.7503Z" fill="black"/>
<path d="M17.4549 14.5032C16.5205 14.0289 15.9433 13.1133 15.9433 13.1133C15.9433 13.1133 15.3415 14.0663 14.373 14.531L14.1644 15.8614C13.9956 16.9372 14.8273 17.9094 15.9163 17.9094C17.0053 17.9094 17.8369 16.9372 17.6681 15.8614L17.4549 14.5032Z" fill="#FD605B"/>
<path d="M17.368 14.4551C17.3972 14.4711 17.4255 14.4878 17.4554 14.503L17.6684 15.8612C17.7143 16.1543 17.6854 16.4542 17.5844 16.7331C18.3075 16.2908 18.8937 15.5646 19.2403 14.6716C18.525 14.8963 17.8875 14.7402 17.368 14.4551ZM14.1648 15.8613L14.3734 14.531C14.3849 14.5255 14.3957 14.5191 14.4072 14.5133C13.9202 14.7545 13.3383 14.8746 12.6914 14.6847C13.0194 15.5226 13.5577 16.2147 14.2229 16.6597C14.1425 16.4016 14.1226 16.1284 14.1648 15.8613Z" fill="#52565B"/>
<path d="M14.2228 16.6601C13.5575 16.2151 13.0193 15.523 12.6913 14.6851C12.5929 14.6569 12.4964 14.6227 12.4022 14.5828C12.2154 14.5032 12.0379 14.4035 11.8728 14.2853C11.0973 14.0675 10.3708 13.7776 9.7793 13.4053C10.2382 15.2544 12.0899 16.7261 14.4707 17.1614C14.3621 17.0084 14.2785 16.8393 14.2228 16.6601ZM20.0144 14.2851C19.8493 14.4033 19.6718 14.5031 19.485 14.5826C19.4023 14.6181 19.3209 14.6465 19.2402 14.6719C18.8935 15.5648 18.3075 16.2911 17.5844 16.7334C17.5291 16.8883 17.4524 17.0348 17.3567 17.1685C19.7517 16.7441 21.6195 15.2724 22.0869 13.419C21.4993 13.785 20.7804 14.0701 20.0144 14.2851Z" fill="#039BE6"/>
<path d="M15.9162 18.222C15.6149 18.2222 15.3172 18.157 15.0436 18.031C14.7699 17.9049 14.5269 17.721 14.3312 17.492C14.1352 17.2631 13.9912 16.9945 13.9091 16.7047C13.827 16.4148 13.8088 16.1106 13.8557 15.813L14.0643 14.4827C14.0721 14.4327 14.092 14.3853 14.1223 14.3446C14.1525 14.3039 14.1921 14.2712 14.2378 14.2493C15.1152 13.8282 15.6736 12.9551 15.6791 12.9463C15.7073 12.9017 15.7463 12.865 15.7925 12.8395C15.8387 12.8141 15.8906 12.8008 15.9434 12.8008C15.9962 12.8008 16.0481 12.8142 16.0943 12.8397C16.1404 12.8652 16.1794 12.902 16.2076 12.9466C16.2127 12.9546 16.754 13.797 17.5963 14.2245C17.6404 14.2469 17.6786 14.2794 17.7077 14.3194C17.7368 14.3595 17.7559 14.4058 17.7636 14.4547L17.9766 15.813C18.0235 16.1106 18.0052 16.4148 17.9231 16.7047C17.841 16.9945 17.697 17.2631 17.5011 17.492C17.3054 17.721 17.0624 17.905 16.7888 18.031C16.5152 18.157 16.2175 18.2222 15.9162 18.222ZM14.6572 14.7366L14.4732 15.9098C14.4404 16.1183 14.4532 16.3313 14.5107 16.5343C14.5681 16.7373 14.669 16.9254 14.8062 17.0857C15.0842 17.4106 15.4887 17.597 15.9163 17.597C16.344 17.597 16.7485 17.4106 17.0263 17.0857C17.3042 16.7608 17.4256 16.3322 17.3593 15.9098L17.1703 14.7046C16.616 14.3887 16.1945 13.9463 15.9432 13.6383C15.683 13.9568 15.2406 14.4193 14.6572 14.7366Z" fill="black"/>
<path d="M17.5839 17.0459C17.5338 17.0459 17.4844 17.0339 17.4399 17.0107C17.3954 16.9876 17.3571 16.9542 17.3283 16.9132C17.2994 16.8721 17.2809 16.8248 17.2742 16.7751C17.2675 16.7254 17.2728 16.6748 17.2898 16.6276C17.3739 16.3936 17.3972 16.1521 17.3592 15.9099L17.1689 14.6966C17.109 14.6471 17.0697 14.5771 17.0586 14.5001C17.0476 14.4232 17.0656 14.3449 17.1091 14.2805C17.1527 14.2161 17.2187 14.1702 17.2942 14.1519C17.3698 14.1335 17.4494 14.1439 17.5177 14.1811L17.5178 14.1813C18.0591 14.4784 18.6067 14.5431 19.1461 14.3736C19.2022 14.3561 19.2622 14.3547 19.3191 14.3697C19.376 14.3847 19.4275 14.4154 19.4677 14.4584C19.5079 14.5014 19.5351 14.5548 19.5463 14.6125C19.5575 14.6703 19.5522 14.73 19.5309 14.7849C19.1618 15.7354 18.5283 16.522 17.7468 16.9999C17.6978 17.03 17.6414 17.0459 17.5839 17.0459ZM17.8478 14.992L17.9766 15.8131C17.9872 15.881 17.9946 15.949 17.9984 16.0168C18.2698 15.7538 18.5077 15.4399 18.7016 15.088C18.4136 15.1046 18.1249 15.0722 17.8478 14.992ZM14.2223 16.9725C14.1618 16.9725 14.1013 16.955 14.0486 16.9198C13.3334 16.4414 12.7479 15.6881 12.3998 14.7989C12.3784 14.7445 12.3727 14.6852 12.3834 14.6277C12.3941 14.5702 12.4207 14.5168 12.4601 14.4737C12.4996 14.4306 12.5505 14.3994 12.6068 14.3838C12.6631 14.3681 12.7227 14.3686 12.7788 14.3851C13.2713 14.5298 13.7726 14.4788 14.2679 14.2335C14.3299 14.2028 14.4004 14.1935 14.4683 14.2071C14.5361 14.2207 14.5975 14.2564 14.6429 14.3087C14.6882 14.361 14.7149 14.4269 14.7188 14.496C14.7227 14.5651 14.7035 14.6335 14.6643 14.6905L14.4731 15.9099C14.4382 16.1298 14.4546 16.3548 14.5209 16.5674C14.5355 16.6142 14.5389 16.6637 14.5308 16.7121C14.5227 16.7604 14.5033 16.8061 14.4742 16.8456C14.4452 16.885 14.4072 16.9171 14.3634 16.9391C14.3197 16.9612 14.2713 16.9726 14.2223 16.9725ZM13.2246 15.0893C13.3974 15.4029 13.6054 15.6873 13.8404 15.9316C13.8443 15.8921 13.8494 15.8526 13.8557 15.813L13.9822 15.0064C13.7353 15.072 13.4798 15.0999 13.2246 15.0893ZM18.5459 7.30377C18.4632 7.30377 18.3839 7.27099 18.3253 7.2126C18.2667 7.15421 18.2337 7.07498 18.2334 6.99227C18.2325 6.83969 18.2619 6.68844 18.3198 6.54728C18.3778 6.40612 18.4631 6.27786 18.5709 6.1699C18.6782 6.06139 18.806 5.97523 18.9467 5.9164C19.0875 5.85757 19.2386 5.82723 19.3912 5.82715H19.3951C19.7038 5.82715 19.9943 5.9469 20.2134 6.16465C20.322 6.27189 20.4082 6.3996 20.467 6.54037C20.5259 6.68115 20.5562 6.83219 20.5563 6.98477C20.5564 7.02581 20.5485 7.06647 20.5329 7.10444C20.5173 7.1424 20.4944 7.17693 20.4655 7.20604C20.4366 7.23515 20.4022 7.25828 20.3643 7.2741C20.3265 7.28993 20.2859 7.29814 20.2448 7.29827H20.2438C20.1611 7.29827 20.0818 7.26549 20.0232 7.2071C19.9646 7.14871 19.9316 7.06948 19.9313 6.98677C19.9313 6.91631 19.9172 6.84655 19.8901 6.78153C19.8629 6.71652 19.8231 6.65755 19.7729 6.60802C19.7233 6.558 19.6641 6.51843 19.5988 6.49166C19.5336 6.46489 19.4637 6.45145 19.3932 6.45215C19.3227 6.45216 19.2529 6.46616 19.1879 6.49335C19.1228 6.52053 19.0638 6.56036 19.0143 6.61052C18.9645 6.66036 18.9251 6.71959 18.8983 6.78477C18.8716 6.84996 18.858 6.91981 18.8584 6.99027C18.8586 7.03131 18.8506 7.07197 18.835 7.10994C18.8194 7.1479 18.7965 7.18243 18.7676 7.21154C18.7387 7.24065 18.7043 7.26378 18.6664 7.2796C18.6286 7.29543 18.588 7.30364 18.5469 7.30377H18.5459ZM13.3619 7.30102C13.2791 7.30102 13.1996 7.2681 13.141 7.20949C13.0824 7.15089 13.0494 7.0714 13.0494 6.98852C13.0494 6.69277 12.8088 6.45215 12.5129 6.45215C12.2171 6.45215 11.9766 6.69277 11.9766 6.98852C11.9766 7.0714 11.9436 7.15089 11.885 7.20949C11.8264 7.2681 11.7469 7.30102 11.6641 7.30102C11.5812 7.30102 11.5017 7.2681 11.4431 7.20949C11.3845 7.15089 11.3516 7.0714 11.3516 6.98852C11.3516 6.34815 11.8726 5.82715 12.5129 5.82715C13.1534 5.82715 13.6744 6.34815 13.6744 6.98852C13.6744 7.0714 13.6415 7.15089 13.5829 7.20949C13.5243 7.2681 13.4448 7.30102 13.3619 7.30102Z" fill="black"/>
<path d="M14.4707 17.4739C14.4521 17.4739 14.4332 17.4723 14.4145 17.4688C11.9016 17.0094 9.96325 15.444 9.476 13.4805C9.46098 13.42 9.46441 13.3564 9.48582 13.2979C9.50723 13.2394 9.54566 13.1886 9.59616 13.1521C9.64666 13.1155 9.70693 13.0949 9.76923 13.0929C9.83152 13.0909 9.893 13.1076 9.94575 13.1408C10.4764 13.4748 11.1531 13.7587 11.9572 13.9844C11.9924 13.9943 12.0255 14.0102 12.0551 14.0314C12.2018 14.1363 12.3594 14.2249 12.5252 14.2955C12.6015 14.3283 12.6821 14.3568 12.7792 14.3853C12.825 14.3988 12.8671 14.4225 12.9023 14.4547C12.9375 14.4869 12.9648 14.5268 12.9822 14.5712C13.2842 15.3427 13.7866 15.9923 14.3965 16.4003C14.456 16.44 14.5 16.4992 14.5212 16.5674C14.567 16.7148 14.6357 16.8537 14.7255 16.9802C14.7587 17.0269 14.7785 17.0819 14.7825 17.1392C14.7866 17.1964 14.7748 17.2536 14.7485 17.3046C14.7222 17.3556 14.6824 17.3984 14.6334 17.4282C14.5844 17.4581 14.5281 17.4739 14.4707 17.4739ZM10.3552 14.0688C10.936 15.2394 12.1502 16.1807 13.6955 16.6523C13.1766 16.211 12.7471 15.6183 12.4574 14.9388C12.3971 14.9181 12.3376 14.8952 12.279 14.87C12.0887 14.7888 11.907 14.6888 11.7365 14.5715C11.2289 14.4265 10.767 14.2584 10.3552 14.0688ZM17.3565 17.4813C17.299 17.4813 17.2426 17.4655 17.1936 17.4355C17.1445 17.4056 17.1046 17.3626 17.0784 17.3115C17.0522 17.2603 17.0406 17.2029 17.0449 17.1456C17.0491 17.0883 17.0692 17.0332 17.1027 16.9865C17.1816 16.8763 17.2447 16.7556 17.2902 16.6279C17.3143 16.5609 17.3605 16.5042 17.4212 16.467C18.0865 16.0602 18.6291 15.3825 18.9487 14.559C18.9657 14.5154 18.9923 14.4761 19.0265 14.444C19.0607 14.412 19.1017 14.3881 19.1464 14.374C19.2195 14.3516 19.2914 14.3254 19.3619 14.2957C19.5277 14.225 19.6854 14.1365 19.8321 14.0317C19.8617 14.0103 19.8949 13.9944 19.93 13.9845C20.7252 13.7613 21.3954 13.4819 21.9217 13.154C21.9746 13.1211 22.0362 13.1047 22.0985 13.107C22.1607 13.1093 22.2209 13.1301 22.2712 13.1668C22.3216 13.2036 22.3598 13.2545 22.3809 13.3132C22.4021 13.3718 22.4053 13.4354 22.39 13.4958C21.893 15.4662 19.9387 17.0287 17.4111 17.4765C17.3931 17.4797 17.3748 17.4813 17.3565 17.4813ZM19.4759 14.9224C19.1907 15.5978 18.7702 16.1839 18.2585 16.626C19.7587 16.148 20.9369 15.225 21.5091 14.0797C21.1035 14.2647 20.6492 14.4292 20.1507 14.5715C19.9802 14.6888 19.7984 14.7888 19.6081 14.8702C19.5656 14.8883 19.5221 14.9055 19.4759 14.9224Z" fill="black"/>
<path d="M29.1285 18.8327L28.7322 18.5783C28.7227 18.5722 28.7147 18.5641 28.7086 18.5546C28.7025 18.5451 28.6985 18.5344 28.6969 18.5233C28.6953 18.5121 28.6961 18.5007 28.6992 18.4899C28.7023 18.4791 28.7077 18.469 28.715 18.4605C30.5977 16.2093 29.7599 13.659 29.589 13.207C29.5818 13.1878 29.5674 13.1722 29.5489 13.1635C29.5304 13.1548 29.5092 13.1536 29.4898 13.1602L29.139 13.2757C29.1283 13.2791 29.117 13.2803 29.1058 13.279C29.0946 13.2777 29.0838 13.2741 29.0742 13.2683C29.0645 13.2625 29.0561 13.2548 29.0497 13.2455C29.0433 13.2363 29.0389 13.2258 29.0368 13.2147C28.6393 11.233 27.1234 10.6656 26.6514 10.5352C26.5899 10.5182 26.5362 10.5767 26.5559 10.6373C27.8719 14.6741 25.1535 17.686 23.5137 19.065C23.5318 19.2287 23.5479 19.3945 23.5618 19.5622C24.6588 19.5516 25.7407 19.8113 26.3552 20.6815C28.1364 20.0743 28.9444 19.2005 29.1482 18.9495C29.1552 18.9407 29.1602 18.9306 29.163 18.9198C29.1658 18.909 29.1663 18.8977 29.1645 18.8867C29.1626 18.8757 29.1585 18.8652 29.1523 18.8559C29.1461 18.8466 29.138 18.8387 29.1285 18.8327Z" fill="#EAA250"/>
<path d="M26.3551 20.9938C26.305 20.9938 26.2557 20.9818 26.2113 20.9588C26.1669 20.9358 26.1287 20.9025 26.0998 20.8616C25.6291 20.195 24.7783 19.862 23.5648 19.8746H23.5618C23.4834 19.8746 23.4079 19.8451 23.3503 19.7921C23.2926 19.739 23.257 19.6662 23.2504 19.5881C23.2367 19.4232 23.2209 19.2602 23.2031 19.0992C23.1974 19.0481 23.2044 18.9965 23.2235 18.9487C23.2426 18.901 23.2732 18.8588 23.3126 18.8257C24.9493 17.4493 27.5086 14.5678 26.2588 10.7341C26.2367 10.6665 26.2333 10.5942 26.249 10.5249C26.2648 10.4555 26.299 10.3917 26.3482 10.3403C26.397 10.2893 26.4587 10.2524 26.5267 10.2337C26.5948 10.215 26.6667 10.2151 26.7347 10.234C27.2167 10.3671 28.7767 10.9438 29.2848 12.8987L29.3923 12.8633C29.4882 12.8314 29.5926 12.8379 29.6838 12.8813C29.775 12.9247 29.8458 13.0018 29.8814 13.0963C30.0697 13.5943 30.8918 16.1341 29.1193 18.4555L29.2974 18.5698C29.3439 18.5995 29.3836 18.6387 29.4139 18.6848C29.4442 18.7309 29.4644 18.7828 29.4732 18.8373C29.482 18.8917 29.4792 18.9474 29.465 19.0007C29.4508 19.0539 29.4255 19.1036 29.3908 19.1465C29.1722 19.4158 28.3144 20.344 26.4559 20.9773C26.4234 20.9882 26.3894 20.9938 26.3551 20.9938ZM23.8474 19.253C25.0194 19.2921 25.8973 19.6473 26.4631 20.3115C27.7052 19.8536 28.4043 19.2766 28.7289 18.9476L28.5634 18.8413C28.5167 18.8114 28.4769 18.7718 28.4467 18.7252C28.4165 18.6787 28.3965 18.6262 28.3882 18.5713C28.3798 18.5162 28.3833 18.4599 28.3983 18.4061C28.4134 18.3524 28.4397 18.3025 28.4754 18.2597C30.0483 16.379 29.6052 14.2822 29.3692 13.5287L29.2367 13.5723C29.1842 13.5896 29.1287 13.5956 29.0738 13.5898C29.0189 13.584 28.9658 13.5667 28.9181 13.5388C28.87 13.5108 28.8284 13.4729 28.796 13.4276C28.7636 13.3823 28.7412 13.3307 28.7303 13.2761C28.4509 11.8828 27.5667 11.2568 26.9849 10.9901C27.4276 12.687 27.2389 14.3662 26.4223 15.9881C25.7102 17.4021 24.6499 18.4975 23.8417 19.1957L23.8474 19.253Z" fill="black"/>
<path d="M17.9227 30.9124C17.9628 30.6782 18.0254 30.4262 18.1236 30.2107C18.2798 29.8674 18.3699 29.5005 18.3699 29.1265V21.9864C18.3699 21.1279 17.8794 20.3801 17.1506 19.9754C16.7726 19.8019 16.3625 19.7095 15.9467 19.7041C15.5154 19.7105 15.1076 19.8075 14.7428 19.9754C14.0141 20.38 13.5234 21.1279 13.5234 21.9864V29.1265C13.5234 29.5005 13.6136 29.8674 13.7698 30.2107C13.8678 30.4262 13.9306 30.6782 13.9707 30.9124C13.9792 30.9617 13.9814 31.0104 13.9787 31.058C14.5909 31.2777 15.2532 31.4009 15.9467 31.4009C16.6402 31.4009 17.3026 31.2779 17.9147 31.058C17.9118 31.0093 17.9145 30.9604 17.9227 30.9124Z" fill="#F4DBCE"/>
<path d="M24.5896 29.7228L26.1444 26.039C28.0561 20.6741 25.8377 19.5397 23.5606 19.5618C23.7891 22.3137 23.4262 25.582 21.5798 28.8338C21.3594 29.222 21.4652 29.7016 21.8241 29.982C22.0491 30.1578 22.2934 30.3797 22.4927 30.6366C22.7923 31.0226 22.5584 31.5495 22.1042 31.6641L22.1276 31.6876H26.7923C27.3107 29.4773 24.5896 29.7228 24.5896 29.7228ZM9.40055 30.6366C9.59993 30.3797 9.84418 30.1578 10.0692 29.982C10.4281 29.7016 10.5338 29.222 10.3134 28.8338C8.46693 25.5821 8.10418 22.3137 8.33268 19.5618C6.05568 19.5397 3.8373 20.6741 5.7488 26.039L7.30368 29.7228C7.30368 29.7228 4.58255 29.4772 5.10093 31.6876H9.76568L9.78905 31.6641C9.3348 31.5495 9.10093 31.0226 9.40055 30.6366Z" fill="#EAA250"/>
<path d="M22.0542 13.5352C21.5392 15.3334 19.7007 16.7527 17.3562 17.1682C17.0367 17.6132 16.516 17.909 15.916 17.909C15.3127 17.909 14.7892 17.6098 14.4702 17.1607C12.1613 16.7387 10.3502 15.3417 9.82429 13.5712C8.75416 16.0788 6.71091 22.4884 10.3138 28.8333C10.5342 29.2214 10.4284 29.701 10.0695 29.9814C9.84454 30.1573 9.60016 30.3792 9.40091 30.636C9.06304 31.0714 9.40291 31.687 9.97329 31.687H13.2783C13.7123 31.687 14.0405 31.3182 13.971 30.9123C13.9309 30.6782 13.8683 30.4262 13.7702 30.2107C13.6139 29.8673 13.5238 29.5004 13.5238 29.1264V21.9863C13.5238 20.7102 14.6054 19.6748 15.947 19.655C17.2887 19.6749 18.3703 20.7102 18.3703 21.9863V29.1264C18.3703 29.5004 18.2802 29.8673 18.1239 30.2107C18.0259 30.4262 17.9632 30.6782 17.923 30.9123C17.8535 31.3183 18.1818 31.687 18.6158 31.687H21.9208C22.491 31.687 22.831 31.0714 22.4932 30.636C22.2938 30.3792 22.0495 30.1573 21.8245 29.9814C21.4657 29.701 21.3599 29.2214 21.5803 28.8333C25.2008 22.4572 23.1198 16.0163 22.0542 13.5352Z" fill="#EAA250"/>
<path d="M26.7927 32.0001H22.128C22.0867 32.0001 22.0459 31.9919 22.0078 31.9761C21.9697 31.9602 21.9352 31.937 21.9061 31.9077L21.8827 31.8842C21.8439 31.845 21.8162 31.7963 21.8023 31.743C21.7885 31.6897 21.7889 31.6336 21.8037 31.5805C21.8184 31.5274 21.847 31.4792 21.8864 31.4407C21.9258 31.4022 21.9747 31.3747 22.0281 31.3612C22.1538 31.3295 22.2571 31.2371 22.2972 31.1203C22.3218 31.0488 22.333 30.9401 22.2462 30.8283C22.0891 30.626 21.8825 30.4241 21.632 30.2283C21.1492 29.8511 21.0131 29.1998 21.3083 28.6797C22.8691 25.9312 23.5222 22.8722 23.2495 19.588C23.2459 19.5451 23.2512 19.502 23.2651 19.4614C23.2789 19.4207 23.301 19.3833 23.3299 19.3516C23.3589 19.3198 23.394 19.2944 23.4333 19.2768C23.4725 19.2593 23.5149 19.25 23.5578 19.2496C24.9837 19.2356 26.0085 19.6531 26.6048 20.4901C27.4226 21.6378 27.3668 23.5401 26.4391 26.1441C26.4371 26.1497 26.4349 26.1552 26.4326 26.1607L25.0615 29.4092C25.5682 29.4382 26.3397 29.5751 26.7985 30.103C27.1573 30.5161 27.2577 31.0733 27.097 31.7592C27.0808 31.8278 27.042 31.8889 26.9868 31.9326C26.9315 31.9763 26.8632 32.0001 26.7927 32.0001ZM22.869 31.3751H26.5327C26.5791 31.009 26.5112 30.7257 26.3276 30.5136C25.9123 30.0341 24.952 30.005 24.6175 30.0341C24.5638 30.0388 24.5098 30.0296 24.4607 30.0073C24.4116 29.9851 24.3691 29.9505 24.3374 29.9069C24.3056 29.8633 24.2857 29.8123 24.2795 29.7588C24.2733 29.7052 24.281 29.651 24.302 29.6013L25.8535 25.9257C26.706 23.5298 26.7875 21.823 26.096 20.8525C25.6697 20.2542 24.931 19.928 23.8978 19.8801C24.109 23.162 23.4213 26.2245 21.852 28.9881C21.7087 29.2405 21.7765 29.548 22.0168 29.7356C22.308 29.9631 22.5512 30.2017 22.74 30.4448C22.9385 30.7006 22.9926 31.021 22.8883 31.3237C22.8824 31.341 22.8759 31.3581 22.869 31.3751ZM9.76622 32.0001H5.10134C5.03087 32.0001 4.96246 31.9763 4.90723 31.9325C4.852 31.8887 4.81319 31.8276 4.79709 31.759C4.63622 31.0731 4.73672 30.516 5.09559 30.1027C5.55422 29.5747 6.32584 29.438 6.83259 29.409L5.46147 26.1605C5.45912 26.155 5.45695 26.1494 5.45497 26.1438C4.52722 23.5398 4.47134 21.6375 5.28922 20.4898C5.88559 19.653 6.90684 19.2361 8.33622 19.2493C8.37919 19.2497 8.42162 19.259 8.46085 19.2765C8.50009 19.294 8.53528 19.3195 8.56422 19.3512C8.59317 19.383 8.61525 19.4204 8.62908 19.4611C8.64291 19.5018 8.64819 19.5449 8.64459 19.5877C8.37184 22.872 9.02497 25.931 10.5857 28.6795C10.8811 29.1996 10.745 29.851 10.2621 30.2282C10.0117 30.4238 9.80497 30.6258 9.64784 30.8282C9.56109 30.9401 9.57222 31.0488 9.59684 31.1202C9.63709 31.2371 9.74022 31.3293 9.86597 31.3611C9.91941 31.3746 9.96833 31.402 10.0078 31.4405C10.0472 31.479 10.0757 31.5273 10.0905 31.5804C10.1053 31.6335 10.1057 31.6895 10.0918 31.7429C10.0779 31.7962 10.0501 31.8449 10.0113 31.8841L9.98797 31.9076C9.95894 31.9369 9.9244 31.9601 9.88634 31.976C9.84828 31.9919 9.80745 32.0001 9.76622 32.0001ZM5.36147 31.3751H9.02522C9.01833 31.3581 9.01192 31.341 9.00597 31.3237C8.90172 31.021 8.95572 30.7006 9.15434 30.4448C9.34297 30.2018 9.58634 29.9631 9.87734 29.7357C10.1177 29.5478 10.1856 29.2405 10.0423 28.9881C8.47297 26.2245 7.78534 23.162 7.99647 19.8801C6.96309 19.9278 6.22459 20.2542 5.79834 20.8525C5.10684 21.823 5.18834 23.5297 6.04084 25.9257L7.59234 29.6013C7.61324 29.651 7.62094 29.7053 7.61468 29.7589C7.60842 29.8124 7.58842 29.8634 7.55662 29.907C7.52482 29.9505 7.4823 29.9851 7.43319 30.0074C7.38408 30.0297 7.33005 30.0389 7.27634 30.0341C6.94172 30.005 5.98197 30.0342 5.56672 30.5137C5.38297 30.7257 5.31509 31.0088 5.36147 31.3751ZM15.9471 31.7137C15.2402 31.714 14.5386 31.5918 13.8735 31.3525C13.8099 31.3296 13.7555 31.2869 13.7183 31.2305C13.6811 31.1742 13.6631 31.1073 13.6671 31.04C13.6686 31.015 13.6672 30.9899 13.663 30.9652C13.6201 30.715 13.5605 30.5046 13.4857 30.3403C13.3036 29.9402 13.2113 29.5318 13.2113 29.1267V21.9865C13.2113 21.0502 13.7402 20.175 14.5915 19.7023C14.5983 19.6985 14.6053 19.695 14.6125 19.6917C15.0298 19.4996 15.4829 19.3974 15.9423 19.3918C16.4168 19.3987 16.8642 19.4996 17.2815 19.6917C17.2886 19.695 17.2956 19.6986 17.3025 19.7023C18.1537 20.1751 18.6826 21.0503 18.6826 21.9865V29.1267C18.6826 29.5318 18.5902 29.9402 18.4082 30.3403C18.3335 30.5045 18.2738 30.7148 18.231 30.9652C18.2268 30.9899 18.2254 31.015 18.2268 31.04C18.2308 31.1073 18.2129 31.1742 18.1756 31.2305C18.1384 31.2869 18.084 31.3296 18.0205 31.3525C17.3554 31.5918 16.6539 31.714 15.9471 31.7137ZM14.2736 30.8283C15.3625 31.1742 16.5317 31.1742 17.6206 30.8283C17.6723 30.5385 17.7458 30.2873 17.8395 30.0816C17.9843 29.7633 18.0577 29.4421 18.0577 29.1268V21.9866C18.0577 21.281 17.6563 20.6183 17.0093 20.2546C16.674 20.1022 16.3107 20.0212 15.9423 20.0168C15.5771 20.0222 15.217 20.1032 14.8846 20.2546C14.2377 20.6185 13.8362 21.281 13.8362 21.9866V29.1268C13.8362 29.4421 13.9096 29.7633 14.0545 30.0816C14.1482 30.2872 14.2218 30.5383 14.2736 30.8283Z" fill="black"/>
<path d="M21.9204 31.9997H18.6154C18.3088 31.9997 18.022 31.8682 17.8288 31.639C17.7384 31.5325 17.6724 31.4076 17.6354 31.273C17.5984 31.1384 17.5913 30.9973 17.6146 30.8596C17.6666 30.5562 17.7421 30.2943 17.8391 30.0812C17.984 29.763 18.0574 29.4417 18.0574 29.1265V21.9862C18.0574 20.8902 17.1085 19.9846 15.9421 19.9675C14.7849 19.9847 13.836 20.8903 13.836 21.9862V29.1265C13.836 29.4417 13.9094 29.763 14.0543 30.0812C14.1513 30.2943 14.2268 30.5562 14.2788 30.8596C14.3021 30.9973 14.295 31.1384 14.258 31.273C14.221 31.4076 14.155 31.5325 14.0646 31.639C13.8713 31.8682 13.5846 31.9997 13.278 31.9997H9.973C9.57513 31.9997 9.222 31.7835 9.0515 31.4353C8.89 31.1055 8.92825 30.7351 9.15375 30.4445C9.3425 30.2015 9.58575 29.9627 9.87675 29.7353C10.1171 29.5475 10.185 29.2401 10.0418 28.9877C6.36425 22.5112 8.46338 15.9632 9.5365 13.4486C9.56201 13.3897 9.60491 13.3399 9.65947 13.3061C9.71403 13.2723 9.77763 13.2559 9.84175 13.2592C9.90593 13.2629 9.96741 13.2863 10.0178 13.3262C10.0682 13.3661 10.1051 13.4206 10.1234 13.4822C10.613 15.1307 12.3411 16.4538 14.526 16.8532C14.6061 16.868 14.6774 16.9132 14.7246 16.9797C15.0029 17.3717 15.437 17.5966 15.9156 17.5966C16.3908 17.5966 16.8231 17.374 17.1019 16.9858C17.1494 16.9196 17.221 16.8746 17.3013 16.8605C19.5251 16.4665 21.2726 15.1273 21.7533 13.4491C21.771 13.3871 21.8075 13.3321 21.8577 13.2917C21.908 13.2513 21.9695 13.2274 22.0338 13.2233C22.0982 13.2192 22.1622 13.2351 22.2172 13.2688C22.2721 13.3026 22.3153 13.3525 22.3408 13.4117C23.4226 15.9306 25.5408 22.4906 21.8515 28.9876C21.7083 29.24 21.776 29.5475 22.0164 29.7351C22.3075 29.9626 22.5508 30.2012 22.7395 30.4443C22.9651 30.735 23.0033 31.1053 22.8418 31.4352C22.6714 31.7835 22.3183 31.9997 21.9204 31.9997ZM15.942 19.3426C17.4571 19.3647 18.6823 20.5507 18.6823 21.9862V29.1265C18.6823 29.5316 18.5899 29.94 18.4079 30.3401C18.3331 30.5043 18.2735 30.7146 18.2306 30.9651C18.214 31.0621 18.241 31.1583 18.3064 31.2361C18.3806 31.3242 18.4933 31.3747 18.6153 31.3747H21.9203C22.1084 31.3747 22.2296 31.2641 22.2804 31.1605C22.3126 31.0945 22.3511 30.9635 22.2458 30.8277C22.0886 30.6253 21.882 30.4235 21.6315 30.2277C21.1488 29.8505 21.0126 29.1992 21.3079 28.6791C24.5515 22.967 23.124 17.1875 22.056 14.3755C21.2855 15.8898 19.5988 17.0548 17.5303 17.4536C17.1355 17.9367 16.541 18.2216 15.9155 18.2216C15.6044 18.2211 15.2973 18.1511 15.0167 18.0168C14.736 17.8825 14.4889 17.6872 14.2934 17.4452C12.2633 17.042 10.5983 15.8915 9.826 14.4042C8.76688 17.2095 7.34988 22.9817 10.585 28.6791C10.8804 29.1992 10.7443 29.8506 10.2614 30.2278C10.011 30.4235 9.80425 30.6255 9.64713 30.8278C9.54175 30.9636 9.58025 31.0946 9.6125 31.1606C9.66325 31.2642 9.78438 31.3748 9.97263 31.3748H13.2776C13.3996 31.3748 13.5123 31.3243 13.5865 31.2362C13.652 31.1585 13.679 31.0622 13.6623 30.9652C13.6194 30.7148 13.5598 30.5045 13.485 30.3402C13.3029 29.9401 13.2106 29.5317 13.2106 29.1266V21.9863C13.2109 20.5507 14.436 19.3647 15.942 19.3426Z" fill="black"/>
</g>
<defs>
<clipPath id="clip0_434_22422">
<rect width="32" height="32" fill="white"/>
</clipPath>
</defs>
</svg>
