<svg width="32" height="32" viewBox="0 0 32 32" fill="none" xmlns="http://www.w3.org/2000/svg">
<path fill-rule="evenodd" clip-rule="evenodd" d="M8.36827 29.7933C7.57858 29.8116 6.80095 29.5973 6.13213 29.1771C4.81627 28.3224 4.12109 26.6612 4.12109 24.3721C4.12109 19.7376 7.99806 14.158 10.3098 11.2455C10.4021 11.1351 10.5339 11.0651 10.677 11.0505C10.8202 11.0359 10.9633 11.0778 11.0761 11.1672C11.1888 11.2567 11.2621 11.3866 11.2803 11.5294C11.2986 11.6721 11.2603 11.8163 11.1738 11.9313C9.38509 14.1856 5.22454 19.9098 5.22454 24.3721C5.22454 26.2689 5.74592 27.6107 6.73351 28.2518C7.74868 28.91 9.25323 28.8284 11.0855 28.0118C11.2192 27.9523 11.371 27.9483 11.5077 28.0007C11.6443 28.0531 11.7545 28.1576 11.8141 28.2913C11.8736 28.4249 11.8776 28.5768 11.8252 28.7134C11.7728 28.85 11.6683 28.9603 11.5346 29.0198C10.5451 29.4968 9.46627 29.7603 8.36827 29.7933ZM15.1721 9.37955C15.0258 9.37955 14.8855 9.32142 14.782 9.21795C14.6785 9.11448 14.6204 8.97415 14.6204 8.82782V4.41403C14.6204 4.2677 14.6785 4.12737 14.782 4.0239C14.8855 3.92043 15.0258 3.8623 15.1721 3.8623C15.3185 3.8623 15.4588 3.92043 15.5623 4.0239C15.6657 4.12737 15.7239 4.2677 15.7239 4.41403V8.82782C15.7239 8.97415 15.6657 9.11448 15.5623 9.21795C15.4588 9.32142 15.3185 9.37955 15.1721 9.37955ZM12.4135 9.37955C12.2672 9.37955 12.1268 9.32142 12.0234 9.21795C11.9199 9.11448 11.8618 8.97415 11.8618 8.82782V6.0692C11.8618 5.92287 11.9199 5.78254 12.0234 5.67907C12.1268 5.57561 12.2672 5.51748 12.4135 5.51748C12.5598 5.51748 12.7002 5.57561 12.8036 5.67907C12.9071 5.78254 12.9652 5.92287 12.9652 6.0692V8.82782C12.9652 8.97415 12.9071 9.11448 12.8036 9.21795C12.7002 9.32142 12.5598 9.37955 12.4135 9.37955Z" fill="#547580"/>
<path fill-rule="evenodd" clip-rule="evenodd" d="M12.4126 2.2069C12.4126 3.42566 8.66589 4.41379 7.44713 4.41379C6.86183 4.41379 6.30049 4.18128 5.88662 3.76741C5.47275 3.35353 5.24023 2.7922 5.24023 2.2069C5.24023 1.62159 5.47275 1.06026 5.88662 0.646385C6.30049 0.232512 6.86183 0 7.44713 0C8.66589 0 12.4126 0.988138 12.4126 2.2069Z" fill="#41767F"/>
<path fill-rule="evenodd" clip-rule="evenodd" d="M15.7232 4.41393C15.7232 5.63269 11.9764 6.62082 10.7577 6.62082C10.1724 6.62082 9.61104 6.38831 9.19717 5.97444C8.78329 5.56057 8.55078 4.99923 8.55078 4.41393C8.55078 3.82862 8.78329 3.26729 9.19717 2.85342C9.61104 2.43954 10.1724 2.20703 10.7577 2.20703C11.9764 2.20703 15.7232 3.19517 15.7232 4.41393Z" fill="#9FC9D3"/>
<path fill-rule="evenodd" clip-rule="evenodd" d="M18.4834 9.37955C18.6297 9.37955 18.77 9.32142 18.8735 9.21795C18.977 9.11448 19.0351 8.97415 19.0351 8.82782V4.41403C19.0351 4.2677 18.977 4.12737 18.8735 4.0239C18.77 3.92043 18.6297 3.8623 18.4834 3.8623C18.337 3.8623 18.1967 3.92043 18.0932 4.0239C17.9898 4.12737 17.9316 4.2677 17.9316 4.41403V8.82782C17.9316 8.97415 17.9898 9.11448 18.0932 9.21795C18.1967 9.32142 18.337 9.37955 18.4834 9.37955ZM21.242 9.37955C21.3883 9.37955 21.5286 9.32142 21.6321 9.21795C21.7356 9.11448 21.7937 8.97415 21.7937 8.82782V6.0692C21.7937 5.92287 21.7356 5.78254 21.6321 5.67907C21.5286 5.57561 21.3883 5.51748 21.242 5.51748C21.0957 5.51748 20.9553 5.57561 20.8519 5.67907C20.7484 5.78254 20.6903 5.92287 20.6903 6.0692V8.82782C20.6903 8.97415 20.7484 9.11448 20.8519 9.21795C20.9553 9.32142 21.0957 9.37955 21.242 9.37955Z" fill="#547580"/>
<path fill-rule="evenodd" clip-rule="evenodd" d="M21.2402 2.2069C21.2402 3.42566 24.987 4.41379 26.2058 4.41379C26.7911 4.41379 27.3524 4.18128 27.7663 3.76741C28.1801 3.35353 28.4126 2.7922 28.4126 2.2069C28.4126 1.62159 28.1801 1.06026 27.7663 0.646385C27.3524 0.232512 26.7911 0 26.2058 0C24.987 0 21.2402 0.988138 21.2402 2.2069Z" fill="#41767F"/>
<path fill-rule="evenodd" clip-rule="evenodd" d="M17.9316 4.41393C17.9316 5.63269 21.6784 6.62082 22.8972 6.62082C23.4825 6.62082 24.0438 6.38831 24.4577 5.97444C24.8715 5.56057 25.1041 4.99923 25.1041 4.41393C25.1041 3.82862 24.8715 3.26729 24.4577 2.85342C24.0438 2.43954 23.4825 2.20703 22.8972 2.20703C21.6784 2.20703 17.9316 3.19517 17.9316 4.41393Z" fill="#9FC9D3"/>
<path fill-rule="evenodd" clip-rule="evenodd" d="M23.4484 26.8354V27.5858C23.4484 28.1711 23.2159 28.7324 22.802 29.1463C22.3882 29.5602 21.8268 29.7927 21.2415 29.7927H12.4139C11.8286 29.7927 11.2673 29.5602 10.8534 29.1463C10.4395 28.7324 10.207 28.1711 10.207 27.5858V9.9306C10.2079 9.63821 10.3244 9.35805 10.5312 9.15131C10.7379 8.94456 11.0181 8.82802 11.3105 8.82715H22.345C22.6373 8.82802 22.9175 8.94456 23.1243 9.15131C23.331 9.35805 23.4475 9.63821 23.4484 9.9306V26.8354Z" fill="#E57E25"/>
<path fill-rule="evenodd" clip-rule="evenodd" d="M23.4484 9.9306V11.034H10.207V9.9306C10.2079 9.63821 10.3244 9.35805 10.5312 9.15131C10.7379 8.94456 11.0181 8.82802 11.3105 8.82715H22.345C22.6373 8.82802 22.9175 8.94456 23.1243 9.15131C23.331 9.35805 23.4475 9.63821 23.4484 9.9306ZM21.7932 29.7209V30.8961C21.7924 31.1885 21.6758 31.4687 21.4691 31.6754C21.2623 31.8822 20.9822 31.9987 20.6898 31.9996H12.9657C12.6733 31.9987 12.3931 31.8822 12.1864 31.6754C11.9796 31.4687 11.8631 31.1885 11.8622 30.8961V29.7209H21.7932Z" fill="#C03A2B"/>
<path fill-rule="evenodd" clip-rule="evenodd" d="M19.0336 13.2412H23.4474C23.5937 13.2412 23.7341 13.2993 23.8375 13.4028C23.941 13.5063 23.9991 13.6466 23.9991 13.7929V25.3791C23.9991 25.9644 23.7666 26.5258 23.3527 26.9397C22.9389 27.3535 22.3775 27.586 21.7922 27.586H20.6888C20.1035 27.586 19.5421 27.3535 19.1283 26.9397C18.7144 26.5258 18.4819 25.9644 18.4819 25.3791V13.7929C18.4819 13.6466 18.54 13.5063 18.6435 13.4028C18.7469 13.2993 18.8873 13.2412 19.0336 13.2412ZM10.206 20.9653H14.6198C14.7661 20.9653 14.9065 21.0235 15.0099 21.1269C15.1134 21.2304 15.1715 21.3707 15.1715 21.5171V25.3791C15.1715 25.9644 14.939 26.5258 14.5252 26.9397C14.1113 27.3535 13.5499 27.586 12.9646 27.586H11.8612C11.2759 27.586 10.7146 27.3535 10.3007 26.9397C9.88681 26.5258 9.6543 25.9644 9.6543 25.3791V21.5171C9.6543 21.3707 9.71242 21.2304 9.81589 21.1269C9.91936 21.0235 10.0597 20.9653 10.206 20.9653Z" fill="#F3D55B"/>
<path fill-rule="evenodd" clip-rule="evenodd" d="M23.9991 13.7929V15.4481H18.4819V13.7929C18.4819 13.6466 18.54 13.5063 18.6435 13.4028C18.7469 13.2993 18.8873 13.2412 19.0336 13.2412H23.4474C23.5937 13.2412 23.7341 13.2993 23.8375 13.4028C23.941 13.5063 23.9991 13.6466 23.9991 13.7929ZM15.1715 21.5171V23.1722H9.6543V21.5171C9.6543 21.3707 9.71242 21.2304 9.81589 21.1269C9.91936 21.0235 10.0597 20.9653 10.206 20.9653H14.6198C14.7661 20.9653 14.9065 21.0235 15.0099 21.1269C15.1134 21.2304 15.1715 21.3707 15.1715 21.5171Z" fill="#F9EAB0"/>
</svg>
