<svg width="24" height="24" viewBox="0 0 24 24" fill="none" xmlns="http://www.w3.org/2000/svg">
<path opacity="0.4" d="M2.82424 4.7957L2.82425 4.7957L2.82528 4.79306C3.0367 4.2557 3.37327 3.75637 3.85311 3.3037L3.85319 3.30378L3.86076 3.29633C4.42529 2.74062 5.00458 2.5 5.59 2.5C5.79998 2.5 6.00543 2.54522 6.18363 2.63076L6.18361 2.63081L6.19047 2.63398C6.37619 2.7197 6.53388 2.84401 6.6589 3.0246L6.65888 3.02462L6.66221 3.02932L8.98221 6.29932L8.9822 6.29933L8.98423 6.30215C9.14612 6.52699 9.25497 6.72269 9.32723 6.89932L9.32716 6.89934L9.33043 6.90696C9.40094 7.07148 9.43 7.21384 9.43 7.32C9.43 7.45935 9.39009 7.61035 9.2929 7.77003L9.2887 7.77693L9.28472 7.78397C9.18264 7.96457 9.02379 8.1691 8.80645 8.38645L8.80638 8.38638L8.79967 8.39335L8.04255 9.18036C7.83378 9.39116 7.74 9.65048 7.74 9.93C7.74 10.0574 7.75672 10.1684 7.78493 10.2813L7.79184 10.3089L7.80184 10.3356C7.81947 10.3826 7.83717 10.4243 7.84971 10.4539C7.85095 10.4568 7.85214 10.4596 7.85327 10.4623C7.86758 10.4961 7.87269 10.5092 7.87566 10.5181L7.88974 10.5603L7.91105 10.5994C8.11468 10.9727 8.44946 11.4325 8.89831 11.963L8.89828 11.963L8.90192 11.9672C9.357 12.4931 9.84415 13.0311 10.3731 13.5702L10.373 13.5703L10.3815 13.5785C10.6071 13.7979 10.8343 14.0187 11.0627 14.2302L8.50307 16.7898C8.27247 16.5766 8.04622 16.3591 7.82432 16.1372C6.81213 15.1151 5.89921 14.045 5.08507 12.9269C4.28323 11.812 3.64338 10.7047 3.1805 9.61523C2.72177 8.5255 2.5 7.50178 2.5 6.54C2.5 5.91926 2.60943 5.33272 2.82424 4.7957Z" fill="#376766" stroke="#376766"/>
<path d="M21.97 18.33C21.97 18.61 21.92 18.9 21.82 19.18C21.79 19.26 21.76 19.34 21.72 19.42C21.55 19.78 21.33 20.12 21.04 20.44C20.55 20.98 20.01 21.37 19.4 21.62C19.39 21.62 19.38 21.63 19.37 21.63C18.78 21.87 18.14 22 17.45 22C16.43 22 15.34 21.76 14.19 21.27C13.04 20.78 11.89 20.12 10.75 19.29C10.36 19 9.96998 18.71 9.59998 18.4L12.87 15.13C13.15 15.34 13.4 15.5 13.61 15.61C13.66 15.63 13.72 15.66 13.79 15.69C13.87 15.72 13.95 15.73 14.04 15.73C14.21 15.73 14.34 15.67 14.45 15.56L15.21 14.81C15.46 14.56 15.7 14.37 15.93 14.25C16.16 14.11 16.39 14.04 16.64 14.04C16.83 14.04 17.03 14.08 17.25 14.17C17.47 14.26 17.7 14.39 17.95 14.56L21.26 16.91C21.52 17.09 21.7 17.3 21.81 17.55C21.91 17.8 21.97 18.05 21.97 18.33Z" fill="#376766"/>
</svg>
