<svg width="32" height="32" viewBox="0 0 32 32" fill="none" xmlns="http://www.w3.org/2000/svg">
<path d="M24 29.0039H20V22.0039C20 20.8993 20.8954 20.0039 22 20.0039H24V29.0039Z" fill="#23AAE6"/>
<path d="M24.5 31.0039H20.5C20.3674 31.0039 20.2402 30.9512 20.1464 30.8575C20.0527 30.7637 20 30.6365 20 30.5039V29.0039H24C24.5523 29.0039 25 29.4516 25 30.0039V30.5039C25 30.6365 24.9473 30.7637 24.8536 30.8575C24.7598 30.9512 24.6326 31.0039 24.5 31.0039Z" fill="#F0915A"/>
<path d="M16 20.0039C13.2386 20.0039 11 22.2425 11 25.0039V27.0039H9V30.0039C9 30.5562 9.44769 31.0039 10 31.0039H13C15.2091 31.0039 17 29.213 17 27.0039V20.0039H16Z" fill="#23AAE6"/>
<path d="M4.5 30.8372H5C5.55231 30.8372 6 30.3895 6 29.8372V26.5039H4.5C4.36739 26.5039 4.24021 26.5566 4.14645 26.6504C4.05268 26.7441 4 26.8713 4 27.0039V30.3372C4 30.4698 4.05268 30.597 4.14645 30.6908C4.24021 30.7845 4.36739 30.8372 4.5 30.8372Z" fill="#FAB991"/>
<path d="M13 20.0039C10.2386 20.0039 8 22.2425 8 25.0039V26.5039H6V30.0039C6 30.5562 6.44769 31.0039 7 31.0039H10C12.2091 31.0039 14 29.213 14 27.0039H17V29.0039H21V26.5867C22.7656 25.815 24 24.054 24 22.0039V20.0039H13Z" fill="#5AD7FF"/>
<path d="M21.5 31.0039H17.5C17.3674 31.0039 17.2402 30.9512 17.1464 30.8575C17.0527 30.7637 17 30.6365 17 30.5039V29.0039H21C21.5523 29.0039 22 29.4516 22 30.0039V30.5039C22 30.6365 21.9473 30.7637 21.8536 30.8575C21.7598 30.9512 21.6326 31.0039 21.5 31.0039Z" fill="#FAB991"/>
<path d="M22 22.0039C23.1046 22.0039 24 21.1085 24 20.0039C24 18.8993 23.1046 18.0039 22 18.0039C20.8954 18.0039 20 18.8993 20 20.0039C20 21.1085 20.8954 22.0039 22 22.0039Z" fill="#FFD205"/>
<path d="M20 4.00391C15.5817 4.00391 12 7.58566 12 12.0039C12 16.4222 15.5817 20.0039 20 20.0039H23C25.7614 20.0039 28 17.7653 28 15.0039V12.0039C28 7.58566 24.4183 4.00391 20 4.00391Z" fill="#FAB991"/>
<path d="M18 12.0039V17.0039C16.6193 17.0039 15.5 15.8846 15.5 14.5039C15.5 13.1232 16.6193 12.0039 18 12.0039Z" fill="#F0915A"/>
<path d="M21.75 13.5039C22.1642 13.5039 22.5 13.1681 22.5 12.7539C22.5 12.3397 22.1642 12.0039 21.75 12.0039C21.3358 12.0039 21 12.3397 21 12.7539C21 13.1681 21.3358 13.5039 21.75 13.5039Z" fill="#463C4B"/>
<path d="M25.75 13.5039C26.1642 13.5039 26.5 13.1681 26.5 12.7539C26.5 12.3397 26.1642 12.0039 25.75 12.0039C25.3358 12.0039 25 12.3397 25 12.7539C25 13.1681 25.3358 13.5039 25.75 13.5039Z" fill="#463C4B"/>
<path d="M24.3333 16.5039C23.9651 16.5039 23.6666 16.2054 23.6666 15.8372V14.0039C24.403 14.0039 24.9999 14.6008 24.9999 15.3372V15.8372C25 16.2054 24.7015 16.5039 24.3333 16.5039ZM21.5 15.5039H20.5C20.3674 15.5039 20.2402 15.4512 20.1464 15.3575C20.0527 15.2637 20 15.1365 20 15.0039C20 14.8713 20.0527 14.7441 20.1464 14.6504C20.2402 14.5566 20.3674 14.5039 20.5 14.5039H21.5C21.6326 14.5039 21.7598 14.5566 21.8536 14.6504C21.9473 14.7441 22 14.8713 22 15.0039C22 15.1365 21.9473 15.2637 21.8536 15.3575C21.7598 15.4512 21.6326 15.5039 21.5 15.5039ZM27 15.0039C27 15.1365 27.0527 15.2637 27.1464 15.3575C27.2402 15.4512 27.3674 15.5039 27.5 15.5039H27.9751C27.9914 15.3395 28 15.1728 28 15.004V14.5039H27.5C27.3674 14.5039 27.2402 14.5566 27.1464 14.6504C27.0527 14.7441 27 14.8713 27 15.0039Z" fill="#F0915A"/>
<path d="M22.5741 6.92105H22C21.9337 6.92105 21.8701 6.89472 21.8232 6.84783C21.7763 6.80095 21.75 6.73736 21.75 6.67105C21.75 6.60475 21.7763 6.54116 21.8232 6.49428C21.8701 6.44739 21.9337 6.42105 22 6.42105H22.5741C24.3253 6.42105 25.75 4.99637 25.75 3.24512C25.75 2.28018 24.9649 1.49512 24 1.49512C23.3108 1.49512 22.75 2.05587 22.75 2.74512C22.75 3.15868 23.0864 3.49512 23.5 3.49512C23.5663 3.49512 23.6299 3.52146 23.6768 3.56834C23.7237 3.61522 23.75 3.67881 23.75 3.74512C23.75 3.81142 23.7237 3.87501 23.6768 3.92189C23.6299 3.96878 23.5663 3.99512 23.5 3.99512C22.8108 3.99512 22.25 3.43437 22.25 2.74512C22.25 1.78018 23.0351 0.995117 24 0.995117C25.2407 0.995117 26.25 2.00443 26.25 3.24512C26.25 5.27205 24.601 6.92105 22.5741 6.92105Z" fill="#463C4B"/>
</svg>
