<svg width="42" height="26" viewBox="0 0 42 26" fill="none" xmlns="http://www.w3.org/2000/svg">
<path fill-rule="evenodd" clip-rule="evenodd" d="M21.0102 21.9804C23.1332 23.9367 25.9847 25.1231 29.0858 25.1231C35.7455 25.1231 41.1362 19.6912 41.1362 13.01C41.1362 6.30853 35.7455 0.876465 29.0858 0.876465C25.9847 0.876465 23.1333 2.06268 21.0102 4.01915C18.5753 6.2459 17.0351 9.45131 17.0351 13.01C17.0351 16.569 18.5754 19.7745 21.0102 21.9804Z" fill="#FAB31E"/>
<path fill-rule="evenodd" clip-rule="evenodd" d="M24.9025 11.7201C24.8609 11.283 24.7777 10.8668 24.6941 10.4297H17.3266C17.4099 9.99264 17.5345 9.5763 17.6594 9.16005H24.3405C24.1945 8.72327 24.0281 8.28602 23.8407 7.86977H18.1799C18.388 7.43298 18.6168 6.99573 18.8667 6.57948H23.1332C22.8626 6.14242 22.5506 5.70527 22.2174 5.30992H19.7822C20.1569 4.85214 20.5733 4.41508 21.0101 4.01964C18.8667 2.08398 16.036 0.876953 12.9142 0.876953C6.27511 0.876953 0.86377 6.30902 0.86377 13.0105C0.86377 19.6916 6.27511 25.1236 12.9142 25.1236C16.0361 25.1236 18.8667 23.9372 21.0101 21.9809C21.4474 21.5852 21.8428 21.169 22.2174 20.7112H19.7822C19.4492 20.295 19.1579 19.8788 18.8666 19.4209H23.1331C23.4036 19.0047 23.6325 18.5885 23.8406 18.1305H18.1798C17.9922 17.7144 17.8051 17.298 17.6593 16.8608H24.3405C24.486 16.4446 24.5899 16.0076 24.694 15.5705C24.7776 15.1543 24.8607 14.717 24.9024 14.2801C24.9439 13.8639 24.9648 13.4477 24.9648 13.0104C24.9649 12.5735 24.944 12.1363 24.9025 11.7201Z" fill="#E40520"/>
<path fill-rule="evenodd" clip-rule="evenodd" d="M39.5335 15.82C39.5335 15.5913 39.6998 15.4248 39.9081 15.4248C40.1369 15.4248 40.3034 15.5912 40.3034 15.82C40.3034 16.0281 40.1369 16.2157 39.9081 16.2157C39.6999 16.2157 39.5335 16.0281 39.5335 15.82ZM39.9081 16.1112C40.0745 16.1112 40.2202 15.9865 40.2202 15.82C40.2202 15.6534 40.0745 15.5285 39.9081 15.5285C39.7624 15.5285 39.6167 15.6534 39.6167 15.82C39.6167 15.9865 39.7625 16.1112 39.9081 16.1112ZM39.8665 15.9865H39.7832V15.6533H39.9289C39.95 15.6533 39.9914 15.6533 40.0122 15.6533C40.0538 15.6745 40.0538 15.7161 40.0538 15.7576C40.0538 15.7783 40.0331 15.8199 39.9914 15.841L40.0746 15.9865H39.9706L39.929 15.8616H39.8666V15.9865V15.7993H39.9082C39.929 15.7993 39.95 15.7993 39.95 15.7783C39.9706 15.7783 39.9706 15.7576 39.9706 15.7368C39.9706 15.7368 39.9706 15.7161 39.95 15.7161C39.95 15.6949 39.9289 15.7161 39.9082 15.7161H39.8666V15.7993V15.9865H39.8665Z" fill="white"/>
<path fill-rule="evenodd" clip-rule="evenodd" d="M16.9102 16.5067C16.515 16.6106 16.2236 16.6731 15.9322 16.6731C15.3077 16.6731 14.933 16.2775 14.933 15.57C14.933 15.4246 14.9539 15.2786 14.9747 15.1121L15.0579 14.6332L15.1205 14.2381L15.6824 10.8247H16.9312L16.7853 11.574H17.5763L17.389 12.8228H16.5982L16.2652 14.8623C16.2441 14.9667 16.2441 15.0287 16.2441 15.0705C16.2441 15.3414 16.369 15.4451 16.6815 15.4451C16.8269 15.4451 16.9518 15.4246 17.0766 15.4035L16.9102 16.5067Z" fill="#06326E"/>
<path fill-rule="evenodd" clip-rule="evenodd" d="M20.948 16.4652C20.4903 16.5901 20.0741 16.6523 19.6159 16.6523C18.2007 16.6523 17.3891 15.9031 17.3891 14.4252C17.3891 12.6981 18.3465 11.4492 19.6783 11.4492C20.74 11.4492 21.4266 12.157 21.4266 13.2598C21.4266 13.6343 21.3851 13.9884 21.281 14.4878H18.6794C18.6584 14.5712 18.6584 14.6128 18.6584 14.6543C18.6584 15.2371 19.0539 15.5283 19.8032 15.5283C20.2819 15.5283 20.6982 15.4247 21.1561 15.2165L20.948 16.4652ZM20.1778 13.4889C20.1778 13.3848 20.1778 13.3014 20.1778 13.2392C20.1778 12.823 19.9492 12.5939 19.5535 12.5939C19.1373 12.5939 18.8458 12.9063 18.7211 13.4889H20.1778Z" fill="#06326E"/>
<path fill-rule="evenodd" clip-rule="evenodd" d="M6.92029 16.5688H5.62991L6.37916 11.8444L4.69335 16.5688H3.79841L3.69425 11.8654L2.90347 16.5688H1.63391L2.65372 10.4292H4.54776L4.58929 14.2169L5.85876 10.4292H7.94L6.92029 16.5688Z" fill="#06326E"/>
<path fill-rule="evenodd" clip-rule="evenodd" d="M10.0631 14.3419C9.93811 14.3213 9.89658 14.3213 9.81333 14.3213C9.06389 14.3213 8.68936 14.6127 8.68936 15.0705C8.68936 15.383 8.87668 15.5911 9.16805 15.5911C9.79243 15.5912 10.0423 15.0706 10.0631 14.3419ZM11.1036 16.569H9.97983L10.0006 16.0489C9.70918 16.4441 9.31374 16.6523 8.62702 16.6523C8.00255 16.6523 7.46143 16.0907 7.46143 15.2787C7.46143 15.0502 7.50324 14.842 7.56539 14.6333C7.77352 13.8635 8.54368 13.3848 9.73008 13.3642C9.87558 13.3642 10.1045 13.3642 10.3127 13.3848C10.3544 13.2183 10.3544 13.156 10.3544 13.0517C10.3544 12.7187 10.0838 12.615 9.48014 12.615C9.10552 12.615 8.68927 12.6771 8.3979 12.7814L8.21077 12.8229L8.12752 12.8436L8.31474 11.7198C8.9183 11.5328 9.35546 11.4492 9.83414 11.4492C10.9579 11.4492 11.5615 11.9695 11.5615 12.9268C11.5615 13.1766 11.5823 13.3642 11.4991 13.9052L11.2077 15.695L11.1661 16.0073L11.1452 16.2572L11.1244 16.4236L11.1036 16.569Z" fill="#06326E"/>
<path fill-rule="evenodd" clip-rule="evenodd" d="M27.2333 11.6159C27.6078 11.6159 27.9409 11.7198 28.3986 11.9489L28.6277 10.6167C28.5029 10.5543 28.4612 10.5543 28.2946 10.4919L27.7742 10.3461C27.6078 10.3045 27.3998 10.2837 27.1707 10.2837C26.5256 10.2837 26.151 10.3045 25.7556 10.5335C25.5475 10.6792 25.2769 10.8664 24.9855 11.1995L24.819 11.1579L23.4869 12.0944L23.5494 11.5742H22.1759L21.3643 16.5691H22.6754L23.1539 13.8842C23.1539 13.8842 23.3413 13.5095 23.4245 13.3848C23.6742 13.0728 23.8823 13.0728 24.153 13.0728C24.1945 13.0728 24.2362 13.0728 24.2572 13.0728C24.2153 13.3641 24.1945 13.676 24.1945 14.0301C24.1945 15.6532 25.1104 16.6732 26.5256 16.6732C26.8794 16.6732 27.1916 16.6317 27.6703 16.5068L27.8991 15.0917C27.4829 15.3203 27.1081 15.4248 26.796 15.4248C26.0261 15.4248 25.5683 14.842 25.5683 13.9258C25.5685 12.5732 26.2552 11.6159 27.2333 11.6159Z" fill="#06326E"/>
<path fill-rule="evenodd" clip-rule="evenodd" d="M38.2849 10.4293L37.9936 12.1774C37.6813 11.699 37.3069 11.4698 36.8074 11.4698C36.1203 11.4698 35.4752 11.8654 35.0797 12.6148V12.5937L34.2472 12.0941L34.3305 11.5739H32.9361L32.1453 16.5688H33.4357L33.8726 13.8839C33.8726 13.8839 34.2056 13.5093 34.2889 13.3845C34.497 13.1348 34.7051 13.093 34.8716 13.0725C34.7259 13.4886 34.6428 13.9883 34.6428 14.5499C34.6428 15.799 35.288 16.6314 36.2454 16.6314C36.7241 16.6314 37.0987 16.465 37.4525 16.0693L37.3901 16.5688H38.618L39.6169 10.4292L38.2849 10.4293ZM36.6825 15.3829C36.2453 15.3829 36.0164 15.0499 36.0164 14.4045C36.0164 13.4261 36.4324 12.7186 37.0361 12.7186C37.4942 12.7186 37.723 13.0726 37.723 13.697C37.723 14.6959 37.3068 15.3829 36.6825 15.3829Z" fill="#06326E"/>
<path fill-rule="evenodd" clip-rule="evenodd" d="M30.6675 14.3419C30.5425 14.3213 30.5009 14.3213 30.4177 14.3213C29.6685 14.3213 29.2938 14.6127 29.2938 15.0705C29.2938 15.383 29.4812 15.5911 29.7725 15.5911C30.3968 15.5912 30.6466 15.0706 30.6675 14.3419ZM31.708 16.569H30.5633L30.605 16.0489C30.3136 16.4441 29.9182 16.6523 29.2315 16.6523C28.5863 16.6523 28.0242 16.1112 28.0242 15.2787C28.0242 14.0923 28.9193 13.3642 30.3345 13.3642C30.4801 13.3642 30.7091 13.3642 30.8964 13.3848C30.9379 13.2183 30.9588 13.156 30.9588 13.0517C30.9588 12.7187 30.6884 12.615 30.0639 12.615C29.7102 12.615 29.273 12.6771 28.9818 12.7814L28.8153 12.8229L28.7319 12.8436L28.9193 11.7198C29.5229 11.5328 29.9598 11.4492 30.4385 11.4492C31.5623 11.4492 32.1452 11.9695 32.1452 12.9268C32.1452 13.1766 32.1866 13.3642 32.0826 13.9052L31.8119 15.695L31.7704 16.0073L31.7288 16.2572L31.708 16.4236V16.569Z" fill="#06326E"/>
<path fill-rule="evenodd" clip-rule="evenodd" d="M13.83 12.6354C14.0798 12.6354 14.4336 12.6565 14.8082 12.7187L14.9955 11.5533C14.6209 11.5118 14.1213 11.4492 13.83 11.4492C12.3731 11.4492 11.8944 12.2403 11.8944 13.1559C11.8944 13.7594 12.1651 14.1966 12.8726 14.5296C13.3929 14.7792 13.4762 14.8208 13.4762 15.0501C13.4762 15.3621 13.2056 15.5496 12.7061 15.5496C12.3107 15.5496 11.9362 15.4868 11.5198 15.3414L11.3741 16.4858L11.395 16.5068L11.6447 16.5484C11.7279 16.569 11.8322 16.59 11.9778 16.6106C12.29 16.6316 12.5606 16.6523 12.727 16.6523C14.1839 16.6523 14.7875 16.0906 14.7875 14.9872C14.7875 14.3002 14.4544 13.884 13.8092 13.5926C13.2473 13.343 13.1848 13.3013 13.1848 13.0726C13.1848 12.8436 13.4346 12.6354 13.83 12.6354Z" fill="#06326E"/>
<path fill-rule="evenodd" clip-rule="evenodd" d="M28.9818 10.2213L28.7528 11.5532C28.2947 11.3243 27.9617 11.2202 27.5871 11.2202C26.609 11.2202 25.9221 12.1776 25.9221 13.5306C25.9221 14.4668 26.3801 15.0289 27.1501 15.0289C27.4622 15.0289 27.8369 14.9252 28.2531 14.7165L28.0243 16.1111C27.5456 16.236 27.2334 16.2986 26.8797 16.2986C25.4644 16.2986 24.5902 15.2786 24.5902 13.6343C24.5902 11.4491 25.7974 9.90918 27.5248 9.90918C27.7536 9.90918 27.9618 9.92999 28.1285 9.97162L28.6487 10.0965C28.8152 10.1588 28.8567 10.1796 28.9818 10.2213Z" fill="white"/>
<path fill-rule="evenodd" clip-rule="evenodd" d="M24.7777 11.1372C24.7361 11.1372 24.6941 11.1372 24.6528 11.1372C24.2154 11.1372 23.9659 11.3453 23.5703 11.9491L23.6951 11.1788H22.5091L21.6974 16.174H23.0084C23.4871 13.1145 23.612 12.594 24.2363 12.594C24.2779 12.594 24.2779 12.594 24.3196 12.594C24.4445 11.9906 24.6109 11.5534 24.8193 11.1579L24.7777 11.1372Z" fill="white"/>
<path fill-rule="evenodd" clip-rule="evenodd" d="M17.2432 16.111C16.8897 16.2359 16.5984 16.2774 16.3069 16.2774C15.6408 16.2774 15.2661 15.9029 15.2661 15.1747C15.2661 15.0499 15.2869 14.8829 15.3077 14.7375L15.3911 14.238L15.4534 13.8423L16.0156 10.4292H17.3059L17.16 11.1784H17.826L17.6596 12.4066H16.9936L16.64 14.4876C16.619 14.571 16.619 14.6331 16.619 14.6959C16.619 14.9456 16.7439 15.0499 17.0563 15.0499C17.2017 15.0499 17.3268 15.0499 17.4101 15.0082L17.2432 16.111Z" fill="white"/>
<path fill-rule="evenodd" clip-rule="evenodd" d="M12.2276 12.7601C12.2276 13.3845 12.5189 13.8217 13.2057 14.1548C13.7469 14.4044 13.8302 14.4877 13.8302 14.6958C13.8302 15.0082 13.6013 15.1537 13.0809 15.1537C12.6855 15.1537 12.3317 15.0914 11.9154 14.9666L11.7279 16.1109L11.7904 16.132L12.0195 16.1737C12.1026 16.1942 12.2068 16.2153 12.3733 16.2153C12.6647 16.2568 12.9143 16.2568 13.0809 16.2568C14.4545 16.2568 15.0997 15.7364 15.0997 14.5918C15.0997 13.9048 14.8292 13.5092 14.184 13.1973C13.622 12.9476 13.5595 12.8848 13.5595 12.6562C13.5595 12.3855 13.7885 12.2605 14.2048 12.2605C14.4544 12.2605 14.8083 12.2816 15.1412 12.3232L15.3286 11.1784C14.9956 11.1159 14.4753 11.0742 14.184 11.0742C12.727 11.0743 12.2068 11.8444 12.2276 12.7601Z" fill="white"/>
<path fill-rule="evenodd" clip-rule="evenodd" d="M38.9508 16.1738H37.723L37.7853 15.6948C37.4316 16.0694 37.0569 16.2359 36.5783 16.2359C35.6206 16.2359 34.9964 15.4246 34.9964 14.1754C34.9964 12.5106 35.9746 11.0953 37.1194 11.0953C37.6397 11.0953 38.0144 11.3243 38.3681 11.7823L38.6595 10.0337H39.95L38.9508 16.1738ZM37.0361 15.0083C37.6396 15.0083 38.056 14.3002 38.056 13.3225C38.056 12.677 37.827 12.3441 37.3693 12.3441C36.7864 12.3441 36.3492 13.031 36.3492 14.009C36.3492 14.6753 36.5783 15.0083 37.0361 15.0083Z" fill="white"/>
<path fill-rule="evenodd" clip-rule="evenodd" d="M21.2394 16.0695C20.7816 16.2156 20.3655 16.2776 19.8864 16.2776C18.4297 16.2776 17.6805 15.5079 17.6805 14.0301C17.6805 12.3236 18.6378 11.0537 19.9492 11.0537C21.0313 11.0537 21.7181 11.7613 21.7181 12.8645C21.7181 13.2391 21.6764 13.5927 21.5516 14.1133H18.9708C18.9499 14.1754 18.9499 14.217 18.9499 14.2586C18.9499 14.842 19.3454 15.1332 20.0946 15.1332C20.5734 15.1332 20.9897 15.05 21.4476 14.8209L21.2394 16.0695ZM20.5108 13.0932C20.5108 12.9895 20.5108 12.9063 20.5108 12.8436C20.5108 12.4273 20.2821 12.1985 19.8864 12.1985C19.4703 12.1985 19.1789 12.5108 19.054 13.0932H20.5108Z" fill="white"/>
<path fill-rule="evenodd" clip-rule="evenodd" d="M7.2533 16.1738H5.96301L6.71217 11.4491L5.02636 16.1738H4.13133L4.02736 11.4907L3.23639 16.1738H2.02936L3.04917 10.0337H4.9223L4.98473 13.8424L6.23339 10.0337H8.27311L7.2533 16.1738Z" fill="white"/>
<path fill-rule="evenodd" clip-rule="evenodd" d="M10.4792 13.9466C10.3543 13.9466 10.2919 13.9254 10.1879 13.9254C9.4594 13.9254 9.08478 14.1963 9.08478 14.6958C9.08478 15.0082 9.25128 15.1953 9.54265 15.1953C10.0839 15.1954 10.4585 14.6959 10.4792 13.9466ZM11.4366 16.1737H10.3543L10.3752 15.653C10.0422 16.0692 9.605 16.2568 9.00153 16.2568C8.294 16.2568 7.81531 15.7158 7.81531 14.9037C7.81531 13.6756 8.64771 12.9682 10.1045 12.9682C10.2502 12.9682 10.4377 12.9892 10.6457 13.0097C10.6873 12.8433 10.6873 12.7811 10.6873 12.6978C10.6873 12.3649 10.4585 12.24 9.85484 12.24C9.48021 12.24 9.06396 12.2816 8.77268 12.3649L8.58537 12.427L8.4605 12.448L8.64781 11.3242C9.2929 11.1368 9.73015 11.0742 10.2087 11.0742C11.3325 11.0742 11.9362 11.5738 11.9362 12.5313C11.9362 12.781 11.9154 12.9681 11.8322 13.5302L11.5407 15.2994L11.499 15.6113L11.4782 15.8611L11.4575 16.0485L11.4366 16.1737Z" fill="white"/>
<path fill-rule="evenodd" clip-rule="evenodd" d="M31.0837 13.9466C30.938 13.9466 30.8756 13.9254 30.7924 13.9254C30.0432 13.9254 29.6686 14.1963 29.6686 14.6958C29.6686 15.0082 29.8559 15.1953 30.1473 15.1953C30.6675 15.1954 31.0629 14.6959 31.0837 13.9466ZM32.0409 16.1737H30.9588L30.9796 15.653C30.6467 16.0692 30.2096 16.2568 29.6061 16.2568C28.8985 16.2568 28.4199 15.7158 28.4199 14.9037C28.4199 13.6756 29.2523 12.9682 30.7091 12.9682C30.8548 12.9682 31.0421 12.9892 31.2295 13.0097C31.271 12.8433 31.2919 12.7811 31.2919 12.6978C31.2919 12.3649 31.063 12.24 30.4594 12.24C30.0848 12.24 29.6479 12.2816 29.3563 12.3649L29.1899 12.427L29.065 12.448L29.2523 11.3242C29.8975 11.1368 30.3345 11.0742 30.8131 11.0742C31.937 11.0742 32.5199 11.5738 32.5199 12.5313C32.5199 12.781 32.5199 12.9681 32.4155 13.5302L32.1453 15.2994L32.1035 15.6113L32.0619 15.8611L32.041 16.0485V16.1737H32.0409Z" fill="white"/>
<path fill-rule="evenodd" clip-rule="evenodd" d="M35.5375 11.1372C35.4958 11.1372 35.4541 11.1372 35.4126 11.1372C34.9755 11.1372 34.7259 11.3453 34.3303 11.9491L34.4551 11.1788H33.2691L32.478 16.174H33.7685C34.2472 13.1145 34.3721 12.594 34.9964 12.594C35.0381 12.594 35.0381 12.594 35.0798 12.594C35.2046 11.9906 35.3711 11.5534 35.5792 11.1579L35.5375 11.1372Z" fill="white"/>
</svg>
