<svg width="65" height="64" viewBox="0 0 65 64" fill="none" xmlns="http://www.w3.org/2000/svg">
<g clip-path="url(#clip0_863_102023)">
<path d="M55.8658 24.8875C55.555 24.3912 55.2441 23.8948 54.8711 23.3985C53.8143 21.4131 52.5709 19.5518 51.141 17.8146C47.8461 13.7198 44.4268 9.68698 40.075 6.64687C39.6399 6.33666 39.1425 6.15053 38.6452 6.08849C35.1016 3.54473 30.2524 1.12505 26.8953 4.47537C26.2115 5.15784 25.7763 6.02644 25.5276 6.95709C22.9787 9.99719 24.2843 14.5884 25.652 18.0628C25.7763 18.373 25.9006 18.6832 26.025 18.9934C25.7141 19.3657 25.4655 19.7379 25.3411 20.2343C24.4708 22.9642 23.1031 25.4459 21.3002 27.6174C19.5595 29.6648 17.4457 30.9677 16.6375 33.5735C16.5754 33.6976 16.5754 33.8217 16.5754 33.9458C12.3479 36.4275 16.2024 41.9493 18.4404 44.6172C19.8081 46.2303 21.6732 47.8434 23.8491 48.1536C26.2115 48.5259 27.144 47.223 28.5117 45.6719C31.931 41.8252 37.464 41.1427 42.2509 40.4603C42.5618 40.3982 42.8726 40.3362 43.1213 40.2121C44.0538 40.4603 44.9863 40.5223 45.9189 40.3362C48.4056 41.0807 50.9545 41.515 53.1926 41.0187C54.1873 40.8325 55.1198 40.3362 55.8036 39.6537C57.1714 39.5917 58.2904 38.661 58.6012 37.3581C60.0311 32.7669 58.2904 28.6101 55.8658 24.8875Z" fill="#E1EFEF"/>
<path d="M27.5073 48.3833C27.3793 48.3833 27.2513 48.4473 27.1233 48.4473C26.6113 48.4473 26.2273 48.4473 25.8433 48.4473C25.2033 48.4473 24.5633 48.7033 24.0513 49.0233C23.9233 49.0233 23.7953 48.9593 23.6673 48.9593C23.1553 47.7433 22.2593 46.7193 21.1073 46.0793C19.7633 45.3113 17.5873 44.9273 16.6913 43.5833C16.5633 43.1993 16.3713 42.7513 16.1793 42.4313C16.1153 42.3033 16.0513 42.1753 15.9873 41.9833C15.7953 41.5993 15.6033 41.2153 15.2833 40.8953C15.4113 38.5913 12.9153 36.1593 10.2273 37.5673C6.57926 39.4873 4.65926 44.4153 4.91526 48.3833C5.17126 52.7993 9.13926 56.3193 13.1713 56.9593C15.3473 57.3433 18.6753 56.5113 21.1073 54.9113C21.5553 55.2953 22.0033 55.4873 22.5793 55.6153C24.4993 55.9993 26.4193 56.7033 28.0833 57.6633C29.6193 58.5593 30.8353 60.0313 32.5633 60.7353C34.8033 61.6313 37.8753 60.4153 39.7313 58.6233C40.4993 58.4953 41.0753 57.9193 41.3313 57.2153C44.3393 49.4073 32.7553 47.6153 27.5073 48.3833Z" fill="#1DD6D0"/>
<path d="M46.8995 19.9025C45.4275 17.8545 42.4835 16.2545 40.1155 17.4705C39.8595 17.4065 39.5395 17.4065 39.2835 17.4065C38.5155 17.4065 37.8115 17.7905 37.4275 18.4945C36.4035 20.6065 38.1955 22.9105 39.4755 24.5105C40.3075 25.5985 41.6515 27.4545 43.1875 28.1585C43.2515 28.2225 43.2515 28.2865 43.3155 28.3505C44.0835 29.1185 45.6195 29.2465 46.3235 28.3505C48.2435 25.8545 48.7555 22.5265 46.8995 19.9025Z" fill="#1DD6D0"/>
<path d="M24.9471 26.4308C23.7951 30.3988 21.4271 33.9188 18.2271 36.4788C17.0111 37.4388 18.7391 39.1668 19.9551 38.2068C23.4751 35.3268 26.0351 31.4868 27.3151 27.0708C27.7631 25.5988 25.3951 24.8948 24.9471 26.4308Z" fill="white"/>
<path d="M32.1795 18.7505C31.2194 17.2785 30.3875 15.7425 29.5555 14.2065C28.8515 12.7985 26.7394 14.0145 27.4434 15.4225C28.2114 16.9585 29.1075 18.4945 30.0675 19.9665C30.9635 21.3105 33.0754 20.0945 32.1795 18.7505Z" fill="white"/>
<path d="M56.3077 31.3583C55.6037 30.3983 54.9637 29.3103 54.4517 28.2223C54.1317 27.6463 53.3637 27.4543 52.7877 27.7743C52.2117 28.0943 52.0197 28.8623 52.3397 29.4383C52.8517 30.5263 53.4917 31.5503 54.1957 32.5743C54.5157 33.1503 55.2837 33.3423 55.8597 33.0223C56.4997 32.6383 56.6917 31.9343 56.3077 31.3583Z" fill="white"/>
<path d="M10.5468 41.8552C8.3708 43.8392 7.0908 46.7192 8.0508 49.6632C8.5628 51.1352 10.9308 50.4952 10.4188 49.0232C9.7148 46.8472 10.6748 44.9912 12.2748 43.5832C13.4268 42.5592 11.6988 40.8312 10.5468 41.8552Z" fill="white"/>
<path d="M46.963 41.3424C47.731 41.3424 48.499 41.4064 49.203 41.5344C50.483 41.7904 51.763 41.9824 53.043 42.0464C53.939 42.0464 54.899 41.9184 55.795 41.5984C56.499 41.3424 57.139 41.0864 57.779 40.7024C58.867 40.0624 59.763 39.1664 60.403 38.0784C60.851 37.1824 61.107 36.2224 61.107 35.2624C61.043 33.9184 60.787 32.5744 60.211 31.2944C59.699 29.9504 58.995 28.6704 58.291 27.4544C55.027 21.8864 49.779 15.6144 44.467 10.6864C41.971 8.31842 39.347 6.27042 36.531 4.47842C35.379 3.77442 34.163 3.13442 32.883 2.68642C31.859 2.23842 30.707 2.04642 29.619 1.98242C28.723 1.98242 27.763 2.23842 26.995 2.68642C26.355 3.13442 25.779 3.77442 25.395 4.47842C25.075 5.05442 24.755 5.69442 24.499 6.39842C23.859 7.99842 23.539 9.66242 23.539 11.3904C23.539 12.4784 23.667 13.5664 23.859 14.6544C24.051 15.5504 24.243 16.3184 24.307 16.7024C24.435 17.2144 24.499 17.7264 24.499 18.3024C24.499 20.0304 23.987 22.2704 22.259 25.1504C20.659 27.9024 18.035 31.2304 14.003 35.1984C13.811 35.1984 13.683 35.1984 13.555 35.2624C11.891 36.0304 10.291 37.0544 8.94701 38.2704C7.73101 39.2944 6.70701 40.5104 5.87501 41.8544C4.91501 43.3904 4.33901 45.1184 4.14701 46.9104C4.14701 47.1664 4.08301 47.6144 4.08301 48.1904C4.08301 49.1504 4.21101 50.1104 4.46701 51.0064C4.78701 52.2224 5.36301 53.3744 6.13101 54.3344C7.09101 55.5504 8.43501 56.4464 9.84301 56.9584C11.251 57.4704 12.723 57.7264 14.195 57.7264C15.731 57.7264 17.267 57.4704 18.739 57.0224C20.019 56.5744 21.171 55.9984 22.259 55.1664C26.291 56.4464 30.003 58.6224 33.075 61.5024C33.267 61.6944 33.523 61.8864 33.779 62.0784C34.099 62.3344 34.483 62.4624 34.867 62.4624H34.931C35.187 62.4624 35.507 62.3984 35.763 62.2704C35.955 62.2064 36.147 62.0784 36.339 62.0144C37.619 61.3104 38.835 60.5424 40.051 59.7104C40.499 59.3904 40.947 59.0704 41.331 58.6864C41.779 58.2384 42.099 57.7264 42.291 57.1504C42.355 56.8944 42.419 56.5744 42.419 56.2544C42.419 55.3584 42.099 54.5264 41.523 53.8224C40.883 53.0544 40.051 52.4144 39.155 51.9664C35.763 50.1104 31.923 49.1504 28.019 49.1504C27.699 49.1504 27.379 49.1504 27.059 49.1504C32.755 44.0944 37.619 42.8144 39.859 42.3664C43.059 41.7264 45.107 41.3424 46.963 41.3424ZM32.243 4.41442C34.419 5.31042 36.467 6.52642 38.323 7.93442C44.915 12.8624 52.531 21.3104 56.691 28.3504C57.395 29.5024 57.971 30.6544 58.483 31.9344C58.931 32.9584 59.187 34.1104 59.251 35.1984C59.251 35.9024 59.123 36.5424 58.803 37.1824C58.675 37.3744 58.611 37.5664 58.483 37.6944C58.419 37.6944 58.291 37.6304 58.227 37.6304C58.099 37.6304 58.035 37.6304 57.907 37.6944C57.843 37.6944 57.779 37.7584 57.715 37.8224C53.875 35.3264 50.227 32.5104 46.899 29.4384C47.347 28.3504 47.859 27.1984 48.307 26.1104C48.435 25.7904 48.563 25.4064 48.563 25.0864C48.563 25.0224 48.563 24.9584 48.563 24.8944C48.499 24.5104 48.371 24.1904 48.179 23.8704C46.835 21.5664 45.043 19.5184 42.995 17.8544C42.803 17.6624 42.547 17.5344 42.291 17.3424C41.971 17.1504 41.651 17.0224 41.331 16.9584C41.139 16.8944 40.947 16.8944 40.755 16.8944C40.371 16.8944 39.923 16.9584 39.539 17.0864L36.595 17.7904C36.531 17.7904 36.467 17.8544 36.403 17.8544C33.203 13.6304 30.451 9.08642 28.147 4.28642C28.147 4.28642 28.211 4.28642 28.211 4.22242C28.723 3.90242 29.235 3.77442 29.811 3.77442C30.515 3.83842 31.411 4.03042 32.243 4.41442ZM43.635 21.0544C44.019 21.4384 44.403 21.8864 44.723 22.2704C44.659 22.2704 44.659 22.3344 44.595 22.3344C44.467 22.3984 44.339 22.3984 44.211 22.4624H44.147C44.019 22.4624 43.955 22.3344 43.827 22.2704C43.699 22.1424 43.635 21.9504 43.635 21.7584C43.635 21.6944 43.635 21.5664 43.635 21.5024C43.571 21.3104 43.571 21.1824 43.635 21.0544ZM42.419 23.3584C42.739 23.8064 43.251 24.0624 43.763 24.1904C43.891 24.1904 44.083 24.2544 44.211 24.2544C44.595 24.2544 44.979 24.1904 45.299 23.9984C45.491 23.9344 45.619 23.8704 45.811 23.7424C46.003 24.0624 46.259 24.3824 46.451 24.7664C46.515 24.8304 46.515 24.8944 46.579 24.9584V25.0224V25.0864C46.579 25.1504 46.515 25.2784 46.451 25.3424L45.299 28.0944C42.483 25.4064 39.859 22.5264 37.427 19.4544L39.795 18.9424C40.051 18.8784 40.307 18.8144 40.627 18.8144C40.691 18.8144 40.755 18.8144 40.819 18.8144C40.947 18.8144 41.075 18.8784 41.203 18.9424C41.395 19.0704 41.523 19.1344 41.715 19.2624C41.843 19.3904 42.035 19.5184 42.163 19.6464C41.971 20.2224 41.843 20.8624 41.779 21.5024C41.779 21.6944 41.779 21.8864 41.843 22.0784C41.907 22.5264 42.099 22.9744 42.419 23.3584ZM26.163 7.10242C26.355 6.71842 26.483 6.33442 26.675 5.95042C33.459 19.5184 43.763 31.0384 56.499 39.2944C56.051 39.5504 55.667 39.7424 55.219 39.8704C54.515 40.1264 53.811 40.2544 53.107 40.2544C51.955 40.1904 50.739 39.9984 49.587 39.7424C49.139 39.6784 48.755 39.6144 48.307 39.5504C48.243 39.4864 48.115 39.4224 48.051 39.3584C38.643 34.5584 31.091 26.8144 26.419 17.3424C26.355 17.2784 26.355 17.2144 26.291 17.1504C26.227 16.8304 26.227 16.5744 26.163 16.2544C26.035 15.7424 25.843 15.1024 25.715 14.2704C25.523 13.3104 25.459 12.3504 25.395 11.3904C25.331 9.85442 25.587 8.44642 26.163 7.10242ZM24.947 48.5104C24.243 48.1264 23.539 47.8064 22.899 47.3584C22.323 46.9744 21.811 46.6544 21.363 46.3344C20.531 45.6944 19.699 44.9904 18.995 44.2864C16.947 42.1744 15.539 39.6144 14.899 36.7344C19.251 32.5104 22.003 28.9904 23.795 25.9824C24.819 24.3184 25.587 22.4624 26.035 20.5424C30.451 28.4144 36.915 35.0064 44.787 39.6144C43.315 39.8064 41.651 40.1264 39.475 40.5104C36.851 41.0224 31.283 42.5584 24.947 48.5104ZM5.87501 47.0384C6.00301 45.5024 6.51501 44.0304 7.34701 42.7504C8.43501 41.0864 9.84301 39.6144 11.507 38.4624C12.083 38.0784 12.595 37.6944 13.235 37.3744C14.003 40.4464 15.539 43.2624 17.715 45.5024C19.635 47.4224 21.811 49.0224 24.243 50.1744C23.795 50.8784 23.283 51.5184 22.771 52.0944C21.491 53.5024 19.891 54.5904 18.099 55.1664C16.819 55.6144 15.475 55.8064 14.131 55.8064C12.851 55.8064 11.635 55.6144 10.419 55.1664C9.26701 54.7184 8.24301 54.0144 7.47501 53.0544C6.83501 52.2864 6.38701 51.3904 6.13101 50.4304C5.93901 49.6624 5.81101 48.8304 5.81101 48.0624C5.81101 47.6144 5.81101 47.2304 5.87501 47.0384ZM38.131 53.5664C38.835 53.8864 39.411 54.3344 39.923 54.9104C40.243 55.2944 40.371 55.7424 40.435 56.1904C40.435 56.3184 40.435 56.4464 40.371 56.5744C40.243 56.8944 40.115 57.1504 39.859 57.3424C39.539 57.6624 39.219 57.9184 38.899 58.1104C37.747 58.8784 36.531 59.6464 35.315 60.3504C35.187 60.4144 35.123 60.4784 34.995 60.5424C34.931 60.5424 34.931 60.6064 34.867 60.6064C34.803 60.6064 34.739 60.5424 34.675 60.5424C34.547 60.4144 34.355 60.2864 34.227 60.1584C31.219 57.3424 27.635 55.1664 23.731 53.7584C23.859 53.6304 23.987 53.5024 24.051 53.3744C24.691 52.6704 25.331 51.9024 25.843 51.0064C26.547 50.9424 27.187 50.8784 27.891 50.8784C31.475 50.9424 34.995 51.8384 38.131 53.5664Z" fill="black"/>
</g>
<defs>
<clipPath id="clip0_863_102023">
<rect width="64" height="64" fill="white" transform="translate(0.5)"/>
</clipPath>
</defs>
</svg>
