<svg width="42" height="12" viewBox="0 0 42 12" fill="none" xmlns="http://www.w3.org/2000/svg">
<path d="M32.362 2.31686C31.3511 2.31686 30.5515 2.58517 29.9402 2.70733L29.7517 4.24408C30.0576 4.09764 31.0216 3.82951 31.8214 3.80495C32.6209 3.78048 33.0911 3.95111 32.9268 4.63436C30.5515 4.63436 28.9521 5.12205 28.623 6.65917C28.1523 9.29392 31.0456 9.22061 32.1977 8.07405L32.0564 8.70845H34.1729L35.0904 4.51248C35.4663 2.73133 33.8436 2.29258 32.362 2.31686ZM32.5031 6.61023C32.3856 7.17105 31.939 7.41545 31.3982 7.44011C30.9279 7.46411 30.5043 7.04917 30.8102 6.56158C31.0458 6.14701 31.7041 6.04923 32.1038 6.04923C32.2682 6.04923 32.4572 6.04923 32.6212 6.04923C32.5737 6.24442 32.5497 6.41542 32.5031 6.61023Z" fill="#107DB0"/>
<path d="M36.9008 0.657715L35.1498 8.7084H37.2998L39.0725 0.657715H36.9008Z" fill="#107DB0"/>
<path d="M27.0231 0.682617H23.0871L21.3428 8.70856H23.6291L24.2185 6.04952H25.8451C27.4476 6.04952 28.7676 5.07377 29.1214 3.41477C29.5215 1.53649 28.1545 0.682617 27.0231 0.682617ZM26.9528 3.41477C26.811 4.02471 26.1981 4.51259 25.6086 4.51259H24.5482L25.0198 2.31715H26.151C26.7407 2.31715 27.0941 2.80502 26.9528 3.41477Z" fill="#107DB0"/>
<path d="M11.7489 2.31686C10.75 2.31686 9.9599 2.58517 9.37922 2.70733L9.1935 4.24408C9.47222 4.09764 10.425 3.82951 11.2145 3.80495C12.0045 3.78048 12.4692 3.95111 12.3296 4.63436C9.98343 4.63436 8.40375 5.12205 8.07843 6.65917C7.61362 9.29392 10.471 9.22061 11.586 8.07405L11.4469 8.70845H13.5609L14.4668 4.51248C14.8386 2.73133 13.2122 2.29258 11.7489 2.31686ZM11.9113 6.61023C11.7952 7.17105 11.3305 7.41545 10.7962 7.44011C10.3315 7.46411 9.93675 7.04917 10.2387 6.56158C10.4709 6.14701 11.1214 6.04923 11.4932 6.04923C11.6791 6.04923 11.8415 6.04923 12.0275 6.04923C11.9812 6.24442 11.9347 6.41542 11.9113 6.61023Z" fill="#1B557D"/>
<path d="M15.3878 2.43213H17.5016L17.8427 6.17003L19.9111 2.43213H22.0925L17.0698 11.3778H14.706L16.2512 8.74769L15.3878 2.43213Z" fill="#1B557D"/>
<path d="M6.49096 0.682617H2.54455L0.795929 8.70856H3.11202L3.67902 6.04952H5.33296C6.91621 6.04952 8.23977 5.07377 8.59405 3.41477C8.99559 1.53649 7.64877 0.682617 6.49096 0.682617ZM6.41999 3.41477C6.27824 4.02471 5.68752 4.51259 5.09671 4.51259H4.00968L4.50599 2.31715H5.64018C6.20755 2.31715 6.58546 2.80502 6.41999 3.41477Z" fill="#1B557D"/>
<path d="M39.5366 1.69823V0.749196H39.1825V0.62207H40.0357V0.749196H39.6797V1.69823H39.5366Z" fill="#1B557D"/>
<path d="M40.1768 1.69823V0.62207H40.3899L40.6453 1.38379C40.6689 1.45466 40.686 1.50773 40.6968 1.54298C40.7092 1.50388 40.7284 1.44641 40.7541 1.37057L41.0124 0.62207H41.2041V1.69823H41.0671V0.797289L40.7529 1.69823H40.6248L40.3137 0.782571V1.69823H40.1768Z" fill="#1B557D"/>
</svg>
