<svg width="24" height="25" viewBox="0 0 24 25" fill="none" xmlns="http://www.w3.org/2000/svg">
<g clip-path="url(#clip0_675_67791)">
<path d="M16.9605 16.6435C15.8106 16.6435 14.7745 17.14 14.0555 17.93L7.58806 13.9244C7.76562 13.4705 7.85666 12.9874 7.85647 12.5C7.85669 12.0126 7.76565 11.5295 7.58806 11.0756L14.0555 7.0698C14.7746 7.85974 15.8106 8.35652 16.9605 8.35652C19.1266 8.35652 20.8888 6.5943 20.8888 4.42816C20.8888 2.26203 19.1266 0.5 16.9605 0.5C14.7944 0.5 13.0322 2.26222 13.0322 4.42835C13.0321 4.91571 13.1231 5.39879 13.3006 5.85269L6.83328 9.85834C6.11422 9.06841 5.07824 8.57162 3.92835 8.57162C1.76222 8.57162 0 10.334 0 12.5C0 14.6661 1.76222 16.4283 3.92835 16.4283C5.07819 16.4283 6.11427 15.9317 6.83328 15.1416L13.3006 19.1473C13.1231 19.6012 13.0321 20.0844 13.0322 20.5718C13.0322 22.7377 14.7943 24.5 16.9605 24.5C19.1266 24.5 20.8888 22.7377 20.8888 20.5718C20.8888 18.4057 19.1266 16.6435 16.9605 16.6435ZM14.4646 4.42835C14.4646 3.0521 15.5843 1.93245 16.9605 1.93245C18.3367 1.93245 19.4564 3.0521 19.4564 4.42835C19.4564 5.8046 18.3367 6.92425 16.9605 6.92425C15.5842 6.92425 14.4646 5.80455 14.4646 4.42835ZM3.92835 14.9959C2.55192 14.9959 1.43226 13.8762 1.43226 12.5C1.43226 11.1238 2.55192 10.0041 3.92835 10.0041C5.3046 10.0041 6.42406 11.1238 6.42406 12.5C6.42406 13.8762 5.30455 14.9959 3.92835 14.9959ZM14.4646 20.5716C14.4646 19.1954 15.5843 18.0757 16.9605 18.0757C18.3367 18.0757 19.4564 19.1954 19.4564 20.5716C19.4564 21.9478 18.3367 23.0675 16.9605 23.0675C15.5842 23.0675 14.4646 21.9478 14.4646 20.5716V20.5716Z" fill="#4E918F"/>
</g>
<defs>
<clipPath id="clip0_675_67791">
<rect width="24" height="24" fill="white" transform="translate(0 0.5)"/>
</clipPath>
</defs>
</svg>
