<svg width="32" height="32" viewBox="0 0 32 32" fill="none" xmlns="http://www.w3.org/2000/svg">
<path d="M13.7555 12.0588C13.7378 12.0589 13.7206 12.0524 13.7074 12.0406C13.6942 12.0287 13.6859 12.0124 13.6841 11.9948L13.5446 10.6794L11.7589 10.8931C11.6715 10.9102 11.6435 10.7622 11.7418 10.7514C13.5841 10.5388 13.6652 10.4731 13.6789 10.5919L13.8263 11.9794C13.8274 11.9887 13.8266 11.9982 13.8239 12.0072C13.8213 12.0162 13.8169 12.0246 13.811 12.032C13.8051 12.0393 13.7978 12.0454 13.7896 12.0499C13.7813 12.0544 13.7723 12.0572 13.7629 12.0582L13.7555 12.0588Z" fill="#19345D"/>
<path d="M17.97 15.1327C17.9527 15.1248 17.9392 15.1104 17.9324 15.0927C17.9257 15.0749 17.9262 15.0552 17.934 15.0378L18.6054 13.5555C18.6134 13.5385 18.6277 13.5252 18.6453 13.5184C18.6628 13.5117 18.6824 13.5121 18.6997 13.5195C18.7357 13.5367 18.7517 13.5784 18.7351 13.6144C18.0374 15.1149 18.0808 15.1778 17.9694 15.1327H17.97Z" fill="black"/>
<path d="M25.4474 19.6416C27.412 20.6302 27.3994 20.5399 28.2309 20.6542C29.0172 20.7616 28.96 20.8667 29.0817 20.8485C29.1297 20.8405 29.1732 20.8142 29.2212 20.8039C29.3829 20.7685 29.6069 20.9376 29.6737 21.0765C29.7286 21.1896 29.7194 21.3239 29.6926 21.4467C29.4817 22.4285 27.96 23.5467 26.0126 23.2456C25.2709 23.1313 24.6966 22.7827 24.0926 22.3513C21.6069 20.577 19.1543 18.7433 16.5657 17.1285C13.4183 15.153 8.31373 12.1787 7.92973 11.6656C7.47259 11.0547 8.01373 10.4679 8.65145 10.4233C9.52802 10.3622 10.1732 11.1433 10.8743 11.549C12.94 12.7445 24.1194 18.973 25.4474 19.6416Z" fill="#19345D"/>
<path d="M29.0394 22.2119C28.2291 22.8296 27.148 23.037 26.1594 22.8873C25.4166 22.7719 24.8417 22.4245 24.2388 21.9902C21.7537 20.2193 19.3028 18.3856 16.7114 16.7696C13.5343 14.7742 8.47256 11.8313 8.07484 11.3073C7.61484 10.6856 8.1777 10.0576 8.90456 10.0576C9.7297 10.0673 10.3474 10.7959 11.0228 11.1913C11.9828 11.7468 12.9428 12.2919 13.9177 12.8273C22.156 17.3879 25.9903 19.6719 27.544 20.1565C28.1823 20.3525 29.5566 20.2068 29.696 21.1119C29.7634 21.5702 29.3628 21.9662 29.0394 22.2119Z" fill="#095DA4"/>
<path d="M29.5764 20.7982C29.0987 21.2085 28.4564 21.4399 27.825 21.5079C26.1118 21.6862 24.4764 20.8319 22.9804 19.9685C18.8935 17.6085 14.9564 15.0033 11.0193 12.4028C10.4787 12.0456 9.93812 11.6839 9.45583 11.2542C9.09583 10.9228 8.76669 10.5256 8.90555 10.0576C9.73069 10.0673 10.3484 10.7959 11.0238 11.1913C11.9838 11.7468 12.9438 12.2919 13.9187 12.8273C22.157 17.3879 25.9913 19.6719 27.545 20.1565C28.0953 20.3256 29.1953 20.2388 29.5764 20.7982Z" fill="#28B6F4"/>
<path d="M11.8012 11.7207C11.2926 12.2516 11.5869 11.975 11.1109 12.2607C11.0109 12.3207 10.9309 12.3767 10.8709 12.5464C10.8263 12.6721 10.7537 12.8818 10.8972 12.9676L12.944 14.1904C12.9757 14.2092 13.0126 14.2173 13.0492 14.2135C13.0859 14.2097 13.1203 14.1942 13.1474 14.1693L14.2463 13.1664C14.2579 13.1558 14.2669 13.1425 14.2723 13.1276C14.2778 13.1128 14.2796 13.0969 14.2776 13.0813C14.2757 13.0656 14.27 13.0506 14.2611 13.0376C14.2521 13.0246 14.2402 13.0139 14.2263 13.0064L11.8012 11.7207Z" fill="#E2212E"/>
<path d="M11.8995 11.3955L10.96 12.3767C10.9421 12.3953 10.9286 12.4177 10.9206 12.4423C10.9126 12.4668 10.9102 12.4929 10.9137 12.5185C10.9171 12.5441 10.9263 12.5686 10.9406 12.5902C10.9549 12.6117 10.9738 12.6297 10.996 12.6429L13.0429 13.8658C13.0746 13.8846 13.1115 13.8927 13.1481 13.8889C13.1847 13.8851 13.2192 13.8696 13.2463 13.8447L14.4486 12.7475L11.8995 11.3955Z" fill="#F72F43"/>
<path d="M15.5223 14.0176C15.2806 14.2701 15.3417 14.2507 15.0937 14.3581C14.9075 14.4381 14.7252 14.5444 14.6292 14.725C14.5777 14.8216 14.5577 14.9301 14.5435 15.037C14.5309 15.1301 14.5286 15.2107 14.6183 15.265L16.6652 16.4879C16.6969 16.5068 16.7339 16.515 16.7707 16.5112C16.8074 16.5074 16.842 16.4918 16.8692 16.4667L17.968 15.4639C17.9797 15.4532 17.9885 15.4398 17.9939 15.425C17.9994 15.4101 18.0011 15.3942 17.9991 15.3785C17.9971 15.3629 17.9913 15.3479 17.9824 15.3349C17.9734 15.3219 17.9614 15.3113 17.9475 15.3039L15.5223 14.0176Z" fill="#E2212E"/>
<path d="M15.6293 13.6367L14.6899 14.6179C14.6721 14.6365 14.6587 14.6589 14.6507 14.6834C14.6428 14.7079 14.6404 14.7339 14.6439 14.7594C14.6473 14.7849 14.6565 14.8093 14.6707 14.8308C14.6849 14.8523 14.7038 14.8704 14.7259 14.8836L16.7728 16.1064C16.8044 16.1253 16.8412 16.1335 16.8779 16.1298C16.9145 16.1261 16.949 16.1107 16.9762 16.0859L18.1785 14.9887L15.6293 13.6367Z" fill="#F72F43"/>
<path d="M18.4733 15.0911C17.6636 15.7785 15.9031 15.5111 15.1728 14.8597C14.7419 14.4728 14.5408 13.8745 14.2025 13.4557C13.5539 12.6117 13.7071 13.5557 13.1751 13.2431C12.7419 13.014 12.5105 12.8905 12.3453 12.7705C12.2471 12.7014 11.7139 12.3408 11.6408 12.1574C11.6408 12.1528 11.6356 12.1528 11.6356 12.1477C11.5653 11.9871 11.6939 11.8043 11.7613 11.6608C11.8922 11.37 11.8196 11.2483 11.8773 11.0574C11.9111 10.9563 11.9882 10.8643 12.0893 10.8643L18.3522 13.9814C18.4293 14.2128 18.5065 14.4443 18.5888 14.6717C18.6488 14.8511 18.6516 14.9385 18.4728 15.0911H18.4733Z" fill="black"/>
<path d="M18.6223 14.8012C18.6458 14.9178 18.5618 15.0144 18.4726 15.0904C17.6635 15.7778 15.9029 15.5104 15.1726 14.8589C14.7418 14.4721 14.5406 13.8738 14.2023 13.4549C13.5538 12.6109 13.7069 13.5549 13.1749 13.2424C12.7418 13.0132 12.5103 12.8898 12.3452 12.7698C12.2469 12.7006 11.7138 12.3401 11.6406 12.1566C11.6601 12.0698 11.7178 11.9829 11.8046 11.9544C11.8538 11.9423 11.9052 11.9423 11.9543 11.9544C12.3109 12.0121 12.5961 12.2772 12.9001 12.4704C13.1989 12.6635 13.5561 12.7744 13.8258 13.0012C14.4041 13.4858 14.9903 14.6189 16.3063 15.1001C17.2103 15.4389 18.1355 15.2429 18.6223 14.8012Z" fill="#19345D"/>
<path d="M18.6371 14.6324C18.5314 14.7626 18.2806 14.8106 18.1257 14.8592C17.5886 15.0341 17.3394 15.0649 16.7749 14.9266C16.3922 14.8368 16.0213 14.7025 15.6697 14.5266C14.4263 13.8804 14.0406 13.0106 13.7063 12.6541C13.4406 12.3792 13.0834 12.3455 12.7606 12.1666C12.4674 12.0038 12.028 11.8546 11.8486 11.4284C11.6509 10.9884 11.8674 10.4438 11.8771 9.92321V9.81236C11.904 8.41293 11.7417 7.89236 11.7811 6.95521C11.796 6.77236 11.7857 6.58093 12.0126 6.5455C12.1474 6.5215 12.2829 6.57978 12.408 6.63236C12.912 6.8335 13.2354 7.05407 13.2863 6.5215C13.2949 6.23407 13.1874 6.02721 13.5903 5.90836C13.88 5.83121 14.1886 5.84093 14.4874 5.77807C14.6034 5.7495 14.7194 5.71521 14.8354 5.7255C14.9697 5.73693 15.1051 5.83007 15.1051 5.9615V5.97121C15.1051 6.02493 15.0983 6.10893 15.1394 6.15007C15.1634 6.17864 15.1926 6.18836 15.2263 6.18836C15.3549 6.22321 15.5691 6.1255 15.5691 6.48778C15.5691 9.61521 15.4777 9.36893 15.8389 9.92778C15.9149 10.0478 16.0629 10.2386 16.0949 10.3815C16.0949 10.3861 16.0994 10.3958 16.0994 10.4009C16.1474 10.5792 16.2057 10.7529 16.2731 10.9266C16.772 12.3466 17.5131 12.1992 18.1646 12.9095C18.5029 13.2695 18.5817 13.6644 18.6714 13.9324C18.7343 14.1689 18.7914 14.4444 18.6371 14.6324Z" fill="#FF9F1C"/>
<path d="M12.9149 8.16171C12.9046 8.45313 12.7143 8.80913 12.4275 8.81771C12.2377 8.82628 11.9743 8.61771 11.8435 8.47999C11.8326 8.32342 11.7292 7.15256 11.7955 6.78628C11.8097 6.67085 11.8583 6.56913 12.0126 6.54513C12.18 6.51542 12.3075 6.59485 12.7749 6.78171C12.568 7.27885 12.9377 7.67713 12.9149 8.16171ZM18.6715 13.9326C18.4926 14.2314 18.1743 14.4343 17.8412 14.5257C17.2663 14.6903 16.3292 14.56 15.8343 14.352C14.5315 13.8148 14.3543 12.5691 13.1852 12.012C12.828 11.8428 12.408 11.7468 12.1669 11.4377C12.0657 11.312 12.0126 11.1143 12.1286 11.0034C12.3086 10.8234 12.8172 11.0263 13.1657 11.0663C14.1869 11.1868 15.1686 10.3194 16.0995 10.4006C16.1475 10.5788 16.2057 10.7526 16.2732 10.9263C16.772 12.3463 17.5132 12.1988 18.1646 12.9091C18.5029 13.2691 18.5817 13.6646 18.6715 13.9326Z" fill="#FFCA28"/>
<path d="M15.1049 5.9615V5.97121C14.9506 6.06264 14.758 6.10664 14.6135 6.21236C14.4489 6.32836 14.3575 6.51636 14.2123 6.65636C14.0632 6.80607 13.8695 6.8975 13.6672 6.96493C13.2066 7.11921 13.1117 7.03464 12.3455 6.78664C12.1523 6.72493 11.962 6.6655 11.7952 6.78664C11.8095 6.67578 11.858 6.57464 12.0026 6.55007C12.0077 6.5455 12.0077 6.5455 12.0123 6.5455C12.3323 6.48836 12.9495 6.99864 13.1849 6.80607C13.2666 6.74321 13.2763 6.62321 13.286 6.5215C13.2946 6.23407 13.1872 6.02721 13.59 5.90836C13.9043 5.82436 14.2557 5.83636 14.4872 5.77807C14.6032 5.7495 14.7192 5.71521 14.8352 5.7255C14.9695 5.73693 15.1049 5.83007 15.1049 5.9615Z" fill="#19345D"/>
<path d="M15.4484 10.3528C15.2456 10.3288 15.0336 10.3677 14.8359 10.4299C14.3021 10.6014 14.0364 10.8397 13.1181 10.8259C12.5507 10.7968 12.2559 10.6951 11.8781 9.81738C11.8821 9.25738 11.8947 9.38709 11.8633 8.73681C12.3844 9.10138 12.4416 9.37109 12.6593 9.40709C12.8044 9.42995 12.9976 9.31966 13.065 9.06995C13.129 8.78195 13.0141 8.03566 12.9679 7.68938C12.9541 7.56938 12.9347 7.44366 12.8816 7.33738C12.853 7.27452 12.8141 7.20709 12.8427 7.14424C12.893 7.05624 13.1816 6.98709 13.2821 6.97052C13.4627 6.94252 13.4821 6.94938 13.6393 6.82081C14.3536 6.20538 14.2627 5.62252 15.0193 5.89509C15.0433 5.90423 15.1056 5.93624 15.1056 5.96195C15.1056 5.99166 15.101 6.07338 15.1153 6.10195C15.1096 6.21281 15.0679 6.28766 15.0913 7.02366C15.1919 9.96824 15.1644 9.04252 15.5884 10.1745C15.617 10.266 15.545 10.3631 15.4484 10.3528Z" fill="#E2212E"/>
<path d="M16.0466 10.2559C16.005 10.2632 15.9624 10.2632 15.9208 10.2559C15.7946 10.2433 15.746 10.1856 15.6894 10.073C15.0254 8.87019 15.3563 8.52105 15.2746 7.05705C15.2562 6.76766 15.2402 6.47813 15.2266 6.18848C15.3054 6.21019 15.3397 6.18276 15.4437 6.21705H15.4483C15.6151 6.28276 15.5643 6.47076 15.5643 7.01362V8.37933C15.5643 9.51991 15.5066 9.42676 15.9597 10.1068C15.9883 10.1548 16.0226 10.2028 16.0466 10.2559Z" fill="#E2212E"/>
<path d="M16.3133 15.6898C16.3043 15.6868 16.296 15.682 16.2889 15.6758C16.2818 15.6695 16.276 15.6619 16.2718 15.6534C16.2677 15.6449 16.2653 15.6357 16.2647 15.6262C16.2642 15.6168 16.2655 15.6073 16.2687 15.5984C16.747 14.2355 16.7075 14.2504 16.7675 14.227L18.6458 13.5184C18.6635 13.5121 18.6829 13.5129 18.7 13.5207C18.7171 13.5285 18.7305 13.5426 18.7373 13.5601C18.7438 13.5777 18.7431 13.5972 18.7354 13.6143C18.7277 13.6314 18.7136 13.6448 18.6961 13.6515L16.8493 14.3487C16.3875 15.6327 16.4293 15.7327 16.3133 15.6898ZM11.8555 12.8887C11.8373 12.8886 11.8198 12.8816 11.8065 12.869C11.7933 12.8565 11.7853 12.8395 11.7841 12.8213L11.6778 10.8258C11.6769 10.807 11.6835 10.7885 11.6961 10.7745C11.7087 10.7605 11.7264 10.752 11.7453 10.751H11.7493C11.787 10.751 11.8184 10.7801 11.8207 10.8184L11.927 12.8127C11.9276 12.8221 11.9263 12.8316 11.9233 12.8405C11.9202 12.8495 11.9154 12.8577 11.9091 12.8648C11.9028 12.8718 11.8952 12.8776 11.8867 12.8817C11.8782 12.8858 11.869 12.8882 11.8595 12.8887H11.8555Z" fill="black"/>
<path d="M16.5984 13.4605C16.5361 13.4605 16.4763 13.4357 16.4322 13.3916C16.3881 13.3476 16.3633 13.2877 16.3633 13.2254C16.3633 13.163 16.3881 13.1032 16.4322 13.0591C16.4763 13.015 16.5361 12.9902 16.5984 12.9902C16.6608 12.9902 16.7206 13.015 16.7647 13.0591C16.8088 13.1032 16.8336 13.163 16.8336 13.2254C16.8336 13.2877 16.8088 13.3476 16.7647 13.3916C16.7206 13.4357 16.6608 13.4605 16.5984 13.4605ZM16.5984 13.0474C16.5511 13.0474 16.5058 13.0662 16.4724 13.0996C16.4389 13.133 16.4201 13.1784 16.4201 13.2257C16.4201 13.2729 16.4389 13.3183 16.4724 13.3517C16.5058 13.3852 16.5511 13.4039 16.5984 13.4039C16.6457 13.4039 16.6911 13.3852 16.7245 13.3517C16.7579 13.3183 16.7767 13.2729 16.7767 13.2257C16.7767 13.1784 16.7579 13.133 16.7245 13.0996C16.6911 13.0662 16.6457 13.0474 16.5984 13.0474Z" fill="#095DA4"/>
<path d="M16.3179 13.8067C16.4849 13.8067 16.6202 13.6714 16.6202 13.5044C16.6202 13.3375 16.4849 13.2021 16.3179 13.2021C16.151 13.2021 16.0156 13.3375 16.0156 13.5044C16.0156 13.6714 16.151 13.8067 16.3179 13.8067Z" fill="#19345D"/>
<path d="M15.7626 12.7607C15.7053 12.7442 15.6563 12.7066 15.6255 12.6554C15.5948 12.6042 15.5845 12.5433 15.5969 12.4849C15.6093 12.4265 15.6434 12.3749 15.6923 12.3406C15.7412 12.3064 15.8012 12.2919 15.8604 12.3001C15.9177 12.3166 15.9668 12.3542 15.9975 12.4054C16.0283 12.4566 16.0385 12.5175 16.0261 12.5759C16.0137 12.6343 15.9796 12.6859 15.9307 12.7202C15.8818 12.7544 15.8218 12.7689 15.7626 12.7607ZM15.6369 12.4933C15.6273 12.5395 15.6363 12.5876 15.6619 12.6272C15.6876 12.6668 15.7279 12.6947 15.7741 12.7047C15.8197 12.7129 15.8667 12.7031 15.9051 12.6773C15.9436 12.6515 15.9705 12.6117 15.9802 12.5664C15.9898 12.5211 15.9815 12.4738 15.9569 12.4346C15.9323 12.3953 15.8933 12.3672 15.8484 12.3561C15.8364 12.3533 15.6586 12.3938 15.6369 12.4933Z" fill="#095DA4"/>
<path d="M15.4781 13.047C15.645 13.047 15.7804 12.9116 15.7804 12.7447C15.7804 12.5777 15.645 12.4424 15.4781 12.4424C15.3111 12.4424 15.1758 12.5777 15.1758 12.7447C15.1758 12.9116 15.3111 13.047 15.4781 13.047Z" fill="#19345D"/>
<path d="M15.0969 11.959C15.0371 11.9407 14.987 11.8994 14.9576 11.8443C14.9281 11.7891 14.9217 11.7246 14.9397 11.6647C14.9587 11.6054 15.0001 11.5559 15.0551 11.5268C15.1101 11.4976 15.1743 11.4911 15.234 11.5087C15.2923 11.5281 15.3407 11.5695 15.3689 11.624C15.3971 11.6786 15.4028 11.742 15.385 11.8007C15.3671 11.8595 15.3269 11.9089 15.2731 11.9385C15.2193 11.9681 15.156 11.9754 15.0969 11.959ZM14.9946 11.6813C14.9808 11.7266 14.9857 11.7755 15.0079 11.8173C15.0302 11.8591 15.0681 11.8903 15.1134 11.9042C15.1471 11.9144 15.1831 11.9143 15.2169 11.9041C15.2506 11.8939 15.2805 11.8739 15.3028 11.8466C15.3252 11.8194 15.339 11.7861 15.3425 11.7511C15.3459 11.716 15.3389 11.6807 15.3223 11.6496C15.3058 11.6185 15.2803 11.593 15.2493 11.5764C15.2182 11.5597 15.1829 11.5527 15.1479 11.5561C15.1128 11.5594 15.0795 11.5731 15.0522 11.5954C15.025 11.6177 15.0049 11.6476 14.9946 11.6813Z" fill="#095DA4"/>
<path d="M14.814 12.2208C14.981 12.2208 15.1163 12.0854 15.1163 11.9185C15.1163 11.7515 14.981 11.6162 14.814 11.6162C14.6471 11.6162 14.5117 11.7515 14.5117 11.9185C14.5117 12.0854 14.6471 12.2208 14.814 12.2208Z" fill="#19345D"/>
<path d="M16.6429 13.1755C16.6276 13.1502 16.6227 13.1199 16.6292 13.091C16.6526 12.9561 17.0114 12.4538 17.4006 12.2967C17.4343 12.2807 17.4577 12.335 17.4223 12.3487C17.0172 12.515 16.6417 13.0687 16.6909 13.1441C16.804 13.3155 17.492 12.7224 18.0154 12.7493C18.052 12.7504 18.052 12.8064 18.0143 12.8064C18.0029 12.8018 17.9937 12.8053 17.9834 12.8053C17.4326 12.8053 16.8017 13.4167 16.6429 13.1755ZM15.968 12.5395H15.9646C15.8852 12.539 15.8366 12.5018 15.8252 12.4218C15.7657 12.0538 16.3132 11.7327 16.6857 11.6704C16.7286 11.6693 16.7292 11.7213 16.6954 11.7275C16.3526 11.7841 15.8297 12.0841 15.8812 12.4133C15.888 12.459 15.908 12.4853 15.968 12.483C16.172 12.483 16.348 12.2327 16.7366 12.1035C16.864 12.0618 16.9726 12.0544 17.0669 12.0773C17.1034 12.0864 17.0897 12.1418 17.0532 12.1327C16.9697 12.1104 16.8714 12.1195 16.7543 12.1578C16.3857 12.279 16.2029 12.5395 15.968 12.5395ZM15.2972 11.7693L15.2857 11.7687C15.2092 11.7618 15.1646 11.6893 15.1669 11.5738C15.1737 11.1978 15.8526 10.7807 16.3023 10.9807C16.3366 10.9961 16.3143 11.0481 16.2794 11.0333C15.8703 10.8498 15.2309 11.2378 15.224 11.575C15.2177 12.0281 15.8869 11.2127 16.4754 11.3561C16.5103 11.3647 16.5017 11.419 16.4617 11.4121C16.316 11.3733 16.1474 11.4007 15.9332 11.4898C15.7749 11.5573 15.732 11.5967 15.6246 11.6573C15.5354 11.7058 15.3697 11.7693 15.2972 11.7693ZM15.5434 10.0533C15.36 10.1161 15.148 10.0675 14.9549 10.111C14.6612 10.1715 14.2366 10.6058 13.348 10.555C12.4834 10.5035 12.2406 9.90697 12.4749 9.68183C12.5423 9.61383 12.6389 9.59497 12.7303 9.56069C13.492 9.2584 13.432 8.14069 13.5749 7.56354C13.7082 7.04439 14.0081 6.58329 14.4286 6.25097C14.6234 6.0984 14.8903 5.96183 15.1086 6.07726C15.1086 6.08697 15.1086 6.09154 15.1143 6.10126C15.108 6.21211 15.0663 6.28697 15.0897 7.02297C15.184 9.77783 15.1572 9.1304 15.5434 10.0533Z" fill="#F72F43"/>
<path d="M15.9596 10.1069C15.9551 10.1069 15.9453 10.1069 15.9402 10.1018C15.7476 10.0121 15.4259 9.57834 15.3905 8.86177C15.3442 8.12063 15.5276 7.6292 15.4048 6.49777C15.3905 6.38806 15.3842 6.30634 15.4436 6.21777H15.4482C15.6151 6.28292 15.5642 6.47092 15.5642 7.01377V8.37949C15.5642 9.52006 15.5065 9.42692 15.9596 10.1069Z" fill="#F72F43"/>
<path d="M14.4242 5.78809C14.2745 6.01266 13.8574 6.18866 13.6522 6.45437C13.5414 6.59894 13.4637 6.78237 13.3048 6.86923C13.0134 7.02523 12.6591 6.79494 12.4265 6.7098C12.2334 6.63723 12.1037 6.64809 12.0117 6.56523C12.0071 6.56009 12.002 6.55551 12.002 6.55037C12.0071 6.5458 12.0071 6.5458 12.0117 6.5458C12.3317 6.48866 12.9488 6.99894 13.1842 6.80637C13.266 6.74351 13.2757 6.62351 13.2854 6.5218C13.294 6.23437 13.1865 6.02751 13.5894 5.90866C13.8597 5.83666 14.1442 5.84123 14.4237 5.78866L14.4242 5.78809Z" fill="#095DA4"/>
<path d="M16.3178 13.6814C16.4156 13.6814 16.4949 13.6021 16.4949 13.5043C16.4949 13.4065 16.4156 13.3271 16.3178 13.3271C16.2199 13.3271 16.1406 13.4065 16.1406 13.5043C16.1406 13.6021 16.2199 13.6814 16.3178 13.6814Z" fill="black"/>
<path d="M15.4779 12.9217C15.5758 12.9217 15.6551 12.8424 15.6551 12.7445C15.6551 12.6467 15.5758 12.5674 15.4779 12.5674C15.3801 12.5674 15.3008 12.6467 15.3008 12.7445C15.3008 12.8424 15.3801 12.9217 15.4779 12.9217Z" fill="black"/>
<path d="M14.8119 12.0955C14.9097 12.0955 14.9891 12.0162 14.9891 11.9184C14.9891 11.8205 14.9097 11.7412 14.8119 11.7412C14.7141 11.7412 14.6348 11.8205 14.6348 11.9184C14.6348 12.0162 14.7141 12.0955 14.8119 12.0955Z" fill="black"/>
<path d="M14.0378 11.9797C14.148 11.986 14.1538 11.7511 13.9995 11.6191C13.9195 11.5506 13.7755 11.5734 13.8046 11.6997C13.8406 11.8568 13.9806 11.9763 14.0378 11.9797ZM14.1195 11.4323C14.1349 11.4014 14.1229 11.3254 14.0675 11.2774C14.028 11.2437 13.9578 11.2551 13.972 11.3168C13.9892 11.3906 14.0852 11.4991 14.1195 11.4323Z" fill="#FF9F1C"/>
<path d="M21.8903 18.555C22.0674 18.683 22.288 18.7984 22.4966 18.7339C22.5663 18.7121 22.6326 18.667 22.6571 18.599C22.7257 18.4076 22.3897 17.9161 21.8646 17.8659C21.7731 17.8567 21.676 17.863 21.5977 17.9116C21.2577 18.1264 21.724 18.435 21.8903 18.555ZM22.9486 19.3384C23.0194 19.3899 23.1069 19.4356 23.1903 19.4093C23.4143 19.3401 23.0246 18.9607 22.8326 19.0824C22.6971 19.1681 22.8829 19.291 22.9486 19.3384Z" fill="#095DA4"/>
<path d="M14.2042 7.63366C14.2705 7.51824 14.4385 7.59081 14.4139 8.14566C14.4111 8.21309 14.3939 8.28852 14.3122 8.28738C14.2653 8.28738 14.2185 8.26452 14.1968 8.22338C14.1751 8.18166 14.1768 8.12738 14.1716 8.08166C14.1562 7.94681 14.1356 7.75252 14.2042 7.63366ZM14.6671 8.16166C14.6899 8.12166 14.7213 8.11938 14.7488 8.14166C14.8333 8.21024 14.8231 8.45881 14.8196 8.53424C14.8173 8.58281 14.8053 8.63824 14.7453 8.63709C14.7122 8.63709 14.6773 8.62052 14.6619 8.59024C14.6459 8.56052 14.6476 8.52052 14.6436 8.48738C14.6322 8.38966 14.6173 8.24795 14.6671 8.16166Z" fill="#E2212E"/>
<path d="M8.20788 14.976L8.06788 13.6606L6.28217 13.8743C6.19074 13.8886 6.17017 13.7435 6.2656 13.7326C8.09531 13.5212 8.18845 13.452 8.20274 13.5732L8.35017 14.9606C8.35988 15.0549 8.21817 15.0703 8.20788 14.976Z" fill="#19345D"/>
<path d="M12.4603 18.0195L13.1317 16.5372C13.1694 16.452 13.3014 16.5086 13.262 16.596L12.5906 18.0789C12.5517 18.1646 12.4214 18.1058 12.4603 18.0195Z" fill="black"/>
<path d="M19.9728 22.623C21.9368 23.6116 21.9243 23.5213 22.7557 23.635C23.542 23.743 23.4848 23.8482 23.6066 23.8293C23.7037 23.8145 23.7934 23.707 24.0226 23.867C24.2111 23.9985 24.278 24.1482 24.218 24.4282C24.0066 25.4099 22.4848 26.5282 20.5374 26.227C19.7963 26.1128 19.2214 25.7642 18.6174 25.3322C16.1323 23.5579 13.6797 21.7248 11.0906 20.1093C7.94314 18.1345 2.83856 15.1602 2.45513 14.647C1.99799 14.0356 2.53913 13.4493 3.17628 13.4048C4.05285 13.3436 4.69856 14.1248 5.39913 14.5305C7.45456 15.719 18.614 21.9396 19.9728 22.623Z" fill="#19345D"/>
<path d="M23.5648 25.1949C22.7545 25.812 21.6734 26.0195 20.6848 25.8698C19.9419 25.7543 19.3677 25.4069 18.7648 24.9726C16.2791 23.2012 13.8282 21.368 11.2374 19.7515C8.06022 17.7566 2.99851 14.8143 2.60022 14.2898C2.14022 13.668 2.70308 13.04 3.43051 13.04C4.25508 13.0498 4.8728 13.7783 5.54822 14.1738C6.50822 14.7286 7.4688 15.2738 8.44365 15.8098C16.3894 20.2086 20.4877 22.6452 22.0694 23.1389C22.7077 23.3349 24.0825 23.1892 24.2214 24.0943C24.2894 24.5526 23.8888 24.948 23.5654 25.1943L23.5648 25.1949Z" fill="#095DA4"/>
<path d="M24.1013 23.7806C23.6236 24.1909 22.9818 24.4223 22.3498 24.4898C20.6367 24.6686 19.0013 23.8143 17.5053 22.9509C13.4184 20.5909 9.48126 17.9852 5.54412 15.3852C5.00355 15.028 4.46355 14.6663 3.98069 14.2366C3.62069 13.9052 3.29212 13.508 3.43098 13.04C4.25555 13.0498 4.87326 13.7783 5.54869 14.1738C6.50869 14.7286 7.46926 15.2738 8.44412 15.8098C16.3898 20.2086 20.4881 22.6452 22.0698 23.1389C22.6201 23.308 23.7201 23.2212 24.1013 23.7806Z" fill="#28B6F4"/>
<path d="M6.32626 14.7012C5.82512 15.2246 6.07198 14.98 5.63598 15.2417C5.53655 15.3017 5.45598 15.3577 5.39598 15.5275C5.35198 15.6532 5.27884 15.8629 5.42284 15.9486L7.46912 17.1715C7.50086 17.1904 7.53787 17.1986 7.57463 17.1948C7.6114 17.1909 7.64594 17.1754 7.67312 17.1503L8.77198 16.1475C8.7836 16.1368 8.79248 16.1234 8.79789 16.1086C8.8033 16.0937 8.80507 16.0778 8.80305 16.0621C8.80104 16.0465 8.7953 16.0315 8.78631 16.0185C8.77733 16.0055 8.76536 15.9949 8.75141 15.9875L6.32626 14.7012Z" fill="#E2212E"/>
<path d="M6.42562 14.3779L5.48562 15.3591C5.46768 15.3777 5.45416 15.4 5.44609 15.4246C5.43801 15.4491 5.43559 15.4752 5.439 15.5008C5.4424 15.5264 5.45155 15.5509 5.46576 15.5725C5.47997 15.594 5.49887 15.6121 5.52105 15.6254L7.56791 16.8482C7.59965 16.8672 7.63666 16.8753 7.67342 16.8715C7.71018 16.8677 7.74473 16.8521 7.77191 16.8271L8.97419 15.7299L6.42562 14.3779Z" fill="#F72F43"/>
<path d="M10.0477 16.999C9.80312 17.255 9.87398 17.2287 9.61912 17.339C9.20312 17.519 9.11055 17.7076 9.06884 18.019C9.05627 18.1116 9.05398 18.1922 9.14427 18.2459L11.1911 19.4687C11.2227 19.4876 11.2596 19.4958 11.2962 19.4921C11.3329 19.4884 11.3674 19.473 11.3946 19.4482L12.4934 18.4453C12.5051 18.4346 12.514 18.4214 12.5194 18.4065C12.5249 18.3917 12.5267 18.3758 12.5247 18.3601C12.5228 18.3445 12.5171 18.3295 12.5082 18.3165C12.4992 18.3035 12.4873 18.2928 12.4734 18.2853L10.0477 16.999Z" fill="#E2212E"/>
<path d="M10.1555 16.6182L9.21553 17.5993C9.19772 17.6179 9.18433 17.6403 9.17637 17.6648C9.1684 17.6893 9.16606 17.7153 9.16952 17.7408C9.17298 17.7664 9.18215 17.7908 9.19635 17.8123C9.21055 17.8338 9.22941 17.8518 9.25153 17.865L11.2984 19.0879C11.3301 19.1069 11.367 19.1152 11.4038 19.1115C11.4406 19.1077 11.4751 19.0923 11.5024 19.0673L12.7047 17.9702L10.1555 16.6182Z" fill="#F72F43"/>
<path d="M12.9982 18.0726C12.7422 18.2897 12.4531 18.4006 12.1154 18.444C11.3108 18.5428 10.2754 18.356 9.69822 17.8411C9.26679 17.4537 9.06565 16.856 8.72793 16.4366C8.07936 15.5931 8.23193 16.5371 7.69993 16.2246C7.26679 15.9954 7.03536 15.872 6.87022 15.7514C6.77251 15.6828 6.23936 15.3223 6.16565 15.1388C6.16565 15.1343 6.16108 15.1343 6.16108 15.1291C6.09079 14.9686 6.21879 14.7857 6.28679 14.6417C6.41708 14.3514 6.34508 14.2297 6.40222 14.0388C6.43651 13.9377 6.51308 13.8457 6.61422 13.8457L12.8771 16.9628C12.9548 17.1943 13.0314 17.4257 13.1136 17.6526C13.1719 17.828 13.1765 17.9194 12.9982 18.0726Z" fill="black"/>
<path d="M13.1477 17.7832C13.1717 17.8998 13.0872 17.9964 12.9986 18.0724C12.7426 18.2895 12.4534 18.4004 12.1157 18.4438C11.3112 18.5427 10.2757 18.3558 9.69859 17.8409C9.26716 17.4535 9.06602 16.8558 8.7283 16.4364C8.07973 15.5929 8.2323 16.5369 7.7003 16.2244C7.26716 15.9952 7.03573 15.8718 6.87059 15.7512C6.77287 15.6827 6.23973 15.3221 6.16602 15.1387C6.18544 15.0518 6.24316 14.9649 6.33002 14.9358C6.37919 14.9237 6.43055 14.9237 6.47973 14.9358C6.83687 14.9941 7.12144 15.2592 7.42544 15.4524C7.72487 15.6455 8.08144 15.7564 8.35173 15.9832C8.92944 16.4678 9.51573 17.6009 10.8317 18.0821C11.5266 18.3427 12.3569 18.3232 12.9746 17.9129C13.0374 17.8747 13.0946 17.8312 13.1483 17.7827L13.1477 17.7832Z" fill="#19345D"/>
<path d="M13.1631 17.6142C13.0568 17.7445 12.8059 17.7925 12.6517 17.841C12.1145 18.0159 11.8648 18.0468 11.3008 17.9085C9.21908 17.4079 8.6048 16.0336 8.23223 15.6359C7.96651 15.3605 7.60937 15.3273 7.28594 15.1485C6.99337 14.9856 6.55337 14.8365 6.37394 14.4102C6.17623 13.9702 6.3928 13.4256 6.40308 12.905C6.40994 12.4593 6.41108 12.2325 6.40308 12.0216C6.36137 11.1445 6.27794 10.6216 6.30651 9.93762C6.32194 9.75476 6.31165 9.56276 6.53794 9.52733C6.70594 9.49705 6.83337 9.57705 7.3008 9.7639C7.30994 9.76848 7.31508 9.76847 7.3248 9.77305C7.45051 9.82619 7.6048 9.87476 7.71051 9.7879C7.7928 9.72505 7.80194 9.60447 7.81223 9.50333C7.8208 9.21533 7.71337 9.00848 8.11623 8.89019C8.40537 8.81305 8.71451 8.82276 9.01337 8.7599C9.12937 8.73133 9.2448 8.69705 9.3608 8.70676C9.49565 8.71819 9.63108 8.8119 9.63108 8.94333V8.95305C9.63108 9.00619 9.62423 9.09076 9.6648 9.13133C9.6888 9.16048 9.71794 9.17019 9.75165 9.17019C9.88023 9.20505 10.0945 9.10733 10.0945 9.46905C10.0945 10.9228 10.0722 12.193 10.1134 12.3885C10.1785 12.7125 10.4557 13.005 10.5722 13.2376C10.6339 13.377 10.6059 13.325 10.6248 13.3822C11.1688 15.3948 11.9625 15.0988 12.6899 15.8913C13.0282 16.2513 13.1071 16.6462 13.1968 16.9142C13.2597 17.1508 13.3179 17.4256 13.1631 17.6142Z" fill="#FF9F1C"/>
<path d="M7.44016 11.1431C7.43045 11.4345 7.24016 11.7911 6.9533 11.7997C6.76302 11.8082 6.50016 11.5997 6.36931 11.4619C6.33502 10.9774 6.28359 10.4848 6.30645 9.93737C6.32188 9.75451 6.31159 9.56251 6.53788 9.52708C6.67331 9.50308 6.80816 9.5608 6.93388 9.61394C7.05388 9.66194 7.17959 9.71508 7.30073 9.76365C7.09331 10.2608 7.46302 10.6579 7.44016 11.1431ZM13.1967 16.9145C13.0184 17.2134 12.6996 17.4162 12.367 17.5077C11.9956 17.6139 11.6047 17.5945 11.223 17.5465C9.04588 17.2608 9.10988 15.6602 7.71045 14.9939C7.35331 14.8248 6.93331 14.7282 6.69273 14.4197C6.59102 14.2939 6.53845 14.0962 6.65388 13.9854C6.83445 13.8048 7.34302 14.0082 7.69159 14.0482C8.71216 14.1688 9.69445 13.3014 10.6247 13.3819C11.1687 15.3945 11.9624 15.0985 12.6899 15.8911C13.0282 16.2511 13.107 16.6465 13.1967 16.9145Z" fill="#FFCA28"/>
<path d="M9.6306 8.94333V8.95305C9.47631 9.04447 9.28317 9.0879 9.1386 9.19419C8.84031 9.40448 8.86603 9.72219 8.19288 9.94676C7.73231 10.1005 7.63745 10.0165 6.8706 9.76847C6.67746 9.70676 6.48774 9.64733 6.32031 9.76847C6.33517 9.65762 6.38317 9.5559 6.52831 9.5319C6.53288 9.52733 6.53288 9.52733 6.53746 9.52733C6.68888 9.50048 6.78088 9.5519 7.32431 9.77305C7.45003 9.82619 7.60431 9.87476 7.71003 9.7879C7.79231 9.72505 7.80146 9.60447 7.81174 9.50333C7.82031 9.21533 7.71288 9.00848 8.11574 8.89019C8.42946 8.80619 8.78088 8.81819 9.01288 8.7599C9.12888 8.73133 9.24431 8.69705 9.36031 8.70676C9.49517 8.71819 9.6306 8.8119 9.6306 8.94333Z" fill="#19345D"/>
<path d="M9.97324 13.334C9.4841 13.2757 9.05724 13.5568 8.60296 13.6911C8.21896 13.8111 7.44867 13.8757 7.0881 13.7008C6.74067 13.5317 6.55267 13.146 6.40296 12.798C6.40753 12.5397 6.41267 12.2774 6.40296 12.0214L6.38867 11.7174C6.90924 12.082 6.96696 12.3517 7.18467 12.3882C7.32924 12.4111 7.52239 12.3008 7.59039 12.0505C7.65382 11.7631 7.53896 11.0162 7.49324 10.6705C7.47896 10.55 7.45953 10.4248 7.40639 10.3185C7.37781 10.2557 7.33896 10.1882 7.3681 10.1254C7.41839 10.0374 7.70696 9.96825 7.80696 9.95168C7.86981 9.94196 7.92753 9.93739 7.98581 9.91739C8.17439 9.84996 8.50067 9.4711 8.62239 9.29567C8.7721 9.08767 8.92182 8.83225 9.17724 8.8031C9.33153 8.78539 9.57096 8.87339 9.61667 8.9191C9.62124 8.92367 9.63096 8.93339 9.63096 8.9431C9.63096 8.97282 9.62639 9.05396 9.64067 9.0831C9.63496 9.19396 9.59324 9.26882 9.61667 10.0048C9.71839 12.9877 9.70239 12.0585 10.1138 13.1557C10.1424 13.2471 10.0698 13.3437 9.97324 13.334Z" fill="#E2212E"/>
<path d="M10.5725 13.2374C10.5309 13.2446 10.4884 13.2446 10.4468 13.2374C10.32 13.2248 10.2714 13.1671 10.2154 13.0545C9.61538 11.9676 9.81938 11.5048 9.81938 10.5596C9.81938 10.2562 9.79538 10.0328 9.75195 9.16992C9.83138 9.19164 9.8651 9.16421 9.9691 9.19849H9.97367C10.1411 9.26421 10.0897 9.45221 10.0897 9.99506V11.3608C10.0897 12.5494 10.0497 12.4339 10.4857 13.0876C10.5142 13.1362 10.5485 13.1848 10.5725 13.2374Z" fill="#E2212E"/>
<path d="M10.7935 18.5802C11.2724 17.2168 11.2324 17.2317 11.2929 17.2088L13.1707 16.4991C13.2621 16.4677 13.3078 16.6002 13.2209 16.6328L11.3747 17.3305L10.9289 18.6271C10.8981 18.7162 10.7632 18.67 10.7935 18.5802ZM6.30895 15.802L6.20323 13.8077C6.19866 13.7122 6.34038 13.7054 6.34609 13.7997L6.4518 15.794C6.45695 15.89 6.31466 15.8968 6.30895 15.802Z" fill="black"/>
<path d="M11.1255 16.4414C11.0632 16.4414 11.0035 16.4166 10.9594 16.3726C10.9154 16.3286 10.8906 16.2688 10.8906 16.2065C10.8906 16.1442 10.9154 16.0845 10.9594 16.0405C11.0035 15.9964 11.0632 15.9717 11.1255 15.9717C11.1878 15.9717 11.2475 15.9964 11.2916 16.0405C11.3356 16.0845 11.3603 16.1442 11.3603 16.2065C11.3603 16.2688 11.3356 16.3286 11.2916 16.3726C11.2475 16.4166 11.1878 16.4414 11.1255 16.4414ZM11.1255 16.0288C11.1013 16.0274 11.077 16.031 11.0542 16.0394C11.0314 16.0477 11.0106 16.0606 10.9929 16.0772C10.9753 16.0939 10.9613 16.114 10.9517 16.1363C10.9421 16.1586 10.9371 16.1826 10.9371 16.2068C10.9371 16.2311 10.9421 16.2551 10.9517 16.2774C10.9613 16.2997 10.9753 16.3197 10.9929 16.3364C11.0106 16.3531 11.0314 16.366 11.0542 16.3743C11.077 16.3826 11.1013 16.3862 11.1255 16.3848C11.1709 16.3822 11.2137 16.3624 11.245 16.3293C11.2763 16.2962 11.2937 16.2524 11.2937 16.2068C11.2937 16.1613 11.2763 16.1175 11.245 16.0844C11.2137 16.0513 11.1709 16.0314 11.1255 16.0288Z" fill="#095DA4"/>
<path d="M10.8433 16.7882C11.0102 16.7882 11.1456 16.6528 11.1456 16.4859C11.1456 16.3189 11.0102 16.1836 10.8433 16.1836C10.6764 16.1836 10.541 16.3189 10.541 16.4859C10.541 16.6528 10.6764 16.7882 10.8433 16.7882Z" fill="#19345D"/>
<path d="M10.1067 15.4623C10.1202 15.4015 10.1571 15.3485 10.2093 15.3146C10.2616 15.2807 10.3251 15.2687 10.3861 15.2811C10.4316 15.291 10.4733 15.3141 10.5057 15.3475C10.5382 15.381 10.56 15.4233 10.5684 15.4691C10.5769 15.515 10.5715 15.5623 10.5531 15.6051C10.5347 15.6479 10.504 15.6843 10.4649 15.7097C10.4258 15.7348 10.38 15.7478 10.3335 15.747C10.287 15.7462 10.2417 15.7317 10.2035 15.7052C10.1652 15.6788 10.1355 15.6416 10.1183 15.5984C10.1011 15.5552 10.097 15.5078 10.1067 15.4623ZM10.1627 15.4743C10.1566 15.5028 10.1578 15.5324 10.1659 15.5604C10.174 15.5885 10.1889 15.614 10.2093 15.6349C10.2296 15.6558 10.2548 15.6714 10.2826 15.6802C10.3104 15.6891 10.34 15.691 10.3687 15.6857C10.3974 15.6804 10.4243 15.6682 10.4472 15.65C10.47 15.6319 10.488 15.6084 10.4996 15.5816C10.5112 15.5548 10.516 15.5256 10.5137 15.4965C10.5113 15.4675 10.5018 15.4394 10.4861 15.4149C10.4669 15.3854 10.4394 15.3624 10.4071 15.3485C10.3748 15.3347 10.3392 15.3307 10.3046 15.337C10.2701 15.3434 10.2381 15.3598 10.2129 15.3842C10.1876 15.4086 10.1702 15.44 10.1627 15.4743Z" fill="#095DA4"/>
<path d="M10.0035 16.0284C10.1704 16.0284 10.3057 15.8931 10.3057 15.7261C10.3057 15.5592 10.1704 15.4238 10.0035 15.4238C9.83651 15.4238 9.70117 15.5592 9.70117 15.7261C9.70117 15.8931 9.83651 16.0284 10.0035 16.0284Z" fill="#19345D"/>
<path d="M9.68966 14.9503C9.65297 14.9501 9.61684 14.9414 9.58414 14.9247C9.55143 14.9081 9.52305 14.8841 9.50126 14.8546C9.47946 14.8251 9.46484 14.7909 9.45856 14.7547C9.45228 14.7186 9.45452 14.6815 9.46509 14.6463C9.4778 14.6046 9.50186 14.5672 9.53458 14.5384C9.5673 14.5095 9.6074 14.4903 9.6504 14.4829C9.6934 14.4755 9.73761 14.4802 9.77809 14.4965C9.81858 14.5127 9.85375 14.5399 9.87967 14.575C9.9056 14.6101 9.92126 14.6517 9.92491 14.6952C9.92856 14.7387 9.92006 14.7823 9.90035 14.8213C9.88065 14.8602 9.85051 14.8929 9.8133 14.9157C9.7761 14.9385 9.73329 14.9505 9.68966 14.9503ZM9.63823 14.8858C9.68347 14.8996 9.73233 14.8948 9.77407 14.8726C9.81581 14.8504 9.84701 14.8124 9.8608 14.7672C9.87459 14.722 9.86985 14.6731 9.84761 14.6314C9.82538 14.5896 9.78747 14.5584 9.74223 14.5446C9.5188 14.4726 9.41252 14.8161 9.63823 14.8858Z" fill="#095DA4"/>
<path d="M9.33939 15.2022C9.50634 15.2022 9.64168 15.0669 9.64168 14.8999C9.64168 14.733 9.50634 14.5977 9.33939 14.5977C9.17245 14.5977 9.03711 14.733 9.03711 14.8999C9.03711 15.0669 9.17245 15.2022 9.33939 15.2022Z" fill="#19345D"/>
<path d="M11.1687 16.1565C11.1058 16.0599 11.2441 15.8965 11.2978 15.8233C11.4624 15.597 11.6658 15.3833 11.9264 15.2776C11.9584 15.261 11.9847 15.3159 11.9481 15.3302C11.6721 15.4439 11.4853 15.6656 11.3161 15.8942C11.2778 15.9445 11.1824 16.073 11.2167 16.1256C11.3304 16.297 12.0178 15.7033 12.5418 15.7302C12.5778 15.7319 12.5784 15.7873 12.5407 15.7873C12.4184 15.8113 12.4127 15.7062 11.551 16.1296C11.4778 16.1644 11.2453 16.2725 11.1687 16.1565ZM10.4938 15.521H10.491C10.411 15.5199 10.3624 15.4833 10.351 15.4033C10.2916 15.033 10.8424 14.7136 11.2116 14.6519C11.2573 14.6547 11.2538 14.7033 11.2213 14.709C10.8853 14.7644 10.355 15.0605 10.4076 15.3947C10.415 15.4445 10.4321 15.4599 10.4938 15.4644C10.5978 15.4644 10.6956 15.3982 10.7818 15.3405C11.0093 15.1879 11.3281 14.9942 11.5933 15.0587C11.6281 15.0673 11.6173 15.1227 11.579 15.1142C11.3413 15.0513 11.0161 15.2525 10.8133 15.3879C10.7207 15.4507 10.615 15.521 10.4938 15.521ZM9.82298 14.7507L9.81155 14.7502C9.65727 14.7365 9.66355 14.4782 9.77155 14.3176C9.84584 14.205 9.96012 14.1285 10.0396 14.0805C10.2813 13.933 10.5676 13.8462 10.8281 13.9622C10.8624 13.9776 10.8396 14.029 10.8053 14.0142C10.5624 13.9056 10.2956 13.9913 10.0687 14.1296C9.90641 14.2279 9.75441 14.3645 9.74984 14.5565C9.74984 14.5953 9.75441 14.6879 9.81669 14.693C9.87155 14.6987 10.0516 14.6279 10.1224 14.5885C10.1493 14.5736 10.175 14.5576 10.2013 14.5416C10.4276 14.4022 10.7418 14.273 11.0018 14.3376C11.0384 14.3467 11.0247 14.4039 10.9881 14.3936C10.7687 14.3364 10.4807 14.445 10.3007 14.549C10.2093 14.5987 10.1116 14.6827 9.88812 14.7404C9.8669 14.7465 9.84503 14.7499 9.82298 14.7507ZM10.0693 13.0342C9.88641 13.097 9.67384 13.049 9.48069 13.0925C9.34069 13.121 9.22012 13.1987 9.09498 13.2662C8.47669 13.5953 7.40698 13.7044 7.01041 13.1456C6.90926 13.0004 6.87555 12.7833 7.00069 12.6627C7.06812 12.5953 7.16469 12.5759 7.25669 12.5427C8.01784 12.2399 7.95841 11.1222 8.10069 10.5444C8.31041 9.72159 8.95441 9.12616 9.32184 9.03474C9.42755 9.01016 9.54355 9.01016 9.63498 9.05874C9.63498 9.06845 9.63498 9.07302 9.64012 9.08274C9.63441 9.19359 9.59269 9.26845 9.61612 10.0044C9.70984 12.7587 9.68355 12.1119 10.0693 13.0347V13.0342Z" fill="#F72F43"/>
<path d="M10.4845 13.0878C10.4793 13.0878 10.4696 13.0878 10.4651 13.0832C10.2719 12.9935 9.95078 12.5598 9.91478 11.8432C9.89078 11.4569 9.93878 11.0712 9.95821 10.6849C10.0228 9.61122 9.8422 9.38779 9.96792 9.19922H9.97249C10.1399 9.26436 10.0885 9.45236 10.0885 9.99522V11.3609C10.0885 12.5495 10.0485 12.4341 10.4845 13.0878Z" fill="#F72F43"/>
<path d="M8.94906 8.76953C8.79992 8.9941 8.3822 9.1701 8.17763 9.43525C8.0662 9.58039 7.98906 9.76382 7.82963 9.85067C7.5382 10.0067 7.18392 9.77639 6.95192 9.69067C6.75877 9.61867 6.62906 9.62953 6.53649 9.54667C6.53192 9.54153 6.52734 9.53696 6.52734 9.53182C6.53192 9.52725 6.53192 9.52725 6.53649 9.52725C6.68792 9.50039 6.77992 9.55182 7.32334 9.77296C7.44906 9.8261 7.60334 9.87467 7.70906 9.78782C7.79134 9.72496 7.80049 9.60439 7.81077 9.50325C7.81934 9.21525 7.71192 9.00839 8.11477 8.8901C8.38449 8.8181 8.66906 8.82267 8.94906 8.7701V8.76953Z" fill="#095DA4"/>
<path d="M10.8432 16.6629C10.941 16.6629 11.0203 16.5836 11.0203 16.4857C11.0203 16.3879 10.941 16.3086 10.8432 16.3086C10.7453 16.3086 10.666 16.3879 10.666 16.4857C10.666 16.5836 10.7453 16.6629 10.8432 16.6629Z" fill="black"/>
<path d="M10.0033 15.9031C10.1011 15.9031 10.1805 15.8238 10.1805 15.726C10.1805 15.6281 10.1011 15.5488 10.0033 15.5488C9.90548 15.5488 9.82617 15.6281 9.82617 15.726C9.82617 15.8238 9.90548 15.9031 10.0033 15.9031Z" fill="black"/>
<path d="M9.3373 15.0779C9.43513 15.0779 9.51444 14.9986 9.51444 14.9008C9.51444 14.8029 9.43513 14.7236 9.3373 14.7236C9.23947 14.7236 9.16016 14.8029 9.16016 14.9008C9.16016 14.9986 9.23947 15.0779 9.3373 15.0779Z" fill="black"/>
<path d="M8.6292 14.9169C8.6612 14.854 8.63662 14.698 8.52291 14.5997C8.44291 14.5311 8.29891 14.5551 8.32805 14.6809C8.36348 14.8329 8.55948 15.054 8.6292 14.9169ZM8.64291 14.4134C8.64849 14.4007 8.65047 14.3867 8.64862 14.3729C8.6372 14.2197 8.47434 14.2054 8.49605 14.298C8.5132 14.3723 8.60862 14.4803 8.64291 14.4134Z" fill="#FF9F1C"/>
<path d="M16.4154 21.5366C16.5932 21.6646 16.8132 21.78 17.0223 21.7155C17.1852 21.6646 17.2417 21.5389 17.1446 21.3538C16.9046 20.8972 16.3377 20.7578 16.1234 20.8932C15.7829 21.108 16.2492 21.4172 16.4154 21.5366ZM17.4743 22.32C17.5452 22.3709 17.6326 22.4172 17.7154 22.3909C17.9394 22.3218 17.5503 21.9423 17.3577 22.064C17.2223 22.1492 17.408 22.2726 17.4743 22.32Z" fill="#095DA4"/>
<path d="M8.72939 10.6151C8.73835 10.5967 8.75324 10.5818 8.77168 10.5728C8.82025 10.554 8.86025 10.598 8.88368 10.6477C8.95225 10.7951 8.94654 10.9648 8.93911 11.1277C8.93625 11.1945 8.91968 11.27 8.83739 11.2688C8.79111 11.2682 8.74368 11.246 8.72197 11.2042C8.70025 11.1631 8.70254 11.1088 8.69682 11.0631C8.68139 10.9282 8.66139 10.734 8.72939 10.6151ZM9.19282 11.1431C9.21568 11.1031 9.24711 11.1008 9.27397 11.1231C9.35854 11.1917 9.34825 11.4402 9.34539 11.5157C9.34311 11.5642 9.33054 11.6197 9.27111 11.6185C9.23739 11.6185 9.20254 11.602 9.18711 11.5717C9.17168 11.5414 9.17282 11.502 9.16882 11.4688C9.15739 11.3705 9.14311 11.2294 9.19282 11.1431Z" fill="#E2212E"/>
<path d="M26.6511 19.9018C24.0117 18.5813 23.53 18.1275 21.6523 17.1978C21.002 16.8755 20.3294 16.543 19.7151 16.1121C19.6397 16.0584 19.7163 15.9418 19.7974 15.9944C20.4026 16.4195 21.07 16.7504 21.7157 17.0698C23.5586 17.9807 23.9917 18.411 26.7157 19.7744C26.8003 19.8167 26.734 19.9464 26.6511 19.9018ZM15.5506 8.9344C15.526 8.7424 15.5357 8.54811 15.5449 8.36069C15.5723 7.79154 15.5306 7.04754 15.5666 6.54754C15.5683 6.51097 15.626 6.51326 15.6237 6.55211C15.6077 6.77154 15.6031 6.99497 15.6106 7.21669C15.614 7.30926 15.6026 7.40926 15.6077 7.49783L15.6089 7.51154C15.6306 7.91554 15.5723 8.6504 15.6077 8.9264C15.6123 8.96469 15.5563 8.97097 15.5506 8.9344ZM11.8454 9.83611C11.8809 8.75383 11.7003 7.90811 11.7586 6.81497C11.759 6.80769 11.7622 6.80086 11.7675 6.79587C11.7728 6.79087 11.7799 6.7881 11.7871 6.78811H11.7889C11.7926 6.78833 11.7963 6.78929 11.7997 6.79093C11.8031 6.79257 11.8061 6.79487 11.8086 6.79768C11.8111 6.80049 11.813 6.80377 11.8142 6.80733C11.8154 6.81088 11.8159 6.81465 11.8157 6.8184C11.7574 7.90811 11.938 8.75554 11.9026 9.8384C11.902 9.87554 11.8443 9.8744 11.8454 9.83611ZM6.41457 12.427C6.34771 12.427 6.42086 12.3567 6.34429 11.0744C6.31914 10.6567 6.27514 10.2287 6.29686 9.80411C6.29914 9.76526 6.35629 9.77154 6.354 9.80754C6.32486 10.3801 6.43857 11.0515 6.44314 12.3984C6.44314 12.406 6.44013 12.4132 6.43477 12.4186C6.42942 12.424 6.42215 12.427 6.41457 12.427Z" fill="black"/>
</svg>
