<svg width="32" height="32" viewBox="0 0 32 32" fill="none" xmlns="http://www.w3.org/2000/svg">
<path d="M27.7538 27.883H4.24609C3.55572 27.883 2.99609 27.3234 2.99609 26.633V9.77148C2.99609 9.08111 3.55572 8.52148 4.24609 8.52148H27.7538C28.4442 8.52148 29.0038 9.08111 29.0038 9.77148V26.633C29.0038 27.3234 28.4442 27.883 27.7538 27.883Z" fill="#7C3108"/>
<path d="M27.7538 8.52148V25.383C27.7538 26.0734 27.1942 26.633 26.5038 26.633H2.99609C2.99609 27.3234 3.55572 27.883 4.24609 27.883H27.7538C28.4442 27.883 29.0038 27.3234 29.0038 26.633V9.77148C29.0038 9.08111 28.4442 8.52148 27.7538 8.52148Z" fill="#6D2E03"/>
<path d="M16.4348 19.1567L29.034 14.4786C29.2732 14.3898 29.4795 14.2299 29.6252 14.0204C29.7708 13.8109 29.8489 13.5619 29.8489 13.3067V9.77148C29.8489 9.08111 29.2893 8.52148 28.5989 8.52148H3.40039C2.71002 8.52148 2.15039 9.08111 2.15039 9.77148V13.3069C2.15038 13.562 2.22845 13.8111 2.37412 14.0205C2.51979 14.23 2.72607 14.3899 2.96527 14.4787L15.5645 19.1569C15.8453 19.261 16.154 19.261 16.4348 19.1567Z" fill="#8C3F0A"/>
<path d="M2.90039 12.51C2.83409 12.51 2.7705 12.4836 2.72361 12.4367C2.67673 12.3899 2.65039 12.3263 2.65039 12.26C2.65039 12.1212 2.76164 12.01 2.90039 12.01C2.96669 12.01 3.03028 12.0363 3.07717 12.0832C3.12405 12.1301 3.15039 12.1937 3.15039 12.26C3.15039 12.3263 3.12405 12.3899 3.07717 12.4367C3.03028 12.4836 2.96669 12.51 2.90039 12.51ZM2.90039 11.51C2.83409 11.51 2.7705 11.4836 2.72361 11.4367C2.67673 11.3899 2.65039 11.3263 2.65039 11.26V9.77246C2.65039 9.35871 2.98664 9.02246 3.40039 9.02246H18.3766C18.4429 9.02246 18.5065 9.0488 18.5534 9.09568C18.6003 9.14257 18.6266 9.20616 18.6266 9.27246C18.6266 9.33877 18.6003 9.40235 18.5534 9.44924C18.5065 9.49612 18.4429 9.52246 18.3766 9.52246H3.40039C3.33409 9.52246 3.2705 9.5488 3.22361 9.59568C3.17673 9.64257 3.15039 9.70616 3.15039 9.77246V11.26C3.15039 11.3975 3.03789 11.51 2.90039 11.51ZM17.258 14.5436L16.3048 13.9645C16.2126 13.9085 16.1069 13.8789 15.9991 13.8789C15.8913 13.8789 15.7855 13.9085 15.6934 13.9645L14.7401 14.5436C14.6537 14.5961 14.5823 14.67 14.5327 14.7581C14.4832 14.8462 14.4571 14.9456 14.4571 15.0467V17.1993H17.5409V15.0467C17.541 14.9456 17.515 14.8462 17.4654 14.7581C17.4159 14.6699 17.3444 14.5961 17.258 14.5436ZM14.7403 23.8335L15.6935 24.4126C15.7857 24.4686 15.8914 24.4982 15.9992 24.4982C16.107 24.4982 16.2128 24.4686 16.3049 24.4126L17.2581 23.8335C17.3446 23.781 17.416 23.7071 17.4656 23.619C17.5151 23.5308 17.5412 23.4314 17.5411 23.3303V21.1777H14.4574V23.3303C14.4573 23.4314 14.4833 23.5308 14.5329 23.619C14.5824 23.7071 14.6539 23.781 14.7403 23.8335Z" fill="#995222"/>
<path d="M17.6826 21.1776H14.3184C14.1858 21.1776 14.0586 21.1249 13.9648 21.0311C13.871 20.9374 13.8184 20.8102 13.8184 20.6776V17.6992C13.8184 17.5666 13.871 17.4394 13.9648 17.3457C14.0586 17.2519 14.1858 17.1992 14.3184 17.1992H17.6826C17.8152 17.1992 17.9424 17.2519 18.0362 17.3457C18.1299 17.4394 18.1826 17.5666 18.1826 17.6992V20.6776C18.1826 20.8102 18.1299 20.9374 18.0362 21.0311C17.9424 21.1249 17.8152 21.1776 17.6826 21.1776Z" fill="#FFA91A"/>
<path d="M17.3226 20.6216H14.6777C14.6114 20.6216 14.5478 20.5953 14.501 20.5484C14.4541 20.5015 14.4277 20.4379 14.4277 20.3716V18.0049C14.4277 17.9386 14.4541 17.875 14.501 17.8281C14.5478 17.7812 14.6114 17.7549 14.6777 17.7549H17.3226C17.3889 17.7549 17.4525 17.7812 17.4994 17.8281C17.5463 17.875 17.5726 17.9386 17.5726 18.0049V20.3716C17.5726 20.4379 17.5463 20.5015 17.4994 20.5484C17.4525 20.5953 17.3889 20.6216 17.3226 20.6216Z" fill="#995222"/>
<path d="M15.9998 19.5027C15.9149 19.5027 15.8335 19.469 15.7735 19.409C15.7135 19.3489 15.6797 19.2675 15.6797 19.1826V17.7927C15.682 17.7094 15.7168 17.6302 15.7765 17.5721C15.8363 17.514 15.9164 17.4814 15.9998 17.4814C16.0832 17.4814 16.1633 17.514 16.2231 17.5721C16.2829 17.6302 16.3176 17.7094 16.3199 17.7927V19.1826C16.32 19.2247 16.3117 19.2663 16.2956 19.3051C16.2795 19.344 16.2559 19.3793 16.2262 19.409C16.1965 19.4388 16.1612 19.4623 16.1223 19.4784C16.0835 19.4945 16.0419 19.5028 15.9998 19.5027Z" fill="#FFA91A"/>
<path d="M20.0207 6.51084H11.9805C11.8479 6.51084 11.7207 6.45816 11.6269 6.36439C11.5331 6.27062 11.4805 6.14344 11.4805 6.01084V4.61621C11.4805 4.4836 11.5331 4.35643 11.6269 4.26266C11.7207 4.16889 11.8479 4.11621 11.9805 4.11621H20.0207C20.1533 4.11621 20.2805 4.16889 20.3743 4.26266C20.468 4.35643 20.5207 4.4836 20.5207 4.61621V6.01084C20.5207 6.14344 20.468 6.27062 20.3743 6.36439C20.2805 6.45816 20.1533 6.51084 20.0207 6.51084Z" fill="#8C3F0A"/>
<path d="M20.0207 4.11621H19.2707V4.76084C19.2707 4.89344 19.218 5.02062 19.1243 5.11439C19.0305 5.20816 18.9033 5.26084 18.7707 5.26084H11.4805V6.01084C11.4805 6.14344 11.5331 6.27062 11.6269 6.36439C11.7207 6.45816 11.8479 6.51084 11.9805 6.51084H20.0207C20.1533 6.51084 20.2805 6.45816 20.3743 6.36439C20.468 6.27062 20.5207 6.14344 20.5207 6.01084V4.61621C20.5207 4.4836 20.468 4.35643 20.3743 4.26266C20.2805 4.16889 20.1533 4.11621 20.0207 4.11621Z" fill="#7C3108"/>
<path d="M20.0207 4.11621H19.8957V5.38584C19.8957 5.51844 19.843 5.64562 19.7493 5.73939C19.6555 5.83316 19.5283 5.88584 19.3957 5.88584H11.4805V6.01084C11.4805 6.14344 11.5331 6.27062 11.6269 6.36439C11.7207 6.45816 11.8479 6.51084 11.9805 6.51084H20.0207C20.1533 6.51084 20.2805 6.45816 20.3743 6.36439C20.468 6.27062 20.5207 6.14344 20.5207 6.01084V4.61621C20.5207 4.4836 20.468 4.35643 20.3743 4.26266C20.2805 4.16889 20.1533 4.11621 20.0207 4.11621Z" fill="#6D2E03"/>
<path d="M10.6758 8.52198H11.4794V5.31348H11.1758C11.0432 5.31348 10.916 5.36616 10.8222 5.45992C10.7285 5.55369 10.6758 5.68087 10.6758 5.81348V8.52198Z" fill="#FFA91A"/>
<path d="M11.2294 5.31348V8.27198H10.6758V8.52198H11.4794V5.31348H11.2294Z" fill="#F79219"/>
<path d="M21.323 8.52198H20.5195V5.31348H20.823C20.9556 5.31348 21.0828 5.36616 21.1766 5.45992C21.2704 5.55369 21.323 5.68087 21.323 5.81348V8.52198Z" fill="#FFA91A"/>
<path d="M21.028 5.3584C21.0564 5.42115 21.073 5.49015 21.073 5.5634V8.27177H20.5195V8.52177H21.323V5.8134C21.3229 5.7172 21.295 5.62308 21.2427 5.54236C21.1904 5.46164 21.1158 5.39776 21.028 5.3584Z" fill="#F79219"/>
</svg>
