<svg width="113" height="114" viewBox="0 0 113 114" fill="none" xmlns="http://www.w3.org/2000/svg">
<path d="M100.482 56.8906C100.482 56.9275 100.482 56.9644 100.482 57.0013" stroke="#FEB506" stroke-width="1.96667" stroke-linecap="round"/>
<g opacity="0.0813117">
<path d="M56.5032 2.08008C86.8163 2.08008 111.428 26.692 111.428 57.0051C111.428 87.3182 86.8163 111.93 56.5032 111.93C26.19 111.93 1.57812 87.3182 1.57812 57.0051C1.57812 26.692 26.19 2.08008 56.5032 2.08008Z" fill="#FEB506"/>
<path d="M56.5032 2.08008C86.8163 2.08008 111.428 26.692 111.428 57.0051C111.428 87.3182 86.8163 111.93 56.5032 111.93C26.19 111.93 1.57812 87.3182 1.57812 57.0051C1.57812 26.692 26.19 2.08008 56.5032 2.08008Z" stroke="#FEB506" stroke-width="2.75606"/>
</g>
<path d="M14.5364 64.147C13.4584 64.147 12.4924 63.972 11.6384 63.622C10.7844 63.272 10.0984 62.754 9.58039 62.068C9.07639 61.382 8.81039 60.556 8.78239 59.59H12.6044C12.6604 60.136 12.8494 60.556 13.1714 60.85C13.4934 61.13 13.9134 61.27 14.4314 61.27C14.9634 61.27 15.3834 61.151 15.6914 60.913C15.9994 60.661 16.1534 60.318 16.1534 59.884C16.1534 59.52 16.0274 59.219 15.7754 58.981C15.5374 58.743 15.2364 58.547 14.8724 58.393C14.5224 58.239 14.0184 58.064 13.3604 57.868C12.4084 57.574 11.6314 57.28 11.0294 56.986C10.4274 56.692 9.90939 56.258 9.47539 55.684C9.04139 55.11 8.82439 54.361 8.82439 53.437C8.82439 52.065 9.32139 50.994 10.3154 50.224C11.3094 49.44 12.6044 49.048 14.2004 49.048C15.8244 49.048 17.1334 49.44 18.1274 50.224C19.1214 50.994 19.6534 52.072 19.7234 53.458H15.8384C15.8104 52.982 15.6354 52.611 15.3134 52.345C14.9914 52.065 14.5784 51.925 14.0744 51.925C13.6404 51.925 13.2904 52.044 13.0244 52.282C12.7584 52.506 12.6254 52.835 12.6254 53.269C12.6254 53.745 12.8494 54.116 13.2974 54.382C13.7454 54.648 14.4454 54.935 15.3974 55.243C16.3494 55.565 17.1194 55.873 17.7074 56.167C18.3094 56.461 18.8274 56.888 19.2614 57.448C19.6954 58.008 19.9124 58.729 19.9124 59.611C19.9124 60.451 19.6954 61.214 19.2614 61.9C18.8414 62.586 18.2254 63.132 17.4134 63.538C16.6014 63.944 15.6424 64.147 14.5364 64.147Z" fill="#008223"/>
<path d="M30.1304 49.258V58.078C30.1304 58.96 30.3474 59.639 30.7814 60.115C31.2154 60.591 31.8524 60.829 32.6924 60.829C33.5324 60.829 34.1764 60.591 34.6244 60.115C35.0724 59.639 35.2964 58.96 35.2964 58.078V49.258H38.8874V58.057C38.8874 59.373 38.6074 60.486 38.0474 61.396C37.4874 62.306 36.7314 62.992 35.7794 63.454C34.8414 63.916 33.7914 64.147 32.6294 64.147C31.4674 64.147 30.4244 63.923 29.5004 63.475C28.5904 63.013 27.8694 62.327 27.3374 61.417C26.8054 60.493 26.5394 59.373 26.5394 58.057V49.258H30.1304Z" fill="#008223"/>
<path d="M57.6374 54.004C57.6374 54.858 57.4414 55.642 57.0494 56.356C56.6574 57.056 56.0554 57.623 55.2434 58.057C54.4314 58.491 53.4234 58.708 52.2194 58.708H49.9934V64H46.4024V49.258H52.2194C53.3954 49.258 54.3894 49.461 55.2014 49.867C56.0134 50.273 56.6224 50.833 57.0284 51.547C57.4344 52.261 57.6374 53.08 57.6374 54.004ZM51.9464 55.852C52.6324 55.852 53.1434 55.691 53.4794 55.369C53.8154 55.047 53.9834 54.592 53.9834 54.004C53.9834 53.416 53.8154 52.961 53.4794 52.639C53.1434 52.317 52.6324 52.156 51.9464 52.156H49.9934V55.852H51.9464Z" fill="#008223"/>
<path d="M67.3934 52.135V55.117H72.2024V57.889H67.3934V61.123H72.8324V64H63.8024V49.258H72.8324V52.135H67.3934Z" fill="#008223"/>
<path d="M86.9204 64L83.8544 58.435H82.9934V64H79.4024V49.258H85.4294C86.5914 49.258 87.5784 49.461 88.3904 49.867C89.2164 50.273 89.8324 50.833 90.2384 51.547C90.6444 52.247 90.8474 53.031 90.8474 53.899C90.8474 54.879 90.5674 55.754 90.0074 56.524C89.4614 57.294 88.6494 57.84 87.5714 58.162L90.9734 64H86.9204ZM82.9934 55.894H85.2194C85.8774 55.894 86.3674 55.733 86.6894 55.411C87.0254 55.089 87.1934 54.634 87.1934 54.046C87.1934 53.486 87.0254 53.045 86.6894 52.723C86.3674 52.401 85.8774 52.24 85.2194 52.24H82.9934V55.894Z" fill="#008223"/>
<path d="M102.727 48.733L102.307 58.792H99.2624L98.8424 48.733H102.727ZM100.837 64.168C100.207 64.168 99.6894 63.986 99.2834 63.622C98.8914 63.244 98.6954 62.782 98.6954 62.236C98.6954 61.676 98.8914 61.207 99.2834 60.829C99.6894 60.451 100.207 60.262 100.837 60.262C101.453 60.262 101.957 60.451 102.349 60.829C102.755 61.207 102.958 61.676 102.958 62.236C102.958 62.782 102.755 63.244 102.349 63.622C101.957 63.986 101.453 64.168 100.837 64.168Z" fill="#008223"/>
<path d="M77.3413 93.3953C77.4923 93.4557 77.665 93.4142 77.772 93.2917L79.9622 90.7845L83.0809 91.9491C83.2333 92.006 83.405 91.9604 83.5092 91.8355C83.6133 91.7105 83.6272 91.5334 83.5437 91.3938L81.8361 88.5361L83.9075 85.9299C84.0087 85.8025 84.0184 85.6251 83.9317 85.4875C83.8451 85.3498 83.6809 85.2819 83.5224 85.3181L80.2768 86.059L78.4382 83.2838C78.3484 83.1482 78.1827 83.0841 78.025 83.124C77.8673 83.1639 77.752 83.299 77.7375 83.461L77.4392 86.7767L74.2315 87.6677C74.0748 87.7112 73.9627 87.849 73.9519 88.0113C73.9411 88.1736 74.0339 88.325 74.1835 88.3889L77.2448 89.6971L77.1009 93.0231C77.0939 93.1856 77.1903 93.3349 77.3413 93.3953Z" fill="#FEB405"/>
<path d="M32.5426 92.5914C32.7004 92.6309 32.8659 92.5665 32.9554 92.4307L34.7875 89.651L38.0348 90.3844C38.1934 90.4202 38.3574 90.3519 38.4437 90.214C38.5301 90.0762 38.5199 89.8988 38.4184 89.7717L36.341 87.1704L38.0419 84.3086C38.125 84.1688 38.1107 83.9918 38.0063 83.8671C37.9019 83.7423 37.73 83.6972 37.5778 83.7545L34.4618 84.9263L32.2658 82.4244C32.1584 82.3021 31.9856 82.261 31.8348 82.3218C31.6839 82.3826 31.5879 82.532 31.5953 82.6945L31.7469 86.0201L28.6888 87.3356C28.5393 87.3999 28.4468 87.5515 28.458 87.7138C28.4692 87.876 28.5816 88.0136 28.7385 88.0567L31.9482 88.9401L32.2542 92.2551C32.2692 92.4171 32.3848 92.5519 32.5426 92.5914Z" fill="#FEB405"/>
<path d="M17.2041 32.6475C17.3665 32.6573 17.5173 32.5634 17.5802 32.4134L18.8683 29.3436L22.1951 29.4655C22.3577 29.4715 22.5063 29.3741 22.5657 29.2227C22.6251 29.0713 22.5824 28.8988 22.4592 28.7926L19.9377 26.619L21.0817 23.4927C21.1376 23.3399 21.0909 23.1685 20.9653 23.0652C20.8397 22.9619 20.6625 22.9492 20.5234 23.0336L17.6769 24.76L15.0572 22.7059C14.9292 22.6055 14.7517 22.597 14.6147 22.6845C14.4776 22.7721 14.4108 22.9367 14.448 23.095L15.2103 26.3356L12.4472 28.1925C12.3122 28.2832 12.2492 28.4493 12.2901 28.6067C12.331 28.7642 12.4669 28.8786 12.629 28.8921L15.9466 29.1684L16.8587 32.3701C16.9033 32.5266 17.0418 32.6378 17.2041 32.6475Z" fill="#FEB405"/>
<path d="M57.1034 30.5185C57.2628 30.486 57.3843 30.3565 57.4065 30.1953L57.8601 26.8973L61.106 26.158C61.2646 26.1218 61.3831 25.9895 61.4015 25.8279C61.4199 25.6663 61.3343 25.5107 61.1879 25.4398L58.1915 23.9892L58.4914 20.6736C58.506 20.5117 58.4167 20.3581 58.2687 20.2906C58.1207 20.2232 57.9463 20.2566 57.8336 20.3739L55.528 22.7754L52.4675 21.4656C52.3179 21.4016 52.1443 21.4391 52.0344 21.559C51.9245 21.6789 51.9024 21.8552 51.9792 21.9985L53.5507 24.9334L51.3592 27.4394C51.2522 27.5619 51.2341 27.7386 51.3142 27.8801C51.3943 28.0217 51.555 28.0973 51.7152 28.0685L54.9919 27.4808L56.6981 30.3394C56.7815 30.4791 56.944 30.5509 57.1034 30.5185Z" fill="#FEB405"/>
<path d="M93.6587 36.4358C93.7938 36.3452 93.8571 36.1792 93.8164 36.0217L92.9836 32.7985L95.7055 30.8819C95.8385 30.7882 95.8979 30.6208 95.8535 30.4643C95.8092 30.3078 95.6708 30.1964 95.5085 30.1864L92.1857 29.9824L91.204 26.8014C91.156 26.646 91.0151 26.5378 90.8526 26.5316C90.69 26.5254 90.5413 26.6226 90.4816 26.7739L89.2608 29.871L85.9322 29.8217C85.7695 29.8193 85.6231 29.9199 85.567 30.0725C85.5109 30.2252 85.5573 30.3967 85.6828 30.5002L88.2511 32.6183L87.1756 35.7688C87.123 35.9228 87.1734 36.0931 87.3013 36.1937C87.4291 36.2942 87.6066 36.303 87.7438 36.2157L90.5518 34.4276L93.2158 36.424C93.346 36.5216 93.5236 36.5263 93.6587 36.4358Z" fill="#FEB405"/>
</svg>
