<svg width="32" height="32" viewBox="0 0 32 32" fill="none" xmlns="http://www.w3.org/2000/svg">
<g clip-path="url(#clip0_434_22213)">
<path d="M26.451 31.9323C22.0842 31.1553 15.8526 27.3622 10.0906 21.6032C1.70922 13.2259 -1.99666 4.369 1.18705 1.19424C4.37076 -1.98052 13.2385 1.72904 21.6199 10.1063C27.3818 15.8654 31.1739 22.0911 31.9472 26.4516L26.451 31.9323Z" fill="#FFDC6E"/>
<path d="M21.6196 10.106C14.5376 3.02758 7.10871 -0.718032 3.05469 0.205783C7.25712 0.928069 13.1323 4.45457 18.7866 10.106C24.5485 15.865 28.3406 22.0908 29.1138 26.4513L24.2203 31.331C25.0051 31.6056 25.7519 31.8076 26.4507 31.9319L31.9468 26.4513C31.1736 22.0908 27.3814 15.865 21.6196 10.106Z" fill="#FFCA52"/>
<path d="M2.45444 0.386719C1.96717 0.572602 1.54144 0.840256 1.18674 1.19399C0.832229 1.54754 0.563673 1.97191 0.376953 2.45783L28.1598 30.2277L30.2371 28.1563L2.45444 0.386719Z" fill="#86DF75"/>
<path d="M28.8192 26.7402L26.7422 28.8114L28.1587 30.2279L30.236 28.1564L28.8192 26.7402Z" fill="#3FD14D"/>
<path d="M4.76002 27.0485L5.4702 31.8069C9.8408 31.054 16.0906 27.2954 21.8799 21.5683C30.3013 13.2376 34.0517 4.40431 30.883 1.21223C27.7143 -1.97985 18.8264 1.67787 10.405 10.0086C4.61566 15.7357 0.793948 21.9402 0 26.2962L4.76002 27.0485Z" fill="#ABEEFF"/>
<path d="M30.8822 1.21216C29.844 0.166268 28.1919 -0.144138 26.1434 0.204063C26.905 0.375009 27.5486 0.707886 28.0491 1.21216C31.2178 4.4043 27.4674 13.2375 19.0461 21.5683C14.3722 26.1919 9.39848 29.532 5.35547 31.0439L5.46937 31.8069C9.83998 31.0539 16.0898 27.2953 21.8791 21.5683C30.3005 13.2375 34.0509 4.40424 30.8822 1.21216Z" fill="#6EE2FF"/>
<path d="M10.855 21.0177L14.3673 17.5424L14.3525 17.4422L5.05046 16.1582C4.14042 17.39 3.33694 18.606 2.65039 19.7839L10.8428 20.935L10.855 21.0177ZM10.855 21.0177L12.0596 29.1968C13.2532 28.5157 14.4865 27.7168 15.7361 26.8108L14.3672 17.5424L10.855 21.0177Z" fill="#1371EF"/>
<path d="M15.4469 24.8552C14.3046 25.9273 13.0999 26.7528 11.8203 27.5747L12.0592 29.1964C13.2528 28.5152 14.486 27.7163 15.7356 26.8103L15.4469 24.8552ZM14.5451 18.7492L14.3667 17.542L14.3594 17.5493L14.5451 18.7492Z" fill="#0257C9"/>
<path d="M30.8824 1.21229C30.7662 1.09591 30.6417 0.988083 30.5099 0.889648L4.41968 26.7053C4.39436 26.7302 4.3719 26.758 4.35271 26.7879L4.18164 26.9572L4.75931 27.0485L4.84978 27.6547L31.1925 1.57356C31.0977 1.44606 30.994 1.32534 30.8824 1.21229Z" fill="white"/>
<path d="M30.8834 1.21229C30.7672 1.09591 30.6427 0.988083 30.5109 0.889648L28.8691 2.51412C28.9403 2.73348 29.0631 3.14819 29.1391 3.60752L31.1934 1.57362C31.0987 1.44607 30.9951 1.32533 30.8834 1.21229Z" fill="#E4F3F7"/>
</g>
<defs>
<clipPath id="clip0_434_22213">
<rect width="32" height="32" fill="white"/>
</clipPath>
</defs>
</svg>
