<svg width="42" height="14" viewBox="0 0 42 14" fill="none" xmlns="http://www.w3.org/2000/svg">
<path d="M15.075 12.972L17.1045 1.05811H20.3533L18.32 12.972H15.075Z" fill="#005098"/>
<path d="M30.0994 1.3516C29.4563 1.11001 28.4478 0.851074 27.1885 0.851074C23.9799 0.851074 21.7195 2.46676 21.6996 4.78295C21.6815 6.49445 23.313 7.45023 24.545 8.01986C25.8096 8.60401 26.2346 8.97648 26.2293 9.49801C26.2202 10.2966 25.2191 10.6608 24.2852 10.6608C22.9861 10.6608 22.2956 10.481 21.229 10.0358L20.8111 9.84676L20.3551 12.5141C21.1128 12.8466 22.5154 13.1346 23.9726 13.149C27.3867 13.149 29.6016 11.552 29.627 9.0781C29.6397 7.7237 28.7749 6.69254 26.9016 5.84167C25.766 5.29023 25.0702 4.92273 25.0774 4.36445C25.0774 3.86936 25.666 3.33976 26.9379 3.33976C27.999 3.32298 28.7694 3.55464 29.3672 3.79623L29.6598 3.93386L30.0994 1.3516Z" fill="#005098"/>
<path d="M38.4265 1.06982H35.9172C35.1396 1.06982 34.5582 1.28189 34.2166 2.05776L29.3943 12.9768H32.8047C32.8047 12.9768 33.3608 11.5087 33.4879 11.1862C33.8604 11.1862 37.1727 11.1917 37.6469 11.1917C37.7432 11.6086 38.0412 12.9768 38.0412 12.9768H41.0555L38.4265 1.06982ZM34.4219 8.74964C34.6908 8.06283 35.7157 5.4187 35.7157 5.4187C35.6975 5.45048 35.9828 4.7287 36.1463 4.28132L36.3662 5.30873C36.3662 5.30873 36.9876 8.15273 37.1183 8.74964H34.4219Z" fill="#005098"/>
<path d="M12.3513 1.06689L9.17159 9.19193L8.83184 7.54127C8.24131 5.63702 6.39706 3.5748 4.33484 2.5428L7.24193 12.963L10.6778 12.9585L15.7907 1.06689H12.3513Z" fill="#005098"/>
<path d="M6.22268 1.05957H0.984396L0.944458 1.30716C5.01808 2.29369 7.71443 4.6771 8.83193 7.54116L7.69446 2.06523C7.49824 1.31073 6.92768 1.08591 6.22268 1.05957Z" fill="#F6A500"/>
</svg>
